<svg viewBox="0 0 350 350" xmlns="http://www.w3.org/2000/svg" fill="none" class="size-8"><title>Warp</title><g fill="currentColor" clip-path="url(#warp-icon-clip)"><path d="M341.87 122.39A175.4 175.4 0 0 0 224.76 7.21c21.37 68.74 71.94 110.54 117.11 115.18"></path><path d="m345.73 136.78-.61-2.66C276.82 131.98 208.24 86.83 189.65.61q-7.28-.61-14.72-.62c-12.08 0-23.87 1.22-35.26 3.55 26.94 83.98 123.11 131.57 206.06 133.23z"></path><path d="M348.13 149.95c-118.71-.69-218.72-60.46-249.67-132.4a176 176 0 0 0-53.29 40.03c66.49 57.59 183.26 94.65 303.33 95q-.17-1.32-.37-2.63"></path><path d="M349.68 165.77c-101.84-.05-244.09-15.45-332.26-67.13a174 174 0 0 0-15.43 49.35c97.11 17.89 226.18 20.16 347.78 20.17q-.05-1.19-.09-2.39zM224.85 342.76a175.4 175.4 0 0 0 116.93-114.88c-45.08 4.68-95.52 46.36-116.93 114.88"></path><path d="m345.05 216.13.62-2.66c-82.86 1.68-178.88 49.18-205.93 132.98a176 176 0 0 0 49.96 2.91c18.67-86.02 87.15-131.08 155.35-133.24z"></path><path d="m348.09 200.31.37-2.63c-119.98.35-236.66 37.37-303.16 94.88a176 176 0 0 0 53.26 39.93C129.61 260.66 229.52 201 348.1 200.31z"></path><path d="M349.77 182.11c-121.58 0-250.62 2.28-347.73 20.16a174 174 0 0 0 15.48 49.3c88.17-51.63 230.33-67.02 332.14-67.07q.06-1.19.11-2.38z"></path></g><defs><clipPath id="warp-icon-clip"><path fill="white" d="M0 0h350v350H0z"></path></clipPath></defs></svg>
