<svg width="414" height="72" viewBox="0 0 414 72" fill="none" xmlns="http://www.w3.org/2000/svg">
<path d="M0 34.5H3V37.5H0V34.5Z" fill="white"/>
<path d="M10.5 21H16.5V27H10.5V21Z" fill="white"/>
<path d="M10.5 45H16.5V51H10.5V45Z" fill="white"/>
<path d="M20.5 7H30.5V17H20.5V7Z" fill="white"/>
<path d="M22.5 33H28.5V39H22.5V33Z" fill="white"/>
<path d="M20.5 55H30.5V65H20.5V55Z" fill="white"/>
<path d="M32.5 19H42.5V29H32.5V19Z" fill="white"/>
<path d="M32.5 43H42.5V53H32.5V43Z" fill="white"/>
<path d="M43.5 6H55.5V18H43.5V6Z" fill="white"/>
<path d="M44.5 31H54.5V41H44.5V31Z" fill="white"/>
<path d="M43.5 54H55.5V66H43.5V54Z" fill="white"/>
<path d="M55.5 18H67.5V30H55.5V18Z" fill="white"/>
<path d="M55.5 42H67.5V54H55.5V42Z" fill="white"/>
<path d="M67.5 30H79.5V42H67.5V30Z" fill="white"/>
<path d="M412.271 43.5681H382.773V45.2021H385.525C385.783 55.0921 391.115 61.9721 398.511 61.9721C404.445 61.9721 408.659 59.6501 411.325 54.8341L411.497 54.9201C410.035 62.4021 404.187 67.3041 396.963 67.3041C385.095 67.3041 377.183 59.0481 377.183 46.7501C377.183 34.9681 385.697 25.1641 395.931 25.1641C405.907 25.1641 412.615 32.7321 412.271 43.5681ZM395.329 28.6041C389.997 28.6041 386.471 32.9041 385.697 40.5581H403.843C403.843 33.5921 400.317 28.6041 395.329 28.6041Z" fill="white"/>
<path d="M349.87 35.1402C349.87 32.8182 349.268 32.1303 345.914 30.4963L342.818 29.0343L357.782 25.1642V31.5282C357.352 32.3022 355.976 35.0543 355.632 35.9143V39.5263C358.728 30.9263 364.576 24.9062 370.338 24.9062C374.724 24.9062 377.046 27.8302 377.218 30.7542C377.39 34.1942 375.068 36.1723 372.574 36.3443C370.166 36.4303 367.672 34.5383 367.672 31.7003C367.672 31.0123 368.102 30.0662 368.446 29.8942H369.65V28.4322C364.318 28.1742 359.416 34.2803 357.782 39.3542V58.2742C357.782 61.7142 359.33 63.7783 362.512 64.0363L364.576 64.2083V66.4443H343.076V64.2083L344.882 64.0363C348.322 63.6923 349.87 61.7142 349.87 58.2742V35.1402Z" fill="white"/>
<path d="M339.967 43.5681H310.469V45.2021H313.221C313.479 55.0921 318.811 61.9721 326.207 61.9721C332.141 61.9721 336.355 59.6501 339.021 54.8341L339.193 54.9201C337.731 62.4021 331.883 67.3041 324.659 67.3041C312.791 67.3041 304.879 59.0481 304.879 46.7501C304.879 34.9681 313.393 25.1641 323.627 25.1641C333.603 25.1641 340.311 32.7321 339.967 43.5681ZM323.025 28.6041C317.693 28.6041 314.167 32.9041 313.393 40.5581H331.539C331.539 33.5921 328.013 28.6041 323.025 28.6041Z" fill="white"/>
<path d="M285.611 58.2733V29.4633H278.903V26.0233H285.611V23.4433C285.611 12.2633 292.405 4.69531 302.381 4.69531C308.487 4.69531 313.303 7.87731 313.303 12.0053C313.303 14.4133 311.669 16.3913 309.175 16.3913C306.079 16.3913 304.273 13.8113 304.875 10.3713H306.595C306.595 8.56531 304.875 7.53331 301.779 7.53331C296.533 7.53331 293.523 11.0593 293.523 17.3373V26.0233H304.531V29.4633H290.599V31.0973H293.523V58.2733C293.523 61.8853 295.071 63.7773 298.081 64.0353L300.059 64.2073V66.4433H278.817V64.2073L280.623 64.0353C283.977 63.6913 285.611 61.7993 285.611 58.2733Z" fill="white"/>
<path d="M251.115 35.1402C251.115 32.8182 250.513 32.1303 247.159 30.4963L244.063 29.0343L259.027 25.1642V31.5282C258.597 32.3022 257.221 35.0543 256.877 35.9143V39.5263C259.973 30.9263 265.821 24.9062 271.583 24.9062C275.969 24.9062 278.291 27.8302 278.463 30.7542C278.635 34.1942 276.313 36.1723 273.819 36.3443C271.411 36.4303 268.917 34.5383 268.917 31.7003C268.917 31.0123 269.347 30.0662 269.691 29.8942H270.895V28.4322C265.563 28.1742 260.661 34.2803 259.027 39.3542V58.2742C259.027 61.7142 260.575 63.7783 263.757 64.0363L265.821 64.2083V66.4443H244.321V64.2083L246.127 64.0363C249.567 63.6923 251.115 61.7142 251.115 58.2742V35.1402Z" fill="white"/>
<path d="M241.212 43.5681H211.714V45.2021H214.466C214.724 55.0921 220.056 61.9721 227.452 61.9721C233.386 61.9721 237.6 59.6501 240.266 54.8341L240.438 54.9201C238.976 62.4021 233.128 67.3041 225.904 67.3041C214.036 67.3041 206.124 59.0481 206.124 46.7501C206.124 34.9681 214.638 25.1641 224.872 25.1641C234.848 25.1641 241.556 32.7321 241.212 43.5681ZM224.27 28.6041C218.938 28.6041 215.412 32.9041 214.638 40.5581H232.784C232.784 33.5921 229.258 28.6041 224.27 28.6041Z" fill="white"/>
<path d="M193.063 31.0962V57.2402C193.063 59.9062 194.869 61.5402 197.535 61.5402C200.717 61.5402 202.953 59.7342 204.587 55.9502L204.845 56.0362C203.297 63.3462 199.513 67.1302 193.665 67.1302C188.849 67.1302 185.151 63.7762 185.151 58.6162V29.4622H178.013C183.431 25.9362 189.795 18.4542 193.063 11.6602V26.0222H204.415V29.4622H190.139V31.0962H193.063Z" fill="white"/>
<path d="M139.426 35.1401C139.426 32.8181 138.824 32.1301 135.47 30.4961L132.374 29.0341L147.338 25.1641V30.2381L144.672 33.8501V36.5161L146.392 34.1941C150.52 28.3461 155.68 25.0781 160.84 25.0781C168.322 25.0781 172.708 29.8081 172.708 37.8921V58.2741C172.708 61.8001 174.342 63.6921 177.696 64.0361L179.502 64.2081V66.4441H158.69V64.2081L160.238 64.0361C163.334 63.6921 164.796 61.8001 164.796 58.2741V38.4941C164.796 33.4201 161.958 30.4961 157.056 30.4961C153.53 30.4961 149.918 32.5601 147.338 36.0001V58.2741C147.338 61.8001 148.8 63.6921 151.896 64.0361L153.444 64.2081V66.4441H132.632V64.2081L134.438 64.0361C137.792 63.6921 139.426 61.8001 139.426 58.2741V35.1401Z" fill="white"/>
<path d="M122.7 57.4122C122.7 61.3682 124.764 63.4322 128.806 63.7762L130.784 63.9482V66.4422H105.5V63.9482L107.478 63.7762C111.52 63.4322 113.584 61.3682 113.584 57.4122V15.2722C113.584 11.3162 111.52 9.25219 107.478 8.90819L105.5 8.73619V6.24219H130.784V8.73619L128.806 8.90819C124.764 9.25219 122.7 11.3162 122.7 15.2722V57.4122Z" fill="white"/>
</svg>
