<?xml version="1.0" encoding="UTF-8"?>
<svg id="Layer_2" data-name="Layer 2" xmlns="http://www.w3.org/2000/svg" viewBox="0 0 1230.1 96.93">
  <defs>
    <style>
      .cls-1 {
        fill: #FFFFFF;
      }

      .cls-2 {
        fill: #fff;
      }
    </style>
  </defs>
  <g id="Layer_2-2" data-name="Layer 2">
    <g>
      <g>
        <path d="M0,95.13V1.66h27.65l28.62,55.03h.97L85.73,1.66h27.79v93.47h-18.67V22.81h-1.11l-28.35,54.48h-17.28L19.63,22.81h-1.11v72.32H0Z"/>
        <path d="M207.27,95.13l-7.19-16.46h-52.13l-7.19,16.46h-19.91L163.3,1.66h22.4l42.17,93.47h-20.6ZM155.28,61.81h37.33l-18.25-41.35h-.97l-18.11,41.35Z"/>
        <path d="M235.33,95.13V1.66h24.34l48.4,69.69h1.11V1.66h18.53v93.47h-24.47l-48.26-69.97h-1.11v69.97h-18.53Z"/>
        <path d="M421.58,95.13l-7.19-16.46h-52.13l-7.19,16.46h-19.91L377.61,1.66h22.4l42.17,93.47h-20.6ZM369.59,61.81h37.33l-18.25-41.35h-.97l-18.11,41.35Z"/>
        <path d="M439.42,48.39c0-30.28,22.82-48.26,51.58-48.26,16.18,0,33.74,5.67,42.73,20.33l-14.93,9.4c-6.22-8.57-16.04-12.58-27.93-12.58-20.6,0-32.49,13.14-32.49,31.11s13.69,31.11,35.54,31.11c10.23,0,18.81-2.21,25.17-6.22v-20.05h-27.93v-15.49h45.77v45.22c-12.72,9.12-26.69,13.83-44.66,13.83-31.39,0-52.82-20.88-52.82-48.4Z"/>
        <path d="M554.73,95.13V1.66h77.16v17.15h-58.63v16.32h53.51v17.15h-53.51v25.86h60.15v17.01h-78.68Z"/>
      </g>
      <g>
        <path class="cls-2" d="M0,95.13V1.66h27.65l28.62,55.03h.97L85.73,1.66h27.79v93.47h-18.67V22.81h-1.11l-28.35,54.48h-17.28L19.63,22.81h-1.11v72.32H0Z"/>
        <path class="cls-2" d="M207.27,95.13l-7.19-16.46h-52.13l-7.19,16.46h-19.91L163.3,1.66h22.4l42.17,93.47h-20.6ZM155.28,61.81h37.33l-18.25-41.35h-.97l-18.11,41.35Z"/>
        <path class="cls-2" d="M235.33,95.13V1.66h24.34l48.4,69.69h1.11V1.66h18.53v93.47h-24.47l-48.26-69.97h-1.11v69.97h-18.53Z"/>
        <path class="cls-2" d="M421.58,95.13l-7.19-16.46h-52.13l-7.19,16.46h-19.91L377.61,1.66h22.4l42.17,93.47h-20.6ZM369.59,61.81h37.33l-18.25-41.35h-.97l-18.11,41.35Z"/>
        <path class="cls-2" d="M439.42,48.39c0-30.28,22.82-48.26,51.58-48.26,16.18,0,33.74,5.67,42.73,20.33l-14.93,9.4c-6.22-8.57-16.04-12.58-27.93-12.58-20.6,0-32.49,13.14-32.49,31.11s13.69,31.11,35.54,31.11c10.23,0,18.81-2.21,25.17-6.22v-20.05h-27.93v-15.49h45.77v45.22c-12.72,9.12-26.69,13.83-44.66,13.83-31.39,0-52.82-20.88-52.82-48.4Z"/>
        <path class="cls-2" d="M554.73,95.13V1.66h77.16v17.15h-58.63v16.32h53.51v17.15h-53.51v25.86h60.15v17.01h-78.68Z"/>
      </g>
    </g>
    <g>
      <g>
        <path d="M768.28,76.46l13-11.06c5.95,9.82,17.42,14.93,30.14,14.93,10.79,0,20.33-3.59,20.33-11.61,0-8.71-7.47-11.62-24.61-14.66-16.73-2.9-34.15-8.02-34.15-25.3,0-20.74,19.77-28.76,38.44-28.76,17.42,0,31.11,7.19,39.55,19.77l-14.79,9.4c-5.12-7.88-15.21-12.86-26.27-12.86s-17.84,3.46-17.84,9.68c0,5.53,4.56,7.61,20.88,10.51,19.77,3.6,38.3,9.68,38.3,30.14s-21.02,30.28-40.1,30.28-34.43-6.5-42.87-20.46Z"/>
        <path d="M868.39,95.13V1.66h53.51c17.98,0,30.01,10.92,30.01,26.96s-12.03,26.69-30.01,26.69h-34.98v39.82h-18.53ZM886.91,38.03h35.26c7.19,0,10.79-3.73,10.79-9.54s-3.6-9.68-10.79-9.68h-35.26v19.22Z"/>
        <path d="M1025.32,95.13l-7.19-16.46h-52.13l-7.19,16.46h-19.91L981.35,1.66h22.4l42.17,93.47h-20.6ZM973.33,61.81h37.33l-18.25-41.35h-.97l-18.11,41.35Z"/>
        <path d="M1043.16,48.26c0-27.38,20.46-48.26,50.33-48.26,20.74,0,35.81,8.16,43.83,22.95l-15.07,9.68c-6.22-10.23-14.79-15.21-28.76-15.21-19.5,0-31.39,12.86-31.39,30.84s11.89,31.11,32.63,31.11c13.83,0,24.47-6.22,30.01-15.9l14.1,9.27c-8.16,14.38-24.06,24.06-44.11,24.06-31.11,0-51.58-20.88-51.58-48.53Z"/>
        <path d="M1151.42,95.13V1.66h77.16v17.15h-58.63v16.32h53.51v17.15h-53.51v25.86h60.15v17.01h-78.68Z"/>
      </g>
      <g>
        <path class="cls-2" d="M768.28,76.46l13-11.06c5.95,9.82,17.42,14.93,30.14,14.93,10.79,0,20.33-3.59,20.33-11.61,0-8.71-7.47-11.62-24.61-14.66-16.73-2.9-34.15-8.02-34.15-25.3,0-20.74,19.77-28.76,38.44-28.76,17.42,0,31.11,7.19,39.55,19.77l-14.79,9.4c-5.12-7.88-15.21-12.86-26.27-12.86s-17.84,3.46-17.84,9.68c0,5.53,4.56,7.61,20.88,10.51,19.77,3.6,38.3,9.68,38.3,30.14s-21.02,30.28-40.1,30.28-34.43-6.5-42.87-20.46Z"/>
        <path class="cls-2" d="M868.39,95.13V1.66h53.51c17.98,0,30.01,10.92,30.01,26.96s-12.03,26.69-30.01,26.69h-34.98v39.82h-18.53ZM886.91,38.03h35.26c7.19,0,10.79-3.73,10.79-9.54s-3.6-9.68-10.79-9.68h-35.26v19.22Z"/>
        <path class="cls-2" d="M1025.32,95.13l-7.19-16.46h-52.13l-7.19,16.46h-19.91L981.35,1.66h22.4l42.17,93.47h-20.6ZM973.33,61.81h37.33l-18.25-41.35h-.97l-18.11,41.35Z"/>
        <path class="cls-2" d="M1043.16,48.26c0-27.38,20.46-48.26,50.33-48.26,20.74,0,35.81,8.16,43.83,22.95l-15.07,9.68c-6.22-10.23-14.79-15.21-28.76-15.21-19.5,0-31.39,12.86-31.39,30.84s11.89,31.11,32.63,31.11c13.83,0,24.47-6.22,30.01-15.9l14.1,9.27c-8.16,14.38-24.06,24.06-44.11,24.06-31.11,0-51.58-20.88-51.58-48.53Z"/>
        <path class="cls-2" d="M1151.42,95.13V1.66h77.16v17.15h-58.63v16.32h53.51v17.15h-53.51v25.86h60.15v17.01h-78.68Z"/>
      </g>
    </g>
    <g>
      <g>
        <path d="M657.1,95.86L700.94,2.38h15.9l-43.83,93.47h-15.9Z"/>
        <path d="M691.48,95.85L735.31,2.38h15.9l-43.83,93.47h-15.9Z"/>
      </g>
      <g>
        <path class="cls-1" d="M657.1,95.86L700.94,2.38h15.9l-43.83,93.47h-15.9Z"/>
        <path class="cls-1" d="M691.48,95.85L735.31,2.38h15.9l-43.83,93.47h-15.9Z"/>
      </g>
    </g>
  </g>
</svg>