<svg width="180" height="180" viewBox="0 0 180 180" fill="none" xmlns="http://www.w3.org/2000/svg">
<rect width="180" height="180" fill="#18181A"/>
<path fill-rule="evenodd" clip-rule="evenodd" d="M159.997 61.2667C160.058 63.2159 159.249 64.9497 157.408 65.9741L139.241 76.0758L155.742 85.3565C157.604 86.4034 158.595 88.3813 158.44 90.3561C158.584 92.3912 157.804 94.2215 155.922 95.2819L93.4411 130.239C92.1387 130.972 90.6802 131.293 89.3417 130.925C88.7428 130.761 88.2007 130.56 87.6313 130.239L25.258 95.1599C23.396 94.113 22.4059 92.1321 22.5612 90.1573C22.4172 88.1222 23.1962 86.295 25.0785 85.2345L41.7611 75.8528L23.7754 65.8506C23.2399 65.5523 22.7769 65.1817 22.3885 64.7569C22.2204 64.5958 22.0658 64.4225 21.9278 64.2372C21.7845 64.0459 21.6585 63.8441 21.553 63.6302C21.5017 63.4961 21.4542 63.362 21.4097 63.228L21.3139 62.9839L21.2468 62.7881C21.2151 62.6902 21.1872 62.5908 21.1616 62.4899L21.1193 62.3091C21.0288 61.8933 20.9896 61.4655 21.0032 61.0362C20.9421 59.087 21.7513 57.3531 23.5921 56.3288L87.3847 20.8554C87.9202 20.5571 88.7678 20.2555 89.3417 20.1455C90.1953 19.9813 90.8439 19.9238 91.6583 20.1455C92.2787 20.3144 92.8514 20.655 93.4343 20.9789L157.225 56.4523C157.32 56.5051 157.413 56.5608 157.504 56.6195C157.59 56.6738 157.673 56.7295 157.755 56.7867C157.83 56.841 157.904 56.8967 157.976 56.954C158.207 57.1362 158.419 57.3351 158.613 57.5475C158.763 57.6921 158.901 57.8442 159.027 58.0054C159.189 58.2133 159.33 58.4362 159.447 58.6727C159.498 58.8068 159.545 58.9394 159.59 59.0734C159.88 59.7648 160.021 60.5135 159.997 61.2667ZM37.8397 90.1603L90.5 120.386L143.16 90.3561L128.595 81.9958L93.3958 101.384C92.0633 102.125 91.0792 102.542 89.6313 102.252C89.0038 102.15 88.1871 101.707 87.6042 101.384L52.4787 81.812L37.8397 90.1603Z" fill="white"/>
<path d="M25.5536 118.558C26.9879 116.145 30.1597 115.33 32.6385 116.708L90.5 149.546L148.532 116.826C151.011 115.446 154.503 116.421 155.617 118.676C156.67 121.434 156.177 124.188 153.691 125.57L93.3958 159.019C92.138 159.719 90.9246 160.238 89.6313 159.887C89.5642 159.869 89.1222 159.738 88.7625 159.598C88.58 159.527 88.0061 159.241 87.6042 159.019L27.4819 125.454C24.9933 124.07 24.1162 120.984 25.5536 118.558Z" fill="white"/>
</svg>
