<svg width="23" height="20" viewBox="0 0 23 20" fill="none" xmlns="http://www.w3.org/2000/svg">
<g clip-path="url(#clip0_814_3328)">
<path d="M20.4387 5.92572C20.3927 5.87715 20.3439 5.82858 20.295 5.78286C20.2461 5.73715 20.2001 5.68572 20.1512 5.64001C20.1024 5.59429 20.0564 5.54286 20.0075 5.49715C19.9586 5.45143 19.9126 5.40001 19.8637 5.35429C19.8149 5.30858 19.7689 5.25715 19.72 5.21143C19.6711 5.16572 19.6251 5.11429 19.5762 5.06858C19.5274 5.02286 19.4814 4.97143 19.4325 4.92572C20.8585 6.3185 21.6755 8.21323 21.7066 10.2C21.7066 14.9343 16.8709 18.7857 10.9253 18.7857C7.5961 18.7857 4.6176 17.5772 2.63672 15.6829L2.78047 15.8257L2.92422 15.9686L3.06797 16.1114L3.21172 16.2543L3.35547 16.3972L3.49922 16.54L3.64297 16.6829C5.62097 18.6572 8.6656 19.9286 12.0754 19.9286C18.0209 19.9286 22.8566 16.0772 22.8566 11.3572C22.8566 9.34001 21.9826 7.42858 20.4387 5.92572Z" fill="black"/>
<path d="M20.9883 10.2C20.9883 14.5457 16.4832 18.0686 10.9258 18.0686C5.36841 18.0686 0.863281 14.5457 0.863281 10.2C0.863281 7.50571 2.58828 5.12572 5.23903 3.71429C7.88978 2.30286 9.54003 0.857147 10.9258 0.857147C12.3115 0.857147 13.496 2.03715 16.6125 3.71429C19.2633 5.12572 20.9883 7.50571 20.9883 10.2Z" fill="#FBF0DF"/>
<path d="M20.9876 10.2C20.9862 9.64172 20.9089 9.08621 20.7576 8.54855C19.9728 18.0628 8.2945 18.52 3.70312 15.6743C5.7671 17.2641 8.31408 18.1085 10.9251 18.0686C16.4739 18.0686 20.9876 14.54 20.9876 10.2Z" fill="#F6DECE"/>
<path d="M7.05316 3.19144C8.33828 2.42572 10.046 0.988576 11.725 0.985719C11.4667 0.902747 11.1972 0.859392 10.9258 0.857147C10.23 0.857147 9.48828 1.21429 8.55391 1.75143C8.22903 1.94001 7.89266 2.14858 7.53616 2.36572C6.86628 2.77715 6.09866 3.24286 5.23616 3.70858C2.49916 5.18001 0.863281 7.60572 0.863281 10.2C0.863281 10.3143 0.863281 10.4286 0.863281 10.54C2.60553 4.42286 5.77091 3.95715 7.05316 3.19144Z" fill="#FFFEFC"/>
<path fill-rule="evenodd" clip-rule="evenodd" d="M10.0977 1.58C10.1017 2.25464 9.95917 2.92219 9.67982 3.53707C9.40048 4.15196 8.9909 4.69969 8.47905 5.14286C8.39855 5.21429 8.4618 5.35143 8.5653 5.31143C9.53418 4.93715 10.8423 3.81715 10.2903 1.55715C10.2673 1.42857 10.0977 1.46286 10.0977 1.58ZM10.7503 1.58C11.1021 2.15041 11.3256 2.78967 11.4055 3.45396C11.4854 4.11824 11.4198 4.79185 11.2132 5.42858C11.1787 5.52858 11.3023 5.61429 11.3713 5.53144C12.0009 4.73143 12.5501 3.14286 10.9056 1.42857C10.8222 1.35429 10.6928 1.46857 10.7503 1.56857V1.58ZM11.5438 1.53143C12.0947 1.91902 12.5555 2.4195 12.8953 2.99912C13.235 3.57874 13.4457 4.22402 13.5132 4.89143C13.5103 4.91549 13.5168 4.93973 13.5314 4.95913C13.546 4.97854 13.5675 4.99162 13.5915 4.99566C13.6156 4.9997 13.6403 4.99439 13.6605 4.98084C13.6807 4.96729 13.6948 4.94653 13.7001 4.92286C13.9646 3.92572 13.8151 2.22572 11.6387 1.34286C11.5237 1.29715 11.4489 1.45143 11.5438 1.52V1.53143ZM6.23655 4.50286C6.89184 4.30831 7.49855 3.97878 8.01718 3.53574C8.53581 3.09269 8.95474 2.54606 9.24667 1.93143C9.29842 1.82857 9.4623 1.86857 9.43642 1.98286C8.93905 4.26858 7.27442 4.74572 6.23942 4.68286C6.13017 4.68572 6.13305 4.53429 6.23655 4.50286Z" fill="#CCBEA7"/>
<path d="M10.9258 18.7857C4.98028 18.7857 0.144531 14.9343 0.144531 10.2C0.144531 7.34285 1.92128 4.67713 4.89691 3.07999C5.75941 2.62285 6.49828 2.16285 7.15666 1.75999C7.51891 1.53714 7.86103 1.32857 8.19166 1.13428C9.20078 0.539995 10.0633 0.142853 10.9258 0.142853C11.7883 0.142853 12.5415 0.48571 13.4845 1.03999C13.772 1.20285 14.0595 1.37999 14.3672 1.57428C15.083 2.01428 15.8909 2.51142 16.9547 3.07999C19.9303 4.67713 21.707 7.33999 21.707 10.2C21.707 14.9343 16.8713 18.7857 10.9258 18.7857ZM10.9258 0.857138C10.23 0.857138 9.48828 1.21428 8.55391 1.75142C8.22903 1.93999 7.89266 2.14857 7.53616 2.36571C6.86628 2.77714 6.09866 3.24285 5.23616 3.70856C2.49916 5.17999 0.863281 7.6057 0.863281 10.2C0.863281 14.54 5.37703 18.0714 10.9258 18.0714C16.4745 18.0714 20.9883 14.54 20.9883 10.2C20.9883 7.6057 19.3524 5.17999 16.6125 3.71428C15.5258 3.14285 14.6777 2.60571 13.9905 2.18285C13.6772 1.99142 13.3897 1.81428 13.128 1.65714C12.2569 1.14285 11.6215 0.857138 10.9258 0.857138Z" fill="black"/>
<path d="M12.952 12.2857C12.8228 12.8114 12.5289 13.2827 12.1125 13.6315C11.7999 13.9326 11.3953 14.1216 10.9625 14.1686C10.5167 14.129 10.0979 13.9396 9.77513 13.6315C9.36303 13.2811 9.07317 12.81 8.94713 12.2857C8.94295 12.2546 8.946 12.223 8.95604 12.1932C8.96607 12.1634 8.98283 12.1363 9.00503 12.114C9.02724 12.0916 9.05429 12.0747 9.08412 12.0643C9.11395 12.054 9.14576 12.0505 9.17713 12.0543H12.7249C12.756 12.051 12.7875 12.0548 12.817 12.0653C12.8464 12.0759 12.8731 12.093 12.895 12.1152C12.9168 12.1375 12.9333 12.1644 12.9432 12.194C12.9531 12.2235 12.9561 12.2549 12.952 12.2857Z" fill="#B71422"/>
<path d="M9.77466 13.6543C10.0968 13.9626 10.5141 14.1538 10.9592 14.1971C11.4032 14.1532 11.8194 13.962 12.1408 13.6543C12.2436 13.5591 12.3396 13.4569 12.4283 13.3486C12.2512 13.1489 12.0348 12.9873 11.7926 12.8738C11.5503 12.7603 11.2872 12.6973 11.0195 12.6886C10.7331 12.6953 10.4526 12.7711 10.2022 12.9095C9.95178 13.0479 9.73895 13.2446 9.58203 13.4829C9.64816 13.5429 9.70566 13.6 9.77466 13.6543Z" fill="#FF6164"/>
<path d="M9.82109 13.4286C9.96363 13.2455 10.1461 13.0969 10.3547 12.9939C10.5634 12.891 10.7928 12.8364 11.0257 12.8343C11.4563 12.8469 11.8665 13.0191 12.1757 13.3171C12.2418 13.2457 12.3051 13.1714 12.3655 13.0971C11.9997 12.751 11.5164 12.5541 11.0113 12.5457C10.7415 12.548 10.4754 12.6097 10.2324 12.7263C9.98929 12.8429 9.77521 13.0115 9.60547 13.22C9.67345 13.2934 9.74543 13.363 9.82109 13.4286Z" fill="black"/>
<path d="M10.9512 14.34C10.4722 14.2983 10.0213 14.0969 9.67186 13.7686C9.22683 13.3945 8.91358 12.889 8.77774 12.3257C8.768 12.2756 8.76965 12.2239 8.78259 12.1745C8.79552 12.125 8.8194 12.0791 8.85249 12.04C8.89189 11.9927 8.94164 11.955 8.99795 11.9298C9.05425 11.9045 9.11562 11.8924 9.17736 11.8943H12.7251C12.7868 11.893 12.8479 11.9054 12.9041 11.9306C12.9603 11.9558 13.0102 11.9932 13.05 12.04C13.0828 12.0792 13.1062 12.1253 13.1187 12.1747C13.1311 12.2242 13.1322 12.2758 13.1219 12.3257C12.986 12.889 12.6728 13.3945 12.2277 13.7686C11.879 14.0963 11.4293 14.2977 10.9512 14.34ZM9.17736 12.2257C9.13136 12.2257 9.11986 12.2457 9.11699 12.2514C9.23852 12.7399 9.51343 13.1772 9.90186 13.5C10.1859 13.7781 10.5552 13.9541 10.9512 14C11.3463 13.9546 11.7151 13.7808 12.0006 13.5057C12.3878 13.1824 12.6617 12.7452 12.7826 12.2572C12.7763 12.248 12.7677 12.2408 12.7575 12.2362C12.7474 12.2317 12.7362 12.23 12.7251 12.2314L9.17736 12.2257Z" fill="black"/>
<path d="M15.301 12.4628C16.2299 12.4628 16.9829 12.0228 16.9829 11.48C16.9829 10.9372 16.2299 10.4971 15.301 10.4971C14.3721 10.4971 13.6191 10.9372 13.6191 11.48C13.6191 12.0228 14.3721 12.4628 15.301 12.4628Z" fill="#FEBBD0"/>
<path d="M6.59789 12.4628C7.52677 12.4628 8.27977 12.0228 8.27977 11.48C8.27977 10.9372 7.52677 10.4971 6.59789 10.4971C5.66902 10.4971 4.91602 10.9372 4.91602 11.48C4.91602 12.0228 5.66902 12.4628 6.59789 12.4628Z" fill="#FEBBD0"/>
<path fill-rule="evenodd" clip-rule="evenodd" d="M7.38789 11.0857C7.70132 11.0863 8.00788 10.9944 8.26876 10.8218C8.52965 10.6491 8.73314 10.4035 8.85348 10.1159C8.97382 9.82824 9.0056 9.51161 8.9448 9.20604C8.884 8.90047 8.73336 8.6197 8.51193 8.39924C8.2905 8.17879 8.00824 8.02857 7.70087 7.96759C7.3935 7.90662 7.07484 7.93763 6.78521 8.0567C6.49558 8.17577 6.24801 8.37754 6.07381 8.63649C5.89962 8.89545 5.80664 9.19993 5.80664 9.51142C5.80664 9.92845 5.97314 10.3284 6.2696 10.6236C6.56606 10.9187 6.96825 11.0849 7.38789 11.0857ZM14.5093 11.0857C14.8231 11.088 15.1305 10.9976 15.3925 10.826C15.6545 10.6544 15.8593 10.4093 15.981 10.1218C16.1026 9.83437 16.1357 9.51748 16.0758 9.21135C16.016 8.90522 15.8661 8.62365 15.645 8.40233C15.4239 8.18102 15.1417 8.02995 14.8341 7.96827C14.5265 7.90659 14.2074 7.9371 13.9172 8.05591C13.6271 8.17472 13.379 8.37648 13.2044 8.63561C13.0299 8.89475 12.9366 9.19957 12.9366 9.51142C12.9359 9.9272 13.1009 10.3263 13.3957 10.6214C13.6905 10.9165 14.0909 11.0834 14.5093 11.0857Z" fill="black"/>
<path fill-rule="evenodd" clip-rule="evenodd" d="M6.89889 9.61141C7.01672 9.61197 7.13206 9.57777 7.2303 9.51313C7.32855 9.44848 7.40527 9.35632 7.45076 9.2483C7.49624 9.14028 7.50844 9.02127 7.4858 8.90636C7.46317 8.79145 7.40671 8.6858 7.3236 8.6028C7.24049 8.5198 7.13445 8.46319 7.01893 8.44013C6.90341 8.41708 6.7836 8.42862 6.67469 8.4733C6.56578 8.51798 6.47266 8.59378 6.40714 8.69111C6.34162 8.78843 6.30664 8.90289 6.30664 9.01998C6.30664 9.17634 6.36894 9.32634 6.47993 9.43718C6.59092 9.54801 6.74155 9.61065 6.89889 9.61141ZM14.0203 9.61141C14.1381 9.61197 14.2534 9.57777 14.3517 9.51313C14.4499 9.44848 14.5266 9.35632 14.5721 9.2483C14.6176 9.14028 14.6298 9.02127 14.6072 8.90636C14.5845 8.79145 14.5281 8.6858 14.445 8.6028C14.3619 8.5198 14.2558 8.46319 14.1403 8.44013C14.0248 8.41708 13.905 8.42862 13.7961 8.4733C13.6871 8.51798 13.594 8.59378 13.5285 8.69111C13.463 8.78843 13.428 8.90289 13.428 9.01998C13.428 9.17536 13.4895 9.32451 13.5993 9.43518C13.709 9.54585 13.8582 9.60916 14.0145 9.61141H14.0203Z" fill="white"/>
</g>
<defs>
<clipPath id="clip0_814_3328">
<rect width="23" height="20" fill="white"/>
</clipPath>
</defs>
</svg>
