<svg width="583" height="160" viewBox="0 0 583 160" fill="none" xmlns="http://www.w3.org/2000/svg">
<path fill-rule="evenodd" clip-rule="evenodd" d="M160.058 47.1308C160.128 49.3649 159.201 51.3522 157.094 52.5262L136.298 64.1042L155.187 74.7413C157.319 75.9412 158.453 78.2081 158.275 80.4716C158.44 82.8041 157.547 84.9018 155.393 86.1173L83.99 126.323C82.4992 127.163 80.8003 127.324 79.268 126.903C78.5653 126.789 77.8713 126.551 77.2195 126.183L5.81948 85.9774C3.6881 84.7775 2.55464 82.5071 2.73248 80.2437C2.56759 77.9111 3.45934 75.8169 5.61403 74.6014L24.711 63.8487L4.12232 52.3846C3.50941 52.0428 2.97937 51.618 2.53479 51.1312C2.34228 50.9464 2.16532 50.7479 2.00734 50.5355C1.84332 50.3163 1.69916 50.0849 1.5783 49.8397C1.5196 49.6861 1.46521 49.5324 1.41428 49.3788L1.30465 49.0991L1.22782 48.8746C1.19156 48.7624 1.15962 48.6484 1.13027 48.5328L1.08193 48.3256C0.978336 47.8491 0.933447 47.3587 0.948986 46.8667C0.879062 44.6326 1.80534 42.6454 3.91255 41.4713L76.9372 0.813633C77.5501 0.471783 78.1976 0.242156 78.8545 0.116121C79.8317 -0.0720692 80.8296 -0.0289064 81.7671 0.226618C82.4854 0.344021 83.195 0.584006 83.8623 0.955207L156.884 41.6129C156.994 41.6733 157.1 41.7372 157.204 41.8045C157.302 41.8667 157.398 41.9306 157.491 41.9962C157.578 42.0583 157.662 42.1222 157.744 42.1878C158.008 42.3967 158.252 42.6246 158.474 42.8681C158.645 43.0338 158.803 43.2082 158.948 43.3929C159.133 43.6312 159.295 43.8867 159.428 44.1578C159.487 44.3114 159.541 44.4634 159.592 44.617C159.924 45.4095 160.085 46.2676 160.058 47.1308ZM20.2221 80.2471L80.5033 114.89L140.785 80.4716L124.112 70.8894L84.0694 93.1839C82.5441 94.0333 80.8072 94.1974 79.2395 93.7709C78.5213 93.6535 77.8117 93.4135 77.1444 93.0423L36.9796 70.6788L20.2221 80.2471Z" fill="black"/>
<path d="M6.15788 112.795C7.7998 110.029 11.4307 109.095 14.2682 110.675L80.5033 148.311L146.934 110.81C149.771 109.228 153.769 110.345 155.044 112.93C156.25 116.091 155.685 119.247 152.839 120.832L83.8709 159.232C82.431 160.035 80.7899 160.188 79.3094 159.786C79.1273 159.757 78.946 159.719 78.7656 159.672C78.2744 159.546 77.7918 159.354 77.3317 159.099L8.36523 120.699C5.51648 119.113 4.51251 115.575 6.15788 112.795Z" fill="black"/>
<path d="M408.882 133.847C385.813 133.847 370.338 116.366 370.338 94.8731C370.338 73.38 386.529 55.6123 408.882 55.6123C431.235 55.6123 446.71 73.38 446.71 94.8731C446.71 97.0224 446.567 99.315 446.137 101.751H390.398C392.547 110.491 399.138 116.653 408.882 116.653C417.193 116.653 423.641 112.354 427.079 106.623L442.125 117.942C436.107 127.256 423.641 133.847 408.882 133.847ZM390.398 87.2789H427.223C425.073 78.9682 418.052 72.2337 408.595 72.2337C399.425 72.2337 392.547 78.3951 390.398 87.2789Z" fill="black"/>
<path d="M494.858 133.847C471.683 133.847 453.175 116.367 453.175 94.7313C453.175 73.0956 471.217 55.7585 495.947 55.6152C510.723 55.4719 522.699 60.7733 529.543 69.5136L513.367 81.6926C509.634 76.5344 503.413 73.2389 496.258 73.2389C482.882 73.2389 474.172 83.1254 474.172 94.7313C474.172 106.337 483.349 116.224 496.725 116.224C504.813 116.224 510.101 112.498 514.3 107.34L529.543 119.519C521.922 128.546 510.723 133.847 494.858 133.847Z" fill="black"/>
<path d="M570.21 134C555.027 134 546.773 126.924 546.773 110.267V74.2997H536.012V57.3477H546.773V39.8062H566.673V57.3477H582.888V74.2997H566.673V109.235C566.673 114.1 569.031 116.311 572.864 116.311H581.119V134H570.21Z" fill="black"/>
<path d="M279.853 51.7964C279.853 36.3186 289.877 26 305.355 26H313.61V42.9519H308.45C302.554 42.9519 299.753 46.0475 299.753 52.0912V56.9557H315.378V73.9077H299.753V133.608H279.853V73.9077H269.092V56.9557H279.853V51.7964Z" fill="black"/>
<path d="M330.476 51.7964C330.476 36.3186 340.499 26 355.977 26H364.232V42.9519H359.073C353.177 42.9519 350.376 46.0475 350.376 52.0912V56.9557H366.001V73.9077H350.376V133.608H330.476V73.9077H319.715V56.9557H330.476V51.7964Z" fill="black"/>
<path d="M200.061 133.788V30.6021H260.499V49.1755H220.699V72.3186H259.762V90.3024H220.699V115.214H260.794V133.788H200.061Z" fill="black"/>
</svg>
