<svg width="591" height="80" viewBox="0 0 591 80" fill="none" xmlns="http://www.w3.org/2000/svg">
<mask id="mask0_4347_392" style="mask-type:luminance" maskUnits="userSpaceOnUse" x="0" y="0" width="591" height="80">
<path d="M0 0H590.327V80H0V0Z" fill="white"/>
</mask>
<g mask="url(#mask0_4347_392)">
<path d="M70.0235 19.4217L48.9488 78.8623H43.2763L20.8815 19.4217L15.3539 65.2526C15.2206 66.1288 15.1417 67.0124 15.1177 67.8983C15.1177 73.4313 17.5273 74.5636 25.6524 74.9876V78.8623H0V74.9876C6.32723 74.6549 8.45777 73.4313 9.11786 68.4672L16.1106 13.1858C16.8672 7.18589 13.9854 5.43637 6.65996 4.96411V1.22895H31.7488C31.985 3.64393 32.5055 5.53297 33.4018 7.98551L51.498 56.2259L68.274 7.84061C69.1702 5.43101 69.8303 3.63856 70.0235 1.22359H94.683V4.95874C87.5508 5.43101 84.669 7.18052 85.4739 13.1804L92.2305 68.4618C92.8906 73.662 95.209 74.6549 101.348 74.9822V78.8569H65.4887V74.9822C73.1415 74.5583 75.7872 73.4259 75.7872 67.8929C75.7872 67.2328 75.6906 66.1005 75.5994 65.2472L70.0235 19.4217ZM150.013 66.5727C150.013 70.3508 150.909 72.7658 153.7 72.7658C155.353 72.7658 156.914 72.2453 158.138 71.6818L158.798 74.0914C155.583 77.8695 151.381 79.9946 146.278 79.9946C140.138 79.9946 136.264 76.3078 135.174 70.2113C131.627 74.891 125.863 79.7585 117.738 79.7585C108.856 79.7585 102.996 74.3275 102.996 65.4404C102.996 56.0381 109.752 52.0185 118.071 49.0454L134.841 42.9543V33.595C134.841 27.1711 132.711 22.6363 127.044 22.6363C121.849 22.6363 118.731 23.9565 117.078 26.2749C120.529 27.0799 122.509 29.8169 122.509 33.2676C122.509 38.0439 119.203 41.1619 114.099 41.1619C109.329 41.1619 106.307 38.0439 106.307 33.1764C106.307 23.8707 115.849 19.191 128.278 19.191C142.36 19.191 150.013 24.2946 150.013 37.3838V66.5727ZM134.847 67.5656V47.0115L125.3 50.7896C120.625 52.6786 117.647 55.1365 117.647 61.3242C117.647 67.1362 120.292 71.1022 126.292 71.1022C129.507 71.1075 131.729 69.8839 134.847 67.5656ZM160.596 74.5636L159.887 59.2527H163.998C166.456 68.8911 171.984 76.1199 180.533 76.1199C186.538 76.1199 190.976 73.3347 190.976 67.2328C190.976 61.233 186.962 58.92 178.22 55.802C166.451 51.6912 160.36 47.0115 160.36 36.8042C160.36 25.6094 168.769 19.1803 180.865 19.1803C188.094 19.1803 194.191 20.9781 198.962 23.9565V37.3784H195.183C193.294 29.4841 188.76 22.9691 180.865 22.9691C175.241 22.9691 171.887 26.2749 171.887 31.1907C171.887 36.1495 175.338 38.6127 183.887 41.822C195.844 45.9328 202.831 50.4676 202.831 61.3349C202.831 73.1039 194.094 80 180.436 80C171.984 79.9946 165.13 77.7729 160.596 74.5636ZM226.702 20.1784H241.159V25.1855H226.702V61.9897C226.702 68.6496 229.251 71.5369 234.494 71.5369C237.472 71.5369 239.93 70.5387 242.673 68.5584L244.138 70.4474C240.596 75.975 235.014 79.9946 226.938 79.9946C217.959 79.9946 211.299 75.2237 211.299 62.7947V25.1855H204.403V22.8242C212.056 19.2768 218.48 13.1858 223.256 5.86033H226.707L226.702 20.1784ZM293.747 42.2406V44.7897H257.651C257.227 60.2402 265.116 69.5458 275.983 69.5458C283.539 69.5458 288.503 66.24 292.523 60.4763L294.176 61.4691C291.391 72.4331 283.309 79.9893 270.643 79.9893C254.581 79.9893 243.81 68.1291 243.81 51.1169C243.81 32.264 256.003 19.1749 271.121 19.1749C285.949 19.1856 293.747 28.9636 293.747 42.2406ZM257.978 40.8238H279.949C279.949 30.2891 277.207 23.1998 269.978 23.1998C262.658 23.1998 258.783 30.6165 257.978 40.8238ZM405.442 6.66532L405.678 24.3859H401.331C398.782 11.6294 392.261 4.77628 381.485 4.77628C366.271 4.77628 359.278 19.9423 359.278 38.8435C359.278 59.4405 367.403 75.2237 382.478 75.2237C392.921 75.2237 400.005 68.655 403.789 52.5874H408.324L406.574 73.4259C400.15 77.5367 391.456 79.9893 381.061 79.9893C356.96 79.9893 342.084 64.9145 342.084 42.0474C342.084 16.2072 359.284 0 381.061 0C390.936 0 399.109 2.40961 405.442 6.66532ZM433.413 70.3562C433.413 74.2309 435.065 74.8964 440.309 75.2237V78.8623H411.109V75.2237C416.213 74.891 418.005 74.2309 418.005 70.3562V11.2967L411.35 7.84598V5.53297L430.96 0.193198H433.418L433.413 70.3562ZM474.091 67.5173V47.0168L464.55 50.7949C460.009 52.5444 456.988 55.0989 456.988 61.3296C456.988 67.0933 459.682 71.1075 465.542 71.1075C468.757 71.1075 470.973 69.8839 474.091 67.5173ZM499.894 74.5636L499.234 59.2527H503.345C505.754 68.8911 511.33 76.1199 519.836 76.1199C525.836 76.1199 530.419 73.3347 530.419 67.2328C530.419 61.233 526.308 58.92 517.518 55.802C505.754 51.6912 499.658 47.0115 499.658 36.8042C499.658 25.6094 508.067 19.1803 520.303 19.1803C527.387 19.1803 533.484 20.9781 538.26 23.9565V37.3784H534.482C532.641 29.4841 528.053 22.9691 520.309 22.9691C514.545 22.9691 511.185 26.2749 511.185 31.1907C511.185 36.1495 514.636 38.6127 523.19 41.822C535.19 45.9328 542.279 50.4676 542.279 61.3349C542.279 73.1039 533.398 80 519.745 80C511.325 79.9946 504.429 77.7729 499.894 74.5636ZM547.947 74.5636L547.378 59.2527H551.489C553.898 68.8911 559.565 76.1199 568.023 76.1199C573.975 76.1199 578.558 73.3347 578.558 67.2328C578.558 61.233 574.356 58.92 565.801 55.802C553.893 51.6912 547.802 47.0115 547.802 36.8042C547.802 25.6094 556.26 19.1803 568.447 19.1803C575.531 19.1803 581.627 20.9781 586.447 23.9565V37.3784H582.669C580.871 29.4841 576.191 22.9691 568.447 22.9691C562.678 22.9691 559.469 26.2749 559.469 31.1907C559.469 36.1495 562.775 38.6127 571.329 41.822C583.431 45.9274 590.327 50.4622 590.327 61.3296C590.327 73.0985 581.542 79.9946 567.884 79.9946C559.565 79.9946 552.573 77.7729 547.947 74.5636ZM489.354 66.5727C489.354 70.3508 490.202 72.7658 492.993 72.7658C494.646 72.7658 496.207 72.2453 497.436 71.6818L498.096 74.0914C494.882 77.8695 490.674 79.9946 485.576 79.9946C479.485 79.9946 475.557 76.3078 474.472 70.2113C470.93 74.891 465.167 79.7585 457.036 79.7585C448.155 79.7585 442.294 74.3275 442.294 65.4404C442.294 56.0381 449.051 52.0185 457.369 49.0454L474.145 42.9543V33.595C474.145 27.1711 472.02 22.6363 466.396 22.6363C461.153 22.6363 458.029 23.9565 456.376 26.2749C459.827 27.0799 461.813 29.8169 461.813 33.2676C461.813 38.0439 458.501 41.1619 453.403 41.1619C448.632 41.1619 445.611 38.0439 445.611 33.1764C445.611 23.8707 455.153 19.191 467.582 19.191C481.712 19.191 489.365 24.2946 489.365 37.3838V66.5727H489.354ZM323.134 26.511C323.134 31.942 326.349 35.3928 331.216 35.3928C336.556 35.3928 339.91 31.942 339.91 27.0799C339.91 22.0729 336.889 19.1856 332.59 19.1856C326.59 19.1856 322.716 23.393 318.369 35.6289L318.793 19.1856H316.243L296.398 25.1908V27.2624L303.058 31.2766V70.3508C303.058 74.2255 301.26 74.891 296.162 75.2184V78.8569H327.68V75.2184C320.923 74.6495 318.369 73.9894 318.369 69.5458V41.0599C320.826 34.1584 324.701 29.3875 331.125 25.6094L323.134 26.511Z" fill="white"/>
</g>
</svg>
