<svg width="838" height="129" viewBox="0 0 838 129" fill="none" xmlns="http://www.w3.org/2000/svg">
<path d="M278.699 61.0791C278.699 69.5369 277.115 76.7865 274.023 82.8278C271.174 88.5771 266.758 93.4014 261.285 96.7425C255.811 100.084 249.505 101.805 243.095 101.707C236.682 101.823 230.368 100.109 224.891 96.7661C219.415 93.4231 215.002 88.5886 212.168 82.8278C209 76.7865 207.491 69.4614 207.491 61.0791C207.491 52.6213 209 45.3717 212.092 39.3304C214.939 33.5636 219.366 28.7264 224.855 25.3835C230.345 22.0407 236.671 20.33 243.095 20.4513C249.505 20.3535 255.811 22.0747 261.285 25.4157C266.758 28.7568 271.174 33.5811 274.023 39.3304C277.115 45.3717 278.699 52.6213 278.699 61.0791ZM266.856 61.0791C266.856 54.6602 265.8 49.2231 263.764 44.7676C261.957 40.6624 258.995 37.1725 255.24 34.7239C251.695 32.4584 247.621 31.3257 243.095 31.3257C238.782 31.2692 234.542 32.4483 230.875 34.7239C227.33 36.9894 224.539 40.3877 222.427 44.7676C220.39 49.2231 219.334 54.5847 219.334 61.0791C219.334 67.498 220.39 72.9352 222.427 77.3151C224.217 81.4081 227.151 84.8959 230.875 87.3588C234.496 89.6243 238.569 90.8325 243.095 90.8325C247.621 90.8325 251.695 89.6998 255.24 87.3588C258.861 85.0933 261.652 81.7706 263.764 77.3151C265.8 72.9352 266.856 67.498 266.856 61.0791ZM292.504 122.851V41.2938H303.818V50.8844H304.799C305.478 49.6762 306.383 48.2414 307.665 46.6555C309.35 44.5726 311.512 42.9285 313.968 41.8634C316.424 40.7983 319.102 40.3438 321.771 40.5387C326.367 40.4561 330.882 41.7489 334.739 44.2513C338.596 46.7536 341.619 50.3518 343.42 54.5847C345.608 59.1157 346.664 64.6284 346.664 71.0473C346.664 77.4661 345.608 82.9788 343.496 87.5098C341.605 91.7942 338.546 95.4584 334.67 98.0821C330.864 100.578 326.396 101.868 321.847 101.782C318.301 101.782 315.36 101.178 313.097 99.97C311.038 98.9468 309.214 97.5068 307.741 95.7411C306.459 94.0797 305.478 92.6449 304.724 91.3612H304.12V122.851H292.579M303.894 70.9718C303.894 75.1251 304.422 78.7499 305.629 81.9216C306.836 85.0933 308.646 87.5098 310.909 89.2467C313.172 91.0591 315.963 91.8898 319.282 91.8898C322.752 91.8898 325.618 90.9836 327.957 89.1712C330.22 87.2833 332.03 84.7912 333.237 81.6195C334.444 78.4479 335.047 74.8986 335.047 70.9718C335.047 67.0449 334.444 63.4956 333.237 60.3995C332.197 57.5107 330.368 54.9726 327.957 53.0744C325.463 51.1974 322.4 50.2373 319.282 50.3558C315.963 50.3558 313.172 51.1865 310.834 52.9234C308.571 54.6602 306.836 57.0768 305.553 60.1729C304.323 63.6368 303.735 67.2964 303.818 70.9718H303.894ZM385.059 101.707C379.175 101.707 374.197 100.499 369.973 97.9311C365.748 95.439 362.505 91.8898 360.242 87.3588C357.979 82.8278 356.847 77.3906 356.847 71.2738C356.847 65.2325 357.979 59.8709 360.242 55.1888C362.36 50.7409 365.678 46.9744 369.822 44.3145C373.445 42.2182 377.477 40.9305 381.644 40.5395C385.81 40.1485 390.011 40.6634 393.96 42.049C397.279 43.2411 400.289 45.1621 402.769 47.6711C405.249 50.1801 407.136 53.2134 408.292 56.5481C409.801 60.324 410.48 64.8549 410.48 70.2921V74.37H363.335V65.6856H399.165C399.165 62.665 398.562 59.9464 397.279 57.6054C396.053 55.246 394.182 53.2838 391.885 51.9469C389.589 50.6101 386.96 49.9535 384.305 50.0537C381.061 50.0537 378.27 50.8089 375.856 52.3192C373.473 53.8958 371.529 56.0542 370.209 58.591C368.89 61.1277 368.237 63.9592 368.313 66.8184V73.6148C368.313 77.5417 369.067 80.8644 370.425 83.6585C371.858 86.4526 373.82 88.567 376.309 90.0019C379.004 91.5043 382.051 92.2603 385.135 92.1918C387.398 92.1918 389.359 91.8898 391.169 91.2101C392.938 90.6138 394.548 89.6247 395.881 88.317C397.213 87.0092 398.233 85.4166 398.863 83.6585L409.726 85.6974C408.896 88.9446 407.312 91.7387 405.049 94.1553C402.786 96.5718 399.995 98.3842 396.6 99.7435C392.91 101.115 388.995 101.781 385.059 101.707ZM434.845 65.308V100.574H423.303V41.2938H434.543V50.9599H435.297C436.655 47.7883 438.767 45.2962 441.709 43.4083C444.575 41.4449 448.272 40.5387 452.722 40.5387C456.795 40.5387 460.265 41.3694 463.283 43.0307C466.375 44.7676 468.714 47.2596 470.373 50.5824C472.177 54.4284 473.056 58.6442 472.938 62.8915V100.65H461.397V64.2508C461.588 60.5918 460.373 56.9983 458.002 54.2071C455.739 51.7151 452.722 50.5068 448.8 50.5068C446.326 50.4634 443.883 51.0618 441.709 52.2437C439.609 53.4394 437.904 55.2245 436.806 57.3788C435.537 59.8513 434.914 62.6051 434.995 65.3835L434.845 65.308ZM489.156 100.574V21.5086H517.292C523.327 21.5086 528.456 22.5658 532.53 24.6803C536.603 26.7947 539.62 29.7399 541.582 33.4402C543.655 37.3954 544.693 41.8122 544.599 46.2779C544.599 51.1865 543.618 55.4154 541.582 59.1157C539.515 62.8259 536.353 65.8062 532.53 67.649C528.456 69.688 523.327 70.6697 517.217 70.6697H495.945V60.3995H516.161C520.008 60.3995 523.176 59.8709 525.59 58.7381C528.004 57.6809 529.814 56.0195 530.87 53.9051C532.063 51.5702 532.659 48.9755 532.605 46.3534C532.605 43.3328 532.077 40.7652 530.946 38.5753C529.765 36.3451 527.882 34.5668 525.59 33.5157C522.565 32.231 519.293 31.6377 516.01 31.7788H500.999V100.65H489.156M528.155 64.9304L547.616 100.65H534.038L514.954 64.9304H528.155ZM583.22 101.782C578.225 101.975 573.281 100.707 568.994 98.1319C564.707 95.5568 561.263 91.787 559.082 87.2833C556.683 82.2678 555.494 76.7581 555.612 71.1983C555.612 65.0815 556.743 59.7198 559.006 55.1133C561.176 50.5956 564.616 46.81 568.904 44.221C573.192 41.6321 578.141 40.3523 583.145 40.5387C588.149 40.3523 593.098 41.6321 597.386 44.221C601.674 46.81 605.113 50.5956 607.283 55.1133C609.765 60.1028 610.982 65.6267 610.829 71.1983C610.947 76.7581 609.758 82.2678 607.359 87.2833C605.178 91.787 601.733 95.5568 597.447 98.1319C593.16 100.707 588.216 101.975 583.22 101.782ZM583.22 92.1163C586.841 92.1163 589.858 91.1346 592.197 89.2467C594.535 87.3588 596.27 84.7912 597.477 81.6951C598.624 78.2905 599.186 74.7155 599.137 71.1228C599.137 67.347 598.609 63.9487 597.477 60.7015C596.447 57.7233 594.621 55.0851 592.197 53.0744C589.636 51.0876 586.457 50.0712 583.22 50.2048C579.6 50.2048 576.582 51.111 574.168 53.0744C571.905 55.0378 570.095 57.6054 568.888 60.7771C567.736 64.1283 567.174 67.6545 567.229 71.1983C567.229 74.9741 567.832 78.4479 568.964 81.6195C570.095 84.7912 571.83 87.3588 574.244 89.2467C576.582 91.1346 579.6 92.1163 583.296 92.1163H583.22ZM661.293 76.0313V41.2938H672.834V100.65H661.519V90.3039H660.916C659.435 93.7362 656.946 96.6363 653.78 98.619C650.614 100.602 646.92 101.573 643.189 101.405C639.65 101.478 636.157 100.591 633.081 98.8373C630.117 97.0537 627.753 94.424 626.292 91.2856C624.508 87.4599 623.63 83.2732 623.728 79.052V41.2938H635.269V77.6172C635.077 81.1488 636.267 84.6162 638.588 87.2833C640.851 89.6998 643.793 90.9081 647.338 90.9081C649.7 90.8748 652.017 90.2576 654.083 89.1114C656.149 87.9652 657.9 86.3255 659.181 84.3381C660.614 82.1482 661.293 79.3541 661.293 76.0313ZM715.981 41.2938V50.5824H683.545V41.2938H715.981ZM692.296 27.0968H703.837V83.2054C703.837 85.4709 704.139 87.1322 704.817 88.265C705.496 89.3222 706.326 90.1529 707.458 90.5305C708.514 90.9081 709.721 91.1346 710.928 91.1346C712.288 90.9794 713.646 90.8031 715.001 90.606L717.038 100.121C714.626 101.019 712.067 101.454 709.494 101.405C706.477 101.405 703.686 100.876 701.046 99.7435C698.469 98.6297 696.268 96.794 694.71 94.4573C693.125 92.1918 692.296 89.1712 692.296 85.6219V27.0968ZM754.226 101.858C748.417 101.858 743.364 100.574 739.139 98.0821C734.99 95.5145 731.747 92.0408 729.484 87.4343C727.221 82.9033 726.014 77.4662 726.014 71.3493C725.896 65.7896 727.085 60.2798 729.484 55.2644C731.747 50.6579 734.915 46.9576 738.988 44.39C742.611 42.2937 746.644 41.006 750.81 40.615C754.976 40.224 759.178 40.7389 763.127 42.1245C766.446 43.3166 769.456 45.2376 771.936 47.7466C774.416 50.2556 776.303 53.2889 777.459 56.6237C778.968 60.3995 779.722 64.9304 779.722 70.3676V74.4455H732.501V65.7611H768.256C768.256 62.7405 767.653 60.0219 766.446 57.6809C765.207 55.3155 763.323 53.3504 761.013 52.0138C758.703 50.6771 756.062 50.0236 753.396 50.1293C750.152 50.1293 747.361 50.8844 744.948 52.3947C742.607 54.0098 740.701 56.1782 739.399 58.7074C738.096 61.2366 737.437 64.0485 737.48 66.8939V73.6903C737.48 77.6172 738.159 80.9399 739.592 83.734C740.95 86.5281 742.911 88.6426 745.476 90.0774C748.171 91.5799 751.217 92.3358 754.301 92.2673C756.328 92.2764 758.343 91.9446 760.26 91.2856C762.013 90.6829 763.612 89.7003 764.942 88.408C766.272 87.1157 767.3 85.5456 767.954 83.8095L778.817 85.7729C777.986 88.9384 776.379 91.8458 774.14 94.2308C771.782 96.7085 768.893 98.619 765.691 99.819C762.002 101.192 758.086 101.858 754.15 101.782L754.226 101.858ZM792.47 100.65V41.2938H803.634V50.7334H804.237C805.369 47.5617 807.255 44.9941 809.97 43.1818C812.761 41.2938 815.854 40.3877 819.324 40.3877C820.962 40.4099 822.598 40.5107 824.227 40.6897V51.7151C822.256 51.2089 820.228 50.9551 818.192 50.9599C815.665 50.9473 813.175 51.5705 810.951 52.7723C808.837 53.8839 807.071 55.5577 805.847 57.6096C804.622 59.6615 803.987 62.0118 804.011 64.4018V100.65H792.47Z" fill="white"/>
<path d="M0.97049 64.3268C5.42101 64.3268 22.5442 60.4754 31.3698 55.4159C40.2708 50.4318 40.2708 50.4318 58.6009 37.3675C81.8341 20.905 98.203 26.4176 125.132 26.4176" fill="white"/>
<path d="M50.0999 25.3096C78.3097 5.32076 101.997 11.6518 125.132 11.6519V41.1838C94.4273 41.1837 85.3688 36.4948 67.1345 49.4019C48.7592 62.4984 48.2041 62.9034 38.5522 68.3079L38.5514 68.3071C32.487 71.7566 24.6039 74.3498 18.3409 76.0318C12.3584 77.6384 5.3131 79.0931 0.970512 79.0931V49.5612C0.639114 49.5612 1.41341 49.5471 3.67285 49.1274C5.62918 48.7639 8.0857 48.2125 10.718 47.5056C16.2909 46.009 21.3143 44.1712 24.0585 42.598L24.1873 42.5244C32.3373 37.9609 31.782 38.365 50.0664 25.3333L50.0827 25.321L50.0999 25.3096Z" fill="white"/>
<path d="M151.157 26.5687L105.671 52.8483V0.289062L151.157 26.5687Z" fill="white"/>
<path d="M151.24 26.424L151.491 26.5686L151.24 26.7141L105.504 53.1381V0L151.24 26.424ZM105.838 52.5588L150.823 26.5686L105.838 0.577614V52.5588Z" fill="white"/>
<path d="M0.0653076 64.3271C4.51583 64.3271 21.639 68.103 30.54 73.1625C39.3657 78.2221 39.3657 78.2221 57.6958 91.2864C80.929 107.749 97.2978 102.236 124.227 102.236" fill="white"/>
<path d="M0.0625583 49.5605C4.37032 49.5605 11.3863 50.9792 17.3947 52.5712C23.5179 54.1935 31.1868 56.6779 37.2229 59.9936L37.8023 60.3171L37.8252 60.331L37.8488 60.344C47.3466 65.789 47.8564 66.1584 66.194 79.228L67.0431 79.8212C84.7386 92.0183 93.9808 87.4699 124.224 87.4699V117.002C101.089 117.002 77.4018 123.333 49.1919 103.344L49.1756 103.333L49.1585 103.321C30.9037 90.3105 31.3716 90.65 23.2728 86.0074L22.7252 85.7076C19.8581 84.1986 15.0977 82.5091 9.86789 81.1234C7.23132 80.4249 4.77064 79.8812 2.80971 79.523C0.552828 79.1106 -0.2427 79.0932 0.0625583 79.0932V49.5605Z" fill="white"/>
<path d="M150.252 102.01L104.766 75.8057V128.289L150.252 102.01Z" fill="white"/>
<path d="M104.849 75.6599L150.335 101.864L150.586 102.01L150.335 102.154L104.599 128.579V75.5161L104.849 75.6599ZM104.933 128L149.917 102.009L104.933 76.0945V128Z" fill="white"/>
</svg>
