<svg width="179" height="51" viewBox="0 0 179 51" fill="none" xmlns="http://www.w3.org/2000/svg">
<path d="M58.6573 40.0692L56.2734 12.6094H63.7362L64.9282 30.5878L73.1684 12.6094H81.5122L82.1341 30.536L90.9444 12.6094H99.4437L85.3473 40.0692H76.0706L75.5523 23.2825L67.6749 40.0692H58.6573Z" fill="white"/>
<path d="M106.73 40.846C100.718 40.846 96.2607 36.183 96.2607 28.8777C96.2607 19.9145 102.998 11.832 111.498 11.832C115.125 11.832 117.82 13.3345 119.22 15.7178L119.893 12.6091H127.874L122.018 40.0689H114.037L114.607 37.4265C112.534 39.6544 109.787 40.846 106.73 40.846ZM109.269 33.6961C113.312 33.6961 116.836 29.1368 116.836 23.8003C116.836 20.4326 114.866 18.9819 112.379 18.9819C108.129 18.9819 104.812 23.6966 104.812 28.4632C104.812 31.8828 106.523 33.6961 109.269 33.6961Z" fill="white"/>
<path d="M125.576 40.0665L131.432 12.6067H139.413L138.325 17.736C140.242 14.3683 143.352 12.3477 146.721 12.3477C147.705 12.3477 148.224 12.3995 149.571 12.7104L147.861 20.8446C146.98 20.6374 146.202 20.5856 145.166 20.5856C140.45 20.5856 137.444 23.2279 136.356 28.3572L133.868 40.0665H125.576Z" fill="white"/>
<path d="M144.439 50.6901L152.523 12.6091H160.504L159.986 15.2515C162.007 13.0236 164.754 11.832 167.812 11.832C173.823 11.832 178.28 16.4949 178.28 23.8003C178.28 32.7635 171.543 40.846 163.096 40.846C159.572 40.846 156.98 39.4989 155.581 37.2711L152.731 50.6901H144.439ZM162.111 33.6961C166.413 33.6961 169.729 28.9813 169.729 24.2147C169.729 20.7952 168.019 18.9819 165.221 18.9819C161.178 18.9819 157.654 23.5412 157.654 28.8777C157.654 32.2454 159.623 33.6961 162.111 33.6961Z" fill="white"/>
<path d="M20.1793 25.6912L6.97276 13.593C6.16233 12.8506 6.10138 11.5835 6.92161 10.8519C8.95925 9.03445 11.3621 7.64429 13.9542 6.78874C14.9973 6.44446 16.0634 7.13082 16.3012 8.20298L20.1793 25.6912Z" fill="white"/>
<path d="M33.4375 10.8519C34.2577 11.5835 34.1968 12.8506 33.3863 13.593L20.1797 25.6913L24.0578 8.20298C24.2956 7.13083 25.3617 6.44446 26.4048 6.78874C28.9969 7.64428 31.3998 9.03445 33.4375 10.8519Z" fill="white"/>
<path d="M39.6648 21.6317C39.4425 20.5547 38.3137 19.9729 37.2647 20.3035L20.1797 25.6889L3.09473 20.3035C2.0457 19.9728 0.916899 20.5546 0.694065 21.6315C0.141183 24.3032 0.140903 27.0732 0.694052 29.7463C0.916885 30.8231 2.0457 31.4049 3.09473 31.0743L20.1797 25.6889L6.97313 37.7872C6.1627 38.5296 6.10175 39.7967 6.92198 40.5283C8.95962 42.3457 11.3625 43.7359 13.9546 44.5914C14.9978 44.9357 16.0638 44.2493 16.3016 43.1772L20.1797 25.6889L24.0579 43.1772C24.2956 44.2493 25.3617 44.9357 26.4048 44.5914C28.9969 43.7358 31.3998 42.3457 33.4374 40.5283C34.2577 39.7967 34.1967 38.5296 33.3863 37.7871L20.1797 25.6889L37.2647 31.0743C38.3137 31.405 39.4425 30.8231 39.6649 29.7462C40.2161 27.0761 40.2161 24.3017 39.6648 21.6317Z" fill="white"/>
</svg>
