<svg width="400" height="400" viewBox="0 0 400 400" fill="none" xmlns="http://www.w3.org/2000/svg">
<rect width="400" height="400" fill="black"/>
<path fill-rule="evenodd" clip-rule="evenodd" d="M299.89 158.914C299.978 161.706 298.82 164.19 296.186 165.658L270.191 180.13L293.802 193.427C296.467 194.926 297.884 197.76 297.662 200.589C297.868 203.505 296.753 206.127 294.059 207.647L204.806 257.903C202.942 258.954 200.819 259.155 198.903 258.628C198.025 258.486 197.157 258.188 196.343 257.728L107.093 207.472C104.428 205.972 103.012 203.134 103.234 200.305C103.028 197.389 104.143 194.771 106.836 193.252L130.707 179.811L104.971 165.481C104.205 165.053 103.543 164.523 102.987 163.914C102.746 163.683 102.525 163.435 102.328 163.169C102.123 162.895 101.942 162.606 101.791 162.3C101.718 162.108 101.65 161.916 101.586 161.723L101.449 161.374L101.353 161.093C101.308 160.953 101.268 160.811 101.231 160.666L101.171 160.407C101.041 159.811 100.985 159.198 101.005 158.583C100.917 155.791 102.075 153.307 104.709 151.839L195.99 101.017C196.756 100.59 197.565 100.303 198.387 100.145C199.608 99.9099 200.855 99.9639 202.027 100.283C202.925 100.43 203.812 100.73 204.646 101.194L295.924 152.016C296.061 152.092 296.194 152.172 296.323 152.256C296.446 152.333 296.566 152.413 296.682 152.495C296.79 152.573 296.896 152.653 296.999 152.735C297.329 152.996 297.633 153.281 297.91 153.585C298.125 153.792 298.323 154.01 298.503 154.241C298.735 154.539 298.937 154.858 299.104 155.197C299.177 155.389 299.244 155.579 299.308 155.771C299.723 156.762 299.925 157.834 299.89 158.914ZM125.096 200.309L200.448 243.612L275.799 200.589L254.958 188.612L204.905 216.48C202.998 217.542 200.827 217.747 198.868 217.214C197.97 217.067 197.083 216.767 196.249 216.303L146.043 188.348L125.096 200.309Z" fill="white"/>
<path d="M107.516 240.994C109.568 237.537 114.107 236.369 117.654 238.344L200.448 285.389L283.485 238.512C287.032 236.535 292.029 237.932 293.623 241.163C295.131 245.114 294.425 249.059 290.867 251.04L204.657 299.04C202.857 300.043 200.806 300.235 198.955 299.732C198.727 299.696 198.501 299.648 198.275 299.59C197.661 299.432 197.058 299.193 196.483 298.873L110.275 250.874C106.714 248.891 105.459 244.469 107.516 240.994Z" fill="white"/>
</svg>
