<svg viewBox="0 0 1151.42 170" fill="none" xmlns="http://www.w3.org/2000/svg">
  <path fill="#fff" d="M65.21 59.87c-25.92 0-45.98 19.23-45.98 45.98 0 22.57 15.89 45.98 45.98 45.98 12.54 0 24.25-5.02 32.61-13.38 8.36-9.2 13.38-20.9 12.54-32.61 0-12.54-4.18-23.41-13.38-31.77-8.36-9.2-19.23-14.21-31.77-14.21M62.7 170.22C21.74 170.23 0 136.79 0 105.86c0-36.79 26.75-63.54 62.71-63.54 21.74 0 35.11 10.03 40.97 15.89.84.84 1.67.84 2.51.84 1.67 0 3.34-1.67 3.34-3.34V11.38c0-5.02 4.18-10.03 10.03-10.03 5.02 0 10.03 4.18 10.03 10.03v146.31c0 5.02-4.18 9.2-9.2 9.2s-9.2-4.18-9.2-9.2v-.84c0-2.51-1.67-3.34-3.34-3.34-.84 0-1.67 0-2.51.84-11.7 10.03-25.92 15.89-42.64 15.89M205.98 60.15c-25.92 0-45.15 19.23-45.15 45.98s19.23 45.98 45.15 45.98 45.15-19.23 45.15-45.98-19.23-45.98-45.15-45.98m0 109.53c-36.79 0-64.38-27.59-64.38-63.54s27.59-64.38 64.38-64.38 64.38 27.59 64.38 64.38c.84 35.95-27.59 63.54-64.38 63.54m127.8-.01c-32.61-.84-51.84-20.9-51.84-56.02V54.29c0-5.02 4.18-10.03 10.03-10.03 5.02 0 10.03 4.18 10.03 10.03v56.02c0 18.39 5.85 40.97 35.95 40.97h.84c23.41 0 36.79-14.21 36.79-37.62V55.14c0-5.02 4.18-10.03 10.03-10.03s10.03 4.18 10.03 10.03v103.67c0 4.18-3.34 8.36-8.36 8.36-5.85 0-10.87-5.02-10.87-10.87v-2.51c0-.84-.84-.84-.84-.84s-.84 0-.84.84c-8.36 10.03-22.57 15.89-40.97 15.89ZM475.8 59.87c-25.92 0-45.15 19.23-45.15 45.98s19.23 45.98 44.31 45.98c30.1 0 45.98-22.57 45.98-45.98 0-25.92-19.23-45.98-45.15-45.98m1.67 110.36c-15.89 0-30.93-5.85-40.97-15.89-.84-.84-1.67-.84-2.51-.84-1.67 0-3.34 1.67-3.34 3.34v.84c0 5.02-4.18 9.2-9.2 9.2s-9.2-4.18-9.2-9.2V11.38c0-5.02 4.18-10.03 10.03-10.03 5.02 0 10.03 4.18 10.03 10.03v45.15c0 2.51 1.67 3.34 3.34 3.34.84 0 1.67 0 2.51-.84 10.87-10.03 25.08-15.89 40.13-16.72 35.95 0 62.71 27.59 62.71 63.54-.84 36.79-26.75 64.38-63.54 64.38m86.23-3.85c-5.02 0-10.03-4.18-10.03-10.03V10.03c0-5.02 4.18-10.03 10.03-10.03s10.03 4.18 10.03 10.03v146.31c-.84 5.85-5.02 10.03-10.03 10.03m180.6.01c-5.02 0-10.03-4.18-10.03-10.03V10.03c0-5.02 4.18-10.03 10.03-10.03 5.02 0 10.03 4.18 10.03 10.03v146.31c-.84 5.85-5.02 10.03-10.03 10.03M651.46 59.33c-20.9 0-39.3 13.38-43.48 32.61 0 .84 0 1.67.84 2.51s1.67 1.67 2.51 1.67h79.43c.84 0 2.51-.84 2.51-1.67.84-.84.84-1.67.84-2.51-3.34-15.89-20.07-32.61-42.64-32.61q.84 0 0 0m0 110.36c-41.8 0-64.38-32.61-64.38-63.54 0-35.95 28.43-64.38 63.54-64.38 16.72 0 32.61 5.85 44.31 17.56 10.87 10.87 17.56 25.08 19.23 40.97 0 3.34-.84 5.85-3.34 8.36-2.51 2.51-5.02 3.34-8.36 3.34H610.5c-.84 0-1.67.84-2.51.84-.84.84-.84 1.67-.84 2.51 3.34 24.25 24.25 36.79 43.48 36.79h.84c15.89 0 29.26-7.52 37.62-20.07 1.67-2.51 4.18-4.18 7.52-4.18s6.69 1.67 8.36 5.02c1.67 3.34 1.67 6.69-.84 9.2-5.02 7.52-10.87 13.38-18.39 17.56-10.03 6.69-21.74 10.03-34.28 10.03m434.75-109.82c-12.54 0-23.41 5.02-32.61 13.38-8.36 8.36-12.54 20.07-12.54 32.61s5.02 24.25 13.38 32.61 20.07 12.54 32.61 12.54c25.92 0 45.15-19.23 45.15-45.98 0-21.74-15.89-45.15-45.98-45.15m-53.51 151.33c-5.02 0-10.03-4.18-10.03-10.03V54.03c0-5.02 4.18-9.2 9.2-9.2s9.2 4.18 9.2 9.2v1.67c0 2.51 1.67 3.34 3.34 3.34.84 0 1.67 0 2.51-.84 10.87-10.87 25.08-16.72 41.8-16.72 40.13 0 62.71 33.44 62.71 64.38 0 35.95-26.75 63.54-62.71 63.54-21.74 0-35.11-10.03-40.97-15.89-.84-.84-1.67-.84-2.51-.84-1.67 0-3.34 1.67-3.34 3.34v45.15c.84 5.85-3.34 10.03-9.2 10.03"/>
  <path fill="#5dc23e" d="M945.4 151.63c-12.54 0-24.25-4.18-32.61-12.54s-13.38-20.07-13.38-32.61 4.18-24.25 12.54-32.61 20.07-13.38 32.61-13.38c30.1 0 45.98 22.57 45.98 45.98.84 25.08-19.23 45.15-45.15 45.15m-113.71 0c-12.54 0-24.25-4.18-32.61-12.54s-13.38-20.07-13.38-32.61 4.18-24.25 12.54-32.61 20.07-13.38 32.61-13.38c30.1 0 45.98 22.57 45.98 45.98 0 25.08-19.23 45.15-45.15 45.15M946.21 43.76H829.16c-34.28 0-61.87 27.59-61.87 61.87v.84c0 34.28 27.59 61.87 61.87 61.87h117.05c34.28 0 61.87-27.59 61.87-61.87v-.84c0-34.28-27.59-61.87-61.87-61.87"/>
</svg>
