<svg viewBox="0 0 318 78" fill="none" xmlns="http://www.w3.org/2000/svg">
  <path d="M59.9343 2.1333L74.2823 2.1333L89.9564 43.4489H90.1775L105.525 2.1333L119.421 2.1333L97.7406 56.9287H82.1722L59.9343 2.1333Z" fill="white"/>
  <path d="M165.906 14.3156C164.234 13.9893 162.235 13.8868 160.457 13.8868C151.779 13.8868 144.553 19.7131 144.553 31.5802V56.927H130.32V2.13161L144.332 2.13161V14.4275C147.003 5.90706 153.557 1.16211 161.678 1.16211C163.119 1.16211 164.676 1.27397 165.906 1.59093V14.3156Z" fill="white"/>
  <path d="M172.801 2.13135L187.255 2.13135L202.929 43.4469H203.15L218.055 2.13135L232.182 2.13135L210.165 57.8962C204.832 71.5997 198.268 76.8854 186.371 76.9879C184.477 76.9879 181.815 76.7735 179.807 76.4472V65.9878C181.479 66.3141 182.363 66.3141 183.584 66.3141C189.369 66.3141 191.81 64.3751 194.818 56.8242L172.801 2.13135Z" fill="white"/>
  <path d="M280.767 45.4879C278.096 50.7735 271.868 55.5185 262.864 55.5185C247.968 55.5185 237.954 44.5184 237.954 28.1208C237.954 11.7232 247.958 0.834961 262.864 0.834961C271.868 0.834961 278.317 5.79432 280.988 11.08V2.13073L295 2.13073V51.5286C295 69.4364 283.103 77.4161 266.314 77.4161C251.082 77.4161 241.299 71.2635 239.184 60.3753H253.311C254.868 65.7728 259.76 67.7118 266.323 67.7118C275.328 67.7118 280.777 63.1812 280.777 53.2625V45.4972L280.767 45.4879ZM281.325 26.9369C281.325 17.2326 275.318 10.8656 266.65 10.8656C257.53 10.8656 252.196 17.6614 252.196 28.1208C252.196 38.5802 257.53 45.376 266.65 45.376C275.77 45.376 281.325 39.009 281.325 29.1928V26.9275V26.9369Z" fill="white"/>
  <path d="M318.003 2.12988L303.895 2.12988V15.8147L318.003 15.8147V2.12988Z" fill="#32B26E"/>
  <path d="M54.3829 28.4471C54.3829 13.8859 45.9355 0.834961 28.2528 0.834961C23.0538 0.834961 18.2391 2.00955 14.1067 4.20024L14.1067 15.8249L2.96853 15.8249C1.07533 19.7682 0.00860596 24.4013 0.00860596 29.6403C0.00860596 47.5481 12.127 58.2219 28.5892 58.2219C41.486 58.2219 51.6055 51.6405 54.0561 39.8853L40.9383 39.8853C39.0451 45.1709 35.0472 48.0794 28.5988 48.0794C19.8151 48.0794 14.7025 42.5794 13.8088 32.875L54.3925 32.875V28.4564L54.3829 28.4471ZM14.2412 23.9165C15.7981 15.4986 20.805 11.08 28.2528 11.08C36.8155 11.08 40.8229 17.1207 40.8229 23.9165L14.2412 23.9165Z" fill="white"/>
</svg>
