<svg width="382" height="100" viewBox="0 0 382 100" fill="none" xmlns="http://www.w3.org/2000/svg">
<path d="M25.8894 85.1753C21.3537 81.0453 20.0296 72.3681 21.9194 66.082C25.196 70.0451 29.7359 71.3011 34.4385 72.0091C41.6982 73.1031 48.8278 72.6941 55.5718 69.3891C56.3433 69.0111 57.0562 68.5071 57.8992 67.9981C58.532 69.8261 58.6967 71.6721 58.4756 73.5511C57.9382 78.1272 55.6519 81.6623 52.0156 84.3413C50.5615 85.4133 49.0229 86.3714 47.5211 87.3824C42.9074 90.4874 41.6592 94.1295 43.3928 99.4276C43.434 99.5566 43.4708 99.6856 43.5641 100.001C41.2084 98.9505 39.4878 97.4215 38.1767 95.4115C36.792 93.2895 36.1331 90.9424 36.0985 88.4034C36.0811 87.1674 36.0811 85.9203 35.9143 84.7023C35.5069 81.7323 34.1069 80.4023 31.4696 80.3252C28.763 80.2472 26.6218 81.9133 26.0541 84.5383C26.0107 84.7393 25.9479 84.9383 25.8851 85.1723L25.8894 85.1753Z" fill="white"/>
<path d="M25.8894 85.1753C21.3537 81.0453 20.0296 72.3681 21.9194 66.082C25.196 70.0451 29.7359 71.3011 34.4385 72.0091C41.6982 73.1031 48.8278 72.6941 55.5718 69.3891C56.3433 69.0111 57.0562 68.5071 57.8992 67.9981C58.532 69.8261 58.6967 71.6721 58.4756 73.5511C57.9382 78.1272 55.6519 81.6623 52.0156 84.3413C50.5615 85.4133 49.0229 86.3714 47.5211 87.3824C42.9074 90.4874 41.6592 94.1295 43.3928 99.4276C43.434 99.5566 43.4708 99.6856 43.5641 100.001C41.2084 98.9505 39.4878 97.4215 38.1767 95.4115C36.792 93.2895 36.1331 90.9424 36.0985 88.4034C36.0811 87.1674 36.0811 85.9203 35.9143 84.7023C35.5069 81.7323 34.1069 80.4023 31.4696 80.3252C28.763 80.2472 26.6218 81.9133 26.0541 84.5383C26.0107 84.7393 25.9479 84.9383 25.8851 85.1723L25.8894 85.1753Z" fill="url(#paint0_linear_4346_381)"/>
<path d="M0 65.035C0 65.035 13.4309 58.5186 26.8993 58.5186L37.054 27.2159C37.4342 25.7021 38.5443 24.6733 39.7974 24.6733C41.0506 24.6733 42.1607 25.7021 42.5409 27.2159L52.6956 58.5186C68.6468 58.5186 79.5953 65.035 79.5953 65.035C79.5953 65.035 56.7814 3.13305 56.7368 3.00885C56.082 1.17872 54.9768 0 53.4865 0H26.1108C24.6205 0 23.5598 1.17872 22.8604 3.00885C22.8111 3.13075 0 65.035 0 65.035Z" fill="white"/>
<path d="M141.61 45.1223C141.61 50.6075 134.76 53.8835 125.276 53.8835C119.102 53.8835 116.919 52.3598 116.919 49.16C116.919 45.8079 119.629 44.208 125.802 44.208C131.373 44.208 136.115 44.2841 141.61 44.9698V45.1223ZM141.686 38.3417C138.298 37.5799 133.179 37.1228 127.082 37.1228C109.316 37.1228 100.961 41.313 100.961 51.0646C100.961 61.1973 106.682 65.0828 119.93 65.0828C131.147 65.0828 138.749 62.2639 141.535 55.331H141.986C141.911 57.0071 141.836 58.6832 141.836 59.9783C141.836 63.559 142.438 63.8637 145.373 63.8637H159.224C158.471 61.7306 158.021 55.7119 158.021 50.5313C158.021 44.9698 158.246 40.7797 158.246 35.142C158.246 23.638 151.321 16.3242 129.641 16.3242C120.307 16.3242 109.919 17.9241 102.015 20.2859C102.767 23.4094 103.821 29.7328 104.348 33.8468C111.199 30.647 120.909 29.2757 128.437 29.2757C138.824 29.2757 141.686 31.6374 141.686 36.4371V38.3417Z" fill="white"/>
<path d="M179.687 48.324C177.805 48.5525 175.245 48.5525 172.61 48.5525C169.825 48.5525 167.266 48.4764 165.534 48.2477C165.534 48.8573 165.459 49.5429 165.459 50.1524C165.459 59.6755 171.708 65.2368 193.688 65.2368C214.388 65.2368 221.088 59.7517 221.088 50.0762C221.088 40.9339 216.647 36.4391 197 35.4486C181.719 34.7629 180.364 33.0869 180.364 31.1823C180.364 28.9729 182.321 27.8301 192.559 27.8301C203.173 27.8301 206.033 29.2776 206.033 32.3251V33.0107C207.539 32.9345 210.249 32.8584 213.034 32.8584C215.668 32.8584 218.529 32.9345 220.185 33.0869C220.185 32.4012 220.261 31.7918 220.261 31.2585C220.261 20.0592 210.926 16.4023 192.86 16.4023C172.535 16.4023 165.685 21.3544 165.685 31.0299C165.685 39.715 171.181 45.1242 190.677 45.9622C205.054 46.4193 206.636 48.0192 206.636 50.2286C206.636 52.5903 204.302 53.6569 194.215 53.6569C182.622 53.6569 179.687 52.057 179.687 48.7811V48.324Z" fill="white"/>
<path d="M245.938 8.17188C240.443 13.2764 230.582 18.3807 225.087 19.7521C225.162 22.5709 225.162 27.7515 225.162 30.5703L230.205 30.6465C230.13 36.0557 230.055 42.6076 230.055 46.9502C230.055 57.0827 235.399 64.7014 252.035 64.7014C259.036 64.7014 263.703 63.9395 269.499 62.7205C268.897 58.9874 268.219 53.2735 267.993 48.931C264.532 50.0737 260.165 50.6832 255.347 50.6832C248.648 50.6832 245.938 48.8548 245.938 43.598C245.938 39.027 245.938 34.7605 246.013 30.7989C254.595 30.8751 263.176 31.0274 268.219 31.1798C268.144 27.2182 268.295 21.5043 268.52 17.695C261.219 17.8474 253.014 17.9236 246.239 17.9236C246.314 14.5715 246.39 11.3717 246.465 8.17188H245.938Z" fill="white"/>
<path d="M290.897 28.2864C290.973 24.3247 291.048 20.9727 291.123 17.6966H275.992C276.218 24.2486 276.218 30.9529 276.218 40.7808C276.218 50.6086 276.143 57.3891 275.992 63.8649H293.306C293.005 59.2938 292.929 51.5991 292.929 45.0472C292.929 34.686 297.145 31.7147 306.705 31.7147C311.147 31.7147 314.308 32.248 317.093 33.2385C317.169 29.353 317.922 21.8107 318.373 18.4585C315.512 17.6205 312.351 17.0872 308.511 17.0872C300.307 17.011 294.285 20.3632 291.5 28.3626L290.897 28.2864Z" fill="white"/>
<path d="M366.271 40.4749C366.271 48.7791 360.249 52.6646 350.764 52.6646C341.355 52.6646 335.333 49.0076 335.333 40.4749C335.333 31.9421 341.43 28.7424 350.764 28.7424C360.173 28.7424 366.271 32.1707 366.271 40.4749ZM382.003 40.094C382.003 23.5618 369.056 16.1719 350.764 16.1719C332.397 16.1719 319.901 23.5618 319.901 40.094C319.901 56.55 331.569 65.3879 350.689 65.3879C369.959 65.3879 382.003 56.55 382.003 40.094Z" fill="white"/>
<defs>
<linearGradient id="paint0_linear_4346_381" x1="21.086" y1="100.001" x2="64.8182" y2="79.2562" gradientUnits="userSpaceOnUse">
<stop stop-color="#D83333"/>
<stop offset="1" stop-color="#F041FF"/>
</linearGradient>
</defs>
</svg>
