<svg width="196" height="27" viewBox="0 0 196 27" fill="none" xmlns="http://www.w3.org/2000/svg">
<path d="M143.753 23.2446C141.429 23.2446 139.499 22.4698 137.964 20.9202C136.45 19.3286 135.693 17.3706 135.693 15.0462C135.693 12.6798 136.45 10.7218 137.964 9.1722C139.499 7.62256 141.429 6.84774 143.753 6.84774C145.353 6.84774 146.75 7.24562 147.944 8.04138C149.138 8.8162 150.034 9.89467 150.631 11.2768L147.944 12.3762C147.112 10.4496 145.651 9.48632 143.561 9.48632C142.218 9.48632 141.056 10.0203 140.075 11.0883C139.115 12.1563 138.635 13.4756 138.635 15.0462C138.635 16.6168 139.115 17.9361 140.075 19.004C141.056 20.072 142.218 20.606 143.561 20.606C145.715 20.606 147.229 19.6427 148.104 17.7162L150.727 18.8156C150.151 20.1977 149.245 21.2866 148.008 22.0824C146.792 22.8572 145.374 23.2446 143.753 23.2446Z" fill="#B9BEEE"/>
<path d="M155.767 18.0303C155.767 18.7842 156.087 19.4124 156.727 19.915C157.388 20.4176 158.156 20.6689 159.03 20.6689C160.267 20.6689 161.365 20.2186 162.325 19.3182C163.306 18.4177 163.796 17.3602 163.796 16.1456C162.879 15.4336 161.6 15.0776 159.958 15.0776C158.763 15.0776 157.761 15.3603 156.951 15.9257C156.162 16.4911 155.767 17.1926 155.767 18.0303ZM159.574 6.84774C161.749 6.84774 163.465 7.42362 164.724 8.57538C165.982 9.7062 166.611 11.2663 166.611 13.2557V22.742H163.796V20.606H163.668C162.453 22.3651 160.832 23.2446 158.806 23.2446C157.079 23.2446 155.629 22.742 154.456 21.7369C153.304 20.7317 152.728 19.4752 152.728 17.9675C152.728 16.3759 153.336 15.109 154.552 14.1667C155.788 13.2243 157.431 12.7531 159.478 12.7531C161.226 12.7531 162.666 13.0672 163.796 13.6955V13.0358C163.796 12.0307 163.391 11.1825 162.58 10.4915C161.77 9.77949 160.821 9.42349 159.734 9.42349C158.092 9.42349 156.791 10.1041 155.831 11.4653L153.24 9.86326C154.669 7.85291 156.78 6.84774 159.574 6.84774Z" fill="#B9BEEE"/>
<path d="M173.353 22.742H170.41V7.35033H173.225V9.86326H173.353C173.651 9.04655 174.259 8.3555 175.176 7.79009C176.114 7.20374 177.031 6.91056 177.927 6.91056C178.78 6.91056 179.505 7.03621 180.102 7.2875L179.206 10.0831C178.844 9.93655 178.268 9.86326 177.479 9.86326C176.37 9.86326 175.4 10.303 174.568 11.1825C173.758 12.0621 173.353 13.0882 173.353 14.2609V22.742Z" fill="#B9BEEE"/>
<path d="M188.579 23.2446C186.276 23.2446 184.378 22.4698 182.885 20.9202C181.392 19.3705 180.646 17.4125 180.646 15.0462C180.646 12.7008 181.371 10.7533 182.821 9.20361C184.271 7.63303 186.127 6.84774 188.387 6.84774C190.711 6.84774 192.556 7.59115 193.921 9.07797C195.307 10.5438 196 12.6065 196 15.2661L195.968 15.5802H183.653C183.696 17.0879 184.207 18.3025 185.188 19.2239C186.169 20.1453 187.342 20.606 188.707 20.606C190.583 20.606 192.055 19.6846 193.121 17.8418L195.744 19.0983C195.04 20.3966 194.059 21.4123 192.801 22.1452C191.564 22.8782 190.157 23.2446 188.579 23.2446ZM183.877 13.1929H192.865C192.78 12.1249 192.332 11.2454 191.522 10.5543C190.733 9.84232 189.667 9.48632 188.323 9.48632C187.214 9.48632 186.255 9.82137 185.444 10.4915C184.655 11.1616 184.133 12.0621 183.877 13.1929Z" fill="#B9BEEE"/>
<path d="M44.4037 22.742H41.4609L35.1274 7.35033H38.3261L42.9323 19.2868H42.9963L47.6664 7.35033H50.8012L44.4037 22.742Z" fill="#7A7ED9"/>
<path d="M57.0082 2.04176C57.0082 2.60717 56.8056 3.08881 56.4005 3.48669C55.9953 3.88457 55.5048 4.08351 54.929 4.08351C54.3533 4.08351 53.8628 3.88457 53.4576 3.48669C53.0524 3.08881 52.8499 2.60717 52.8499 2.04176C52.8499 1.47635 53.0524 0.994702 53.4576 0.596821C53.8628 0.19894 54.3533 0 54.929 0C55.5048 0 55.9953 0.19894 56.4005 0.596821C56.8056 0.994702 57.0082 1.47635 57.0082 2.04176ZM56.4005 7.35033V22.742H53.4576V7.35033H56.4005Z" fill="#7A7ED9"/>
<path d="M66.7594 22.9933C65.4799 22.9933 64.4136 22.6059 63.5606 21.8311C62.729 21.0563 62.3025 19.9778 62.2811 18.5957V9.9889H59.5302V7.35033H62.2811V2.63858H65.224V7.35033H69.0624V9.9889H65.224V17.6533C65.224 18.6795 65.4266 19.381 65.8317 19.7579C66.2369 20.1139 66.6954 20.2919 67.2072 20.2919C67.4418 20.2919 67.6657 20.271 67.8789 20.2291C68.1135 20.1663 68.3267 20.093 68.5187 20.0092L69.4463 22.585C68.6786 22.8572 67.783 22.9933 66.7594 22.9933Z" fill="#7A7ED9"/>
<path d="M74.1724 18.0303C74.1724 18.7842 74.4923 19.4124 75.132 19.915C75.7931 20.4176 76.5608 20.6689 77.4351 20.6689C78.672 20.6689 79.7702 20.2186 80.7298 19.3182C81.7108 18.4177 82.2012 17.3602 82.2012 16.1456C81.2843 15.4336 80.0048 15.0776 78.3628 15.0776C77.1686 15.0776 76.1663 15.3603 75.356 15.9257C74.5669 16.4911 74.1724 17.1926 74.1724 18.0303ZM77.9789 6.84774C80.1541 6.84774 81.8707 7.42362 83.1289 8.57538C84.3871 9.7062 85.0161 11.2663 85.0161 13.2557V22.742H82.2012V20.606H82.0733C80.8578 22.3651 79.2371 23.2446 77.2112 23.2446C75.4839 23.2446 74.0338 22.742 72.8609 21.7369C71.7094 20.7317 71.1336 19.4752 71.1336 17.9675C71.1336 16.3759 71.7414 15.109 72.9569 14.1667C74.1938 13.2243 75.8358 12.7531 77.883 12.7531C79.6316 12.7531 81.071 13.0672 82.2012 13.6955V13.0358C82.2012 12.0307 81.7961 11.1825 80.9857 10.4915C80.1754 9.77949 79.2264 9.42349 78.1389 9.42349C76.4968 9.42349 75.196 10.1041 74.2364 11.4653L71.6454 9.86326C73.0742 7.85291 75.1854 6.84774 77.9789 6.84774Z" fill="#7A7ED9"/>
<path d="M91.758 0.251294V22.742H88.8151V0.251294H91.758Z" fill="#7A7ED9"/>
<path d="M99.6301 2.04176C99.6301 2.60717 99.4275 3.08881 99.0223 3.48669C98.6172 3.88457 98.1267 4.08351 97.5509 4.08351C96.9752 4.08351 96.4847 3.88457 96.0795 3.48669C95.6743 3.08881 95.4717 2.60717 95.4717 2.04176C95.4717 1.47635 95.6743 0.994702 96.0795 0.596821C96.4847 0.19894 96.9752 0 97.5509 0C98.1267 0 98.6172 0.19894 99.0223 0.596821C99.4275 0.994702 99.6301 1.47635 99.6301 2.04176ZM99.0223 7.35033V22.742H96.0795V7.35033H99.0223Z" fill="#7A7ED9"/>
<path d="M115.231 22.742H102.564V20.2291L111.489 9.9889H102.82V7.35033H115.103V9.86326L106.179 20.1035H115.231V22.742Z" fill="#7A7ED9"/>
<path d="M125.249 23.2446C122.946 23.2446 121.048 22.4698 119.556 20.9202C118.063 19.3705 117.317 17.4125 117.317 15.0462C117.317 12.7008 118.042 10.7533 119.492 9.20361C120.942 7.63303 122.797 6.84774 125.058 6.84774C127.382 6.84774 129.227 7.59115 130.591 9.07797C131.977 10.5438 132.671 12.6065 132.671 15.2661L132.639 15.5802H120.323C120.366 17.0879 120.878 18.3025 121.859 19.2239C122.84 20.1453 124.013 20.606 125.377 20.606C127.254 20.606 128.725 19.6846 129.792 17.8418L132.415 19.0983C131.711 20.3966 130.73 21.4123 129.472 22.1452C128.235 22.8782 126.827 23.2446 125.249 23.2446ZM120.547 13.1929H129.536C129.45 12.1249 129.003 11.2454 128.192 10.5543C127.403 9.84232 126.337 9.48632 124.994 9.48632C123.885 9.48632 122.925 9.82137 122.115 10.4915C121.326 11.1616 120.803 12.0621 120.547 13.1929Z" fill="#7A7ED9"/>
<path d="M27.028 3.4748C31.2994 7.56687 30.2288 15.4471 24.6369 21.0759C19.045 26.7046 11.0492 27.9503 6.7778 23.8583C2.50643 19.7662 3.57697 11.8859 9.16891 6.25718C14.7608 0.628444 22.7566 -0.617272 27.028 3.4748Z" fill="#B9BEEE"/>
<path d="M3.97354 2.48098C8.83502 -0.656697 16.2519 1.99311 20.5396 8.39949C24.8274 14.8059 24.3623 22.5429 19.5008 25.6805C14.6393 28.8182 7.2224 26.1684 2.93467 19.762C-1.35306 13.3556 -0.887939 5.61866 3.97354 2.48098Z" fill="#7A7ED9"/>
</svg>
