<svg xmlns="http://www.w3.org/2000/svg" viewBox="0 0 24 24" fill="none">
  <path
    class="youtube-body"
    fill="currentColor"
    d="M12.244 4c.534.003 1.87.016 3.29.073l.504.022c1.429.067 2.857.183 3.566.38.945.266 1.687 1.04 1.938 2.022.4 1.559.45 4.602.456 5.339V12c0 .007 0 .01 0 .01v.152c-.006.737-.056 3.78-.456 5.339-.254.985-.997 1.76-1.938 2.022-.708.198-2.137.313-3.566.381l-.504.022c-1.42.057-2.756.07-3.29.073h-.235-.01-.234c-1.13-.006-5.857-.057-7.36-.475-.945-.265-1.687-1.04-1.938-2.021C2.056 15.942 2.006 12.899 2 12.162v-.327c.006-.736.056-3.78.456-5.338.255-.986.997-1.76 1.939-2.022C5.898 4.057 10.624 4.006 11.755 4h.489Z"
  />
  <path
    class="youtube-play"
    fill="white"
    d="M10 8.5v7l6-3.5-6-3.5Z"
  />
</svg>
