<svg width="20" height="20" viewBox="0 0 20 20" fill="none" xmlns="http://www.w3.org/2000/svg">
<g clip-path="url(#clip0_814_3350)">
<path fill-rule="evenodd" clip-rule="evenodd" d="M13.0514 12.2269C14.7402 12.3098 16.504 11.5518 17.0515 10.0435C17.599 8.53525 17.3867 7.04363 15.4225 6.14897C13.4584 5.25401 12.5513 4.19027 10.9644 3.54847C9.92767 3.12912 8.77415 3.378 7.58966 4.03261C4.39949 5.79575 1.54108 11.3662 2.85859 16.5273C2.87749 16.598 2.84577 16.6721 2.78158 16.7076C2.71779 16.7427 2.63769 16.7295 2.58822 16.6756C0.811858 14.7162 -0.187693 12.0592 0.0293642 9.2165C0.448566 3.72707 5.24557 -0.389335 10.735 0.0298666C16.224 0.449019 20.3404 5.24598 19.9212 10.7354C19.7452 13.0407 18.7973 15.1037 17.3497 16.6905C16.2427 17.8276 14.8324 18.3331 13.6554 18.3122C12.8022 18.2971 11.9677 17.9575 11.3907 17.461C10.5669 16.7514 10.234 15.9406 10.1201 15.0354C10.0916 14.8106 10.1084 14.1976 10.2255 13.7731C10.3125 13.4567 10.534 12.8454 10.8577 12.5782C10.4789 12.4153 9.99181 12.0601 9.83794 11.8897C9.80039 11.8479 9.80542 11.7821 9.83924 11.7372C9.8727 11.6919 9.93231 11.6743 9.98512 11.6933C10.3107 11.805 10.7072 11.915 11.1253 11.9851C11.6749 12.0771 12.3586 12.1926 13.0514 12.2269ZM9.6146 4.24368C10.1527 4.20149 10.6222 4.66079 10.7031 5.27156C10.8111 6.08523 10.5125 6.92573 9.53051 6.94508C8.69166 6.96179 8.43749 6.1159 8.4931 5.60343C8.54832 5.09096 8.97076 4.29421 9.6146 4.24368Z" fill="white"/>
</g>
<defs>
<clipPath id="clip0_814_3350">
<rect width="20" height="20" fill="white"/>
</clipPath>
</defs>
</svg>
