<?xml version="1.0" encoding="UTF-8"?>
<svg version="1.1" xmlns="http://www.w3.org/2000/svg" width="256" height="256">
<path d="M0 0 C2.61880007 7.32432486 5.22735526 14.65221024 7.82302856 21.98475838 C9.02873135 25.38975059 10.2378771 28.79343537 11.45507812 32.19433594 C12.63045368 35.47878206 13.79653961 38.76639234 14.95635986 42.05636215 C15.61476503 43.91639806 16.2826525 45.77306869 16.95068359 47.62966919 C17.55130615 49.3407637 17.55130615 49.3407637 18.1640625 51.08642578 C18.51936035 52.08570099 18.8746582 53.0849762 19.24072266 54.11453247 C20.05009454 57.19037334 20.13813203 59.83350687 20 63 C19.35417969 63.25652344 18.70835937 63.51304688 18.04296875 63.77734375 C14.67758128 65.14467628 11.33400122 66.55822571 8 68 C6.93918213 68.45874512 6.93918213 68.45874512 5.85693359 68.92675781 C-12.46730892 76.96224217 -28.26508661 87.48970408 -43 101 C-44.04027344 101.95132813 -44.04027344 101.95132813 -45.1015625 102.921875 C-49.48296639 107.12322119 -53.16790059 111.85564463 -56.88671875 116.64453125 C-58.87683213 118.86271678 -60.25936234 119.92972841 -63 121 C-65.29332975 119.37730453 -67.58470136 117.75196361 -69.875 116.125 C-70.52597656 115.66480469 -71.17695312 115.20460938 -71.84765625 114.73046875 C-72.47285156 114.28574219 -73.09804687 113.84101562 -73.7421875 113.3828125 C-74.3182373 112.97434082 -74.89428711 112.56586914 -75.48779297 112.14501953 C-77 111 -77 111 -79 109 C-78.75244925 104.57409269 -76.87279706 102.18413713 -74.0625 98.875 C-73.25039062 97.91851562 -72.43828125 96.96203125 -71.6015625 95.9765625 C-70.74304688 94.99429688 -69.88453125 94.01203125 -69 93 C-68.16210938 92.03835937 -67.32421875 91.07671875 -66.4609375 90.0859375 C-52.59717095 74.50529584 -30.00615013 53.36229005 -9 49 C-9.433125 47.79601563 -9.86625 46.59203125 -10.3125 45.3515625 C-10.87516497 43.77610058 -11.43765597 42.20057651 -12 40.625 C-12.28617188 39.8309375 -12.57234375 39.036875 -12.8671875 38.21875 C-13.13789063 37.45820312 -13.40859375 36.69765625 -13.6875 35.9140625 C-13.93886719 35.2123291 -14.19023437 34.5105957 -14.44921875 33.78759766 C-15 32 -15 32 -15 30 C-34.86509285 36.95735971 -52.38426166 50.17185276 -68 64 C-68.9178125 64.79535156 -69.835625 65.59070313 -70.78125 66.41015625 C-75.96426922 70.96090958 -80.65133725 75.64917629 -85 81 C-85.83273438 82.01835938 -86.66546875 83.03671875 -87.5234375 84.0859375 C-94.20999507 92.37289983 -100.34610996 100.97547316 -106 110 C-106.39848145 110.62406738 -106.79696289 111.24813477 -107.20751953 111.89111328 C-108.22066533 113.5464243 -109.11960382 115.27042736 -110 117 C-109.28739548 120.24626007 -109.28739548 120.24626007 -106.2097168 121.60302734 C-104.96119676 122.19134913 -103.70720496 122.76813869 -102.44921875 123.3359375 C-101.77234512 123.65137512 -101.0954715 123.96681274 -100.39808655 124.29180908 C-98.16562632 125.32935538 -95.92670643 126.35210512 -93.6875 127.375 C-92.12943602 128.09587757 -90.57182273 128.81772997 -89.01464844 129.54052734 C-85.85068999 131.0072184 -82.68417411 132.46814388 -79.51513672 133.92382812 C-74.37678941 136.28442292 -69.25003692 138.66945235 -64.12353516 141.05566406 C-60.70763619 142.64470724 -57.28959412 144.22906188 -53.87109375 145.8125 C-47.45419032 148.78665481 -41.04527526 151.77771673 -34.63781738 154.77215576 C-22.50423606 160.44133692 -10.36409888 166.09652014 1.78262329 171.73748779 C3.5677714 172.56688008 5.35259225 173.3969772 7.13705444 174.22784424 C17.35781396 178.98591124 27.60125947 183.64226979 38 188 C39.22676665 184.31970004 38.63691679 183.24717395 37.36035156 179.64355469 C36.97501755 178.54162277 36.58968353 177.43969086 36.19267273 176.30436707 C35.5481591 174.50628349 35.5481591 174.50628349 34.890625 172.671875 C34.44692023 171.41432138 34.00400784 170.15648793 33.56184387 168.89839172 C32.62162927 166.22862847 31.67573147 163.56097458 30.72537231 160.89480591 C29.25215704 156.76098905 27.79403874 152.62194546 26.33764648 148.48217773 C22.31624595 137.06500954 18.2666453 125.65935444 14.08203125 114.30078125 C13.55093044 112.84869729 13.01999523 111.39655275 12.48925781 109.94433594 C11.56900218 107.42744375 10.62720646 104.92279459 9.67089844 102.41894531 C9.07776855 100.80584473 9.07776855 100.80584473 8.47265625 99.16015625 C7.96617554 97.82416382 7.96617554 97.82416382 7.44946289 96.46118164 C6.87112091 93.29428022 7.41017548 91.77296349 9 89 C10.63232422 87.86572266 10.63232422 87.86572266 12.5546875 87.1640625 C13.25207031 86.90496094 13.94945312 86.64585938 14.66796875 86.37890625 C15.39628906 86.13011719 16.12460938 85.88132812 16.875 85.625 C17.59558594 85.35300781 18.31617188 85.08101563 19.05859375 84.80078125 C25.57879492 82.45927254 25.57879492 82.45927254 29 84 C30.21191406 85.94042969 30.21191406 85.94042969 31.265625 88.671875 C31.90081055 90.31446289 31.90081055 90.31446289 32.54882812 91.99023438 C35.35124837 99.6608925 38.02231214 107.37729593 40.67056274 115.1022644 C42.54109185 120.55689459 44.42514262 126.00685213 46.30859375 131.45703125 C46.69597214 132.57868179 47.08335052 133.70033234 47.48246765 134.85597229 C51.18409528 145.56050803 54.95177473 156.24116193 58.74017334 166.91525269 C59.80637731 169.92024381 60.87044903 172.92598278 61.93408203 175.93188477 C64.88292771 184.25923518 67.84009063 192.58290877 70.8591156 200.88511658 C72.01940598 204.07829249 73.17131959 207.27445679 74.32235718 210.47097778 C75.10151577 212.6226476 75.89386338 214.76913766 76.68676758 216.91577148 C77.14868204 218.19749004 77.6099092 219.47945659 78.0703125 220.76171875 C78.47008301 221.85444092 78.86985352 222.94716309 79.28173828 224.07299805 C80.04077581 227.16616628 79.88984704 228.97445006 79 232 C74.89724897 233.41156693 72.46371875 232.65513218 68.60856628 230.82775879 C67.92949722 230.4888562 67.25042816 230.14995361 66.55078125 229.80078125 C65.46903374 229.28167175 65.46903374 229.28167175 64.36543274 228.7520752 C62.0082897 227.61784594 59.66070536 226.46510256 57.3125 225.3125 C55.67376226 224.52082948 54.03426919 223.73072066 52.39404297 222.94213867 C49.11117032 221.36321301 45.83089925 219.77907303 42.55224609 218.19140625 C36.61115995 215.32226245 30.62424134 212.55793165 24.625 209.8125 C15.4861517 205.61275408 6.36247848 201.38157714 -2.75 197.125 C-3.6895755 196.68614975 -3.6895755 196.68614975 -4.64813232 196.23843384 C-7.82742353 194.75335876 -11.00653008 193.26788894 -14.18554688 191.78222656 C-19.83231077 189.14353499 -25.48072553 186.50838121 -31.12902832 183.87298584 C-34.25275431 182.41547123 -37.37637161 180.95772374 -40.5 179.5 C-41.74999948 178.91666555 -42.99999948 178.33333222 -44.25 177.75 C-81.75 160.25 -81.75 160.25 -83.62460327 159.37516785 C-84.87590803 158.79123716 -86.12723049 158.2073444 -87.37857056 157.62348938 C-90.48375319 156.17460433 -93.58863582 154.72508371 -96.69287109 153.27416992 C-102.55389294 150.53557481 -108.41788258 147.80387674 -114.29180908 145.0930481 C-117.06868521 143.81106587 -119.84397186 142.52566352 -122.61914062 141.23999023 C-123.94354446 140.62759854 -125.26872657 140.01688684 -126.59472656 139.40795898 C-128.43229556 138.56398108 -130.26699461 137.71376299 -132.1015625 136.86328125 C-133.14650879 136.38157471 -134.19145508 135.89986816 -135.26806641 135.40356445 C-137.75200069 134.12741269 -139.83510443 132.75310535 -142 131 C-141.45057292 125.12016633 -139.09822526 120.36800164 -136.5625 115.125 C-135.89250977 113.73269165 -135.89250977 113.73269165 -135.20898438 112.31225586 C-131.04028517 103.8118806 -126.29917147 95.83683235 -121 88 C-120.60345215 87.40670898 -120.2069043 86.81341797 -119.79833984 86.20214844 C-105.86702171 65.50190905 -88.23583006 46.62085285 -68 32 C-67.37125977 31.54286621 -66.74251953 31.08573242 -66.09472656 30.61474609 C-18.82873842 -3.48781728 -18.82873842 -3.48781728 0 0 Z " fill="#D7332A" transform="translate(159,12)"/>
</svg>
