<svg width="847" height="238" viewBox="0 0 847 238" fill="none" xmlns="http://www.w3.org/2000/svg">
<path d="M1.90273e-05 109.362L0 0.53833L73.1818 0.538317L73.1818 20.258L22.6411 20.258L22.6411 44.944L70.2604 44.944L70.2604 64.6637L22.6411 64.6637L22.6411 89.6419L73.1818 89.6419L73.1818 109.362L1.90273e-05 109.362Z" fill="#FFFFFF"/>
<path d="M88.1436 109.362L88.1436 0.53833L110.054 0.538326L150.808 54.5848L140.583 54.5848L180.169 0.538314L202.079 0.53831L202.079 109.362L179.438 109.362L179.438 25.5165L188.495 27.5615L146.572 81.608L143.651 81.608L103.189 27.5616L110.785 25.5165L110.785 109.362L88.1436 109.362Z" fill="#FFFFFF"/>
<path d="M217.041 109.362L217.041 0.53833L263.054 0.538322C270.552 0.538321 276.979 1.80427 282.335 4.33618C287.691 6.86809 291.781 10.5199 294.605 15.2915C297.429 19.9658 298.841 25.6626 298.841 32.3819C298.841 37.1536 297.526 41.7305 294.897 46.1126C292.268 50.3974 287.934 54.0005 281.897 56.9219L281.897 45.8205C287.642 48.0602 292.073 50.7382 295.189 53.8544C298.305 56.9706 300.448 60.3789 301.616 64.0794C302.785 67.6825 303.369 71.4803 303.369 75.473C303.369 86.1849 299.815 94.5109 292.706 100.451C285.597 106.391 275.713 109.362 263.054 109.362L217.041 109.362ZM239.682 89.6419L265.683 89.6419C270.26 89.6419 273.912 88.3273 276.638 85.698C279.365 83.0687 280.728 79.6604 280.728 75.473C280.728 71.1882 279.365 67.7312 276.638 65.1019C273.912 62.4726 270.26 61.158 265.683 61.158L239.682 61.158L239.682 89.6419ZM239.682 41.4383L264.66 41.4383C268.166 41.4383 270.941 40.4645 272.986 38.5169C275.129 36.4719 276.2 33.7939 276.2 30.483C276.2 27.172 275.129 24.5427 272.986 22.5951C270.941 20.5501 268.166 19.5276 264.66 19.5276L239.682 19.5276L239.682 41.4383Z" fill="#FFFFFF"/>
<path d="M318.331 109.362L318.331 0.53833L391.513 0.538317L391.513 20.258L340.972 20.258L340.972 44.944L388.591 44.944L388.591 64.6637L340.972 64.6637L340.972 89.6419L391.513 89.6419L391.513 109.362L318.331 109.362Z" fill="#FFFFFF"/>
<path d="M406.476 109.362L406.476 0.53833L441.971 0.538324C453.754 0.538322 463.979 2.87546 472.646 7.54975C481.313 12.224 488.032 18.6512 492.804 26.8312C497.575 35.0112 499.961 44.3597 499.961 54.8769C499.961 65.394 497.575 74.7913 492.804 83.0687C488.032 91.2487 481.313 97.6758 472.646 102.35C463.979 107.024 453.754 109.362 441.971 109.362L406.476 109.362ZM429.117 89.6419L442.555 89.6419C449.664 89.6419 455.799 88.2299 460.96 85.4058C466.121 82.4844 470.114 78.4431 472.938 73.2819C475.86 68.0233 477.32 61.8883 477.32 54.8769C477.32 47.7681 475.86 41.6331 472.938 36.4719C470.114 31.3107 466.121 27.3181 460.96 24.494C455.799 21.67 449.664 20.258 442.555 20.258L429.117 20.258L429.117 89.6419Z" fill="#FFFFFF"/>
<path d="M514.923 109.362L514.923 0.53833L550.418 0.538324C562.201 0.538322 572.426 2.87546 581.093 7.54975C589.76 12.224 596.479 18.6512 601.251 26.8312C606.023 35.0112 608.409 44.3597 608.409 54.8769C608.409 65.394 606.023 74.7913 601.251 83.0687C596.479 91.2487 589.76 97.6758 581.093 102.35C572.426 107.024 562.201 109.362 550.418 109.362L514.923 109.362ZM537.564 89.6419L551.003 89.6419C558.111 89.6419 564.246 88.2299 569.408 85.4058C574.569 82.4844 578.561 78.4431 581.385 73.2819C584.307 68.0233 585.768 61.8883 585.768 54.8769C585.768 47.7681 584.307 41.6331 581.385 36.4719C578.561 31.3107 574.569 27.3181 569.408 24.494C564.246 21.67 558.111 20.258 551.003 20.258L537.564 20.258L537.564 89.6419Z" fill="#FFFFFF"/>
<path d="M623.37 109.362L623.37 0.53833L696.552 0.538317L696.552 20.258L646.011 20.258L646.011 44.944L693.63 44.944L693.63 64.6637L646.011 64.6637L646.011 89.6419L696.552 89.6419L696.552 109.362L623.37 109.362Z" fill="#FFFFFF"/>
<path d="M711.515 109.362L711.515 0.53833L747.01 0.538324C758.793 0.538322 769.018 2.87546 777.685 7.54975C786.352 12.224 793.071 18.6512 797.843 26.8312C802.615 35.0112 805 44.3597 805 54.8769C805 65.394 802.615 74.7913 797.843 83.0687C793.071 91.2487 786.352 97.6758 777.685 102.35C769.018 107.024 758.793 109.362 747.01 109.362L711.515 109.362ZM734.156 89.6419L747.594 89.6419C754.703 89.6419 760.838 88.2299 765.999 85.4058C771.16 82.4844 775.153 78.4431 777.977 73.2819C780.899 68.0233 782.359 61.8883 782.359 54.8769C782.359 47.7681 780.899 41.6331 777.977 36.4719C775.153 31.3107 771.16 27.3181 765.999 24.494C760.838 21.67 754.703 20.258 747.594 20.258L734.156 20.258L734.156 89.6419Z" fill="#FFFFFF"/>
<path d="M1.59395e-05 234.525L0 143.362L11.992 143.362L11.992 234.525L1.59395e-05 234.525Z" fill="#FFFFFF"/>
<path d="M40.2158 234.525L40.2158 143.362L50.2499 143.362L102.623 217.026L98.0954 217.516L98.0954 143.362L110.21 143.362L110.21 234.525L100.176 234.525L48.0473 160.371L52.2078 159.881L52.2078 234.525L40.2158 234.525Z" fill="#FFFFFF"/>
<path d="M173.798 237.462C168.006 237.462 162.703 236.401 157.89 234.28C153.077 232.078 148.998 229.1 145.653 225.347C142.309 221.595 139.902 217.394 138.434 212.744L148.835 208.461C151.037 214.334 154.301 218.862 158.624 222.043C163.029 225.143 168.169 226.693 174.042 226.693C177.632 226.693 180.773 226.122 183.465 224.98C186.157 223.838 188.237 222.247 189.705 220.208C191.255 218.087 192.03 215.64 192.03 212.866C192.03 209.032 190.929 206.013 188.726 203.811C186.605 201.527 183.465 199.813 179.304 198.671L162.54 193.532C155.932 191.493 150.874 188.27 147.366 183.865C143.859 179.46 142.105 174.402 142.105 168.692C142.105 163.715 143.287 159.351 145.653 155.598C148.101 151.764 151.445 148.787 155.687 146.665C160.011 144.463 164.906 143.362 170.371 143.362C175.837 143.362 180.773 144.34 185.178 146.298C189.665 148.256 193.458 150.908 196.558 154.252C199.658 157.515 201.942 161.268 203.41 165.51L193.132 169.793C191.174 164.653 188.237 160.778 184.321 158.168C180.405 155.476 175.796 154.13 170.494 154.13C167.231 154.13 164.335 154.701 161.806 155.843C159.358 156.904 157.441 158.494 156.054 160.615C154.749 162.655 154.097 165.102 154.097 167.957C154.097 171.302 155.157 174.28 157.278 176.89C159.399 179.501 162.621 181.499 166.945 182.886L182.241 187.414C189.42 189.616 194.845 192.757 198.516 196.836C202.187 200.915 204.022 205.973 204.022 212.009C204.022 216.986 202.717 221.391 200.107 225.225C197.578 229.059 194.029 232.078 189.461 234.28C184.974 236.401 179.753 237.462 173.798 237.462Z" fill="#FFFFFF"/>
<path d="M265.897 235.993C259.289 235.993 253.416 234.606 248.276 231.833C243.218 229.059 239.262 225.266 236.407 220.453C233.633 215.558 232.246 210.011 232.246 203.811L232.246 143.362L244.36 143.362L244.36 203.566C244.36 207.727 245.258 211.438 247.053 214.701C248.929 217.883 251.458 220.371 254.639 222.166C257.902 223.961 261.655 224.858 265.897 224.858C270.139 224.858 273.851 223.961 277.032 222.166C280.296 220.371 282.824 217.883 284.619 214.701C286.495 211.438 287.434 207.727 287.434 203.566L287.434 143.362L299.548 143.362L299.548 203.811C299.548 210.011 298.12 215.558 295.265 220.453C292.491 225.266 288.576 229.059 283.518 231.833C278.46 234.606 272.586 235.993 265.897 235.993Z" fill="#FFFFFF"/>
<path d="M327.772 234.525L327.771 143.362L359.954 143.362C365.991 143.362 371.293 144.504 375.862 146.788C380.43 149.072 383.979 152.335 386.508 156.577C389.118 160.819 390.423 165.795 390.423 171.506C390.423 177.951 388.792 183.416 385.529 187.903C382.266 192.39 377.86 195.612 372.313 197.57L393.483 234.525L379.533 234.525L357.262 195L365.216 199.65L339.763 199.65L339.763 234.525L327.772 234.525ZM339.763 188.637L360.321 188.637C363.911 188.637 367.051 187.944 369.743 186.557C372.435 185.17 374.516 183.172 375.984 180.561C377.534 177.951 378.309 174.932 378.309 171.506C378.309 167.998 377.534 164.98 375.984 162.451C374.516 159.84 372.435 157.842 369.743 156.455C367.051 155.068 363.911 154.375 360.321 154.375L339.763 154.375L339.763 188.637Z" fill="#FFFFFF"/>
<path d="M421.707 234.525L454.379 143.362L468.574 143.362L501.246 234.525L488.397 234.525L480.933 213.111L442.02 213.111L434.556 234.525L421.707 234.525ZM445.813 202.098L477.139 202.098L459.763 152.05L463.189 152.05L445.813 202.098Z" fill="#FFFFFF"/>
<path d="M529.469 234.525L529.469 143.362L539.503 143.362L591.876 217.026L587.348 217.516L587.348 143.362L599.463 143.362L599.463 234.525L589.429 234.525L537.3 160.371L541.461 159.881L541.461 234.525L529.469 234.525Z" fill="#FFFFFF"/>
<path d="M672.351 237.462C665.907 237.462 659.952 236.32 654.486 234.035C649.102 231.67 644.37 228.366 640.291 224.124C636.294 219.882 633.194 214.905 630.991 209.195C628.789 203.485 627.688 197.244 627.688 190.473C627.688 183.62 628.789 177.339 630.991 171.628C633.194 165.918 636.294 160.942 640.291 156.7C644.289 152.458 649.02 149.194 654.486 146.91C659.952 144.544 665.907 143.362 672.351 143.362C678.633 143.362 684.262 144.463 689.238 146.665C694.296 148.868 698.538 151.723 701.964 155.231C705.472 158.739 707.96 162.492 709.429 166.489L698.416 171.506C696.295 166.448 692.991 162.369 688.504 159.269C684.017 156.088 678.633 154.497 672.351 154.497C665.988 154.497 660.319 156.006 655.342 159.025C650.448 162.043 646.614 166.244 643.84 171.628C641.066 177.012 639.679 183.294 639.679 190.473C639.679 197.57 641.066 203.811 643.84 209.195C646.614 214.579 650.448 218.78 655.342 221.799C660.319 224.817 665.988 226.326 672.351 226.326C678.633 226.326 684.017 224.776 688.504 221.676C692.991 218.495 696.295 214.375 698.416 209.317L709.429 214.334C707.96 218.332 705.472 222.084 701.964 225.592C698.538 229.1 694.296 231.955 689.238 234.158C684.262 236.36 678.633 237.462 672.351 237.462Z" fill="#FFFFFF"/>
<path d="M737.652 234.525L737.652 143.362L797 143.362L797 154.375L749.644 154.375L749.644 183.253L794.553 183.253L794.553 194.266L749.644 194.266L749.644 223.512L797 223.512L797 234.525L737.652 234.525Z" fill="#FFFFFF"/>
<path d="M810.67 22.8883L810.67 4.58833L805 4.58833L805 0.53833L820.9 0.538327L820.9 4.58833L815.32 4.58833L815.32 22.8883L810.67 22.8883Z" fill="#FFFFFF"/>
<path d="M823.203 22.8883L823.203 0.538327L827.703 0.538326L836.073 11.6383L833.973 11.6383L842.103 0.538324L846.603 0.538323L846.603 22.8883L841.953 22.8883L841.953 5.66833L843.813 6.08832L835.203 17.1883L834.603 17.1883L826.293 6.08833L827.853 5.66833L827.853 22.8883L823.203 22.8883Z" fill="#FFFFFF"/>
</svg>
