<svg width="160" height="32" viewBox="0 0 160 32" fill="none" xmlns="http://www.w3.org/2000/svg">
<path fill-rule="evenodd" clip-rule="evenodd" d="M5.61937 14.8766L11.6283 8.32994H16.5836V16.3872L10.5748 22.9338H5.61937V14.8766ZM0.5 12.6486L8.06424 4.05871H21.3538V19.1504L13.7896 27.7402H0.5V12.6486ZM82.5091 16.19V21.4815H87.1688V16.19H82.5091ZM89.509 21.4815V24.1392H80.1896V21.4815H77.8494V16.19H80.1896V13.5323H87.1897V10.8747H80.1896V8.21713H89.509V10.8747H91.8494V21.4579H89.509V21.4815ZM70.8493 10.5186V21.4813H66.1896V10.5186H70.8493ZM61.53 26.1085V30H66.1896V24.1152H73.1897V21.4577H75.5299V10.4949H73.1897V7.83721H63.8702V10.4949H61.53V26.1085ZM105.828 10.8982H108.169V24.139H103.509V10.8982H98.8495V24.139H94.1689V8.2406H105.828V10.8982ZM38.2105 10.8982H33.5508V16.1898H38.2105V10.8982ZM31.2106 24.139V21.4813H28.8702V10.8982H31.2106V8.2406H40.53V10.8982H42.8702V16.1898H40.53V18.8474H33.5299V21.5051H40.53V24.1627H31.2106V24.139ZM45.2105 18.4682H49.8702V13.1529H45.2105V7.86129H49.8702V13.1529H54.5299V7.86129H59.1896V13.1529H54.5299V18.4682H59.1896V23.7597H54.5299V18.4682H49.8702V23.7597H45.2105V18.4682ZM115.169 21.4814V10.5187H119.829V21.4814H115.169ZM124.488 5.89151V2H119.829V7.88475H112.828V10.5424H110.488V21.5052H112.828V24.1628H122.148V21.5052H124.488V5.89151Z" fill="white"/>
<path d="M131.486 18.8481H126.826V24.1398H131.486V18.8481Z" fill="white"/>
<path fill-rule="evenodd" clip-rule="evenodd" d="M138.486 21.4816H143.146V16.1901H138.486V21.4816ZM145.486 21.4816V24.1393H136.167V21.4816H133.826V16.1901H136.167V13.5324H143.167V10.8748H136.167V8.21721H145.486V10.8748H147.827V21.4579H145.486V21.4816ZM150.146 8.24098H154.805V24.1394H150.146V8.24098ZM154.805 2.94946H159.465V8.24098H154.805V2.94946Z" fill="white"/>
</svg>
