<svg width="354" height="73" viewBox="0 0 354 73" fill="none" xmlns="http://www.w3.org/2000/svg">
<g clip-path="url(#clip0_6341_226)">
<path d="M104.677 68.5248H115.34V25.0859H104.677V68.5248Z" fill="white"/>
<path d="M137.02 68.5234V45.1333C137.02 38.0986 141.04 33.5261 147.596 33.5261C153.102 33.5261 156.686 37.0434 156.686 44.3419V68.5234H167.349V41.7918C167.349 30.5364 161.755 23.7656 150.917 23.7656C145.061 23.7656 139.817 26.3156 137.107 30.7123L136.233 25.0845H126.357V68.5234H137.02Z" fill="white"/>
<path d="M192.509 68.5235V34.0538H200.9V25.0846H192.509V11.543H181.846V25.0846H173.543V34.0538H181.846V68.5235H192.509Z" fill="white"/>
<path d="M234.624 24.9086C232.876 24.4689 231.39 24.293 229.904 24.293C224.135 24.293 220.027 27.1948 218.192 31.5035L217.58 25.1724H207.529V68.5233H218.192V47.4194C218.192 38.9779 222.999 34.845 230.691 34.845H234.624V24.9086Z" fill="white"/>
<path d="M237.856 46.7181C237.856 60.2597 247.557 69.5806 260.93 69.5806C274.303 69.5806 284.004 60.2597 284.004 46.7181C284.004 33.1764 274.303 23.8555 260.93 23.8555C247.557 23.8555 237.856 33.1764 237.856 46.7181ZM248.519 46.7181C248.519 38.8041 253.588 33.4402 260.93 33.4402C268.272 33.4402 273.341 38.8041 273.341 46.7181C273.341 54.632 268.272 59.9959 260.93 59.9959C253.588 59.9959 248.519 54.632 248.519 46.7181Z" fill="white"/>
<path d="M299.85 68.5248H310.251L316.194 49.883C318.379 42.7605 319.166 39.6828 319.603 37.6604C319.952 39.8587 320.914 43.9915 322.662 49.7072L328.605 68.5248H338.569L353.515 25.0859H342.24L336.471 43.7277C335.685 46.4537 334.286 51.6417 333.587 54.8952C333.063 51.9934 331.315 45.4864 330.79 43.7277L325.022 25.0859H314.184L308.24 43.7277C306.842 48.0364 306.055 50.7624 305.269 54.9831C304.482 50.9382 303.608 47.1571 302.646 43.7277L296.965 25.0859H285.865L299.85 68.5248Z" fill="white"/>
<path d="M109.927 16.3793C113.423 16.3793 116.308 13.4775 116.308 9.87223C116.308 6.26698 113.423 3.45312 109.927 3.45312C106.256 3.45312 103.372 6.26698 103.372 9.87223C103.372 13.4775 106.256 16.3793 109.927 16.3793Z" fill="white"/>
<mask id="mask0_6341_226" style="mask-type:luminance" maskUnits="userSpaceOnUse" x="0" y="0" width="71" height="73">
<path d="M70.3604 0.574219H0.484375V72.5742H70.3604V0.574219Z" fill="white"/>
</mask>
<g mask="url(#mask0_6341_226)">
<path d="M11.3474 45.3008H0.484375C2.48437 53.0987 7.00081 60.0079 13.3254 64.9444C19.65 69.8809 27.4246 72.5653 35.4294 72.5763C43.4333 72.5649 51.2069 69.8803 57.5303 64.9437C63.8537 60.0072 68.3689 53.0981 70.3675 45.3008H59.5044C57.672 50.2389 54.3851 54.4968 50.083 57.5054C45.781 60.514 40.6687 62.1299 35.4294 62.1373C30.1903 62.1253 25.0791 60.5076 20.7768 57.4998C16.4745 54.4919 13.1854 50.2366 11.3474 45.3008Z" fill="white"/>
<path d="M35.4221 46.0418C40.773 46.0418 45.1108 41.6778 45.1108 36.2944C45.1108 30.911 40.773 26.5469 35.4221 26.5469C30.0712 26.5469 25.7334 30.911 25.7334 36.2944C25.7334 41.6778 30.0712 46.0418 35.4221 46.0418Z" fill="white"/>
<path d="M0.484375 27.2891H11.3474C12.7978 23.3889 15.1603 19.8973 18.2352 17.1097C21.3101 14.3221 25.007 12.3204 29.0133 11.2739V0.589844C22.2216 1.83822 15.9266 5.01537 10.8715 9.74625C5.81643 14.4771 2.2124 20.5642 0.484375 27.2891Z" fill="white"/>
<path d="M41.7734 0.574219V11.2511C45.7938 12.2906 49.5055 14.2914 52.5924 17.0834C55.6793 19.8755 58.0503 23.3762 59.504 27.288H70.367C68.6366 20.5518 65.0236 14.4556 59.9561 9.72112C54.8886 4.98673 48.5786 1.81242 41.7734 0.574219Z" fill="white"/>
</g>
</g>
<defs>
<clipPath id="clip0_6341_226">
<rect width="354" height="73" fill="white"/>
</clipPath>
</defs>
</svg>
