<svg xmlns="http://www.w3.org/2000/svg" xmlns:xlink="http://www.w3.org/1999/xlink" viewBox="0 0 117 29"><path d="M 0 22.137 C 1.232 22.137 2.071 21.567 2.522 19.524 L 5.706 4.505 C 6.126 2.462 5.226 1.892 3.994 1.892 L 3.994 1.5 L 12.554 1.5 C 18.802 1.5 20.004 5.255 19.373 8.379 C 18.683 11.623 16.069 14.775 8.109 14.447 L 8.199 14.117 C 13.127 14.416 15.289 11.503 15.889 8.41 C 16.459 5.466 15.649 2.013 11.624 2.013 L 9.64 2.013 L 5.917 19.526 C 5.497 21.569 6.759 22.14 8.471 22.14 L 8.471 22.53 L 0 22.53 Z" fill="#FFFFFF"></path><path d="M 23.13 20.725 C 23.13 19.855 23.732 18.862 24.842 18.862 C 25.832 18.862 26.554 19.672 26.402 20.874 C 26.282 21.715 26.614 22.014 27.064 21.954 C 28.206 21.835 30.217 19.102 30.277 14.657 C 30.308 10.3 28.925 8.83 27.843 8.83 C 25.86 8.83 22.528 14.237 21.144 20.996 L 20.814 22.528 L 17.629 22.528 L 21.535 4.234 C 21.926 2.462 21.444 1.92 20.155 1.92 L 20.155 1.5 C 21.926 1.381 23.489 1.17 25.35 0 L 25.59 0.211 L 25.019 2.916 L 22.377 15.23 C 24.06 10.845 26.822 6.759 29.467 6.759 C 31.749 6.759 33.13 9.101 32.95 12.465 C 32.74 16.671 29.646 22.739 25.592 22.739 C 23.969 22.739 23.13 21.686 23.13 20.728 Z M 33.915 14.448 C 35.025 9.672 38.99 6.968 42.505 6.968 C 46.02 6.968 48.574 10.363 47.461 15.198 C 46.38 20.035 42.445 22.799 38.961 22.799 C 35.238 22.799 32.833 19.284 33.915 14.449 Z M 39.29 22.318 C 41.153 22.258 43.105 19.493 44.095 14.716 C 45.025 10 44.245 7.386 42.203 7.446 C 40.22 7.506 38.177 10.391 37.247 15.016 C 36.317 19.792 37.247 22.374 39.29 22.314 L 39.29 22.317 Z M 47.07 20.003 C 46.771 18.953 47.19 17.992 48.032 17.689 C 48.874 17.389 49.744 17.809 50.015 18.591 C 50.345 19.581 49.565 20.243 49.655 21.173 C 49.747 21.863 50.465 22.466 51.727 22.406 C 52.868 22.374 54.069 21.684 54.34 20.394 C 54.64 19.042 53.71 17.812 51.878 15.978 C 49.867 13.966 48.874 12.434 49.265 10.451 C 49.685 8.408 51.638 6.996 54.22 6.907 C 56.172 6.847 58.186 7.717 58.637 9.401 C 58.937 10.363 58.546 11.384 57.675 11.684 C 56.894 11.984 56.084 11.592 55.784 10.814 C 55.424 9.732 56.294 9.13 56.144 8.411 C 56.024 7.841 55.393 7.298 54.4 7.33 C 53.108 7.36 52.058 8.26 51.878 9.492 C 51.727 10.633 52.238 11.564 53.981 13.247 C 55.812 15.019 57.524 16.611 57.074 19.044 C 56.594 21.598 54.28 22.83 51.847 22.859 C 49.924 22.89 47.613 21.957 47.071 20.006 L 47.071 20.003 Z M 58.845 28.143 C 60.046 28.143 60.948 27.573 60.948 25.501 L 60.948 10.574 C 60.948 9.101 60.348 8.622 58.965 8.591 L 58.965 8.2 C 60.557 8.08 62.36 7.75 63.921 7.027 L 64.191 7.178 L 64.191 10.303 C 64.671 8.95 66.386 7.059 69.028 7.059 C 72.572 7.059 75.156 10.454 75.156 14.808 C 75.156 19.162 72.063 22.828 68.126 22.828 C 66.323 22.828 65.062 22.046 64.192 21.056 L 64.192 25.501 C 64.192 27.573 65.242 28.143 66.714 28.143 L 66.714 28.534 L 58.845 28.534 L 58.845 28.144 Z M 67.887 22.257 C 70.141 22.257 71.761 19.735 71.761 15.92 C 71.761 11.235 69.75 8.742 67.345 8.742 C 65.753 8.742 64.671 9.852 64.192 11.264 L 64.192 16.46 C 64.192 19.672 65.572 22.257 67.887 22.257 Z" fill="#FFFFFF"></path><path d="M 84.677 22.137 C 86.15 22.137 87.2 21.567 86.931 19.524 L 86.001 12.645 C 85.671 10.271 84.709 8.799 82.877 8.799 C 81.317 8.799 80.112 10.3 79.933 12.075 L 79.933 19.493 C 79.933 21.564 80.803 22.135 82.035 22.135 L 82.035 22.525 L 74.585 22.525 L 74.585 22.135 C 75.787 22.135 76.689 21.565 76.689 19.493 L 76.689 3.875 C 76.689 2.402 76.087 1.892 74.706 1.892 L 74.706 1.5 C 76.298 1.38 78.101 1.05 79.662 0.327 L 79.932 0.478 L 79.932 10.781 C 80.475 8.71 82.155 6.995 84.469 6.995 C 86.991 6.995 88.734 8.707 89.274 12.553 L 90.295 19.523 C 90.566 21.566 91.436 22.136 92.669 22.136 L 92.669 22.527 L 84.677 22.527 Z" fill="#FFFFFF"></path><path d="M 91.017 14.836 C 91.017 10.092 94.5 6.996 98.586 6.996 C 102.672 6.996 106.155 10.3 106.155 14.896 C 106.155 19.493 102.82 22.826 98.645 22.826 C 94.472 22.826 91.017 19.341 91.017 14.834 Z M 99.576 22.226 C 102.098 21.895 103.18 18.411 102.609 14.175 C 102.07 10 100.055 7.235 97.622 7.595 C 95.1 7.955 94.018 11.41 94.529 15.495 C 95.071 19.67 97.082 22.555 99.576 22.223 Z" fill="#FFFFFF"></path><path d="M 105.616 22.137 C 106.817 22.137 107.719 21.567 107.719 19.495 L 107.719 10.574 C 107.719 9.101 107.148 8.622 105.736 8.591 L 105.736 8.2 C 107.357 8.08 109.16 7.75 110.692 7.027 L 110.963 7.178 L 110.963 10.454 C 111.442 8.742 112.735 6.999 114.626 6.999 C 116.099 6.999 117 8.08 117 9.193 C 117 10.123 116.37 10.996 115.288 10.996 C 114.207 10.996 113.907 10.066 113.636 9.435 C 113.457 8.985 113.305 8.773 112.915 8.773 C 111.984 8.773 111.143 10.125 110.963 11.598 L 110.963 19.498 C 110.963 21.569 112.135 22.14 113.696 22.14 L 113.696 22.53 L 105.616 22.53 Z" fill="#FFFFFF"></path></svg>