<svg width="379" height="44" viewBox="0 0 379 44" fill="none" xmlns="http://www.w3.org/2000/svg">
<path d="M7.4 34.9V23H11.6C15.5 23 18.5 22.1 20.7 20.4C22.9 18.7 24 16.1 24 12.8V12.6C24 9.2 22.9 6.6 20.8 4.8C18.7 3 15.5 2.1 11.5 2.1H0V34.9H7.4ZM11.2 17.8H7.4V7.7H11.2C14.9 7.7 16.8 9.3 16.8 12.6V12.8C16.8 16.1 14.9 17.8 11.2 17.8ZM35.1 34.9V0H28.5V34.9H35.1ZM47.6 35.4C50.8 35.4 53.3 34.3 54.9 32V34.9H61.4V19.2C61.4 13.3 58 10.3 51.3 10.3C48.2 10.3 45.7 11 43.7 12.4C41.7 13.8 40.7 15.8 40.5 18.6H46.8C47.1 16.3 48.5 15.2 50.9 15.2C52.3 15.2 53.4 15.6 53.9 16.3C54.5 17 54.8 18.1 54.8 19.6V20.6H52.1C43.7 20.6 39.6 23.2 39.6 28.3C39.6 30.7 40.4 32.5 41.9 33.7C43.3 34.8 45.3 35.4 47.6 35.4ZM49.6 30.8C47.3 30.8 46.1 29.8 46.1 27.9C46.1 26.7 46.6 25.8 47.6 25.3C48.6 24.8 50.2 24.5 52.2 24.5H54.8V26.5C54.8 27.8 54.3 28.9 53.3 29.6C52.4 30.4 51.1 30.8 49.6 30.8ZM75.9 35.4C77.4 35.4 78.7 35.2 80 34.8V29.7C79.3 30 78.4 30.2 77.5 30.2C75.7 30.2 74.8 29.3 74.8 27.4V15.6H79.9V10.9H74.8V5.7H68.2V10.9H65V15.6H68.1V27.8C68.1 30.3 68.8 32.2 70.1 33.4C71.4 34.7 73.4 35.4 75.9 35.4ZM95.7 35.4C99.4 35.4 102.4 34.3 104.8 32C107.2 29.7 108.4 26.7 108.4 23V22.6C108.4 18.9 107.2 15.9 104.8 13.7C102.4 11.5 99.4 10.3 95.7 10.3C92 10.3 89 11.4 86.6 13.7C84.2 16 83 19 83 22.7V23.1C83 26.8 84.2 29.7 86.6 32C89 34.3 92 35.4 95.7 35.4ZM95.7 30.3C93.8 30.3 92.4 29.7 91.3 28.4C90.3 27.1 89.8 25.3 89.8 23V22.6C89.8 20.3 90.3 18.5 91.4 17.3C92.4 16 93.9 15.4 95.7 15.4C97.6 15.4 99 16.1 100.1 17.4C101.1 18.7 101.6 20.5 101.6 22.8V23C101.6 25.3 101.1 27.1 100.1 28.4C99 29.7 97.6 30.3 95.7 30.3ZM119.5 34.9V21C119.5 19.3 120 18 120.9 17.1C121.8 16.2 123 15.7 124.5 15.7C126 15.7 127 16.1 127.7 16.9C128.4 17.7 128.7 18.9 128.7 20.6V34.9H135.4V19.6C135.4 16.5 134.7 14.2 133.2 12.6C131.7 11 129.8 10.3 127.3 10.3C125.4 10.3 123.8 10.7 122.4 11.5C121.1 12.3 120.1 13.4 119.4 14.6V10.8H112.7V34.8H119.5V34.9ZM144.6 7.6C145.7 7.6 146.6 7.3 147.3 6.6C148 5.9 148.4 5 148.4 4C148.4 3 148 2.1 147.3 1.4C146.6 0.7 145.7 0.4 144.6 0.4C143.5 0.4 142.6 0.7 141.9 1.4C141.2 2.1 140.9 3 140.9 4C140.9 5 141.3 5.9 142 6.6C142.7 7.3 143.6 7.6 144.6 7.6ZM148 34.9V10.9H141.4V34.9H148ZM165 35.4C168.4 35.4 171.2 34.5 173.2 32.8C175.2 31 176.3 28.7 176.5 25.8H170.5C170.3 27.3 169.8 28.4 168.8 29.2C167.8 30 166.7 30.4 165.3 30.4C163.4 30.4 162 29.8 160.9 28.5C159.9 27.3 159.4 25.4 159.4 23.1V22.7C159.4 20.4 159.9 18.7 161 17.4C162.1 16.1 163.4 15.5 165.2 15.5C168 15.5 169.6 16.9 170.1 19.6H176.4C176.1 16.4 174.9 14 172.8 12.5C170.7 11 168.1 10.3 165 10.3C161.5 10.3 158.5 11.4 156.1 13.7C153.7 16 152.5 19 152.5 22.8V23.2C152.5 27 153.7 30 156 32.2C158.4 34.3 161.4 35.4 165 35.4Z" fill="#FAFAFA"/>
<path d="M184.5 35.2992C185.7 35.2992 186.6 34.8992 187.4 34.0992C188.2 33.2992 188.6 32.3992 188.6 31.1992C188.6 30.0992 188.2 29.1992 187.4 28.3992C186.6 27.5992 185.6 27.1992 184.5 27.1992C183.4 27.1992 182.4 27.5992 181.6 28.3992C180.8 29.1992 180.4 30.0992 180.4 31.1992C180.4 32.2992 180.8 33.2992 181.6 34.0992C182.4 34.8992 183.4 35.2992 184.5 35.2992Z" fill="white"/>
<path d="M206.4 35.3992C210.2 35.3992 213.3 34.3992 215.5 32.3992C217.8 30.3992 218.9 27.8992 218.9 24.8992C218.9 21.6992 217.9 19.2992 216 17.8992C214.1 16.4992 211 15.4992 206.8 14.8992C204.3 14.4992 202.7 14.0992 201.9 13.4992C201.1 12.8992 200.7 11.9992 200.7 10.7992C200.7 9.69922 201.1 8.79922 202 8.09922C202.8 7.39922 204.1 7.09922 205.7 7.09922C208.9 7.09922 210.7 8.59922 211.2 11.4992H218.1C217.8 8.29922 216.6 5.79922 214.5 4.19922C212.4 2.49922 209.5 1.69922 205.8 1.69922C202.2 1.69922 199.3 2.59922 197.1 4.49922C194.9 6.39922 193.8 8.69922 193.8 11.4992C193.8 14.5992 194.7 16.8992 196.5 18.3992C198.3 19.8992 201.4 20.8992 205.7 21.4992C208.1 21.8992 209.8 22.2992 210.6 22.8992C211.5 23.4992 211.9 24.3992 211.9 25.6992C211.9 26.9992 211.4 27.9992 210.4 28.7992C209.4 29.5992 208.1 29.9992 206.5 29.9992C204.3 29.9992 202.7 29.4992 201.7 28.5992C200.7 27.6992 200.2 26.2992 200 24.6992H192.9C193.1 28.0992 194.3 30.6992 196.6 32.5992C198.7 34.4992 202 35.3992 206.4 35.3992ZM233.2 43.0992L246.2 10.8992H239.8L234.4 25.2992L228.6 10.8992H221.4L231 32.4992L226.8 43.0992H233.2ZM258.6 35.3992C261.8 35.3992 264.3 34.6992 266.1 33.3992C267.9 32.0992 268.7 30.0992 268.7 27.4992C268.7 25.0992 268 23.2992 266.5 22.2992C265 21.2992 262.6 20.4992 259.4 19.9992C257.6 19.7992 256.4 19.3992 255.7 19.0992C255 18.7992 254.7 18.1992 254.7 17.3992C254.7 16.6992 255 16.0992 255.6 15.5992C256.2 15.0992 257 14.8992 258.1 14.8992C260.2 14.8992 261.5 15.8992 261.9 17.7992H268C267.4 12.7992 264.1 10.3992 258.1 10.3992C255.5 10.3992 253.2 11.0992 251.4 12.3992C249.6 13.6992 248.6 15.4992 248.6 17.8992C248.6 20.1992 249.3 21.8992 250.6 22.9992C251.9 24.0992 254.2 24.8992 257.5 25.3992C259.3 25.5992 260.5 25.9992 261.3 26.3992C262.1 26.7992 262.4 27.3992 262.4 28.1992C262.4 29.8992 261.1 30.7992 258.6 30.7992C257.2 30.7992 256.2 30.4992 255.6 29.9992C255 29.4992 254.6 28.5992 254.4 27.4992H248.2C248.3 30.0992 249.3 32.0992 251.1 33.4992C252.8 34.6992 255.3 35.3992 258.6 35.3992ZM281.8 35.3992C283.3 35.3992 284.6 35.1992 285.9 34.7992V29.6992C285.2 29.9992 284.3 30.1992 283.4 30.1992C281.6 30.1992 280.7 29.2992 280.7 27.3992V15.5992H285.8V10.8992H280.7V5.69922H274V10.8992H270.9V15.5992H274V27.7992C274 30.2992 274.7 32.1992 276 33.3992C277.3 34.6992 279.2 35.3992 281.8 35.3992ZM301.4 35.3992C304.7 35.3992 307.3 34.6992 309.3 33.2992C311.3 31.8992 312.5 29.8992 312.9 27.2992H306.6C306.1 29.4992 304.5 30.6992 301.6 30.6992C299.8 30.6992 298.4 30.0992 297.3 28.9992C296.3 27.8992 295.7 26.3992 295.6 24.3992H313V22.5992C313 18.5992 311.9 15.4992 309.7 13.4992C307.5 11.4992 304.7 10.3992 301.3 10.3992C297.7 10.3992 294.8 11.4992 292.4 13.7992C290 16.0992 288.9 19.0992 288.9 22.7992V23.1992C288.9 26.9992 290.1 29.8992 292.4 32.0992C294.7 34.2992 297.7 35.3992 301.4 35.3992ZM306.5 20.2992H295.7C295.9 18.5992 296.6 17.2992 297.5 16.2992C298.5 15.3992 299.7 14.8992 301.2 14.8992C304.5 14.8992 306.3 16.6992 306.5 20.2992ZM324 34.8992V20.6992C324 19.0992 324.4 17.8992 325.3 17.0992C326.2 16.1992 327.3 15.7992 328.6 15.7992C331.1 15.7992 332.4 17.2992 332.4 20.2992V34.8992H339V20.6992C339 19.0992 339.4 17.8992 340.3 17.0992C341.2 16.1992 342.3 15.7992 343.6 15.7992C346.1 15.7992 347.4 17.2992 347.4 20.2992V34.8992H354V19.4992C354 16.3992 353.3 14.0992 351.8 12.5992C350.3 11.0992 348.4 10.2992 346.1 10.2992C342.6 10.2992 339.9 11.6992 338 14.4992C336.9 11.6992 334.6 10.2992 331.3 10.2992C329.6 10.2992 328.1 10.6992 326.8 11.4992C325.5 12.2992 324.5 13.2992 323.9 14.4992V10.7992H317.2V34.7992H324V34.8992ZM368.6 35.3992C371.8 35.3992 374.3 34.6992 376.1 33.3992C377.9 32.0992 378.7 30.0992 378.7 27.4992C378.7 25.0992 378 23.2992 376.5 22.2992C375 21.2992 372.6 20.4992 369.4 19.9992C367.6 19.7992 366.4 19.3992 365.7 19.0992C365 18.6992 364.7 18.1992 364.7 17.3992C364.7 16.6992 365 16.0992 365.6 15.5992C366.2 15.0992 367 14.8992 368.1 14.8992C370.2 14.8992 371.5 15.8992 371.9 17.7992H378C377.4 12.7992 374.1 10.3992 368.1 10.3992C365.5 10.3992 363.2 11.0992 361.4 12.3992C359.5 13.6992 358.6 15.4992 358.6 17.8992C358.6 20.1992 359.3 21.8992 360.6 22.9992C361.9 24.0992 364.2 24.8992 367.5 25.3992C369.3 25.5992 370.5 25.9992 371.3 26.3992C372.1 26.7992 372.4 27.3992 372.4 28.1992C372.4 29.8992 371.1 30.7992 368.6 30.7992C367.2 30.7992 366.2 30.4992 365.6 29.9992C365 29.3992 364.6 28.5992 364.4 27.4992H358.2C358.3 30.0992 359.3 32.0992 361.1 33.4992C362.8 34.6992 365.4 35.3992 368.6 35.3992Z" fill="#FAFAFA"/>
</svg>
