<svg width="202" height="28" viewBox="0 0 202 28" fill="none" xmlns="http://www.w3.org/2000/svg">
<g clip-path="url(#clip0_6341_207)">
<path fill-rule="evenodd" clip-rule="evenodd" d="M193.176 20.1501C192.218 20.1501 191.27 19.9709 190.339 19.6152C189.407 19.2595 188.568 18.7383 187.827 18.0568C187.086 17.3753 186.489 16.5445 186.035 15.5589C185.582 14.5733 185.357 13.452 185.357 12.1949C185.357 10.9378 185.579 9.792 186.022 8.80642C186.464 7.82085 187.053 6.98731 187.787 6.30583C188.52 5.62434 189.361 5.10576 190.312 4.75008C191.262 4.39169 192.234 4.21249 193.23 4.21249C194.227 4.21249 195.22 4.40798 196.108 4.79624C196.996 5.18449 197.729 5.7248 198.307 6.41171V0.03125H202V20.1229H198.335V17.8667C197.756 18.5753 197.012 19.1347 196.108 19.5419C195.204 19.9492 194.227 20.1528 193.176 20.1528V20.1501ZM193.773 16.7834C194.46 16.7834 195.096 16.6639 195.674 16.4277C196.252 16.1888 196.752 15.8575 197.167 15.434C197.583 15.0077 197.914 14.5163 198.158 13.9543C198.403 13.3922 198.525 12.7895 198.525 12.1433C198.525 11.4971 198.403 10.9188 198.158 10.3595C197.914 9.79743 197.583 9.30871 197.167 8.89331C196.752 8.4779 196.252 8.14937 195.674 7.91044C195.096 7.67152 194.46 7.55205 193.773 7.55205C193.086 7.55205 192.475 7.67152 191.886 7.91044C191.297 8.14937 190.787 8.47247 190.352 8.87973C189.918 9.28699 189.578 9.77299 189.334 10.3323C189.09 10.8944 188.968 11.4971 188.968 12.1433C188.968 12.7895 189.09 13.3977 189.334 13.9678C189.578 14.538 189.918 15.0294 190.352 15.4476C190.787 15.863 191.297 16.1915 191.886 16.4304C192.475 16.6694 193.103 16.7861 193.773 16.7861V16.7834ZM136.593 0.302885H147.807V3.8325H140.286V8.39386H147.807V11.9235H140.286V20.1231H136.593V0.302885ZM157.69 20.1501C156.549 20.1501 155.477 19.9465 154.472 19.5365C153.468 19.1265 152.594 18.5591 151.852 17.8341C151.111 17.1092 150.527 16.2648 150.101 15.2955C149.675 14.3262 149.463 13.2945 149.463 12.1949C149.463 11.0953 149.675 10.0364 150.101 9.06708C150.527 8.09779 151.111 7.2534 151.852 6.52847C152.594 5.80354 153.468 5.2388 154.472 4.82882C155.477 4.41884 156.549 4.21249 157.69 4.21249C158.83 4.21249 159.897 4.41884 160.894 4.82882C161.89 5.2388 162.762 5.80625 163.514 6.52847C164.266 7.2534 164.852 8.09779 165.278 9.06708C165.705 10.0364 165.916 11.079 165.916 12.1949C165.916 13.3108 165.705 14.329 165.278 15.2955C164.852 16.2648 164.266 17.1092 163.514 17.8341C162.762 18.5591 161.89 19.1265 160.894 19.5365C159.897 19.9465 158.83 20.1501 157.69 20.1501ZM157.69 16.7019C158.341 16.7019 158.947 16.5825 159.509 16.3463C160.071 16.1073 160.56 15.787 160.975 15.377C161.39 14.9697 161.716 14.4891 161.952 13.938C162.189 13.3868 162.305 12.8058 162.305 12.1949C162.305 11.584 162.189 10.9758 161.952 10.4247C161.716 9.87346 161.39 9.39289 160.975 8.98562C160.557 8.57836 160.071 8.25526 159.509 8.01905C158.947 7.78012 158.341 7.66337 157.69 7.66337C157.038 7.66337 156.427 7.78284 155.857 8.01905C155.287 8.25798 154.798 8.57836 154.391 8.98562C153.984 9.39289 153.663 9.87346 153.427 10.4247C153.191 10.9758 153.074 11.5677 153.074 12.1949C153.074 12.8221 153.191 13.3868 153.427 13.938C153.663 14.4891 153.984 14.9697 154.391 15.377C154.798 15.7842 155.287 16.1073 155.857 16.3463C156.427 16.5852 157.038 16.7019 157.69 16.7019ZM172.419 19.5365C173.424 19.9465 174.496 20.1501 175.636 20.1501C176.777 20.1501 177.844 19.9465 178.84 19.5365C179.837 19.1265 180.708 18.5591 181.46 17.8341C182.212 17.1092 182.799 16.2648 183.225 15.2955C183.651 14.329 183.863 13.3108 183.863 12.1949C183.863 11.079 183.651 10.0364 183.225 9.06708C182.799 8.09779 182.212 7.2534 181.46 6.52847C180.708 5.80625 179.837 5.2388 178.84 4.82882C177.844 4.41884 176.777 4.21249 175.636 4.21249C174.496 4.21249 173.424 4.41884 172.419 4.82882C171.415 5.2388 170.54 5.80354 169.799 6.52847C169.058 7.2534 168.474 8.09779 168.048 9.06708C167.622 10.0364 167.41 11.0953 167.41 12.1949C167.41 13.2945 167.622 14.3262 168.048 15.2955C168.474 16.2648 169.058 17.1092 169.799 17.8341C170.54 18.5591 171.415 19.1265 172.419 19.5365ZM177.456 16.3463C176.894 16.5825 176.288 16.7019 175.636 16.7019C174.985 16.7019 174.374 16.5852 173.804 16.3463C173.234 16.1073 172.745 15.7842 172.338 15.377C171.93 14.9697 171.61 14.4891 171.374 13.938C171.138 13.3868 171.021 12.8221 171.021 12.1949C171.021 11.5677 171.138 10.9758 171.374 10.4247C171.61 9.87346 171.93 9.39289 172.338 8.98562C172.745 8.57836 173.234 8.25798 173.804 8.01905C174.374 7.78284 174.985 7.66337 175.636 7.66337C176.288 7.66337 176.894 7.78012 177.456 8.01905C178.018 8.25526 178.504 8.57836 178.922 8.98562C179.337 9.39289 179.663 9.87346 179.899 10.4247C180.135 10.9758 180.252 11.584 180.252 12.1949C180.252 12.8058 180.135 13.3868 179.899 13.938C179.663 14.4891 179.337 14.9697 178.922 15.377C178.506 15.787 178.018 16.1073 177.456 16.3463ZM3.20381 19.1321C4.43374 19.8109 5.94605 20.1502 7.73801 20.1502C8.82404 20.1502 9.79333 19.9792 10.6432 19.6371C11.493 19.295 12.2098 18.847 12.7881 18.2931C13.3664 17.7392 13.8117 17.1039 14.1185 16.3817C14.4253 15.6595 14.58 14.921 14.58 14.1662C14.58 13.2349 14.409 12.4557 14.0642 11.8312C13.7194 11.2067 13.2714 10.68 12.7202 10.2483C12.169 9.81658 11.5527 9.46362 10.8739 9.19211C10.1952 8.9206 9.52182 8.67896 8.85119 8.46718C8.51514 8.35965 8.1895 8.25419 7.87424 8.1521C7.68025 8.08927 7.48971 8.02758 7.30359 7.96761C6.81488 7.81013 6.38589 7.63093 6.01392 7.4273C5.64196 7.22639 5.34873 6.99289 5.13152 6.72953C4.91431 6.46345 4.80571 6.13764 4.80571 5.75209C4.80571 5.13848 5.04192 4.61719 5.51163 4.19635C5.98134 3.77551 6.67098 3.56373 7.5751 3.56373C9.11456 3.56373 10.3092 4.21535 11.159 5.52131L14.1999 3.15647C13.8008 2.74106 13.38 2.35552 12.9374 2.00255C12.4948 1.64959 12.0061 1.3455 11.4713 1.093C10.9364 0.840493 10.3499 0.639576 9.70645 0.495676C9.06297 0.351777 8.34347 0.278469 7.54795 0.278469C6.60581 0.278469 5.73427 0.416939 4.92789 0.699308C4.12151 0.981677 3.42644 1.37265 2.83727 1.87223C2.24809 2.37452 1.79196 2.95827 1.46615 3.62618C1.14034 4.29409 0.977432 5.01359 0.977432 5.78739C0.977432 6.70237 1.14577 7.4626 1.47972 8.06806C1.81368 8.67353 2.24809 9.18397 2.78297 9.59666C3.31784 10.0094 3.91788 10.3379 4.5885 10.585C5.25913 10.8293 5.92704 11.0574 6.59767 11.2692C7.12168 11.4267 7.63483 11.5869 8.1317 11.7443C8.62856 11.9018 9.0684 12.0837 9.44851 12.2846C9.82863 12.4855 10.1354 12.7272 10.3716 13.0096C10.6079 13.2919 10.7246 13.634 10.7246 14.0386C10.7246 14.7065 10.4667 15.3038 9.95081 15.8305C9.43494 16.3573 8.68829 16.6206 7.71086 16.6206C6.80673 16.6206 5.98134 16.4007 5.24012 15.9609C4.4989 15.521 3.87443 14.8857 3.36671 14.0576L0 16.5935C0.904125 17.6089 1.97387 18.4533 3.20381 19.1321ZM21.4085 19.6153C22.3398 19.9709 23.2873 20.1501 24.2458 20.1501V20.1529C25.2965 20.1529 26.2739 19.9492 27.1781 19.542C28.0822 19.1347 28.8261 18.5754 29.4044 17.8668V20.123H33.0698V4.23969H29.4044V6.33574C28.8261 5.67869 28.093 5.16282 27.2052 4.78271C26.3174 4.4026 25.3508 4.21254 24.3001 4.21254C23.3036 4.21254 22.3316 4.39174 21.3813 4.75013C20.4311 5.1058 19.5894 5.62439 18.8563 6.30587C18.1232 6.98736 17.5341 7.82089 17.0915 8.80647C16.6489 9.79205 16.4263 10.9378 16.4263 12.1949C16.4263 13.452 16.6516 14.5734 17.1051 15.5589C17.5585 16.5445 18.1558 17.3753 18.897 18.0568C19.6382 18.7383 20.4772 19.2569 21.4085 19.6153ZM26.7436 16.4278C26.1653 16.664 25.53 16.7834 24.8431 16.7834V16.7861C24.1724 16.7861 23.5453 16.6694 22.9561 16.4305C22.3669 16.1915 21.8565 15.863 21.4221 15.4476C20.9876 15.0295 20.6483 14.5381 20.4039 13.9679C20.1595 13.3977 20.0374 12.7895 20.0374 12.1433C20.0374 11.4972 20.1595 10.8944 20.4039 10.3324C20.6483 9.77304 20.9876 9.28704 21.4221 8.87978C21.8565 8.47252 22.3669 8.14942 22.9561 7.91049C23.5453 7.67156 24.1562 7.5521 24.8431 7.5521C25.53 7.5521 26.1653 7.67156 26.7436 7.91049C27.322 8.14942 27.8215 8.47795 28.2369 8.89335C28.6523 9.30876 28.9836 9.79748 29.2279 10.3595C29.4723 10.9188 29.5945 11.4972 29.5945 12.1433C29.5945 12.7895 29.4723 13.3923 29.2279 13.9543C28.9836 14.5163 28.6523 15.0078 28.2369 15.434C27.8215 15.8576 27.322 16.1888 26.7436 16.4278ZM35.5677 4.23964H39.2059V6.28954C39.7136 5.64878 40.3517 5.14377 41.12 4.76909C41.8884 4.39712 42.7627 4.20978 43.7401 4.20978C44.989 4.20978 46.0425 4.44599 46.9032 4.91842C47.7639 5.39084 48.4291 6.05604 48.8988 6.91129C49.4418 6.09134 50.1613 5.437 51.0573 4.94557C51.9533 4.45414 52.9714 4.20978 54.1117 4.20978C56.2485 4.20978 57.8586 4.79081 58.9446 5.95558C60.0306 7.12035 60.5737 8.71411 60.5737 10.7396V20.1202H56.8268V11.0763C56.8268 9.94405 56.5363 9.04807 55.958 8.38287C55.3797 7.72039 54.519 7.38915 53.3787 7.38915C52.3822 7.38915 51.5514 7.72582 50.8808 8.39645C50.2102 9.06979 49.8762 10.0853 49.8762 11.4482V20.123H46.1565V10.9704C46.1565 9.85717 45.8742 8.98019 45.3149 8.34486C44.7528 7.70953 43.922 7.38915 42.817 7.38915C41.7852 7.38915 40.93 7.73396 40.2512 8.4236C39.5724 9.11323 39.2331 10.1477 39.2331 11.527V20.123H35.5677V4.23964ZM64.5377 19.17C65.697 19.8243 67.1523 20.1501 68.909 20.1501V20.1529C70.0493 20.1529 71.0268 19.9981 71.8413 19.6859C72.6558 19.3763 73.3291 18.9745 73.864 18.4831C74.3989 17.9916 74.7926 17.4568 75.0451 16.8785C75.2976 16.3001 75.4252 15.7436 75.4252 15.2087C75.4252 14.4132 75.2569 13.7534 74.9229 13.2267C74.589 12.6999 74.1491 12.2682 73.6061 11.9316C73.0631 11.5949 72.4603 11.3261 71.8006 11.1279C71.1408 10.9297 70.4837 10.7722 69.8321 10.65C68.6375 10.4084 67.7334 10.1776 67.117 9.9631C66.5007 9.74589 66.1939 9.3875 66.1939 8.88792C66.1939 8.45622 66.403 8.07611 66.8184 7.74759C67.2338 7.41906 67.8773 7.25616 68.7461 7.25616C69.5063 7.25616 70.1769 7.41092 70.7552 7.72044C71.3336 8.02996 71.787 8.4508 72.1128 8.98295L75.2351 7.50594C74.6188 6.4905 73.7826 5.68683 72.7237 5.09766C71.6648 4.50848 70.3398 4.21254 68.7461 4.21254C67.8039 4.21254 66.9487 4.33743 66.1803 4.58722C65.4119 4.83973 64.7549 5.17911 64.2119 5.61081C63.6689 6.04251 63.248 6.53666 62.9494 7.09868C62.6507 7.6607 62.5014 8.24173 62.5014 8.8472C62.5014 9.64 62.6643 10.2998 62.9901 10.8265C63.3159 11.3533 63.7422 11.785 64.2662 12.1216C64.7902 12.4583 65.3848 12.7217 66.0446 12.9117C66.7043 13.1018 67.3804 13.2647 68.0673 13.4031C68.556 13.5063 69.0257 13.6014 69.4792 13.6882C69.9326 13.7751 70.3263 13.881 70.6602 14.0113C70.9942 14.1417 71.2657 14.291 71.4747 14.4648C71.6838 14.6385 71.787 14.8612 71.787 15.1381C71.787 15.6404 71.5616 16.0721 71.1082 16.4332C70.6548 16.7943 69.9407 16.9762 69.0719 16.9762C68.2031 16.9762 67.4428 16.7916 66.7912 16.4169C66.1396 16.0422 65.6237 15.5073 65.2436 14.8123L61.8498 16.3382C62.4824 17.5735 63.3783 18.5157 64.5377 19.17ZM91.4442 20.1231H87.806V18.1329C87.2983 18.7628 86.6657 19.257 85.9054 19.6153C85.1452 19.9737 84.2574 20.1502 83.2447 20.1502C81.3631 20.1502 79.8725 19.5638 78.7783 18.3908C77.6842 17.2179 77.1357 15.5834 77.1357 13.4874V4.23976H80.8554V13.0747C80.8554 14.2775 81.1323 15.2278 81.6835 15.9255C82.2346 16.6233 83.0899 16.9736 84.2492 16.9736C85.262 16.9736 86.1037 16.6125 86.7743 15.8848C87.4422 15.1599 87.7789 14.1173 87.7789 12.7543V4.23976H91.4442V20.1231ZM97.6048 4.23964H93.9666V20.123H97.6319V11.6084C97.6319 10.2455 97.9903 9.20283 98.7044 8.4779C99.4185 7.75297 100.301 7.38915 101.352 7.38915C102.546 7.38915 103.442 7.73939 104.04 8.43717C104.637 9.13495 104.936 10.0853 104.936 11.288V20.1202H108.655V10.8726C108.655 8.77656 108.099 7.14208 106.985 5.96916C105.872 4.79624 104.33 4.20978 102.356 4.20978C101.324 4.20978 100.404 4.41069 99.6004 4.81253C98.794 5.21436 98.1288 5.74652 97.6048 6.409V4.23964ZM123.534 17.7066C122.956 18.4668 122.212 19.0641 121.308 19.4985C120.403 19.9329 119.415 20.1501 118.348 20.1501C117.39 20.1501 116.442 19.971 115.511 19.6153C114.58 19.2596 113.741 18.7383 112.999 18.0568C112.258 17.3753 111.661 16.5445 111.207 15.5589C110.754 14.5734 110.529 13.452 110.529 12.1949C110.529 10.9378 110.751 9.79205 111.194 8.80647C111.636 7.82089 112.226 6.98736 112.959 6.30587C113.692 5.62439 114.533 5.1058 115.484 4.75013C116.434 4.39174 117.406 4.21254 118.402 4.21254C119.453 4.21254 120.42 4.41617 121.308 4.82615C122.195 5.23613 122.928 5.78729 123.507 6.48236V4.23969H127.172V19.5202C127.172 20.628 126.996 21.6652 126.643 22.629C126.29 23.5929 125.768 24.4373 125.081 25.1622C124.395 25.8871 123.539 26.4573 122.516 26.8781C121.492 27.299 120.311 27.508 118.973 27.508C117.941 27.508 117.004 27.394 116.162 27.1687C115.321 26.9433 114.566 26.6256 113.895 26.2184C113.225 25.8111 112.638 25.3305 112.131 24.7794C111.623 24.2282 111.188 23.6173 110.827 22.9467L114.085 20.9647C114.664 22.0317 115.315 22.8272 116.04 23.354C116.765 23.878 117.759 24.1413 119.027 24.1413C119.714 24.1413 120.338 24.0137 120.9 23.7612C121.462 23.5087 121.937 23.172 122.326 22.7566C122.714 22.3412 123.013 21.8525 123.222 21.2905C123.431 20.7285 123.534 20.1501 123.534 19.5528V17.7066ZM118.945 16.7834C119.632 16.7834 120.268 16.664 120.846 16.4278C121.424 16.1888 121.924 15.8576 122.339 15.434C122.755 15.0078 123.086 14.5163 123.33 13.9543C123.575 13.3923 123.697 12.7895 123.697 12.1433C123.697 11.4972 123.575 10.9188 123.33 10.3595C123.086 9.79748 122.755 9.30876 122.339 8.89335C121.924 8.47795 121.424 8.14942 120.846 7.91049C120.268 7.67157 119.632 7.5521 118.945 7.5521C118.258 7.5521 117.648 7.67157 117.058 7.91049C116.469 8.14942 115.959 8.47252 115.524 8.87978C115.09 9.28704 114.751 9.77304 114.506 10.3324C114.262 10.8944 114.14 11.4972 114.14 12.1433C114.14 12.7895 114.262 13.3977 114.506 13.9679C114.751 14.5381 115.09 15.0295 115.524 15.4476C115.959 15.863 116.469 16.1915 117.058 16.4305C117.648 16.6694 118.275 16.7861 118.945 16.7861V16.7834Z" fill="white"/>
</g>
<defs>
<clipPath id="clip0_6341_207">
<rect width="202" height="28" fill="white"/>
</clipPath>
</defs>
</svg>
