<svg width="114" height="32" viewBox="0 0 114 32" fill="none" xmlns="http://www.w3.org/2000/svg">
<g clip-path="url(#clip0_463_1066)">
<path d="M33.3341 12.1183C33.2209 6.15371 25.029 -1 25.029 -1C25.029 -1 28.3283 4.55919 28.753 6.68266C25.1668 2.38855 18.5168 0.0381371 18.5168 0.0381371C18.5168 0.0381371 25.754 7.09895 26.3503 8.42023C20.6361 4.286 9.83421 2.9638 9.83421 2.9638C9.83421 2.9638 22.1018 8.65678 23.0926 9.97798C14.1651 6.20332 4.87942 8.1073 4.87942 8.1073C4.87942 8.1073 16.9548 10.3381 19.0782 11.8953C10.6365 10.8168 1.5763 14.5248 1.5763 14.5248C1.5763 14.5248 14.1282 13.9586 16.0631 14.5248C8.77258 14.2993 0.396582 20.6593 0.396582 20.6593C0.396582 20.6593 8.79607 18.7718 12.9015 18.1584C4.87942 21.4615 -0.5 28.0678 -0.5 28.0678C-0.5 28.0678 6.67265 24.1984 9.26802 23.5378C8.74894 25.0006 7.56916 27.5958 9.83421 28.0678C11.6462 28.4454 15.0878 27.2499 16.0631 26.9352C16.3462 27.6431 16.6518 28.0678 18.328 28.0678C19.7909 28.0678 21.1438 27.4386 21.6786 26.9352C22.1976 27.6431 22.9377 28.0678 23.9907 28.0678C25.2647 28.0678 25.894 27.7847 26.3503 27.4071C26.7749 27.7847 27.1996 28.1547 28.4737 28.0678C30.5972 27.9231 30.6916 25.2837 30.8803 23.1603C31.0691 21.0368 33.1925 18.6301 35.6463 17.4033C38.1 16.1765 38.1001 13.9586 36.5901 14.5248C34.6082 14.9968 37.2508 16.0348 34.6082 17.1673C30.1252 19.6212 28.3321 22.3581 27.3411 24.8118C26.3503 27.2656 23.3773 26.369 23.3773 25.8499C23.3773 25.3309 24.9817 23.0659 23.3773 22.7357C21.6423 22.3783 19.6022 23.9152 16.535 25.1422C14.7418 25.8594 10.4241 27.0297 10.6365 26.1803C12.2054 19.9043 19.4607 18.1584 23.7077 16.6954C20.8292 16.1765 15.544 16.6954 15.544 16.6954C15.544 16.6954 21.516 15.011 24.1112 15.011C21.1855 13.8785 16.9811 13.0337 16.9811 13.0337C16.9811 13.0337 23.3845 13.5011 25.4294 13.7528C23.8722 12.6674 19.0782 10.1577 19.0782 10.1577C19.0782 10.1577 25.9236 12.0239 26.8674 12.4958C26.5654 11.4387 22.4336 7.5814 22.4336 7.5814C22.4336 7.5814 28.0961 10.9044 28.9927 11.8953C28.8039 10.5269 26.3503 6.20332 26.3503 6.20332C26.3503 6.20332 30.3919 10.2273 31.2413 11.5957C31.4301 10.0385 30.1628 5.84383 30.1628 5.84383C30.1628 5.84383 32.3431 10.2779 33.3341 12.1183Z" fill="white"/>
<path d="M49.7246 27.7531C45.9034 27.7531 43.0516 26.1276 42.5098 22.7342H46.9015C47.215 24.3026 48.5268 24.7874 49.8956 24.7874C51.8063 24.7874 52.8328 24.16 52.8328 23.1619C52.8328 22.2209 52.2055 21.7646 50.0953 21.2798L47.3576 20.681C44.4204 20.0537 42.8235 18.6848 42.8235 16.375C42.8235 13.4377 45.8463 11.5842 49.5534 11.5842C53.061 11.5842 55.9982 13.0385 56.6827 16.0328H52.2911C51.9488 15.0632 50.8368 14.5499 49.582 14.5499C48.1846 14.5499 46.9868 15.0632 46.9868 16.0328C46.9868 16.9168 47.871 17.259 49.4679 17.6011L52.2055 18.2C55.4565 18.913 56.9963 20.3103 56.9963 22.8197C56.9963 25.985 53.8594 27.7531 49.7246 27.7531ZM58.63 33.0001V11.9264H62.9646V15.4054C63.649 13.3807 65.3884 11.5842 68.0977 11.5842C71.9189 11.5842 74.4854 15.0347 74.4854 19.6829C74.4854 24.3311 71.9189 27.7531 68.0977 27.7531C65.7022 27.7531 63.7916 26.2988 62.9646 24.3026V33.0001H58.63ZM62.7935 19.6829C62.7935 22.8197 64.0483 24.7874 66.4151 24.7874C68.782 24.7874 70.0368 22.8197 70.0368 19.6829C70.0368 16.5176 68.782 14.5499 66.4151 14.5499C64.0483 14.5499 62.7935 16.5176 62.7935 19.6829ZM76.2313 27.411V11.9264H80.5945V27.411H76.2313ZM76.1743 9.84464V5.73828H80.68V9.84464H76.1743ZM93.3195 27.411L87.5021 19.5689V27.411H83.1389V5.73828H87.5021V18.1716L93.0914 11.9264H98.2529L92.0648 18.7989L98.538 27.411H93.3195ZM105.172 27.7531C100.21 27.7531 97.1017 24.4167 97.1017 19.6829C97.1017 14.9206 100.21 11.5842 105.172 11.5842C110.134 11.5842 113.242 14.9206 113.242 19.6829C113.242 24.4167 110.134 27.7531 105.172 27.7531ZM101.55 19.6829C101.55 22.8197 102.805 24.7874 105.172 24.7874C107.538 24.7874 108.793 22.8197 108.793 19.6829C108.793 16.5176 107.538 14.5499 105.172 14.5499C102.805 14.5499 101.55 16.5176 101.55 19.6829Z" fill="white"/>
</g>
<defs>
<clipPath id="clip0_463_1066">
<rect width="114" height="32" fill="white"/>
</clipPath>
</defs>
</svg>
