<svg xmlns="http://www.w3.org/2000/svg" width="266" height="32" fill="none"><path fill="#fff" d="M39.127 12.622H24.606V0h-4.692v13.695c0 1.454.574 2.851 1.595 3.88l11.857 11.958 3.317-3.346-8.757-8.831h11.203v-4.732l-.002-.002ZM2.446 5.812l8.758 8.832H0v4.731h14.521v12.622h4.692V18.302a5.514 5.514 0 0 0-1.595-3.88L5.764 2.466 2.446 5.812Zm58.84 19.78c-2.132 0-3.883-.466-5.245-1.397-1.365-.931-2.189-2.262-2.475-3.993l3.827-.998c.153.777.414 1.386.776 1.829.362.445.814.759 1.352.95a5.33 5.33 0 0 0 1.765.282c.967 0 1.682-.172 2.143-.514.462-.345.695-.77.695-1.282s-.22-.903-.661-1.18c-.442-.278-1.143-.505-2.113-.682l-.923-.168a16.437 16.437 0 0 1-3.133-.915c-.947-.389-1.704-.927-2.276-1.614-.571-.687-.857-1.574-.857-2.66 0-1.642.594-2.9 1.78-3.777 1.19-.875 2.748-1.315 4.685-1.315 1.824 0 3.342.412 4.551 1.23 1.21.82 2 1.896 2.375 3.226l-3.86 1.197c-.176-.841-.533-1.441-1.071-1.796-.538-.355-1.204-.533-1.995-.533-.791 0-1.398.14-1.814.417-.419.278-.628.661-.628 1.148 0 .532.22.926.66 1.18.44.255 1.034.45 1.782.582l.923.167c1.233.222 2.347.515 3.348.883 1 .365 1.79.888 2.375 1.564.581.677.875 1.593.875 2.746 0 1.728-.623 3.066-1.865 4.008-1.243.944-2.909 1.415-4.998 1.415h.002Zm14.099-.067c-1.276 0-2.39-.294-3.347-.883-.957-.586-1.7-1.402-2.228-2.444-.528-1.042-.79-2.241-.79-3.592V8.76h4.155v9.514c0 1.243.302 2.174.909 2.794.604.62 1.467.932 2.59.932 1.275 0 2.265-.427 2.969-1.281.704-.855 1.056-2.046 1.056-3.577V8.76h4.156v16.5h-4.09v-2.162h-.594c-.263.556-.758 1.1-1.485 1.632-.724.532-1.827.797-3.299.797l-.002-.002Zm12.439 6.387V8.76h4.09v1.996h.594c.373-.643.957-1.214 1.748-1.713.79-.5 1.924-.749 3.398-.749a7.14 7.14 0 0 1 3.661.98c1.123.654 2.023 1.614 2.705 2.877.681 1.263 1.023 2.794 1.023 4.59v.532c0 1.796-.342 3.327-1.023 4.59-.682 1.264-1.585 2.224-2.705 2.877a7.146 7.146 0 0 1-3.66.98c-.99 0-1.82-.116-2.49-.35-.672-.231-1.21-.532-1.618-.898a5.397 5.397 0 0 1-.972-1.114h-.595v8.55h-4.156v.005Zm8.578-9.846c1.298 0 2.37-.417 3.217-1.248s1.27-2.046 1.27-3.643v-.332c0-1.598-.428-2.813-1.286-3.643-.857-.832-1.923-1.248-3.199-1.248-1.276 0-2.342.416-3.2 1.248-.856.83-1.285 2.045-1.285 3.643v.332c0 1.597.428 2.812 1.286 3.643.857.83 1.923 1.248 3.199 1.248h-.002Zm18.277 3.66c-1.628 0-3.061-.35-4.304-1.047a7.361 7.361 0 0 1-2.903-2.961c-.692-1.276-1.038-2.779-1.038-4.508v-.399c0-1.729.339-3.231 1.023-4.508a7.258 7.258 0 0 1 2.87-2.96c1.232-.698 2.661-1.048 4.288-1.048 1.628 0 3.003.36 4.189 1.08 1.187.721 2.113 1.72 2.771 2.995.661 1.277.99 2.756.99 4.441v1.43h-11.909c.043 1.133.462 2.051 1.252 2.761.791.71 1.761 1.066 2.904 1.066s2.023-.255 2.571-.765a5.393 5.393 0 0 0 1.253-1.695l3.398 1.796c-.308.576-.752 1.204-1.336 1.88-.585.677-1.358 1.254-2.327 1.73-.967.476-2.199.715-3.694.715l.002-.003Zm-3.993-10.613h7.654c-.089-.954-.467-1.719-1.138-2.295-.671-.576-1.546-.864-2.622-.864-1.077 0-2.013.288-2.672.864-.66.576-1.066 1.343-1.219 2.295h-.003Zm13.919 10.147V8.76h4.09v1.863h.595c.242-.666.642-1.153 1.204-1.464.561-.311 1.214-.466 1.962-.466h1.979v3.726h-2.046c-1.056 0-1.923.283-2.604.849-.682.566-1.024 1.436-1.024 2.611v9.381h-4.156Zm11.415 0V8.76h4.089v1.795h.595c.285-.553.757-1.037 1.418-1.446.661-.409 1.528-.615 2.605-.615 1.166 0 2.1.227 2.804.682a4.56 4.56 0 0 1 1.617 1.78h.595a4.81 4.81 0 0 1 1.584-1.762c.681-.466 1.648-.697 2.903-.697 1.011 0 1.929.216 2.756.648.824.432 1.484 1.086 1.979 1.963.495.878.743 1.979.743 3.311v10.845h-4.156V14.718c0-.908-.232-1.59-.692-2.046-.461-.455-1.112-.681-1.946-.681-.947 0-1.676.306-2.194.916-.518.61-.776 1.48-.776 2.611v9.749h-4.156V14.72c0-.909-.232-1.59-.691-2.046-.462-.455-1.112-.682-1.947-.682-.946 0-1.676.306-2.194.916-.518.61-.775 1.48-.775 2.612v9.748h-4.156l-.005-.01Zm33.98.466c-1.628 0-3.062-.35-4.304-1.047a7.357 7.357 0 0 1-2.904-2.961c-.691-1.276-1.038-2.779-1.038-4.508v-.399c0-1.729.339-3.231 1.023-4.508a7.264 7.264 0 0 1 2.87-2.96c1.232-.698 2.661-1.048 4.289-1.048 1.628 0 3.003.36 4.189 1.08 1.186.721 2.112 1.72 2.771 2.995.66 1.277.989 2.756.989 4.441v1.43h-11.909c.044 1.133.462 2.051 1.253 2.761.791.71 1.76 1.066 2.903 1.066s2.023-.255 2.574-.765a5.393 5.393 0 0 0 1.253-1.695l3.398 1.796c-.308.576-.752 1.204-1.336 1.88-.585.677-1.358 1.254-2.327 1.73-.967.476-2.199.715-3.694.715v-.003Zm-3.991-10.613h7.654c-.089-.954-.467-1.719-1.138-2.295-.671-.576-1.546-.864-2.622-.864-1.077 0-2.013.288-2.672.864-.66.576-1.066 1.343-1.219 2.295h-.003Zm13.917 10.147V8.76h4.089v1.795h.595c.286-.553.758-1.037 1.418-1.446.661-.409 1.529-.615 2.605-.615 1.166 0 2.1.227 2.804.682a4.56 4.56 0 0 1 1.617 1.78h.595a4.816 4.816 0 0 1 1.584-1.762c.681-.466 1.648-.697 2.904-.697 1.01 0 1.928.216 2.755.648.824.432 1.485 1.086 1.98 1.963.495.878.742 1.979.742 3.311v10.845h-4.156V14.718c0-.908-.232-1.59-.691-2.046-.462-.455-1.113-.681-1.947-.681-.946 0-1.676.306-2.194.916-.518.61-.776 1.48-.776 2.611v9.749h-4.155V14.72c0-.909-.233-1.59-.692-2.046-.462-.455-1.112-.682-1.946-.682-.947 0-1.677.306-2.195.916-.517.61-.775 1.48-.775 2.612v9.748h-4.156l-.005-.01Zm34.306.466c-1.628 0-3.089-.332-4.388-.998a7.45 7.45 0 0 1-3.069-2.895c-.748-1.263-1.123-2.783-1.123-4.556v-.533c0-1.775.373-3.293 1.123-4.556a7.45 7.45 0 0 1 3.069-2.895c1.296-.666 2.76-.998 4.388-.998 1.628 0 3.09.332 4.388.998a7.486 7.486 0 0 1 3.069 2.895c.748 1.263 1.12 2.784 1.12 4.556v.533c0 1.775-.375 3.293-1.12 4.556a7.45 7.45 0 0 1-3.069 2.895c-1.298.666-2.76.998-4.388.998Zm0-3.725c1.276 0 2.329-.417 3.166-1.248.837-.831 1.253-2.025 1.253-3.576v-.332c0-1.552-.413-2.746-1.237-3.577-.825-.83-1.886-1.248-3.184-1.248-1.299 0-2.332.417-3.167 1.248-.836.831-1.252 2.025-1.252 3.577v.332c0 1.551.416 2.745 1.252 3.576.837.83 1.891 1.248 3.167 1.248h.002Zm10.756 3.259V8.76h4.09v1.863h.594c.243-.666.643-1.153 1.205-1.464.561-.311 1.214-.466 1.961-.466h1.98v3.726h-2.046c-1.056 0-1.924.283-2.605.849-.681.566-1.023 1.436-1.023 2.611v9.381h-4.156Zm13.195 6.653v-3.658h8.906c.615 0 .924-.332.924-.999V23.1h-.595c-.176.378-.451.753-.824 1.132-.375.378-.88.686-1.518.93-.637.245-1.451.366-2.441.366-1.276 0-2.393-.293-3.347-.882-.957-.587-1.699-1.402-2.228-2.444-.528-1.043-.79-2.242-.79-3.592V8.76h4.156v9.515c0 1.243.301 2.174.908 2.794.604.62 1.467.932 2.589.932 1.276 0 2.266-.427 2.97-1.281.704-.855 1.056-2.046 1.056-3.577V8.76h4.156v19.428c0 1.132-.329 2.035-.99 2.712-.661.676-1.541 1.013-2.638 1.013h-10.294Zm17.415-21.906h1.421v4.075h1.173v-4.075h1.421V8.908h-4.015v1.099Zm7.921-1.099-.801 4.07-.799-4.07h-1.939v5.174h1.146v-3.694l.73 3.694h1.727l.729-3.694v3.694h1.146V8.908h-1.939Z"/></svg>