<svg xmlns="http://www.w3.org/2000/svg" xmlns:xlink="http://www.w3.org/1999/xlink" viewBox="0 0 120 20"><path d="M 10.567 13.431 L 15.887 0.585 C 15.933 0.482 15.935 0.365 15.893 0.261 C 15.852 0.156 15.769 0.074 15.666 0.034 C 15.616 0.013 15.562 0.002 15.507 0.001 L 2.5 0.001 C 2.326 -0.011 2.165 0.093 2.101 0.258 L 0.034 5.348 C -0.01 5.45 -0.011 5.567 0.031 5.67 C 0.073 5.774 0.156 5.855 0.258 5.895 C 0.307 5.916 0.361 5.927 0.414 5.927 L 6.714 5.927 C 6.82 5.927 6.922 5.971 6.997 6.047 C 7.071 6.124 7.113 6.228 7.113 6.336 C 7.112 6.392 7.102 6.447 7.081 6.499 L 1.829 19.415 C 1.783 19.518 1.782 19.636 1.824 19.74 C 1.866 19.845 1.949 19.926 2.053 19.966 C 2.102 19.988 2.155 19.999 2.209 19.999 L 15.995 19.999 C 16.17 20.011 16.332 19.905 16.395 19.738 L 18.481 14.599 C 18.521 14.496 18.517 14.38 18.471 14.279 C 18.425 14.178 18.341 14.1 18.238 14.064 C 18.188 14.043 18.135 14.032 18.081 14.032 L 10.943 14.032 C 10.837 14.032 10.735 13.989 10.66 13.912 C 10.585 13.835 10.543 13.731 10.543 13.623 C 10.537 13.558 10.546 13.493 10.567 13.431 Z" fill="rgb(253,253,254)"></path><path d="M 13.649 12.271 L 19.128 12.271 C 19.295 12.275 19.447 12.172 19.508 12.014 L 21.907 6.189 C 21.968 6.031 22.12 5.928 22.286 5.932 L 29.353 5.932 C 29.528 5.944 29.689 5.84 29.753 5.674 L 31.799 0.585 C 31.845 0.482 31.847 0.364 31.805 0.26 C 31.762 0.155 31.68 0.074 31.576 0.034 C 31.527 0.012 31.473 0.001 31.42 0.001 L 18.306 0.001 C 18.132 -0.012 17.97 0.092 17.906 0.258 L 13.25 11.696 C 13.191 11.828 13.206 11.981 13.288 12.1 C 13.37 12.218 13.507 12.283 13.649 12.271 Z M 52.873 2.5 L 39.55 2.5 C 39.347 2.5 39.182 2.668 39.182 2.875 L 39.182 5.984 C 39.182 6.191 39.347 6.359 39.55 6.359 L 43.612 6.359 C 43.815 6.359 43.979 6.527 43.979 6.734 L 43.979 17.106 C 43.979 17.313 44.144 17.481 44.347 17.481 L 48.072 17.481 C 48.275 17.481 48.439 17.313 48.439 17.106 L 48.439 6.734 C 48.439 6.527 48.603 6.359 48.806 6.359 L 52.873 6.359 C 53.076 6.359 53.24 6.191 53.24 5.984 L 53.24 2.875 C 53.24 2.668 53.076 2.5 52.873 2.5 Z M 90.948 13.9 C 90.746 13.9 90.694 13.784 90.83 13.634 L 92.976 11.192 C 93.111 11.039 93.324 10.784 93.457 10.626 L 97.313 5.916 C 97.455 5.724 97.537 5.493 97.548 5.252 L 97.548 2.875 C 97.548 2.668 97.384 2.5 97.181 2.5 L 86.029 2.5 C 85.932 2.5 85.838 2.539 85.769 2.61 C 85.7 2.68 85.661 2.775 85.662 2.875 L 85.662 5.751 C 85.661 5.851 85.7 5.946 85.769 6.017 C 85.838 6.087 85.931 6.127 86.029 6.126 L 88.6 6.126 L 91.851 6.085 C 92.053 6.085 92.109 6.201 91.969 6.351 L 89.824 8.792 C 89.691 8.946 89.475 9.201 89.342 9.362 L 85.478 14.069 C 85.337 14.261 85.255 14.492 85.243 14.732 L 85.243 17.106 C 85.243 17.206 85.281 17.301 85.35 17.372 C 85.419 17.442 85.513 17.481 85.61 17.481 L 97.21 17.481 C 97.413 17.481 97.577 17.313 97.578 17.106 L 97.578 14.234 C 97.577 14.027 97.413 13.859 97.21 13.859 L 94.184 13.859 Z M 104.418 2.5 L 100.693 2.5 C 100.49 2.5 100.326 2.668 100.326 2.875 L 100.326 17.114 C 100.326 17.321 100.49 17.489 100.693 17.489 L 104.418 17.489 C 104.621 17.489 104.785 17.321 104.785 17.114 L 104.785 2.875 C 104.785 2.668 104.621 2.5 104.418 2.5 Z M 79.601 17.5 C 79.374 17.488 79.163 17.378 79.021 17.196 L 73.643 9.363 C 73.536 9.19 73.452 9.216 73.463 9.423 L 73.573 17.125 C 73.573 17.225 73.534 17.32 73.465 17.39 C 73.397 17.461 73.303 17.5 73.206 17.5 L 70.039 17.5 C 69.942 17.5 69.848 17.461 69.779 17.39 C 69.71 17.32 69.671 17.225 69.672 17.125 L 69.672 2.875 C 69.671 2.775 69.71 2.68 69.779 2.609 C 69.848 2.539 69.941 2.5 70.039 2.5 L 72.89 2.5 C 73.118 2.513 73.33 2.622 73.477 2.8 L 78.576 10.146 C 78.686 10.323 78.763 10.296 78.756 10.09 L 78.646 2.875 C 78.646 2.668 78.811 2.5 79.013 2.5 L 82.179 2.5 C 82.382 2.501 82.546 2.668 82.547 2.875 L 82.547 17.125 C 82.546 17.332 82.382 17.499 82.179 17.5 Z M 119.967 17.14 L 117.763 12.816 L 117.307 11.927 C 117.283 11.885 117.261 11.841 117.241 11.796 C 117.237 11.788 117.234 11.778 117.234 11.768 C 117.234 11.758 117.237 11.749 117.241 11.74 C 117.241 11.74 117.296 11.672 117.359 11.609 C 117.359 11.609 117.689 11.256 118.093 10.727 C 118.832 9.818 119.235 8.673 119.232 7.491 C 119.248 5.013 117.473 2.901 115.071 2.541 C 114.909 2.522 114.748 2.511 114.579 2.5 L 107.911 2.5 C 107.814 2.5 107.72 2.539 107.651 2.61 C 107.582 2.68 107.544 2.775 107.544 2.875 L 107.544 17.091 C 107.544 17.191 107.582 17.286 107.651 17.357 C 107.72 17.427 107.814 17.466 107.911 17.466 L 111.181 17.466 C 111.278 17.466 111.372 17.427 111.441 17.357 C 111.509 17.286 111.548 17.191 111.548 17.091 L 111.548 12.591 C 111.549 12.488 111.631 12.405 111.732 12.404 L 112.988 12.404 C 113.098 12.412 113.197 12.475 113.252 12.572 L 113.903 13.956 L 115.398 17.114 C 115.504 17.313 115.705 17.441 115.927 17.451 L 119.743 17.451 C 119.824 17.475 119.911 17.444 119.961 17.375 C 120.01 17.306 120.013 17.212 119.967 17.14 Z M 113.723 9.141 L 111.577 9.141 C 111.499 9.139 111.436 9.075 111.434 8.995 L 111.434 6.051 C 111.436 5.971 111.499 5.907 111.577 5.905 L 113.781 5.905 C 115.008 5.905 115.49 6.561 115.49 7.491 C 115.501 8.549 114.997 9.141 113.723 9.141 Z M 66.858 13.754 L 60.029 13.754 C 59.948 13.754 59.882 13.687 59.882 13.604 L 59.882 11.706 C 59.884 11.624 59.949 11.558 60.029 11.556 L 63.842 11.556 C 63.94 11.556 64.033 11.517 64.102 11.447 C 64.171 11.376 64.21 11.281 64.21 11.181 L 64.21 8.238 C 64.21 8.138 64.171 8.043 64.102 7.972 C 64.033 7.902 63.94 7.862 63.842 7.863 L 60.029 7.863 C 59.948 7.863 59.882 7.795 59.882 7.713 L 59.882 6.381 C 59.884 6.3 59.95 6.235 60.029 6.235 L 66.704 6.235 C 66.802 6.235 66.895 6.196 66.964 6.125 C 67.033 6.055 67.072 5.96 67.071 5.86 L 67.071 2.875 C 67.072 2.775 67.033 2.68 66.964 2.609 C 66.895 2.539 66.802 2.5 66.704 2.5 L 55.908 2.5 C 55.705 2.5 55.541 2.668 55.541 2.875 L 55.541 17.106 C 55.541 17.313 55.705 17.481 55.908 17.481 L 66.858 17.481 C 66.956 17.481 67.049 17.442 67.118 17.372 C 67.187 17.301 67.226 17.206 67.226 17.106 L 67.226 14.129 C 67.225 13.922 67.061 13.755 66.858 13.754 Z" fill="rgb(253,253,254)"></path></svg>