<svg width="200" height="45" viewBox="0 0 200 45" fill="none" xmlns="http://www.w3.org/2000/svg">
<g clip-path="url(#clip0_6341_211)">
<mask id="mask0_6341_211" style="mask-type:luminance" maskUnits="userSpaceOnUse" x="0" y="0" width="200" height="45">
<path d="M200 0H0V45H200V0Z" fill="white"/>
</mask>
<g mask="url(#mask0_6341_211)">
<path d="M134.17 35.1739V23.4676C134.17 21.9878 134.06 20.8127 133.841 19.9423C133.622 19.0719 133.278 18.3613 132.81 17.8104C132.372 17.2884 131.765 16.8745 130.99 16.5698C130.215 16.2652 129.214 16.1133 127.987 16.1133C126.437 16.1133 125.034 16.418 123.778 17.0274C122.521 17.6368 121.527 18.6809 120.797 20.1606V16.1401C119.89 16.3436 112.612 18.1251 111.677 18.0387V18.9528C112.758 18.9528 113.497 19.2654 113.891 19.8887C114.286 20.513 114.483 21.4767 114.483 22.7828V35.1749C114.483 36.3936 114.271 37.2204 113.847 37.6551C113.423 38.0898 112.703 38.3081 111.681 38.3081V39.1438C112.996 39.1438 122.608 39.1438 123.165 39.1438V38.3081C122.317 38.3081 121.71 38.0908 121.345 37.6551C120.979 37.2204 120.797 36.3926 120.797 35.1749V23.0765C120.797 21.6265 121.213 20.4227 122.047 19.4649C122.88 18.5072 123.91 18.0288 125.138 18.0288C125.898 18.0288 126.468 18.1806 126.848 18.4853C127.228 18.79 127.491 19.2108 127.637 19.7478C127.783 20.2847 127.856 20.9159 127.856 21.6404V35.1739C127.856 36.3926 127.681 37.2194 127.33 37.6541C126.979 38.0888 126.365 38.3071 125.489 38.3071V39.1428C126.033 39.1428 136.426 39.1428 136.977 39.1428V38.3071C135.953 38.3071 135.23 38.0898 134.807 37.6541C134.382 37.2194 134.17 36.3926 134.17 35.1739Z" fill="white"/>
<path d="M159.73 37.3289C159.32 36.7057 159.116 35.74 159.116 34.4349V6.04297C158.21 6.24643 150.931 8.02793 149.996 7.94159V8.85566C151.077 8.85566 151.815 9.16829 152.21 9.79157C152.605 10.4159 152.802 11.3796 152.802 12.6857V17.7483C152.381 17.3235 151.893 16.9871 151.333 16.7459C150.353 16.3251 149.221 16.1147 147.935 16.1147C146.064 16.1147 144.39 16.5494 142.915 17.4198C141.439 18.2902 140.277 19.5894 139.429 21.3143C138.581 23.0412 138.157 25.2237 138.157 27.8637C138.157 30.6495 138.537 32.9193 139.297 34.674C140.057 36.4297 141.117 37.7279 142.476 38.5685C143.835 39.4102 145.377 39.831 147.102 39.831C148.68 39.831 149.959 39.432 150.938 38.634C151.743 37.979 152.362 37.0689 152.802 35.9137V39.2216C153.665 39.2216 160.908 39.2216 161.922 39.2216V38.2639C160.87 38.2639 160.139 37.9522 159.73 37.3289ZM152.802 34.1252C152.667 35.2189 152.259 36.1062 151.574 36.7851C150.785 37.5681 149.893 37.9602 148.899 37.9602C148.08 37.9602 147.357 37.6416 146.729 37.0024C146.1 36.3652 145.618 35.3132 145.282 33.8473C144.946 32.3824 144.778 30.4173 144.778 27.951C144.749 24.3543 145.173 21.6924 146.05 19.9655C146.927 18.2396 148.111 17.3761 149.602 17.3761C150.304 17.3761 150.968 17.528 151.597 17.8327C152.069 18.0619 152.471 18.4014 152.803 18.851L152.802 34.1252Z" fill="white"/>
<path d="M169.872 25.7741H182.162C182.162 22.351 181.431 19.8847 179.969 18.3762C178.507 16.8686 176.49 16.1133 173.918 16.1133C171.842 16.1133 169.994 16.556 168.372 17.4403C166.75 18.3255 165.478 19.6674 164.557 21.4657C163.636 23.2651 163.176 25.5131 163.176 28.2106C163.176 30.8506 163.607 33.0261 164.469 34.7382C165.331 36.4502 166.522 37.7265 168.043 38.5672C169.563 39.4088 171.316 39.8296 173.305 39.8296C174.942 39.8296 176.345 39.4951 177.514 38.8282C178.683 38.1612 179.648 37.3047 180.408 36.2606C181.168 35.2165 181.724 34.1437 182.074 33.04L181.285 32.779C180.378 34.23 179.406 35.1719 178.369 35.6076C177.331 36.0423 176.374 36.2606 175.497 36.2606C174.59 36.2606 173.699 35.9778 172.822 35.4121C171.945 34.8464 171.221 33.9402 170.651 32.6927C170.081 31.4461 169.796 29.8204 169.796 27.8186C169.796 27.4127 169.803 27.0207 169.818 26.6435C169.831 26.3438 169.851 26.0579 169.872 25.7741ZM169.776 24.9474C169.938 22.1744 170.36 20.1666 171.047 18.9419C171.763 17.6655 172.632 17.0274 173.656 17.0274C174.387 17.0274 174.972 17.3906 175.41 18.1151C175.848 18.8406 176.17 19.8053 176.375 21.0092C176.579 22.2131 176.667 23.5261 176.638 24.9474H169.776Z" fill="white"/>
<path d="M109.02 36.2716C108.088 36.2716 107.371 35.5243 107.353 34.0753C107.353 34.0574 107.35 34.0425 107.35 34.0237V31.1663L107.348 29.7342L107.343 25.1281C107.343 19.7072 104.871 16.1094 99.1922 16.1094C94.1582 16.1094 90.9142 19.1563 90.2322 24.0304L90.5762 24.1148C91.5132 20.8108 93.4762 19.4978 96.2502 19.4978C99.6592 19.4978 100.905 21.5304 101.018 24.5376C101.02 24.5197 101.027 24.5038 101.029 24.485V25.003C101.029 24.8442 101.024 24.6904 101.018 24.5376C100.947 25.0775 100.673 25.535 100.187 25.9062C99.6172 26.3409 98.8722 26.726 97.9512 27.0595C97.0302 27.3939 96.0662 27.7274 95.0572 28.0609C94.0492 28.3943 93.0912 28.8152 92.1852 29.3233C91.2792 29.8315 90.5412 30.4766 89.9712 31.2596C89.4012 32.0427 89.1162 33.059 89.1162 34.3055C89.1162 35.7566 89.5542 36.9892 90.4312 38.0045C91.3082 39.0208 92.7252 39.528 94.6842 39.528C96.1162 39.528 97.3652 39.2372 98.4332 38.6576C99.4572 38.1008 100.324 37.2602 101.039 36.1426C101.069 36.096 101.101 36.0513 101.13 36.0037H101.244C101.606 37.9301 102.898 39.3334 105.094 39.5171C105.232 39.522 105.368 39.528 105.514 39.528C105.978 39.528 106.42 39.4952 106.843 39.4347C108.045 39.2203 109.09 38.6744 109.911 37.8011C110.673 36.9912 111.241 35.9015 111.566 34.5378L111.156 34.4931C110.663 35.8548 109.785 36.2716 109.02 36.2716ZM99.6172 36.3501C99.1352 36.6111 98.6162 36.7421 98.0602 36.7421C97.3002 36.7421 96.6572 36.4741 96.1312 35.9372C95.6052 35.4003 95.3422 34.508 95.3422 33.2605C95.3422 32.1003 95.5612 31.1713 96.0002 30.4756C96.4382 29.7788 96.9862 29.2072 97.6442 28.7566C98.3022 28.307 98.9442 27.8862 99.5732 27.4942C100.192 27.1091 100.674 26.6307 101.024 26.062C101.026 26.059 101.027 26.0571 101.029 26.0551L101.034 29.7352L101.042 34.9576C101.04 34.9596 100.093 36.092 99.6172 36.3501Z" fill="white"/>
<path d="M199.508 14.7109C195.858 14.7109 193.284 17.2596 192.696 23.4983V16.1421C191.789 16.3455 184.522 18.127 183.587 18.0407V18.9548C184.668 18.9548 185.407 19.2674 185.801 19.8907C186.124 20.4018 186.313 21.6533 186.371 22.6915H186.369C186.369 22.7232 186.371 22.753 186.371 22.7848V35.1768C186.371 36.3956 186.159 37.2223 185.735 37.6571C185.311 38.0918 184.587 38.3101 183.565 38.3101V39.2242C184.255 39.2242 196.091 39.2242 196.806 39.2242V38.3101C195.432 38.3101 194.401 38.064 193.715 37.5707C193.028 37.0774 192.685 36.1346 192.685 34.7421V33.8271V26.7001C192.98 21.9858 194.806 20.6867 197.455 20.6867C198.572 20.6867 199.286 20.8236 199.778 21.0876H199.999V14.7129H199.508V14.7109Z" fill="white"/>
<path d="M93.0172 9.28056V8.41016C92.5832 8.41016 85.1962 8.41016 84.2042 8.41016V9.28056C85.4022 9.31034 86.3232 9.5932 86.9662 10.1291C87.6092 10.6661 87.9452 11.5583 87.9752 12.8059C88.0042 14.0534 87.3062 15.7426 86.5442 17.9846L82.3722 28.8771L76.6152 12.9369C76.2642 11.864 76.1252 11.0809 76.1992 10.5867C76.2722 10.0934 76.5642 9.75993 77.0762 9.58625C77.5872 9.41157 78.2822 9.31133 79.1592 9.28156V8.41115C78.5102 8.41115 67.4902 8.41115 66.5752 8.41115V9.28156C67.0422 9.31133 67.4882 9.48502 67.9122 9.8036C68.3352 10.1232 68.6942 10.7326 68.9862 11.6308C68.9862 11.6308 79.4502 39.307 79.7282 39.307L88.9802 14.4593C89.5952 12.786 90.2992 11.5514 91.0002 10.7822C91.7022 10.014 92.3742 9.5138 93.0172 9.28056Z" fill="white"/>
<path d="M66.7784 29.0685L60.3934 12.9388C60.1884 12.3294 60.0644 11.7577 60.0204 11.2208C59.9764 10.6839 60.0714 10.2492 60.3054 9.91469C60.5384 9.58221 60.9484 9.37081 61.5334 9.28447V8.41406C60.8624 8.41406 50.5214 8.41406 49.6074 8.41406V9.28447C50.0454 9.31424 50.5214 9.51671 51.0324 9.89385C51.5434 10.271 51.9894 10.9965 52.3704 12.0694C52.3704 12.0694 63.3364 39.3109 63.7264 39.3109L71.2924 21.2657C71.1044 20.7734 70.9194 20.2881 70.7394 19.8147L66.7784 29.0685Z" fill="white"/>
<path d="M14.6009 38.4287C25.1069 41.2225 35.9049 35.0344 38.7199 24.6084C41.5349 14.1814 35.3009 3.46464 24.7949 0.67081C14.2889 -2.12302 3.49089 4.06508 0.675894 14.4911C-2.13911 24.9171 4.09589 35.6349 14.6009 38.4287ZM31.6559 9.73214C33.1779 9.71924 33.1319 8.79921 33.7039 8.26724C35.0979 9.97629 36.1679 11.9295 36.8569 14.0236C36.0949 14.1308 35.3179 14.1487 34.5989 13.6306C32.2189 12.257 31.0709 13.2981 29.9849 12.4912C28.8989 11.6863 29.1639 9.75398 31.6559 9.73214ZM29.9309 17.3296C32.4339 16.6785 35.5519 17.7345 37.7439 19.4316C37.7549 21.0018 37.5609 22.5977 37.1319 24.1856C36.0299 28.2657 33.5839 31.6362 30.3949 33.9625C29.9279 31.658 30.3589 29.8954 30.9689 28.2935C31.8639 25.9433 29.6829 25.8996 26.2439 22.8706C23.6019 20.5452 27.4069 17.9866 29.9309 17.3296ZM3.74789 11.1722C5.75989 7.39982 9.03889 4.53056 12.8959 2.9674C13.7889 3.34157 14.9649 3.55892 16.3569 3.47158C20.9199 3.18376 23.1229 3.71772 23.2139 6.27831C23.3049 8.83891 17.0879 8.68706 14.5409 11.1673C11.9939 13.6475 7.97689 10.5599 7.15089 13.8093C6.32589 17.0576 10.2999 18.1791 12.6909 17.4388C15.0809 16.6994 16.8879 19.1845 17.8749 21.5178C18.8619 23.8512 21.2159 23.4968 21.0969 25.4838C20.6839 28.8463 18.2829 27.1581 15.7129 30.3053C13.8589 32.5751 12.7779 34.6335 12.5499 35.9971C11.5169 35.5555 10.5449 35.0235 9.63389 34.4151C9.67389 33.767 10.0399 33.0614 10.5389 32.0709C13.5049 25.3042 6.81389 25.32 9.09689 21.3779C10.2349 19.3572 5.55489 17.9916 5.46789 14.4484C5.43289 13.1036 4.60689 12.0952 3.74789 11.1722Z" fill="white"/>
<path d="M42.7484 19.5505C42.7484 13.4398 40.3504 7.69526 35.9974 3.375L34.9404 4.42305C39.0114 8.46344 41.2544 13.8358 41.2544 19.5505C41.2544 25.2652 39.0124 30.6374 34.9404 34.6778C26.5364 43.0196 12.8604 43.0196 4.45639 34.6778L3.40039 35.7269C7.32739 39.6243 12.3304 41.8177 17.4684 42.309C17.4374 43.0663 17.2804 43.5913 16.9974 43.8821C16.6784 44.2096 16.1374 44.3724 15.3684 44.3724V45.0006C16.3574 45.0006 23.5844 45.0006 24.0034 45.0006V44.3724C23.3654 44.3724 22.9094 44.2086 22.6354 43.8821C22.3864 43.5873 22.2524 43.0494 22.2284 42.2733C27.2614 41.7264 32.1474 39.5479 35.9974 35.7259C40.3504 31.4056 42.7484 25.6612 42.7484 19.5505Z" fill="white"/>
</g>
</g>
<defs>
<clipPath id="clip0_6341_211">
<rect width="200" height="45" fill="white"/>
</clipPath>
</defs>
</svg>
