<svg width="1236" height="351" viewBox="0 0 1236 351" fill="none" xmlns="http://www.w3.org/2000/svg">
<g clip-path="url(#clip0_6341_193)">
<mask id="mask0_6341_193" style="mask-type:luminance" maskUnits="userSpaceOnUse" x="0" y="0" width="350" height="350">
<path d="M0 0H350V350H0V0Z" fill="white"/>
</mask>
<g mask="url(#mask0_6341_193)">
<path d="M341.87 122.387C333.233 95.088 318.045 70.3183 297.631 50.2409C277.217 30.1635 252.199 15.3888 224.76 7.20703C246.13 75.947 296.7 117.747 341.87 122.387Z" fill="white"/>
<path d="M345.73 136.778L345.12 134.118C276.82 131.978 208.24 86.8283 189.65 0.608281C184.797 0.201615 179.89 -0.00505208 174.93 -0.0117188C162.85 -0.0117188 151.06 1.20828 139.67 3.53828C166.61 87.5183 262.78 135.108 345.73 136.768V136.778Z" fill="white"/>
<path d="M348.13 149.947C229.42 149.257 129.41 89.4869 98.4599 17.5469C78.3091 27.3743 60.2215 40.9612 45.1699 57.5769C111.66 115.167 228.43 152.227 348.5 152.577C348.387 151.697 348.263 150.82 348.13 149.947Z" fill="white"/>
<path d="M349.68 165.767C247.84 165.717 105.59 150.317 17.4202 98.6367C9.84782 114.226 4.64708 130.86 1.99023 147.987C99.1002 165.877 228.17 168.147 349.77 168.157L349.68 165.767ZM224.85 342.757C252.222 334.578 277.183 319.838 297.561 299.817C317.939 279.795 333.119 255.1 341.78 227.877C296.7 232.557 246.26 274.237 224.85 342.757Z" fill="white"/>
<path d="M345.05 216.129L345.67 213.469C262.81 215.149 166.79 262.649 139.74 346.449C156.17 349.794 172.993 350.773 189.7 349.359C208.37 263.339 276.85 218.279 345.05 216.119V216.129Z" fill="white"/>
<path d="M348.09 200.31L348.46 197.68C228.48 198.03 111.8 235.05 45.2998 292.56C60.3516 309.136 78.4282 322.689 98.5598 332.49C129.61 260.66 229.52 201 348.1 200.31H348.09Z" fill="white"/>
<path d="M349.77 182.109C228.19 182.109 99.15 184.389 2.04004 202.269C4.71755 219.382 9.93508 235.998 17.52 251.569C105.69 199.939 247.85 184.549 349.66 184.499L349.77 182.109Z" fill="white"/>
</g>
<path d="M1149.21 278.42C1126.29 278.42 1107.57 270.78 1093.43 255.88V351H1037.66V74.82H1093.43V93.54C1107.57 78.64 1126.29 71 1149.21 71C1198.1 71 1235.15 108.82 1235.15 174.9C1235.15 240.6 1198.1 278.42 1149.21 278.42ZM1135.45 230.67C1161.43 230.67 1177.47 210.05 1177.47 174.9C1177.47 139.76 1161.43 118.75 1135.45 118.75C1109.48 118.75 1093.43 139.75 1093.43 174.9C1093.43 210.05 1109.48 230.67 1135.45 230.67ZM897.77 274.6V74.82H953.54V103.09C969.2 80.55 991.74 71 1012 71H1019.64V127.54H1012C982.58 127.54 953.55 140.14 953.55 172.61V274.61L897.77 274.6ZM824.31 274.6V257.03C809.03 271.55 787.64 278.43 766.63 278.43C729.96 278.43 699.78 256.65 699.78 216.93C699.78 172.23 735.31 156.57 787.26 152.75C814.38 149.31 825.84 145.49 825.84 133.26C825.84 122.19 815.14 114.55 795.28 114.55C776.56 114.55 762.81 123.33 761.28 137.85H707.04C710.48 92.39 751.35 71 795.66 71C841.5 71 880.08 90.1 880.08 139.76V274.6H824.31ZM755.55 213.48C755.55 228.76 767.01 236.4 782.67 236.4C802.16 236.4 824.31 225.32 824.31 200.5V183.69C814 186.36 802.54 187.89 791.08 189.03C769.3 191.71 755.55 198.2 755.55 213.48ZM458.45 274.6L400 74.82H458.06L490.15 210.81L527.97 74.82H581.83L618.5 210.81L651.73 74.82H705.59L646.77 274.6H589.85L552.8 143.96L515.74 274.6H458.45Z" fill="white"/>
</g>
<defs>
<clipPath id="clip0_6341_193">
<rect width="1236" height="351" fill="white"/>
</clipPath>
</defs>
</svg>
