<svg width="126" height="32" viewBox="0 0 126 32" fill="none" xmlns="http://www.w3.org/2000/svg">
<path d="M87.5536 18.0526C87.2347 15.8421 85.7998 14.2632 83.2487 14.2632C80.8571 14.2632 79.1033 15.6842 78.625 18.0526H87.5536ZM83.5676 24.5263C85.6403 24.5263 87.0753 23.7368 88.0319 22.7895L90.264 25.1579C88.8291 26.5789 86.7564 27.6842 83.5676 27.6842C78.1467 27.6842 74.639 24.2105 74.639 19.3158C74.639 14.5789 78.3061 10.9474 82.9298 10.9474C88.3508 10.9474 91.2207 15.0526 91.0612 20.579H78.625C79.1033 23.1053 80.6977 24.5263 83.5676 24.5263ZM0.5 24.3684L10.2258 14.5789H0.659439V11.421H14.6901V14.5789L4.96429 24.3684H14.8495V27.5263H0.5V24.3684ZM29.6773 18.0526C29.3584 15.8421 27.9235 14.2632 25.3724 14.2632C22.9809 14.2632 21.227 15.6842 20.7487 18.0526H29.6773ZM25.8508 24.5263C27.9235 24.5263 29.3584 23.7368 30.3151 22.7895L32.5472 25.1579C31.1122 26.5789 29.0395 27.6842 25.8508 27.6842C20.4298 27.6842 16.9222 24.2105 16.9222 19.3158C16.9222 14.5789 20.5893 10.9474 25.213 10.9474C30.6339 10.9474 33.5038 15.0526 33.3444 20.579H20.7487C21.3865 23.1053 22.9809 24.5263 25.8508 24.5263ZM68.2615 19.4737C68.2615 16.6316 66.0293 14.2632 63.1594 14.2632C60.2895 14.2632 58.0574 16.4737 58.0574 19.4737C58.0574 22.4737 60.2895 24.6842 63.1594 24.6842C66.0293 24.6842 68.2615 22.3158 68.2615 19.4737ZM54.5497 19.4737C54.5497 14.2632 58.3763 11.1053 62.6811 11.1053C64.7538 11.1053 66.8265 12.0526 68.102 13.4737V4H71.6097V27.3684H68.102V25.1579C66.8265 26.7368 64.7538 27.6842 62.6811 27.6842C58.5357 27.8421 54.5497 24.5263 54.5497 19.4737ZM93.4528 24.2105L96.6416 22.6316C97.5982 24.0526 98.8737 25 100.787 25C102.7 25 103.816 24.0526 103.816 22.9474C103.816 21.6842 101.903 21.3684 99.8304 20.8947C97.1199 20.2632 94.25 19.4737 94.25 16.1579C94.25 13.6316 96.6416 11.2632 100.468 11.2632C103.497 11.2632 105.73 12.3684 107.005 14.4211L104.135 16C103.338 14.8947 102.062 14.1053 100.468 14.1053C98.5548 14.1053 97.5982 15.0526 97.5982 16C97.5982 17.1053 99.0332 17.4211 101.425 18.0526C104.135 18.5263 107.165 19.4737 107.165 22.7895C107.165 25 105.251 28 100.628 28C97.2793 27.8421 94.8878 26.579 93.4528 24.2105ZM116.571 20.4211L113.861 23.4211V27.5263H110.353V4.15789H113.861V19.4737L121.195 11.5789H125.341L118.963 18.3684L125.5 27.5263H121.514L116.571 20.4211ZM44.1862 11.1053C40.0408 11.1053 36.6926 13.7895 36.6926 18.0526V27.3684H40.2003V18.5263C40.2003 15.8421 41.6352 14.2632 44.3457 14.2632C47.0561 14.2632 48.1722 15.8421 48.1722 18.5263V27.3684H51.6798V18.0526C51.6798 13.7895 48.1722 11.1053 44.1862 11.1053Z" fill="white"/>
</svg>
