<svg preserveAspectRatio="none" width="100%" height="100%" overflow="visible" style="display: block;" viewBox="0 0 24 24" fill="none" xmlns="http://www.w3.org/2000/svg">
<g id="icon">
<path id="Vector" d="M5.33333 4.22222C4.71969 4.22222 4.22222 4.71969 4.22222 5.33333C4.22222 5.94698 4.71969 6.44444 5.33333 6.44444C5.94698 6.44444 6.44444 5.94698 6.44444 5.33333C6.44444 4.71969 5.94698 4.22222 5.33333 4.22222ZM2 5.33333C2 3.49239 3.49239 2 5.33333 2C7.17428 2 8.66667 3.49239 8.66667 5.33333C8.66667 6.78469 7.7391 8.0194 6.44444 8.47699V8.66667C6.44444 9.894 7.43937 10.8889 8.66667 10.8889H15.3333C16.5607 10.8889 17.5556 9.894 17.5556 8.66667V8.47699C16.2609 8.0194 15.3333 6.78469 15.3333 5.33333C15.3333 3.49239 16.8257 2 18.6667 2C20.5077 2 22 3.49239 22 5.33333C22 6.78469 21.0724 8.0194 19.7778 8.47699V8.66667C19.7778 11.1212 17.7879 13.1111 15.3333 13.1111H13.1111V15.523C14.4058 15.9806 15.3333 17.2153 15.3333 18.6667C15.3333 20.5077 13.841 22 12 22C10.159 22 8.66667 20.5077 8.66667 18.6667C8.66667 17.2153 9.59423 15.9806 10.8889 15.523V13.1111H8.66667C6.21207 13.1111 4.22222 11.1212 4.22222 8.66667V8.47699C2.92757 8.0194 2 6.78469 2 5.33333ZM18.6667 4.22222C18.053 4.22222 17.5556 4.71969 17.5556 5.33333C17.5556 5.94698 18.053 6.44444 18.6667 6.44444C19.2803 6.44444 19.7778 5.94698 19.7778 5.33333C19.7778 4.71969 19.2803 4.22222 18.6667 4.22222ZM12 17.5556C11.3863 17.5556 10.8889 18.053 10.8889 18.6667C10.8889 19.2803 11.3863 19.7778 12 19.7778C12.6137 19.7778 13.1111 19.2803 13.1111 18.6667C13.1111 18.053 12.6137 17.5556 12 17.5556Z" fill="url(#paint0_linear_1263_538)"/>
</g>
<defs>
<linearGradient id="paint0_linear_1263_538" x1="12" y1="2" x2="12" y2="22" gradientUnits="userSpaceOnUse">
<stop stop-color="white" stop-opacity="0.3"/>
<stop offset="1" stop-color="white"/>
</linearGradient>
</defs>
</svg>
