<svg width="1440" height="884" viewBox="0 0 1440 884" fill="none" xmlns="http://www.w3.org/2000/svg">
<path d="M2034.91 6.94852L2013.77 0.5M2034.91 6.94852H1972.27M2034.91 6.94852L2056.75 13.61M2034.91 6.94852H2079.27M2013.77 0.5L2021.46 0.502514L2029.07 0.516477L2036.53 0.555735L2043.75 0.633052L2050.65 0.758524L2057.17 0.947389L2063.23 1.20974L2068.85 1.54431L2073.67 2.00693L2078.06 2.54305L2079.27 2.73083V6.94852M2013.77 0.5H1952.14M1952.14 0.5H1890.51M1952.14 0.5L1972.27 6.94852M1890.51 0.5H1828.87M1890.51 0.5L1909.63 6.94852M1828.87 0.5H1767.24M1828.87 0.5L1846.99 6.94852M1767.24 0.5H1705.61M1767.24 0.5L1784.35 6.94852M1705.61 0.5H1643.98M1705.61 0.5L1721.72 6.94852M1643.98 0.5H1582.35M1643.98 0.5L1659.08 6.94852M1582.35 0.5H1520.72M1582.35 0.5L1596.44 6.94852M1520.72 0.5H1459.08M1520.72 0.5L1533.8 6.94852M1459.08 0.5H1397.45M1459.08 0.5L1471.16 6.94852M1397.45 0.5H1335.82M1397.45 0.5L1408.52 6.94852M1335.82 0.5H1274.19M1335.82 0.5L1345.88 6.94852M1274.19 0.5H1212.55M1274.19 0.5L1276.42 2.09311L1279.81 4.50499L1283.25 6.94852M1212.55 0.5H1150.92M1212.55 0.5L1214.54 2.09311L1220.61 6.94852M1150.92 0.5H1089.29M1150.92 0.5L1157.97 6.94852M1089.29 0.5H1027.66M1089.29 0.5L1091.53 2.89409L1093.8 5.31611L1094.57 6.13106L1095.33 6.94852M1027.66 0.5H966.027M1027.66 0.5L1029.53 2.89409L1030.16 3.69763L1030.79 4.50499L1032.69 6.94852M966.027 0.5H904.396M966.027 0.5L970.054 6.94852M904.396 0.5L904.768 1.29464L905.141 2.09311L907.032 6.13106L907.416 6.94852M904.396 0.5H842.765M842.765 0.5H781.132M842.765 0.5L844.777 6.94852M781.132 0.5H719.5M781.132 0.5L781.506 2.89409L782.139 6.94852M719.5 0.5H657.868M719.5 0.5V6.94852M657.868 0.5H596.236M657.868 0.5L657.495 2.89409L656.862 6.94852M596.236 0.5H534.604M596.236 0.5L594.223 6.94852M534.604 0.5L534.232 1.29464L533.859 2.09311L531.968 6.13106L531.584 6.94852M534.604 0.5H472.973M472.973 0.5H411.34M472.973 0.5L469.457 6.13106L468.946 6.94852M411.34 0.5H349.708M411.34 0.5L409.473 2.89409L408.844 3.69763L407.581 5.31611L406.946 6.13106L406.307 6.94852M349.708 0.5H288.077M349.708 0.5L347.468 2.89409L345.197 5.31611L344.435 6.13106L343.669 6.94852M288.077 0.5H226.445M288.077 0.5L281.032 6.94852M226.445 0.5H164.812M226.445 0.5L224.457 2.09311L218.393 6.94852M164.812 0.5H103.181M164.812 0.5L155.754 6.94852M103.181 0.5H41.5496M103.181 0.5L93.1159 6.94852M41.5496 0.5H-20.0833M41.5496 0.5L30.4774 6.94852M-20.0833 0.5H-81.7148M-20.0833 0.5L-32.1611 6.94852M-81.7148 0.5H-143.346M-81.7148 0.5L-94.7997 6.94852M-143.346 0.5H-204.978M-143.346 0.5L-157.438 6.94852M-204.978 0.5H-266.611M-204.978 0.5L-220.077 6.94852M-266.611 0.5H-328.242M-266.611 0.5L-282.715 6.94852M-328.242 0.5H-389.874M-328.242 0.5L-345.354 6.94852M-389.874 0.5H-451.506M-389.874 0.5L-407.992 6.94852M-451.506 0.5H-513.138M-451.506 0.5L-470.63 6.94852M-513.138 0.5H-574.769M-513.138 0.5L-533.268 6.94852M-574.769 0.5L-582.461 0.502514L-590.072 0.516477L-597.526 0.555735L-604.745 0.633052L-611.652 0.758524L-618.171 0.947389L-624.227 1.20974L-629.847 1.54431L-634.67 2.00693L-639.061 2.54305L-640.268 2.73087V6.94852M-574.769 0.5L-595.907 6.94852M-470.63 6.94852H-407.992M-470.63 6.94852H-533.268M-470.63 6.94852L-490.39 13.61M-407.992 6.94852L-426.712 13.61M-407.992 6.94852H-345.354M-220.077 6.94852H-157.438M-220.077 6.94852H-282.715M-220.077 6.94852L-223.928 8.59361L-235.676 13.61M-157.438 6.94852L-171.998 13.61M-157.438 6.94852H-94.7997M30.4774 6.94852H93.1159M30.4774 6.94852H-32.1611M30.4774 6.94852L27.653 8.59361L26.2309 9.41997L19.0369 13.61M93.1159 6.94852L91.8342 7.76853L90.5479 8.59361L82.7165 13.61M93.1159 6.94852H155.754M281.032 6.94852L280.134 7.76853L273.751 13.61M281.032 6.94852H343.669M281.032 6.94852H218.393M343.669 6.94852L342.129 8.59361L341.353 9.41997L340.575 10.2514L337.429 13.61M343.669 6.94852H406.307M531.584 6.94852H594.223M531.584 6.94852H468.946M531.584 6.94852L528.466 13.61M594.223 6.94852L593.967 7.76853L593.71 8.59361L593.451 9.41997L592.669 11.9231L592.144 13.61M594.223 6.94852H656.862M782.139 6.94852H844.777M782.139 6.94852H719.5M782.139 6.94852L783.178 13.61M844.777 6.94852L845.033 7.76853L845.29 8.59361L845.549 9.41997L846.856 13.61M844.777 6.94852H907.416M1032.69 6.94852H1095.33M1032.69 6.94852H970.054M1032.69 6.94852L1033.98 8.59361L1036.58 11.9231L1037.23 12.7646L1037.89 13.61M1095.33 6.94852L1096.87 8.59361L1097.65 9.41997L1098.42 10.2514L1101.57 13.61M1095.33 6.94852H1157.97M1283.25 6.94852H1345.88M1283.25 6.94852H1220.61M1283.25 6.94852L1285.56 8.59361L1286.72 9.41997L1292.61 13.61M1345.88 6.94852L1347.17 7.76853L1348.45 8.59361L1356.28 13.61M1345.88 6.94852H1408.52M1533.8 6.94852H1596.44M1533.8 6.94852H1471.16M1533.8 6.94852L1537.14 8.59361L1538.82 9.41997L1547.32 13.61M1596.44 6.94852L1611 13.61M1596.44 6.94852H1659.08M1784.35 6.94852H1846.99M1784.35 6.94852H1721.72M1784.35 6.94852L1802.03 13.61M1846.99 6.94852L1865.71 13.61M1846.99 6.94852H1909.63M-640.487 67.2515H-640.268M-577.441 67.2515L-553.526 58.7409M-577.441 67.2515L-602.272 76.0878M-577.441 67.2515H-505.389M-577.441 67.2515H-640.268M-553.526 58.7409H-624.249M-553.526 58.7409L-530.476 50.5383M-553.526 58.7409H-482.802M-624.249 58.7409L-599.919 50.5383M-624.249 58.7409H-640.268M-624.249 58.7409L-640.268 64.1402M-553.812 34.9923H-486.795M-553.812 34.9923L-531.945 27.6198M-553.812 34.9923H-620.827M-553.812 34.9923L-576.456 42.6271M-486.795 34.9923L-466.079 27.6198M-486.795 34.9923L-508.247 42.6271M-486.795 34.9923H-419.779M-531.945 27.6198H-466.079M-531.945 27.6198L-510.816 20.497M-531.945 27.6198H-597.81M-466.079 27.6198H-400.213M-466.079 27.6198L-446.063 20.497M-640.957 201.583H-640.268M-582.819 201.583L-551.981 187.473M-582.819 201.583L-615.19 216.396M-582.819 201.583H-489.795M-582.819 201.583H-640.268M-551.981 187.473L-522.568 174.016M-551.981 187.473H-461.161M-551.981 187.473H-640.268M-611.288 174.016H-522.568M-611.288 174.016L-581.2 161.167M-611.288 174.016H-640.268M-611.288 174.016L-640.268 186.392M-552.444 148.886H-467.648M-552.444 148.886L-524.931 137.137M-552.444 148.886H-637.239M-552.444 148.886L-581.2 161.167M-467.648 148.886L-441.968 137.137M-467.648 148.886L-494.488 161.167M-467.648 148.886H-382.851M-524.931 137.137H-441.968M-524.931 137.137H-607.892M-524.931 137.137L-498.583 125.885M-441.968 137.137L-417.378 125.885M-441.968 137.137H-359.007M-449.098 104.753H-371.192M-449.098 104.753L-425.834 94.8175M-449.098 104.753H-527.005M-449.098 104.753L-473.328 115.1M-371.192 104.753L-349.479 94.8175M-371.192 104.753L-393.806 115.1M-371.192 104.753H-293.285M-425.834 94.8175H-349.479M-425.834 94.8175H-502.189M-425.834 94.8175L-403.477 85.2701M-349.479 94.8175L-328.612 85.2701M-349.479 94.8175H-273.122M-361.284 67.2515H-289.232M-361.284 67.2515L-341.355 58.7409M-361.284 67.2515H-433.337M-361.284 67.2515L-381.977 76.0878M-289.232 67.2515L-270.632 58.7409M-289.232 67.2515L-308.545 76.0878M-289.232 67.2515H-217.18M-341.355 58.7409H-270.632M-341.355 58.7409H-412.079M-341.355 58.7409L-322.147 50.5383M-270.632 58.7409L-252.704 50.5383M-270.632 58.7409H-199.908M-285.747 34.9923H-218.73M-285.747 34.9923L-268.483 27.6198M-285.747 34.9923H-352.762M-285.747 34.9923L-303.623 42.6271M-218.73 34.9923L-202.618 27.6198M-218.73 34.9923L-235.415 42.6271M-218.73 34.9923H-151.713M-268.483 27.6198H-202.618M-268.483 27.6198L-251.802 20.497M-268.483 27.6198H-334.348M-202.618 27.6198H-136.751M-202.618 27.6198L-187.049 20.497M-592.609 446.21L-549.207 418.407M-592.609 446.21L-639.088 475.982M-592.609 446.21H-461.399M-592.609 446.21H-640.268M-549.207 418.407L-508.583 392.384M-549.207 418.407H-422.337M-549.207 418.407H-640.268M-550.088 345.037H-434.671M-550.088 345.037L-512.999 323.439M-550.088 345.037L-589.479 367.977M-550.088 345.037H-640.268M-434.671 345.037L-400.954 323.439M-434.671 345.037L-470.481 367.977M-434.671 345.037H-319.253M-512.999 323.439H-400.954M-512.999 323.439H-625.044M-512.999 323.439L-478.015 303.066M-400.954 323.439L-369.15 303.066M-400.954 323.439H-288.908M-413.686 265.604H-310.669M-413.686 265.604L-384.045 248.343M-413.686 265.604H-516.703M-413.686 265.604L-444.963 283.819M-310.669 265.604L-283.722 248.343M-310.669 265.604L-339.103 283.819M-310.669 265.604H-207.652M-384.045 248.343H-283.722M-384.045 248.343H-484.367M-384.045 248.343L-355.916 231.962M-283.722 248.343L-258.15 231.962M-283.722 248.343H-183.401M-303.751 201.583H-210.727M-303.751 201.583L-279.52 187.473M-303.751 201.583H-396.773M-303.751 201.583L-329.184 216.396M-210.727 201.583L-188.7 187.473M-210.727 201.583L-233.85 216.396M-210.727 201.583H-117.705M-279.52 187.473H-188.7M-279.52 187.473H-370.34M-279.52 187.473L-256.411 174.016M-188.7 187.473L-167.692 174.016M-188.7 187.473H-97.8804M-213.258 148.886H-128.462M-213.258 148.886L-193.083 137.137M-213.258 148.886H-298.055M-213.258 148.886L-234.347 161.167M-128.462 148.886L-110.12 137.137M-128.462 148.886L-147.634 161.167M-128.462 148.886H-43.6668M-193.083 137.137H-110.12M-193.083 137.137H-276.044M-193.083 137.137L-173.761 125.885M-110.12 137.137L-92.5547 125.885M-110.12 137.137H-27.1583M-137.472 104.753H-59.5662M-137.472 104.753L-120.412 94.8175M-137.472 104.753H-215.379M-137.472 104.753L-155.24 115.1M-59.5662 104.753L-57.5916 103.489L-44.0563 94.8175M-59.5662 104.753L-75.7176 115.1M-59.5662 104.753H18.3414M-120.412 94.8175H-44.0563M-120.412 94.8175H-196.767M-120.412 94.8175L-104.016 85.2701M-44.0563 94.8175L-29.1512 85.2701M-44.0563 94.8175H32.3003M-73.076 67.2515H-1.02253M-73.076 67.2515L-58.4599 58.7409M-73.076 67.2515H-145.128M-73.076 67.2515L-88.2501 76.0878M-1.02253 67.2515L12.2635 58.7409M-1.02253 67.2515L-6.13433 70.5265L-14.8185 76.0878M-1.02253 67.2515H71.0296M-58.4599 58.7409H12.2635M-58.4599 58.7409H-129.183M-58.4599 58.7409L-44.375 50.5383M12.2635 58.7409L25.0681 50.5383M12.2635 58.7409H82.987M-17.6811 34.9923H49.3357M-17.6811 34.9923L-5.02109 27.6198M-17.6811 34.9923H-84.6964M-17.6811 34.9923L-30.7901 42.6271M49.3357 34.9923L58.0056 29.4398L59.4277 28.5273L60.8455 27.6198M49.3357 34.9923L37.4179 42.6271M49.3357 34.9923H116.352M-5.02109 27.6198H60.8455M-5.02109 27.6198L7.21122 20.497M-5.02109 27.6198H-70.8862M60.8455 27.6198H126.711M60.8455 27.6198L71.9644 20.497M-545.07 762.923H-364.416M-545.07 762.923L-488.186 710.869M-545.07 762.923L-607.577 820.125M-545.07 762.923L-640.268 762.924M-364.416 762.923L-315.659 710.869M-364.416 762.923L-417.994 820.125M-364.416 762.923H-183.764M-488.186 710.869H-315.659M-488.186 710.869L-436.199 663.295M-488.186 710.869H-640.268M-315.659 710.869L-271.099 663.295M-315.659 710.869H-143.132M-344.589 579.462H-192.576M-344.589 579.462L-304.023 542.338M-344.589 579.462H-496.601M-344.589 579.462L-388.504 619.649M-192.576 579.462L-157.805 542.338M-192.576 579.462L-230.217 619.649M-192.576 579.462H-40.5634M-304.023 542.338H-157.805M-304.023 542.338H-450.24M-304.023 542.338L-266.435 507.942M-157.805 542.338L-125.587 507.942M-157.805 542.338H-11.5876M-198.976 446.21H-67.7658M-198.976 446.21L-168.594 418.407M-198.976 446.21H-330.188M-198.976 446.21L-231.512 475.982M-67.7658 446.21L-41.7234 418.407M-67.7658 446.21L-95.6524 475.982M-67.7658 446.21H63.4447M-168.594 418.407H-41.7234M-168.594 418.407H-295.466M-168.594 418.407L-140.158 392.384M-41.7234 418.407L-17.3496 392.384M-41.7234 418.407H85.1471M-88.4201 345.037H26.9972M-88.4201 345.037L-64.8168 323.439M-88.4201 345.037H-203.836M-88.4201 345.037L-113.487 367.977M26.9972 345.037L47.228 323.439M26.9972 345.037L5.51149 367.977M26.9972 345.037H142.415M-64.8168 323.439H47.228M-64.8168 323.439H-176.863M-64.8168 323.439L-42.5549 303.066M47.228 323.439L66.3101 303.066M47.228 323.439H159.273M-1.61879 265.604H101.399M-1.61879 265.604L17.2437 248.343M-1.61879 265.604H-104.635M-1.61879 265.604L-21.5224 283.819M101.399 265.604L117.566 248.343M101.399 265.604L84.3384 283.819M101.399 265.604H204.416M17.2437 248.343H117.566M17.2437 248.343H-83.0788M17.2437 248.343L35.1445 231.962M117.566 248.343L132.909 231.962M117.566 248.343H217.889M68.3412 201.583H161.363M68.3412 201.583L83.7604 187.473M68.3412 201.583H-24.6824M68.3412 201.583L52.1557 216.396M161.363 201.583L174.58 187.473M161.363 201.583L147.49 216.396M161.363 201.583H254.386M83.7604 187.473H174.58M83.7604 187.473H-7.06075M83.7604 187.473L98.4658 174.016M174.58 187.473L187.185 174.016M174.58 187.473H265.4M125.926 148.886H210.723M125.926 148.886L138.766 137.137M125.926 148.886H41.1303M125.926 148.886L112.507 161.167M210.723 148.886L221.727 137.137M210.723 148.886L199.22 161.167M210.723 148.886H295.519M138.766 137.137H221.727M138.766 137.137H55.803M138.766 137.137L151.062 125.885M221.727 137.137L232.267 125.885M221.727 137.137H304.69M174.154 104.753H252.062M174.154 104.753L185.011 94.8175M174.154 104.753H96.2477M174.154 104.753L162.847 115.1M252.062 104.753L250.87 106.023L242.369 115.1M252.062 104.753L261.366 94.8175M252.062 104.753H329.968M185.011 94.8175H261.366M185.011 94.8175H108.656M185.011 94.8175L195.444 85.2701M261.366 94.8175L270.309 85.2701M261.366 94.8175H337.723M215.134 67.2515H287.186M215.134 67.2515L224.434 58.7409M215.134 67.2515H143.082M215.134 67.2515L205.478 76.0878M287.186 67.2515L295.158 58.7409M287.186 67.2515L284.119 70.5265L282.05 72.7356L278.91 76.0878M287.186 67.2515H359.238M224.434 58.7409H295.158M224.434 58.7409H153.711M224.434 58.7409L233.397 50.5383M295.158 58.7409L298.073 55.6294L299.993 53.5788L302.842 50.5383M295.158 58.7409H365.881M250.386 34.9923H317.401M250.386 34.9923L256.454 29.4398L258.441 27.6198M250.386 34.9923H183.369M250.386 34.9923L243.101 41.6576L242.043 42.6271M317.401 34.9923L322.604 29.4398L323.456 28.5273L324.308 27.6198M317.401 34.9923L313.857 38.7755L310.251 42.6271M317.401 34.9923H384.418M258.441 27.6198H324.308M258.441 27.6198L266.226 20.497M258.441 27.6198H192.576M324.308 27.6198H390.173M324.308 27.6198L330.979 20.497M177.542 762.923H358.194M177.542 762.923L201.92 710.869M177.542 762.923H-3.11034M177.542 762.923L150.753 820.125M358.194 762.923L374.448 710.869M358.194 762.923L340.336 820.125M358.194 762.923H538.848M201.92 710.869H374.448M201.92 710.869H29.3938M201.92 710.869L224.2 663.295M374.448 710.869L389.3 663.295M374.448 710.869H546.974M263.462 579.462H415.474M263.462 579.462L280.848 542.338M263.462 579.462H111.449M263.462 579.462L244.641 619.649M415.474 579.462L427.065 542.338M415.474 579.462L402.928 619.649M415.474 579.462H567.488M280.848 542.338H427.065M280.848 542.338H134.63M280.848 542.338L296.956 507.942M427.065 542.338L437.804 507.942M427.065 542.338H573.283M325.867 446.21H457.078M325.867 446.21L338.888 418.407M325.867 446.21H194.657M325.867 446.21L311.924 475.982M457.078 446.21L465.759 418.407M457.078 446.21L447.783 475.982M457.078 446.21H588.29M338.888 418.407H465.759M338.888 418.407H212.018M338.888 418.407L351.075 392.384M465.759 418.407L473.884 392.384M465.759 418.407H592.63M373.249 345.037H488.665M373.249 345.037L383.364 323.439M373.249 345.037H257.832M373.249 345.037L362.506 367.977M488.665 345.037L495.409 323.439M488.665 345.037L481.504 367.977M488.665 345.037H604.083M383.364 323.439H495.409M383.364 323.439H271.319M383.364 323.439L392.905 303.066M495.409 323.439L501.77 303.066M495.409 323.439H607.455M410.449 265.604H513.467M410.449 265.604L418.532 248.343M410.449 265.604H307.432M410.449 265.604L401.919 283.819M513.467 265.604L518.855 248.343M513.467 265.604L507.78 283.819M513.467 265.604H616.484M418.532 248.343H518.855M418.532 248.343H318.211M418.532 248.343L426.205 231.962M518.855 248.343L523.97 231.962M518.855 248.343H619.178M440.432 201.583H533.454M440.432 201.583L447.04 187.473M440.432 201.583H347.41M440.432 201.583L433.496 216.396M533.454 201.583L537.861 187.473M533.454 201.583L528.829 216.396M533.454 201.583H626.478M447.04 187.473H537.861M447.04 187.473H356.22M447.04 187.473L449.439 182.353L453.343 174.016M537.861 187.473L542.062 174.016M537.861 187.473H628.68M465.112 148.886H549.907M465.112 148.886L470.614 137.137M465.112 148.886H380.315M465.112 148.886L460.823 158.046L459.36 161.167M549.907 148.886L551.303 144.42L553.576 137.137M549.907 148.886L546.073 161.167M549.907 148.886H634.704M470.614 137.137L471.284 135.704L475.884 125.885M470.614 137.137H553.576M470.614 137.137H387.652M553.576 137.137L554.912 132.861L555.351 131.45L555.79 130.049L557.089 125.885M553.576 137.137H636.539M485.78 104.753H563.686M485.78 104.753L488.13 99.735L488.711 98.4967L489.287 97.2636L489.862 96.038L490.433 94.8175M485.78 104.753H407.874M485.78 104.753L480.935 115.1M563.686 104.753L566.025 97.2636L566.409 96.038L566.788 94.8175M563.686 104.753L560.457 115.1M563.686 104.753H641.594M490.433 94.8175H566.788M490.433 94.8175H414.078M490.433 94.8175L493.249 88.8062L493.803 87.6212L494.905 85.2701M566.788 94.8175L568.665 88.8062L569.036 87.6212L569.403 86.4425L569.77 85.2701M566.788 94.8175H643.145M503.344 67.2515H575.396M503.344 67.2515L507.33 58.7409M503.344 67.2515H431.29M503.344 67.2515L502.323 69.4289L500.774 72.7356L499.205 76.0878M575.396 67.2515L575.056 68.3377L572.986 74.9649L572.637 76.0878M575.396 67.2515L578.053 58.7409M575.396 67.2515H647.448M507.33 58.7409H578.053M507.33 58.7409H436.606M507.33 58.7409L511.171 50.5383M578.053 58.7409L579.025 55.6294L579.345 54.6016L579.665 53.5788L580.614 50.5383M578.053 58.7409H648.777M518.451 34.9923H585.467M518.451 34.9923L521.052 29.4398L521.903 27.6198M518.451 34.9923H451.435M518.451 34.9923L517.124 37.8237L516.679 38.7755L516.23 39.7324L514.875 42.6271M585.467 34.9923L585.76 34.057L586.339 32.1977L586.916 30.3549L587.768 27.6198M585.467 34.9923L584.285 38.7755L583.988 39.7324L583.386 41.6576L583.084 42.6271M585.467 34.9923H652.483M521.903 27.6198H587.768M521.903 27.6198L524.828 21.3741L525.24 20.497M521.903 27.6198H456.038M587.768 27.6198L588.052 26.7162L588.332 25.8163L588.613 24.9203L588.89 24.028L589.719 21.3741L589.994 20.497M587.768 27.6198H653.635M900.152 762.923H1080.81M900.152 762.923L892.026 710.869M900.152 762.923H719.5M900.152 762.923L909.083 820.125M1080.81 762.923L1064.55 710.869M1080.81 762.923L1098.66 820.125M1080.81 762.923H1261.46M892.026 710.869H1064.55M892.026 710.869H719.5M892.026 710.869L884.6 663.295M1064.55 710.869L1049.7 663.295M1064.55 710.869H1237.08M871.512 579.462H1023.53M871.512 579.462L865.718 542.338M871.512 579.462H719.5M871.512 579.462L877.787 619.649M1023.53 579.462L1011.94 542.338M1023.53 579.462L1036.07 619.649M1023.53 579.462H1175.54M865.718 542.338H1011.94M865.718 542.338H719.5M865.718 542.338L860.348 507.942M1011.94 542.338L1001.2 507.942M1011.94 542.338H1158.15M850.711 446.21H981.922M850.711 446.21L846.371 418.407M850.711 446.21H719.5M850.711 446.21L855.359 475.982M981.922 446.21L973.241 418.407M981.922 446.21L991.217 475.982M981.922 446.21H1113.13M846.371 418.407H973.241M846.371 418.407H719.5M846.371 418.407L842.308 392.384M973.241 418.407L965.117 392.384M973.241 418.407H1100.11M834.917 345.037H950.335M834.917 345.037L831.545 323.439M834.917 345.037H719.5M834.917 345.037L838.498 367.977M950.335 345.037L943.591 323.439M950.335 345.037L957.496 367.977M950.335 345.037H1065.75M831.545 323.439H943.591M831.545 323.439H719.5M831.545 323.439L828.365 303.066M943.591 323.439L937.23 303.066M943.591 323.439H1055.64M822.517 265.604H925.533M822.517 265.604L819.823 248.343M822.517 265.604H719.5M822.517 265.604L825.361 283.819M925.533 265.604L920.145 248.343M925.533 265.604L931.22 283.819M925.533 265.604H1028.55M819.823 248.343H920.145M819.823 248.343H719.5M819.823 248.343L817.264 231.962M920.145 248.343L915.03 231.962M920.145 248.343H1020.47M812.522 201.583H905.546M812.522 201.583L810.32 187.473M812.522 201.583H719.5M812.522 201.583L814.835 216.396M905.546 201.583L901.14 187.473M905.546 201.583L910.171 216.396M905.546 201.583H998.568M810.32 187.473H901.14M810.32 187.473H719.5M810.32 187.473L808.219 174.016M901.14 187.473L896.938 174.016M901.14 187.473H991.961M804.296 148.886H889.093M804.296 148.886L802.462 137.137M804.296 148.886H719.5M804.296 148.886L806.214 161.167M889.093 148.886L885.873 138.578L885.424 137.137M889.093 148.886L892.927 161.167M889.093 148.886H973.888M802.462 137.137L802.239 135.704L800.705 125.885M802.462 137.137H885.424M802.462 137.137H719.5M885.424 137.137L884.088 132.861L883.649 131.45L883.21 130.049L881.911 125.885M885.424 137.137H968.386M797.406 104.753H875.314M797.406 104.753L795.855 94.8175M797.406 104.753H719.5M797.406 104.753L798.004 108.583L798.207 109.873L798.408 111.169L798.816 113.783L799.023 115.1M875.314 104.753L872.975 97.2636L872.21 94.8175M875.314 104.753L878.543 115.1M875.314 104.753H953.22M795.855 94.8175H872.21M795.855 94.8175H719.5M795.855 94.8175L794.365 85.2701M872.21 94.8175L870.335 88.8062L869.964 87.6212L869.597 86.4425L869.23 85.2701M872.21 94.8175H948.567M791.552 67.2515H863.604M791.552 67.2515L790.224 58.7409M791.552 67.2515H719.5M791.552 67.2515L792.932 76.0878M863.604 67.2515L863.944 68.3377L866.014 74.9649L866.363 76.0878M863.604 67.2515L860.947 58.7409M863.604 67.2515H935.656M790.224 58.7409H860.947M790.224 58.7409H719.5M790.224 58.7409L788.943 50.5383M860.947 58.7409L859.975 55.6294L859.655 54.6016L859.335 53.5788L858.386 50.5383M860.947 58.7409H931.67M786.517 34.9923H853.534M786.517 34.9923L785.365 27.6198M786.517 34.9923H719.5M786.517 34.9923L787.708 42.6271M853.534 34.9923L853.24 34.057L852.659 32.1977L852.372 31.2737L851.798 29.4398L851.515 28.5273L851.23 27.6198M853.534 34.9923L854.715 38.7755L855.012 39.7324L855.614 41.6576L855.916 42.6271M853.534 34.9923H920.549M785.365 27.6198L785.225 26.7162L785.083 25.8163L784.945 24.9203L784.253 20.497M785.365 27.6198H851.23M785.365 27.6198H719.5M851.23 27.6198H917.097M851.23 27.6198L850.668 25.8163L850.388 24.9203L850.11 24.028L849.281 21.3741L849.007 20.497M1622.76 762.923H1803.42M1622.76 762.923L1582.13 710.869M1622.76 762.923H1442.11M1622.76 762.923L1667.41 820.125M1803.42 762.923L1754.66 710.869M1803.42 762.923L1856.99 820.125M1803.42 762.923H1984.07M1582.13 710.869H1754.66M1582.13 710.869H1409.61M1582.13 710.869L1545 663.295M1754.66 710.869L1710.1 663.295M1754.66 710.869H1927.19M1479.56 579.462H1631.58M1479.56 579.462L1450.59 542.338M1479.56 579.462H1327.55M1479.56 579.462L1510.93 619.649M1631.58 579.462L1596.81 542.338M1631.58 579.462L1669.22 619.649M1631.58 579.462H1783.59M1450.59 542.338H1596.81M1450.59 542.338H1304.37M1450.59 542.338L1423.74 507.942M1596.81 542.338L1564.59 507.942M1596.81 542.338H1743.02M1375.56 446.21H1506.77M1375.56 446.21L1353.85 418.407M1375.56 446.21H1244.34M1375.56 446.21L1398.79 475.982M1506.77 446.21L1480.72 418.407M1506.77 446.21L1534.65 475.982M1506.77 446.21H1637.98M1353.85 418.407H1480.72M1353.85 418.407H1226.98M1353.85 418.407L1333.54 392.384M1480.72 418.407L1456.35 392.384M1480.72 418.407H1607.59M1296.59 345.037H1412M1296.59 345.037L1279.73 323.439M1296.59 345.037H1181.17M1296.59 345.037L1314.49 367.977M1412 345.037L1391.77 323.439M1412 345.037L1433.49 367.977M1412 345.037H1527.42M1279.73 323.439H1391.77M1279.73 323.439H1167.68M1279.73 323.439L1263.83 303.066M1391.77 323.439L1372.69 303.066M1391.77 323.439H1503.82M1234.58 265.604H1337.6M1234.58 265.604L1221.11 248.343M1234.58 265.604H1131.57M1234.58 265.604L1248.8 283.819M1337.6 265.604L1321.43 248.343M1337.6 265.604L1354.66 283.819M1337.6 265.604H1440.62M1221.11 248.343H1321.43M1221.11 248.343H1120.79M1221.11 248.343L1208.33 231.962M1321.43 248.343L1306.09 231.962M1321.43 248.343H1421.76M1184.61 201.583H1277.64M1184.61 201.583L1173.6 187.473M1184.61 201.583H1091.59M1184.61 201.583L1196.18 216.396M1277.64 201.583L1264.42 187.473M1277.64 201.583L1291.51 216.396M1277.64 201.583H1370.66M1173.6 187.473H1264.42M1173.6 187.473H1082.78M1173.6 187.473L1163.1 174.016M1264.42 187.473L1251.82 174.016M1264.42 187.473H1355.24M1143.48 148.886L1144.66 150.392L1145.84 151.905L1153.07 161.167M1143.48 148.886H1228.28M1143.48 148.886L1134.31 137.137M1143.48 148.886H1058.69M1228.28 148.886L1217.27 137.137M1228.28 148.886L1239.78 161.167M1228.28 148.886H1313.07M1134.31 137.137H1217.27M1134.31 137.137H1051.35M1134.31 137.137L1125.53 125.885M1217.27 137.137L1206.73 125.885M1217.27 137.137H1300.23M1109.03 104.753H1186.94M1109.03 104.753L1101.28 94.8175M1109.03 104.753H1031.13M1109.03 104.753L1117.11 115.1M1186.94 104.753L1181.08 98.4967L1177.63 94.8175M1186.94 104.753L1196.63 115.1M1186.94 104.753H1264.85M1101.28 94.8175H1177.63M1101.28 94.8175H1024.92M1101.28 94.8175L1094.74 86.4425L1093.83 85.2701M1177.63 94.8175L1168.69 85.2701M1177.63 94.8175H1253.99M1079.76 67.2515H1151.81M1079.76 67.2515L1078.08 65.0931L1073.12 58.7409M1079.76 67.2515H1007.71M1079.76 67.2515L1081.46 69.4289L1084.91 73.847L1086.66 76.0878M1151.81 67.2515L1143.84 58.7409M1151.81 67.2515L1154.88 70.5265L1156.95 72.7356L1160.09 76.0878M1151.81 67.2515H1223.87M1073.12 58.7409H1143.84M1073.12 58.7409H1002.39M1073.12 58.7409L1068.29 52.5598L1066.72 50.5383M1143.84 58.7409L1140.93 55.6294L1139.01 53.5788L1136.16 50.5383M1143.84 58.7409H1214.57M1054.58 34.9923H1121.6M1054.58 34.9923L1050.96 30.3549L1048.83 27.6198M1054.58 34.9923H987.565M1054.58 34.9923L1060.54 42.6271M1121.6 34.9923L1116.4 29.4398L1115.54 28.5273L1114.69 27.6198M1121.6 34.9923L1125.14 38.7755L1128.75 42.6271M1121.6 34.9923H1188.61M1048.83 27.6198H1114.69M1048.83 27.6198L1046.02 24.028L1044.64 22.2549L1043.95 21.3741L1043.27 20.497M1048.83 27.6198H982.962M1114.69 27.6198H1180.56M1114.69 27.6198L1108.02 20.497M2035.46 542.338H1889.24M2035.46 542.338L1987.13 507.942M2035.46 542.338H2079.27M2035.46 542.338L2079.27 573.521M1900.4 446.21H2031.61M1900.4 446.21L1861.34 418.407M1900.4 446.21H1769.19M1900.4 446.21L1942.23 475.982M2031.61 446.21L1988.21 418.407M2031.61 446.21L2078.09 475.982M2031.61 446.21H2079.27M1861.34 418.407H1988.21M1861.34 418.407H1734.47M1861.34 418.407L1824.77 392.384M1988.21 418.407L1947.58 392.384M1988.21 418.407H2079.27M1758.25 345.037H1873.67M1758.25 345.037L1727.91 323.439M1758.25 345.037H1642.84M1758.25 345.037L1790.48 367.977M1873.67 345.037L1839.95 323.439M1873.67 345.037L1909.48 367.977M1873.67 345.037H1989.09M1727.91 323.439H1839.95M1727.91 323.439H1615.86M1727.91 323.439L1699.28 303.066M1839.95 323.439L1808.15 303.066M1839.95 323.439H1952M1646.65 265.604H1749.67M1646.65 265.604L1622.4 248.343M1646.65 265.604H1543.64M1646.65 265.604L1672.24 283.819M1749.67 265.604L1722.72 248.343M1749.67 265.604L1778.1 283.819M1749.67 265.604H1852.69M1622.4 248.343H1722.72M1622.4 248.343H1522.08M1622.4 248.343L1599.39 231.962M1722.72 248.343L1697.15 231.962M1722.72 248.343H1823.04M1556.7 201.583H1649.73M1556.7 201.583L1536.88 187.473M1556.7 201.583H1463.68M1556.7 201.583L1577.51 216.396M1649.73 201.583L1627.7 187.473M1649.73 201.583L1672.85 216.396M1649.73 201.583H1742.75M1536.88 187.473H1627.7M1536.88 187.473H1446.06M1536.88 187.473L1517.97 174.016M1627.7 187.473L1606.69 174.016M1627.7 187.473H1718.52M1482.67 148.886H1567.46M1482.67 148.886L1466.16 137.137M1482.67 148.886H1397.87M1482.67 148.886L1499.92 161.167M1567.46 148.886L1549.12 137.137M1567.46 148.886L1586.63 161.167M1567.46 148.886H1652.26M1466.16 137.137H1549.12M1466.16 137.137H1383.2M1466.16 137.137L1450.35 125.885M1549.12 137.137L1531.55 125.885M1549.12 137.137H1632.08M1420.66 104.753H1498.56M1420.66 104.753L1406.7 94.8175M1420.66 104.753H1342.75M1420.66 104.753L1435.2 115.1M1498.56 104.753L1483.06 94.8175M1498.56 104.753L1514.72 115.1M1498.56 104.753H1576.47M1406.7 94.8175H1483.06M1406.7 94.8175H1330.34M1406.7 94.8175L1393.29 85.2701M1483.06 94.8175L1468.15 85.2701M1483.06 94.8175H1559.41M1367.97 67.2515H1440.02M1367.97 67.2515L1356.01 58.7409M1367.97 67.2515H1295.92M1367.97 67.2515L1371.03 69.4289L1372.57 70.5265L1380.39 76.0878M1440.02 67.2515L1426.74 58.7409M1440.02 67.2515L1453.82 76.0878M1440.02 67.2515H1512.07M1356.01 58.7409H1426.74M1356.01 58.7409H1285.29M1356.01 58.7409L1344.49 50.5383M1426.74 58.7409L1413.93 50.5383M1426.74 58.7409H1497.46M1322.65 34.9923H1389.66M1322.65 34.9923L1312.29 27.6198M1322.65 34.9923H1255.63M1322.65 34.9923L1333.37 42.6271M1389.66 34.9923L1380.99 29.4398L1379.57 28.5273L1378.15 27.6198M1389.66 34.9923L1401.58 42.6271M1389.66 34.9923H1456.68M1312.29 27.6198H1378.15M1312.29 27.6198L1303.51 21.3741L1302.28 20.497M1312.29 27.6198H1246.42M1378.15 27.6198H1444.02M1378.15 27.6198L1367.04 20.497M2058.72 265.604L2023.69 248.343M2058.72 265.604H1955.7M2058.72 265.604L2079.27 275.729M2058.72 265.604H2079.27M2023.69 248.343H1923.37M2023.69 248.343L1990.45 231.962M2023.69 248.343H2079.27M1928.8 201.583H2021.82M1928.8 201.583L1900.16 187.473M1928.8 201.583H1835.77M1928.8 201.583L1958.85 216.396M2021.82 201.583L1990.98 187.473M2021.82 201.583L2054.19 216.396M2021.82 201.583H2079.27M1900.16 187.473H1990.98M1900.16 187.473H1809.34M1900.16 187.473L1872.85 174.016M1990.98 187.473L1961.57 174.016M1990.98 187.473H2079.27M1821.85 148.886H1906.65M1821.85 148.886L1798.01 137.137M1821.85 148.886H1737.06M1821.85 148.886L1846.77 161.167M1906.65 148.886L1880.97 137.137M1906.65 148.886L1933.49 161.167M1906.65 148.886H1991.44M1798.01 137.137H1880.97M1798.01 137.137H1715.04M1798.01 137.137L1775.17 125.885M1880.97 137.137L1856.38 125.885M1880.97 137.137H1963.93M1732.28 104.753H1810.19M1732.28 104.753L1712.12 94.8175M1732.28 104.753H1654.38M1732.28 104.753L1753.28 115.1M1810.19 104.753L1788.48 94.8175M1810.19 104.753L1832.81 115.1M1810.19 104.753H1888.1M1712.12 94.8175H1788.48M1712.12 94.8175H1635.77M1712.12 94.8175L1692.75 85.2701M1788.48 94.8175L1767.61 85.2701M1788.48 94.8175H1864.83M1656.18 67.2515H1728.23M1656.18 67.2515L1638.91 58.7409M1656.18 67.2515H1584.13M1656.18 67.2515L1674.11 76.0878M1728.23 67.2515L1709.63 58.7409M1728.23 67.2515L1747.55 76.0878M1728.23 67.2515H1800.28M1638.91 58.7409H1709.63M1638.91 58.7409H1568.18M1638.91 58.7409L1622.26 50.5383M1709.63 58.7409L1691.7 50.5383M1709.63 58.7409H1780.36M1590.71 34.9923H1657.73M1590.71 34.9923L1575.75 27.6198M1590.71 34.9923H1523.7M1590.71 34.9923L1606.21 42.6271M1657.73 34.9923L1641.62 27.6198M1657.73 34.9923L1674.42 42.6271M1657.73 34.9923H1724.75M1575.75 27.6198H1641.62M1575.75 27.6198L1561.3 20.497M1575.75 27.6198H1509.89M1641.62 27.6198H1707.48M1641.62 27.6198L1626.05 20.497M2043.91 104.753L2017.54 94.8175M2043.91 104.753H1966M2043.91 104.753L2071.37 115.1M2043.91 104.753H2079.27M2017.54 94.8175H1941.19M2017.54 94.8175L1992.21 85.2701M2017.54 94.8175H2079.27M1944.39 67.2515H2016.44M1944.39 67.2515L1921.8 58.7409M1944.39 67.2515H1872.34M1944.39 67.2515L1967.84 76.0878M2016.44 67.2515L1992.53 58.7409M2016.44 67.2515L2041.27 76.0878M2016.44 67.2515H2079.27M1921.8 58.7409H1992.53M1921.8 58.7409H1851.08M1921.8 58.7409L1900.03 50.5383M1992.53 58.7409L1969.48 50.5383M1992.53 58.7409H2063.25M1858.78 34.9923H1925.8M1858.78 34.9923L1839.21 27.6198M1858.78 34.9923H1791.76M1858.78 34.9923L1879.04 42.6271M1925.8 34.9923L1905.08 27.6198M1925.8 34.9923L1947.25 42.6271M1925.8 34.9923H1992.81M1839.21 27.6198H1905.08M1839.21 27.6198L1820.31 20.497M1839.21 27.6198H1773.35M1905.08 27.6198H1970.95M1905.08 27.6198L1885.06 20.497M1947.25 42.6271L1969.48 50.5383M1947.25 42.6271H2015.46M1947.25 42.6271H1879.04M1992.81 34.9923L1970.95 27.6198M1992.81 34.9923L2015.46 42.6271M1992.81 34.9923H2059.83M1970.95 27.6198H2036.81M1970.95 27.6198L1949.82 20.497M1885.06 20.497H1820.31M1885.06 20.497H1949.82M1885.06 20.497L1865.71 13.61M2015.46 42.6271L2038.92 50.5383M2015.46 42.6271H2079.27M2059.83 34.9923L2036.81 27.6198M2059.83 34.9923L2079.27 41.2185M2059.83 34.9923H2079.27M2036.81 27.6198L2014.57 20.497M2036.81 27.6198H2079.27M1949.82 20.497H2014.57M1949.82 20.497L1929.39 13.61M2014.57 20.497L1993.07 13.61M2014.57 20.497H2079.27M1969.48 50.5383H2038.92M1969.48 50.5383H1900.03M2063.25 58.7409L2038.92 50.5383M2063.25 58.7409L2079.27 64.1402M2063.25 58.7409H2079.27M2038.92 50.5383H2079.27M1900.03 50.5383H1830.59M1900.03 50.5383L1879.04 42.6271M1879.04 42.6271H1810.83M2041.27 76.0878L2067.07 85.2701M2041.27 76.0878H1967.84M2041.27 76.0878H2079.27M2079.49 67.2515H2079.27M2067.07 85.2701H1992.21M2067.07 85.2701L2079.27 89.6097M2067.07 85.2701H2079.27M1992.21 85.2701H1917.34M1992.21 85.2701L1967.84 76.0878M1967.84 76.0878H1894.41M1674.42 42.6271L1691.7 50.5383M1674.42 42.6271H1742.62M1674.42 42.6271H1606.21M1724.75 34.9923L1707.48 27.6198M1724.75 34.9923L1742.62 42.6271M1724.75 34.9923H1791.76M1707.48 27.6198H1773.35M1707.48 27.6198L1690.8 20.497M1626.05 20.497H1690.8M1626.05 20.497L1611 13.61M1626.05 20.497H1561.3M1742.62 42.6271L1761.15 50.5383M1742.62 42.6271H1810.83M1791.76 34.9923L1773.35 27.6198M1791.76 34.9923L1810.83 42.6271M1773.35 27.6198L1755.56 20.497M1690.8 20.497H1755.56M1690.8 20.497L1674.68 13.61M1810.83 42.6271L1830.59 50.5383M1820.31 20.497H1755.56M1820.31 20.497L1802.03 13.61M1755.56 20.497L1738.35 13.61M1691.7 50.5383H1761.15M1691.7 50.5383H1622.26M1780.36 58.7409L1761.15 50.5383M1780.36 58.7409L1800.28 67.2515M1780.36 58.7409H1851.08M1761.15 50.5383H1830.59M1622.26 50.5383H1552.82M1622.26 50.5383L1606.21 42.6271M1830.59 50.5383L1851.08 58.7409M1606.21 42.6271H1538M1800.28 67.2515L1820.98 76.0878M1800.28 67.2515H1872.34M1851.08 58.7409L1872.34 67.2515M1872.34 67.2515L1894.41 76.0878M1747.55 76.0878L1767.61 85.2701M1747.55 76.0878H1820.98M1747.55 76.0878H1674.11M1820.98 76.0878L1842.48 85.2701M1820.98 76.0878H1894.41M1894.41 76.0878L1917.34 85.2701M1767.61 85.2701H1842.48M1767.61 85.2701H1692.75M1864.83 94.8175L1842.48 85.2701M1864.83 94.8175L1888.1 104.753M1864.83 94.8175H1941.19M1842.48 85.2701H1917.34M1692.75 85.2701H1617.88M1692.75 85.2701L1674.11 76.0878M1917.34 85.2701L1941.19 94.8175M1674.11 76.0878H1600.68M1888.1 104.753L1912.33 115.1M1888.1 104.753H1966M1941.19 94.8175L1966 104.753M1966 104.753L1991.85 115.1M1832.81 115.1L1856.38 125.885M1832.81 115.1H1912.33M1832.81 115.1H1753.28M1912.33 115.1L1937.58 125.885M1912.33 115.1H1991.85M1991.85 115.1L2018.79 125.885M1991.85 115.1H2071.37M2071.37 115.1H2079.27M2071.37 115.1L2079.27 118.075M1856.38 125.885H1937.58M1856.38 125.885H1775.17M1963.93 137.137L1937.58 125.885M1963.93 137.137L1991.44 148.886M1963.93 137.137H2046.89M1937.58 125.885H2018.79M1775.17 125.885H1693.97M1775.17 125.885L1753.28 115.1M2018.79 125.885L2046.89 137.137M2018.79 125.885H2079.27M1753.28 115.1H1673.76M1991.44 148.886L2020.2 161.167M1991.44 148.886H2076.24M2046.89 137.137L2076.24 148.886M2046.89 137.137H2079.27M2079.69 125.885H2079.27M2076.24 148.886L2079.27 150.099M2076.24 148.886H2079.27M1933.49 161.167L1961.57 174.016M1933.49 161.167H2020.2M1933.49 161.167H1846.77M2020.2 161.167L2050.29 174.016M2020.2 161.167H2079.27M2080 150.392L2079.27 150.099M1961.57 174.016H2050.29M1961.57 174.016H1872.85M2050.29 174.016H2079.27M2050.29 174.016L2079.27 186.392M1872.85 174.016H1784.13M1872.85 174.016L1846.77 161.167M1846.77 161.167H1760.06M2054.19 216.396H1958.85M2054.19 216.396L2079.27 227.87M2054.19 216.396H2079.27M2079.96 201.583H2079.27M1958.85 216.396H1863.52M1958.85 216.396L1990.45 231.962M2079.54 227.996L2079.27 227.87M1401.58 42.6271L1413.93 50.5383M1401.58 42.6271H1469.79M1401.58 42.6271H1333.37M1456.68 34.9923L1444.02 27.6198M1456.68 34.9923L1469.79 42.6271M1456.68 34.9923H1523.7M1444.02 27.6198H1509.89M1444.02 27.6198L1431.79 20.497M1367.04 20.497H1431.79M1367.04 20.497L1362.96 17.8875L1356.28 13.61M1367.04 20.497H1302.28M1469.79 42.6271L1483.38 50.5383M1469.79 42.6271H1538M1523.7 34.9923L1509.89 27.6198M1523.7 34.9923L1538 42.6271M1509.89 27.6198L1496.54 20.497M1431.79 20.497H1496.54M1431.79 20.497L1419.96 13.61M1538 42.6271L1552.82 50.5383M1561.3 20.497L1547.32 13.61M1561.3 20.497H1496.54M1496.54 20.497L1494.91 19.6225L1491.65 17.8875L1483.64 13.61M1413.93 50.5383H1483.38M1413.93 50.5383H1344.49M1497.46 58.7409L1483.38 50.5383M1497.46 58.7409L1512.07 67.2515M1497.46 58.7409H1568.18M1483.38 50.5383H1552.82M1344.49 50.5383H1275.05M1344.49 50.5383L1333.37 42.6271M1552.82 50.5383L1568.18 58.7409M1333.37 42.6271H1265.16M1512.07 67.2515L1527.25 76.0878M1512.07 67.2515H1584.13M1568.18 58.7409L1570.15 59.7865L1584.13 67.2515M1584.13 67.2515L1600.68 76.0878M1453.82 76.0878L1455.58 77.2171L1468.15 85.2701M1453.82 76.0878H1527.25M1453.82 76.0878H1380.39M1527.25 76.0878L1543.02 85.2701M1527.25 76.0878H1600.68M1600.68 76.0878L1617.88 85.2701M1468.15 85.2701H1543.02M1468.15 85.2701H1393.29M1559.41 94.8175L1543.02 85.2701M1559.41 94.8175L1576.47 104.753M1559.41 94.8175H1635.77M1543.02 85.2701H1617.88M1393.29 85.2701H1318.42M1393.29 85.2701L1380.39 76.0878M1617.88 85.2701L1635.77 94.8175M1380.39 76.0878H1306.96M1576.47 104.753L1594.24 115.1M1576.47 104.753H1654.38M1635.77 94.8175L1654.38 104.753M1654.38 104.753L1673.76 115.1M1514.72 115.1L1531.55 125.885M1514.72 115.1H1594.24M1514.72 115.1H1435.2M1594.24 115.1L1612.76 125.885M1594.24 115.1H1673.76M1673.76 115.1L1693.97 125.885M1531.55 125.885H1612.76M1531.55 125.885H1450.35M1632.08 137.137L1612.76 125.885M1632.08 137.137L1652.26 148.886M1632.08 137.137H1715.04M1612.76 125.885H1693.97M1450.35 125.885H1369.14M1450.35 125.885L1435.2 115.1M1693.97 125.885L1715.04 137.137M1435.2 115.1H1355.67M1652.26 148.886L1673.35 161.167M1652.26 148.886H1737.06M1715.04 137.137L1737.06 148.886M1737.06 148.886L1760.06 161.167M1586.63 161.167L1606.69 174.016M1586.63 161.167H1673.35M1586.63 161.167H1499.92M1673.35 161.167L1695.41 174.016M1673.35 161.167H1760.06M1760.06 161.167L1784.13 174.016M1606.69 174.016H1695.41M1606.69 174.016H1517.97M1718.52 187.473L1695.41 174.016M1718.52 187.473L1742.75 201.583M1718.52 187.473H1809.34M1695.41 174.016H1784.13M1517.97 174.016H1429.25M1517.97 174.016L1499.92 161.167M1784.13 174.016L1809.34 187.473M1499.92 161.167H1413.21M1742.75 201.583L1768.18 216.396M1742.75 201.583H1835.77M1809.34 187.473L1835.77 201.583M1835.77 201.583L1863.52 216.396M1672.85 216.396L1697.15 231.962M1672.85 216.396H1768.18M1672.85 216.396H1577.51M1768.18 216.396L1794.92 231.962M1768.18 216.396H1863.52M1863.52 216.396L1892.68 231.962M1697.15 231.962H1794.92M1697.15 231.962H1599.39M1823.04 248.343L1794.92 231.962M1823.04 248.343L1852.69 265.604M1823.04 248.343H1923.37M1794.92 231.962H1892.68M1599.39 231.962H1501.62M1599.39 231.962L1577.51 216.396M1892.68 231.962L1923.37 248.343M1892.68 231.962H1990.45M1577.51 216.396H1482.18M1852.69 265.604L1883.96 283.819M1852.69 265.604H1955.7M1923.37 248.343L1955.7 265.604M1990.45 231.962H2079.27M1955.7 265.604L1989.82 283.819M1778.1 283.819L1808.15 303.066M1778.1 283.819H1883.96M1778.1 283.819H1672.24M1883.96 283.819L1917.01 303.066M1883.96 283.819H1989.82M1989.82 283.819L2025.88 303.066M1989.82 283.819H2079.27M1808.15 303.066H1917.01M1808.15 303.066H1699.28M1952 323.439L1917.01 303.066M1952 323.439L1989.09 345.037M1952 323.439H2064.04M1917.01 303.066H2025.88M1699.28 303.066H1590.42M1699.28 303.066L1672.24 283.819M2025.88 303.066L2064.04 323.439M2025.88 303.066H2079.27M1672.24 283.819H1566.38M1989.09 345.037L2028.48 367.977M1989.09 345.037H2079.27M2064.04 323.439H2079.27M2064.04 323.439L2079.27 331.565M1909.48 367.977L1947.58 392.384M1909.48 367.977H2028.48M1909.48 367.977H1790.48M2028.48 367.977L2070.39 392.384M2028.48 367.977H2079.27M1947.58 392.384H2070.39M1947.58 392.384H1824.77M2070.39 392.384L2079.27 397.553M2070.39 392.384H2079.27M1824.77 392.384H1701.97M1824.77 392.384L1790.48 367.977M1790.48 367.977H1671.48M2078.09 475.982H1942.23M2078.09 475.982H2079.27M2078.09 475.982L2079.27 476.738M1942.23 475.982H1806.37M1942.23 475.982L1987.13 507.942M1128.75 42.6271L1131.5 45.5599L1132.42 46.5472L1136.16 50.5383M1128.75 42.6271H1196.96M1128.75 42.6271H1060.54M1188.61 34.9923L1182.55 29.4398L1180.56 27.6198M1188.61 34.9923L1195.9 41.6576L1196.96 42.6271M1188.61 34.9923H1255.63M1180.56 27.6198H1246.42M1180.56 27.6198L1172.77 20.497M1108.02 20.497H1172.77M1108.02 20.497L1105.58 17.8875L1101.57 13.61M1108.02 20.497H1043.27M1196.96 42.6271L1199.09 44.5777L1205.6 50.5383M1196.96 42.6271H1265.16M1255.63 34.9923L1246.42 27.6198M1255.63 34.9923L1265.16 42.6271M1246.42 27.6198L1239.72 22.2549L1237.53 20.497M1172.77 20.497H1237.53M1172.77 20.497L1165.25 13.61M1265.16 42.6271L1275.05 50.5383M1302.28 20.497L1301.05 19.6225L1292.61 13.61M1302.28 20.497H1237.53M1237.53 20.497L1234.27 17.8875L1228.93 13.61M1136.16 50.5383H1205.6M1136.16 50.5383H1066.72M1214.57 58.7409L1205.6 50.5383M1214.57 58.7409L1223.87 67.2515M1214.57 58.7409H1285.29M1205.6 50.5383H1275.05M1066.72 50.5383H997.272M1066.72 50.5383L1060.54 42.6271M1275.05 50.5383L1285.29 58.7409M1060.54 42.6271H992.333M1223.87 67.2515L1229.86 72.7356L1231.07 73.847L1233.52 76.0878M1223.87 67.2515H1295.92M1285.29 58.7409L1295.92 67.2515M1295.92 67.2515L1306.96 76.0878M1160.09 76.0878L1168.69 85.2701M1160.09 76.0878H1233.52M1160.09 76.0878H1086.66M1233.52 76.0878L1243.56 85.2701M1233.52 76.0878H1306.96M1306.96 76.0878L1318.42 85.2701M1168.69 85.2701H1243.56M1168.69 85.2701H1093.83M1253.99 94.8175L1247.42 88.8062L1246.13 87.6212L1243.56 85.2701M1253.99 94.8175L1264.85 104.753M1253.99 94.8175H1330.34M1243.56 85.2701H1318.42M1093.83 85.2701H1018.96M1093.83 85.2701L1086.66 76.0878M1318.42 85.2701L1330.34 94.8175M1086.66 76.0878H1013.23M1264.85 104.753L1276.15 115.1M1264.85 104.753H1342.75M1330.34 94.8175L1342.75 104.753M1342.75 104.753L1355.67 115.1M1196.63 115.1L1201.63 120.435L1202.89 121.788L1206.73 125.885M1196.63 115.1H1276.15M1196.63 115.1H1117.11M1276.15 115.1L1287.94 125.885M1276.15 115.1H1355.67M1355.67 115.1L1369.14 125.885M1206.73 125.885H1287.94M1206.73 125.885H1125.53M1300.23 137.137L1287.94 125.885M1300.23 137.137L1313.07 148.886M1300.23 137.137H1383.2M1287.94 125.885H1369.14M1125.53 125.885H1044.32M1125.53 125.885L1123.39 123.146L1117.11 115.1M1369.14 125.885L1383.2 137.137M1117.11 115.1H1037.59M1313.07 148.886L1326.49 161.167M1313.07 148.886H1397.87M1383.2 137.137L1397.87 148.886M1397.87 148.886L1413.21 161.167M1239.78 161.167L1251.82 174.016M1239.78 161.167H1326.49M1239.78 161.167H1153.07M1326.49 161.167L1340.53 174.016M1326.49 161.167H1413.21M1413.21 161.167L1429.25 174.016M1251.82 174.016H1340.53M1251.82 174.016H1163.1M1355.24 187.473L1340.53 174.016M1355.24 187.473L1370.66 201.583M1355.24 187.473H1446.06M1340.53 174.016H1429.25M1163.1 174.016H1074.38M1163.1 174.016L1153.07 161.167M1429.25 174.016L1446.06 187.473M1153.07 161.167H1066.35M1370.66 201.583L1386.84 216.396M1370.66 201.583H1463.68M1446.06 187.473L1463.68 201.583M1463.68 201.583L1482.18 216.396M1291.51 216.396L1306.09 231.962M1291.51 216.396H1386.84M1291.51 216.396H1196.18M1386.84 216.396L1403.86 231.962M1386.84 216.396H1482.18M1482.18 216.396L1501.62 231.962M1306.09 231.962H1403.86M1306.09 231.962H1208.33M1421.76 248.343L1403.86 231.962M1421.76 248.343L1440.62 265.604M1421.76 248.343H1522.08M1403.86 231.962H1501.62M1208.33 231.962H1110.56M1208.33 231.962L1196.18 216.396M1501.62 231.962L1522.08 248.343M1196.18 216.396H1100.84M1440.62 265.604L1460.52 283.819M1440.62 265.604H1543.64M1522.08 248.343L1543.64 265.604M1543.64 265.604L1566.38 283.819M1354.66 283.819L1372.69 303.066M1354.66 283.819H1460.52M1354.66 283.819H1248.8M1460.52 283.819L1481.55 303.066M1460.52 283.819H1566.38M1566.38 283.819L1590.42 303.066M1372.69 303.066H1481.55M1372.69 303.066H1263.83M1503.82 323.439L1481.55 303.066M1503.82 323.439L1527.42 345.037M1503.82 323.439H1615.86M1481.55 303.066H1590.42M1263.83 303.066H1154.96M1263.83 303.066L1248.8 283.819M1590.42 303.066L1615.86 323.439M1248.8 283.819H1142.94M1527.42 345.037L1552.49 367.977M1527.42 345.037H1642.84M1615.86 323.439L1642.84 345.037M1642.84 345.037L1671.48 367.977M1433.49 367.977L1456.35 392.384M1433.49 367.977H1552.49M1433.49 367.977H1314.49M1552.49 367.977L1579.16 392.384M1552.49 367.977H1671.48M1671.48 367.977L1701.97 392.384M1456.35 392.384H1579.16M1456.35 392.384H1333.54M1607.59 418.407L1579.16 392.384M1607.59 418.407L1637.98 446.21M1607.59 418.407H1734.47M1579.16 392.384H1701.97M1333.54 392.384H1210.73M1333.54 392.384L1314.49 367.977M1701.97 392.384L1734.47 418.407M1314.49 367.977H1195.49M1637.98 446.21L1670.51 475.982M1637.98 446.21H1769.19M1734.47 418.407L1769.19 446.21M1769.19 446.21L1806.37 475.982M1534.65 475.982L1564.59 507.942M1534.65 475.982H1670.51M1534.65 475.982H1398.79M1670.51 475.982L1705.44 507.942M1670.51 475.982H1806.37M1806.37 475.982L1846.28 507.942M1564.59 507.942H1705.44M1564.59 507.942H1423.74M1743.02 542.338L1705.44 507.942M1743.02 542.338L1783.59 579.462M1743.02 542.338H1889.24M1705.44 507.942H1846.28M1423.74 507.942H1282.89M1423.74 507.942L1398.79 475.982M1846.28 507.942L1889.24 542.338M1846.28 507.942H1987.13M1398.79 475.982H1262.94M1783.59 579.462L1827.5 619.649M1783.59 579.462H1935.6M1889.24 542.338L1935.6 579.462M1987.13 507.942H2079.27M1935.6 579.462L1985.79 619.649M1935.6 579.462H2079.27M1669.22 619.649L1710.1 663.295M1669.22 619.649H1827.5M1669.22 619.649H1510.93M1827.5 619.649L1875.2 663.295M1827.5 619.649H1985.79M1985.79 619.649L2040.3 663.295M1985.79 619.649H2079.27M1710.1 663.295H1875.2M1710.1 663.295H1545M1927.19 710.869L1875.2 663.295M1927.19 710.869L1984.07 762.923M1927.19 710.869H2079.27M1875.2 663.295H2040.3M1545 663.295H1379.9M1545 663.295L1510.93 619.649M2040.3 663.295H2079.27M2040.3 663.295L2079.27 694.499M1510.93 619.649H1352.64M1984.07 762.923L2046.58 820.125M1984.07 762.923H2079.27M1856.99 820.125L1916.14 883.276M1856.99 820.125H2046.58M1856.99 820.125H1667.41M2046.58 820.125L2079.27 850.042M2046.58 820.125H2079.27M1916.14 883.276H1716.7M1916.14 883.276L2079.27 883.275M1716.7 883.276H1517.26M1716.7 883.276L1667.41 820.125M1667.41 820.125H1477.83M855.916 42.6271L856.22 43.6005L856.525 44.5777L856.833 45.5599L857.14 46.5472L858.073 49.5332L858.386 50.5383M855.916 42.6271H924.125M855.916 42.6271H787.708M920.549 34.9923L917.948 29.4398L917.097 27.6198M920.549 34.9923L922.77 39.7324L924.125 42.6271M920.549 34.9923H987.565M917.097 27.6198H982.962M917.097 27.6198L914.584 22.2549L913.76 20.497M849.007 20.497L848.735 19.6225L847.655 16.1651L846.856 13.61M849.007 20.497H913.76M849.007 20.497H784.253M924.125 42.6271L924.58 43.6005L925.039 44.5777L925.498 45.5599L925.961 46.5472L927.829 50.5383M924.125 42.6271H992.333M987.565 34.9923L984.098 29.4398L982.962 27.6198M987.565 34.9923L992.333 42.6271M982.962 27.6198L980.719 24.028L979.061 21.3741L978.515 20.497M913.76 20.497L913.352 19.6225L912.539 17.8875L911.731 16.1651L911.332 15.3096L910.535 13.61M913.76 20.497H978.515M992.333 42.6271L996.021 48.5332L997.272 50.5383M1043.27 20.497L1039.22 15.3096L1037.89 13.61M1043.27 20.497H978.515M978.515 20.497L974.744 14.4579L974.213 13.61M858.386 50.5383H927.829M858.386 50.5383H788.943M931.67 58.7409L927.829 50.5383M931.67 58.7409L935.656 67.2515M931.67 58.7409H1002.39M927.829 50.5383H997.272M788.943 50.5383H719.5M788.943 50.5383L787.708 42.6271M997.272 50.5383L1002.39 58.7409M787.708 42.6271H719.5M935.656 67.2515L936.678 69.4289L938.226 72.7356L939.795 76.0878M935.656 67.2515H1007.71M1002.39 58.7409L1003.05 59.7865L1007.71 67.2515M1007.71 67.2515L1008.39 68.3377L1009.07 69.4289L1009.75 70.5265L1013.23 76.0878M866.363 76.0878L869.23 85.2701M866.363 76.0878H939.795M866.363 76.0878H792.932M939.795 76.0878L944.095 85.2701M939.795 76.0878H1013.23M1013.23 76.0878L1017.51 82.9407L1018.23 84.1029L1018.96 85.2701M869.23 85.2701H944.095M869.23 85.2701H794.365M948.567 94.8175L949.138 96.038L949.713 97.2636L950.289 98.4967L953.22 104.753M948.567 94.8175L946.309 89.9963L945.751 88.8062L945.197 87.6212L944.095 85.2701M948.567 94.8175H1024.92M944.095 85.2701H1018.96M794.365 85.2701H719.5M794.365 85.2701L792.932 76.0878M1018.96 85.2701L1024.92 94.8175M792.932 76.0878H719.5M953.22 104.753L957.45 113.783L958.066 115.1M953.22 104.753H1031.13M1024.92 94.8175L1026.45 97.2636L1031.13 104.753M1031.13 104.753L1033.52 108.583L1037.59 115.1M878.543 115.1L880.21 120.435L880.631 121.788L881.911 125.885M878.543 115.1H958.066M878.543 115.1H799.023M958.066 115.1L963.117 125.885M958.066 115.1H1037.59M1037.59 115.1L1044.32 125.885M881.911 125.885H963.117M881.911 125.885H800.705M968.386 137.137L963.117 125.885M968.386 137.137L973.888 148.886M968.386 137.137H1051.35M963.117 125.885H1044.32M800.705 125.885H719.5M800.705 125.885L800.277 123.146L799.436 117.754L799.023 115.1M1044.32 125.885L1051.35 137.137M799.023 115.1H719.5M973.888 148.886L978.177 158.046L979.641 161.167M973.888 148.886H1058.69M1051.35 137.137L1058.69 148.886M1058.69 148.886L1062.48 154.958L1066.35 161.167M892.927 161.167L896.938 174.016M892.927 161.167H979.641M892.927 161.167H806.214M979.641 161.167L985.657 174.016M979.641 161.167H1066.35M1066.35 161.167L1074.38 174.016M896.938 174.016H985.657M896.938 174.016H808.219M991.961 187.473L990.356 184.05L985.657 174.016M991.961 187.473L998.568 201.583M991.961 187.473H1082.78M985.657 174.016H1074.38M808.219 174.016H719.5M808.219 174.016L806.214 161.167M1074.38 174.016L1082.78 187.473M806.214 161.167H719.5M998.568 201.583L1005.5 216.396M998.568 201.583H1091.59M1082.78 187.473L1091.59 201.583M1091.59 201.583L1100.84 216.396M910.171 216.396L915.03 231.962M910.171 216.396H1005.5M910.171 216.396H814.835M1005.5 216.396L1012.79 231.962M1005.5 216.396H1100.84M1100.84 216.396L1110.56 231.962M915.03 231.962H1012.79M915.03 231.962H817.264M1020.47 248.343L1012.79 231.962M1020.47 248.343L1028.55 265.604M1020.47 248.343H1120.79M1012.79 231.962H1110.56M817.264 231.962H719.5M817.264 231.962L815.131 218.299L814.835 216.396M1110.56 231.962L1120.79 248.343M814.835 216.396H719.5M1028.55 265.604L1037.08 283.819M1028.55 265.604H1131.57M1120.79 248.343L1128.82 261.203L1131.57 265.604M1131.57 265.604L1142.94 283.819M931.22 283.819L937.23 303.066M931.22 283.819H1037.08M931.22 283.819H825.361M1037.08 283.819L1046.1 303.066M1037.08 283.819H1142.94M1142.94 283.819L1154.96 303.066M937.23 303.066H1046.1M937.23 303.066H828.365M1055.64 323.439L1046.1 303.066M1055.64 323.439L1065.75 345.037M1055.64 323.439H1167.68M1046.1 303.066H1154.96M828.365 303.066H719.5M828.365 303.066L825.361 283.819M1154.96 303.066L1167.68 323.439M825.361 283.819H719.5M1065.75 345.037L1076.49 367.977M1065.75 345.037H1181.17M1167.68 323.439L1181.17 345.037M1181.17 345.037L1195.49 367.977M957.496 367.977L965.117 392.384M957.496 367.977H1076.49M957.496 367.977H838.498M1076.49 367.977L1087.92 392.384M1076.49 367.977H1195.49M1195.49 367.977L1210.73 392.384M965.117 392.384H1087.92M965.117 392.384H842.308M1100.11 418.407L1087.92 392.384M1100.11 418.407L1113.13 446.21M1100.11 418.407H1226.98M1087.92 392.384H1210.73M842.308 392.384H719.5M842.308 392.384L838.498 367.977M1210.73 392.384L1226.98 418.407M838.498 367.977H719.5M1113.13 446.21L1127.08 475.982M1113.13 446.21H1244.34M1226.98 418.407L1244.34 446.21M1244.34 446.21L1262.94 475.982M991.217 475.982L1001.2 507.942M991.217 475.982H1127.08M991.217 475.982H855.359M1127.08 475.982L1142.04 507.942M1127.08 475.982H1262.94M1262.94 475.982L1282.89 507.942M1001.2 507.942H1142.04M1001.2 507.942H860.348M1158.15 542.338L1142.04 507.942M1158.15 542.338L1175.54 579.462M1158.15 542.338H1304.37M1142.04 507.942H1282.89M860.348 507.942H719.5M860.348 507.942L855.359 475.982M1282.89 507.942L1304.37 542.338M855.359 475.982H719.5M1175.54 579.462L1194.36 619.649M1175.54 579.462H1327.55M1304.37 542.338L1327.55 579.462M1327.55 579.462L1352.64 619.649M1036.07 619.649L1049.7 663.295M1036.07 619.649H1194.36M1036.07 619.649H877.787M1194.36 619.649L1214.8 663.295M1194.36 619.649H1352.64M1352.64 619.649L1379.9 663.295M1049.7 663.295H1214.8M1049.7 663.295H884.6M1237.08 710.869L1214.8 663.295M1237.08 710.869L1261.46 762.923M1237.08 710.869H1409.61M1214.8 663.295H1379.9M884.6 663.295H719.5M884.6 663.295L877.787 619.649M1379.9 663.295L1409.61 710.869M877.787 619.649H719.5M1261.46 762.923L1288.25 820.125M1261.46 762.923H1442.11M1409.61 710.869L1442.11 762.923M1442.11 762.923L1477.83 820.125M1098.66 820.125L1118.38 883.276M1098.66 820.125H1288.25M1098.66 820.125H909.083M1288.25 820.125L1317.82 883.276M1288.25 820.125H1477.83M1477.83 820.125L1517.26 883.276M1317.82 883.276H1118.38M1317.82 883.276H1517.26M1118.38 883.276H918.941M918.941 883.276H719.5M918.941 883.276L909.083 820.125M909.083 820.125H719.5M583.084 42.6271L582.78 43.6005L582.475 44.5777L582.168 45.5599L581.86 46.5472L581.24 48.5332L580.927 49.5332L580.614 50.5383M583.084 42.6271H651.292M583.084 42.6271H514.875M652.483 34.9923L653.635 27.6198M652.483 34.9923L651.292 42.6271M652.483 34.9923H719.5M653.635 27.6198L653.775 26.7162L653.917 25.8163L654.056 24.9203L654.747 20.497M653.635 27.6198H719.5M589.994 20.497L590.266 19.6225L591.345 16.1651L592.144 13.61M589.994 20.497H654.747M589.994 20.497H525.24M651.292 42.6271L651.139 43.6005L650.988 44.5777L650.833 45.5599L650.057 50.5383M651.292 42.6271H719.5M719.5 34.9923V27.6198M719.5 34.9923V42.6271M719.5 27.6198V20.497M654.747 20.497H719.5M654.747 20.497L655.153 17.8875L655.289 17.0244L655.822 13.61M719.5 42.6271V50.5383M784.253 20.497L783.847 17.8875L783.711 17.0244L783.578 16.1651L783.443 15.3096L783.311 14.4579L783.178 13.61M784.253 20.497H719.5M719.5 20.497V13.61M580.614 50.5383H650.057M580.614 50.5383H511.171M648.777 58.7409L648.612 59.7865L648.449 60.8385L647.448 67.2515M648.777 58.7409L650.057 50.5383M648.777 58.7409H719.5M650.057 50.5383H719.5M511.171 50.5383H441.728M511.171 50.5383L512.109 48.5332L512.576 47.5383L513.039 46.5472L513.502 45.5599L513.961 44.5777L514.42 43.6005L514.875 42.6271M719.5 50.5383V58.7409M514.875 42.6271H446.667M647.448 67.2515L646.068 76.0878M647.448 67.2515H719.5M719.5 58.7409V67.2515M719.5 67.2515V76.0878M572.637 76.0878L569.77 85.2701M572.637 76.0878H646.068M572.637 76.0878H499.205M646.068 76.0878L644.635 85.2701M646.068 76.0878H719.5M719.5 76.0878V85.2701M569.77 85.2701H644.635M569.77 85.2701H494.905M643.145 94.8175L644.635 85.2701M643.145 94.8175L641.594 104.753M643.145 94.8175H719.5M644.635 85.2701H719.5M494.905 85.2701H420.04M494.905 85.2701L499.205 76.0878M719.5 85.2701V94.8175M499.205 76.0878H425.773M641.594 104.753L640.996 108.583L640.388 112.472L639.978 115.1M641.594 104.753H719.5M719.5 94.8175V104.753M719.5 104.753V115.1M560.457 115.1L558.79 120.435L558.369 121.788L557.089 125.885M560.457 115.1H639.978M560.457 115.1H480.935M639.978 115.1L639.564 117.754L638.723 123.146L638.295 125.885M639.978 115.1H719.5M719.5 115.1V125.885M557.089 125.885H638.295M557.089 125.885H475.884M636.539 137.137L636.761 135.704L638.295 125.885M636.539 137.137L634.704 148.886M636.539 137.137H719.5M638.295 125.885H719.5M475.884 125.885H394.678M475.884 125.885L480.935 115.1M719.5 125.885V137.137M480.935 115.1H401.412M634.704 148.886L632.787 161.167M634.704 148.886H719.5M719.5 137.137V148.886M719.5 148.886V161.167M546.073 161.167L542.062 174.016M546.073 161.167H632.787M546.073 161.167H459.36M632.787 161.167L630.781 174.016M632.787 161.167H719.5M719.5 161.167V174.016M542.062 174.016H630.781M542.062 174.016H453.343M628.68 187.473L630.781 174.016M628.68 187.473L626.478 201.583M628.68 187.473H719.5M630.781 174.016H719.5M453.343 174.016H364.623M453.343 174.016L459.36 161.167M719.5 174.016V187.473M459.36 161.167H372.646M626.478 201.583L624.165 216.396M626.478 201.583H719.5M719.5 187.473V201.583M719.5 201.583V216.396M528.829 216.396L523.97 231.962M528.829 216.396H624.165M528.829 216.396H433.496M624.165 216.396L621.736 231.962M624.165 216.396H719.5M719.5 216.396V231.962M523.97 231.962H621.736M523.97 231.962H426.205M619.178 248.343L621.736 231.962M619.178 248.343L616.484 265.604M619.178 248.343H719.5M621.736 231.962H719.5M426.205 231.962H328.439M426.205 231.962L433.496 216.396M719.5 231.962V248.343M433.496 216.396H338.16M616.484 265.604L613.639 283.819M616.484 265.604H719.5M719.5 248.343V265.604M719.5 265.604V283.819M507.78 283.819L501.77 303.066M507.78 283.819H613.639M507.78 283.819H401.919M613.639 283.819L610.635 303.066M613.639 283.819H719.5M719.5 283.819V303.066M501.77 303.066H610.635M501.77 303.066H392.905M607.455 323.439L610.635 303.066M607.455 323.439L604.083 345.037M607.455 323.439H719.5M610.635 303.066H719.5M392.905 303.066H284.04M392.905 303.066L401.919 283.819M719.5 303.066V323.439M401.919 283.819H296.059M604.083 345.037L600.502 367.977M604.083 345.037H719.5M719.5 323.439V345.037M719.5 345.037V367.977M481.504 367.977L473.884 392.384M481.504 367.977H600.502M481.504 367.977H362.506M600.502 367.977L596.692 392.384M600.502 367.977H719.5M719.5 367.977V392.384M473.884 392.384H596.692M473.884 392.384H351.075M592.63 418.407L596.692 392.384M592.63 418.407L588.29 446.21M592.63 418.407H719.5M596.692 392.384H719.5M351.075 392.384H228.267M351.075 392.384L362.506 367.977M719.5 392.384V418.407M362.506 367.977H243.508M588.29 446.21L583.641 475.982M588.29 446.21H719.5M719.5 418.407V446.21M719.5 446.21V475.982M447.783 475.982L437.804 507.942M447.783 475.982H583.641M447.783 475.982H311.924M583.641 475.982L578.652 507.942M583.641 475.982H719.5M719.5 475.982V507.942M437.804 507.942H578.652M437.804 507.942H296.956M573.283 542.338L578.652 507.942M573.283 542.338L567.488 579.462M573.283 542.338H719.5M578.652 507.942H719.5M296.956 507.942H156.109M296.956 507.942L311.924 475.982M719.5 507.942V542.338M311.924 475.982H176.065M567.488 579.462L561.213 619.649M567.488 579.462H719.5M719.5 542.338V579.462M719.5 579.462V619.649M402.928 619.649L389.3 663.295M402.928 619.649H561.213M402.928 619.649H244.641M561.213 619.649L554.4 663.295M561.213 619.649H719.5M719.5 619.649V663.295M389.3 663.295H554.4M389.3 663.295H224.2M546.974 710.869L554.4 663.295M546.974 710.869L538.848 762.923M546.974 710.869H719.5M554.4 663.295H719.5M224.2 663.295H59.1005M224.2 663.295L244.641 619.649M719.5 663.295V710.869M244.641 619.649H86.3554M538.848 762.923L529.917 820.125M538.848 762.923H719.5M719.5 710.869V762.923M719.5 762.923V820.125M340.336 820.125L320.619 883.276M340.336 820.125H529.917M340.336 820.125H150.753M529.917 820.125L520.059 883.276M529.917 820.125H719.5M719.5 820.125V883.276M520.059 883.276H320.619M520.059 883.276H719.5M320.619 883.276H121.178M121.178 883.276H-78.2629M121.178 883.276L150.753 820.125M150.753 820.125H-38.8297M310.251 42.6271L306.58 46.5472L302.842 50.5383M310.251 42.6271H378.459M310.251 42.6271H242.043M384.418 34.9923L390.173 27.6198M384.418 34.9923L378.459 42.6271M384.418 34.9923H451.435M390.173 27.6198H456.038M390.173 27.6198L394.36 22.2549L395.732 20.497M330.979 20.497H395.732M330.979 20.497L333.424 17.8875L337.429 13.61M330.979 20.497H266.226M378.459 42.6271L372.285 50.5383M378.459 42.6271H446.667M451.435 34.9923L456.038 27.6198M451.435 34.9923L446.667 42.6271M456.038 27.6198L458.282 24.028L459.939 21.3741L460.486 20.497M395.732 20.497H460.486M395.732 20.497L399.78 15.3096L401.108 13.61M446.667 42.6271L442.979 48.5332L441.728 50.5383M525.24 20.497L525.648 19.6225L526.461 17.8875L527.668 15.3096L528.466 13.61M525.24 20.497H460.486M460.486 20.497L461.031 19.6225L462.116 17.8875L464.786 13.61M302.842 50.5383H372.285M302.842 50.5383H233.397M365.881 58.7409L366.696 57.6991L367.504 56.6611L370.705 52.5598L372.285 50.5383M365.881 58.7409L360.922 65.0931L359.238 67.2515M365.881 58.7409H436.606M372.285 50.5383H441.728M233.397 50.5383H163.954M233.397 50.5383L239.91 44.5777L242.043 42.6271M441.728 50.5383L436.606 58.7409M242.043 42.6271H173.834M359.238 67.2515L358.391 68.3377L357.538 69.4289L354.959 72.7356L354.089 73.847L352.342 76.0878M359.238 67.2515H431.29M436.606 58.7409L435.952 59.7865L431.29 67.2515M431.29 67.2515L430.613 68.3377L429.93 69.4289L429.246 70.5265L425.773 76.0878M278.91 76.0878L270.309 85.2701M278.91 76.0878H352.342M278.91 76.0878H205.478M352.342 76.0878L345.174 85.2701M352.342 76.0878H425.773M425.773 76.0878L420.04 85.2701M270.309 85.2701H345.174M270.309 85.2701H195.444M337.723 94.8175L345.174 85.2701M337.723 94.8175L329.968 104.753M337.723 94.8175H414.078M345.174 85.2701H420.04M195.444 85.2701H120.579M195.444 85.2701L205.478 76.0878M420.04 85.2701L414.078 94.8175M205.478 76.0878H132.045M329.968 104.753L321.891 115.1M329.968 104.753H407.874M414.078 94.8175L412.55 97.2636L407.874 104.753M407.874 104.753L405.482 108.583L403.052 112.472L401.412 115.1M242.369 115.1L237.37 120.435L232.267 125.885M242.369 115.1H321.891M242.369 115.1H162.847M321.891 115.1L313.472 125.885M321.891 115.1H401.412M401.412 115.1L394.678 125.885M232.267 125.885H313.472M232.267 125.885H151.062M304.69 137.137L313.472 125.885M304.69 137.137L295.519 148.886M304.69 137.137H387.652M313.472 125.885H394.678M151.062 125.885H69.8553M151.062 125.885L162.847 115.1M394.678 125.885L387.652 137.137M162.847 115.1H83.3256M295.519 148.886L293.162 151.905L285.934 161.167M295.519 148.886H380.315M387.652 137.137L380.315 148.886M380.315 148.886L379.375 150.392L376.524 154.958L372.646 161.167M199.22 161.167L187.185 174.016M199.22 161.167H285.934M199.22 161.167H112.507M285.934 161.167L275.904 174.016M285.934 161.167H372.646M372.646 161.167L364.623 174.016M187.185 174.016H275.904M187.185 174.016H98.4658M265.4 187.473L272.023 178.989L275.904 174.016M265.4 187.473L254.386 201.583M265.4 187.473H356.22M275.904 174.016H364.623M98.4658 174.016H9.74659M98.4658 174.016L112.507 161.167M364.623 174.016L356.22 187.473M112.507 161.167H25.7932M254.386 201.583L242.825 216.396M254.386 201.583H347.41M356.22 187.473L347.41 201.583M347.41 201.583L338.16 216.396M147.49 216.396L132.909 231.962M147.49 216.396H242.825M147.49 216.396H52.1557M242.825 216.396L230.675 231.962M242.825 216.396H338.16M338.16 216.396L328.439 231.962M132.909 231.962H230.675M132.909 231.962H35.1445M217.889 248.343L230.675 231.962M217.889 248.343L204.416 265.604M217.889 248.343H318.211M230.675 231.962H328.439M35.1445 231.962H-62.6199M35.1445 231.962L52.1557 216.396M328.439 231.962L318.211 248.343M52.1557 216.396H-43.1795M204.416 265.604L190.199 283.819M204.416 265.604H307.432M318.211 248.343L307.432 265.604M307.432 265.604L296.059 283.819M84.3384 283.819L66.3101 303.066M84.3384 283.819H190.199M84.3384 283.819H-21.5224M190.199 283.819L175.175 303.066M190.199 283.819H296.059M296.059 283.819L284.04 303.066M66.3101 303.066H175.175M66.3101 303.066H-42.5549M159.273 323.439L175.175 303.066M159.273 323.439L142.415 345.037M159.273 323.439H271.319M175.175 303.066H284.04M-42.5549 303.066H-151.42M-42.5549 303.066L-21.5224 283.819M284.04 303.066L271.319 323.439M-21.5224 283.819H-127.382M142.415 345.037L124.51 367.977M142.415 345.037H257.832M271.319 323.439L257.832 345.037M257.832 345.037L243.508 367.977M5.51149 367.977L-17.3496 392.384M5.51149 367.977H124.51M5.51149 367.977H-113.487M124.51 367.977L105.459 392.384M124.51 367.977H243.508M243.508 367.977L228.267 392.384M-17.3496 392.384H105.459M-17.3496 392.384H-140.158M85.1471 418.407L105.459 392.384M85.1471 418.407L63.4447 446.21M85.1471 418.407H212.018M105.459 392.384H228.267M-140.158 392.384H-262.966M-140.158 392.384L-113.487 367.977M228.267 392.384L212.018 418.407M-113.487 367.977H-232.485M63.4447 446.21L40.2068 475.982M63.4447 446.21H194.657M212.018 418.407L194.657 446.21M194.657 446.21L176.065 475.982M-95.6524 475.982L-125.587 507.942M-95.6524 475.982H40.2068M-95.6524 475.982H-231.512M40.2068 475.982L15.2607 507.942M40.2068 475.982H176.065M176.065 475.982L156.109 507.942M-125.587 507.942H15.2607M-125.587 507.942H-266.435M-11.5876 542.338L15.2607 507.942M-11.5876 542.338L-40.5634 579.462M-11.5876 542.338H134.63M15.2607 507.942H156.109M-266.435 507.942H-407.283M-266.435 507.942L-231.512 475.982M156.109 507.942L134.63 542.338M-231.512 475.982H-367.371M-40.5634 579.462L-71.9315 619.649M-40.5634 579.462H111.449M134.63 542.338L111.449 579.462M111.449 579.462L86.3554 619.649M-230.217 619.649L-271.099 663.295M-230.217 619.649H-71.9315M-230.217 619.649H-388.504M-71.9315 619.649L-105.999 663.295M-71.9315 619.649H86.3554M86.3554 619.649L59.1005 663.295M-271.099 663.295H-105.999M-271.099 663.295H-436.199M-143.132 710.869L-105.999 663.295M-143.132 710.869L-183.764 762.923M-143.132 710.869H29.3938M-105.999 663.295H59.1005M-436.199 663.295H-601.299M-436.199 663.295L-388.504 619.649M59.1005 663.295L29.3938 710.869M-388.504 619.649H-546.789M-183.764 762.923L-228.411 820.125M-183.764 762.923H-3.11034M29.3938 710.869L-3.11034 762.923M-3.11034 762.923L-38.8297 820.125M-417.994 820.125L-477.144 883.276M-417.994 820.125H-228.411M-417.994 820.125H-607.577M-228.411 820.125L-277.703 883.276M-228.411 820.125H-38.8297M-38.8297 820.125L-78.2629 883.276M-277.703 883.276H-477.144M-277.703 883.276H-78.2629M-477.144 883.276L-640.268 883.275M-607.577 820.125L-640.268 850.042M-607.577 820.125H-640.268M37.4179 42.6271L25.0681 50.5383M37.4179 42.6271H105.626M37.4179 42.6271H-30.7901M116.352 34.9923L126.711 27.6198M116.352 34.9923L105.626 42.6271M116.352 34.9923H183.369M126.711 27.6198H192.576M126.711 27.6198L136.719 20.497M71.9644 20.497H136.719M71.9644 20.497L76.0395 17.8875L82.7165 13.61M71.9644 20.497H7.21122M105.626 42.6271L94.5111 50.5383M105.626 42.6271H173.834M183.369 34.9923L192.576 27.6198M183.369 34.9923L173.834 42.6271M192.576 27.6198L199.277 22.2549L201.472 20.497M136.719 20.497L137.946 19.6225L146.395 13.61M136.719 20.497H201.472M173.834 42.6271L163.954 50.5383M266.226 20.497L273.751 13.61M266.226 20.497H201.472M201.472 20.497L204.732 17.8875L210.073 13.61M25.0681 50.5383H94.5111M25.0681 50.5383H-44.375M82.987 58.7409L94.5111 50.5383M82.987 58.7409L71.0296 67.2515M82.987 58.7409H153.711M94.5111 50.5383H163.954M-44.375 50.5383H-113.818M-44.375 50.5383L-30.7901 42.6271M163.954 50.5383L153.711 58.7409M-30.7901 42.6271H-98.998M71.0296 67.2515L67.9687 69.4289L58.6132 76.0878M71.0296 67.2515H143.082M153.711 58.7409L143.082 67.2515M143.082 67.2515L132.045 76.0878M-14.8185 76.0878L-16.5791 77.2171L-29.1512 85.2701M-14.8185 76.0878H58.6132M-14.8185 76.0878H-88.2501M58.6132 76.0878L45.7139 85.2701M58.6132 76.0878H132.045M132.045 76.0878L130.637 77.2171L120.579 85.2701M-29.1512 85.2701H45.7139M-29.1512 85.2701H-104.016M32.3003 94.8175L45.7139 85.2701M32.3003 94.8175L18.3414 104.753M32.3003 94.8175H108.656M45.7139 85.2701H120.579M-104.016 85.2701H-178.882M-104.016 85.2701L-88.2501 76.0878M120.579 85.2701L108.656 94.8175M-88.2501 76.0878H-161.682M18.3414 104.753L3.80329 115.1M18.3414 104.753H96.2477M108.656 94.8175L96.2477 104.753M96.2477 104.753L83.3256 115.1M-75.7176 115.1L-92.5547 125.885M-75.7176 115.1H3.80329M-75.7176 115.1H-155.24M3.80329 115.1L-11.3496 125.885M3.80329 115.1H83.3256M83.3256 115.1L69.8553 125.885M-92.5547 125.885H-11.3496M-92.5547 125.885H-173.761M-27.1583 137.137L-11.3496 125.885M-27.1583 137.137L-43.6668 148.886M-27.1583 137.137H55.803M-11.3496 125.885H69.8553M-173.761 125.885H-254.966M-173.761 125.885L-155.24 115.1M69.8553 125.885L55.803 137.137M-155.24 115.1H-234.762M-43.6668 148.886L-60.9202 161.167M-43.6668 148.886H41.1303M55.803 137.137L41.1303 148.886M41.1303 148.886L25.7932 161.167M-147.634 161.167L-167.692 174.016M-147.634 161.167H-60.9202M-147.634 161.167H-234.347M-60.9202 161.167L-78.9726 174.016M-60.9202 161.167H25.7932M25.7932 161.167L9.74659 174.016M-167.692 174.016H-78.9726M-167.692 174.016H-256.411M-97.8804 187.473L-78.9726 174.016M-97.8804 187.473L-117.705 201.583M-97.8804 187.473H-7.06075M-78.9726 174.016H9.74659M-256.411 174.016H-345.13M-256.411 174.016L-234.347 161.167M9.74659 174.016L-7.06075 187.473M-234.347 161.167H-321.061M-117.705 201.583L-138.515 216.396M-117.705 201.583H-24.6824M-7.06075 187.473L-24.6824 201.583M-24.6824 201.583L-43.1795 216.396M-233.85 216.396L-258.15 231.962M-233.85 216.396H-138.515M-233.85 216.396H-329.184M-138.515 216.396L-160.386 231.962M-138.515 216.396H-43.1795M-43.1795 216.396L-62.6199 231.962M-258.15 231.962H-160.386M-258.15 231.962H-355.916M-183.401 248.343L-160.386 231.962M-183.401 248.343L-207.652 265.604M-183.401 248.343H-83.0788M-160.386 231.962H-62.6199M-355.916 231.962H-453.681M-355.916 231.962L-329.184 216.396M-62.6199 231.962L-83.0788 248.343M-329.184 216.396H-424.519M-207.652 265.604L-233.242 283.819M-207.652 265.604H-104.635M-83.0788 248.343L-104.635 265.604M-104.635 265.604L-127.382 283.819M-339.103 283.819L-369.15 303.066M-339.103 283.819H-233.242M-339.103 283.819H-444.963M-233.242 283.819L-260.285 303.066M-233.242 283.819H-127.382M-127.382 283.819L-151.42 303.066M-369.15 303.066H-260.285M-369.15 303.066H-478.015M-288.908 323.439L-260.285 303.066M-288.908 323.439L-319.253 345.037M-288.908 323.439H-176.863M-260.285 303.066H-151.42M-478.015 303.066H-586.88M-478.015 303.066L-444.963 283.819M-151.42 303.066L-176.863 323.439M-444.963 283.819H-550.823M-319.253 345.037L-351.483 367.977M-319.253 345.037H-203.836M-176.863 323.439L-203.836 345.037M-203.836 345.037L-232.485 367.977M-470.481 367.977L-508.583 392.384M-470.481 367.977H-351.483M-470.481 367.977H-589.479M-351.483 367.977L-385.774 392.384M-351.483 367.977H-232.485M-232.485 367.977L-262.966 392.384M-508.583 392.384H-385.774M-508.583 392.384H-631.391M-422.337 418.407L-385.774 392.384M-422.337 418.407L-461.399 446.21M-422.337 418.407H-295.466M-385.774 392.384H-262.966M-631.391 392.384L-589.479 367.977M-631.391 392.384H-640.268M-631.391 392.384L-640.268 397.553M-262.966 392.384L-295.466 418.407M-589.479 367.977H-640.268M-461.399 446.21L-503.229 475.982M-461.399 446.21H-330.188M-295.466 418.407L-330.188 446.21M-330.188 446.21L-367.371 475.982M-639.088 475.982H-503.229M-639.088 475.982H-640.268M-639.088 475.982L-640.268 476.738M-503.229 475.982L-548.132 507.942M-503.229 475.982H-367.371M-367.371 475.982L-407.283 507.942M-596.458 542.338L-548.132 507.942M-596.458 542.338H-450.24M-596.458 542.338H-640.268M-596.458 542.338L-640.268 573.521M-548.132 507.942H-407.283M-548.132 507.942H-640.268M-407.283 507.942L-450.24 542.338M-450.24 542.338L-496.601 579.462M-496.601 579.462L-546.789 619.649M-496.601 579.462H-640.268M-546.789 619.649L-601.299 663.295M-546.789 619.649H-640.268M-601.299 663.295H-640.268M-601.299 663.295L-640.268 694.499M-235.415 42.6271L-252.704 50.5383M-235.415 42.6271H-167.206M-235.415 42.6271H-303.623M-151.713 34.9923L-136.751 27.6198M-151.713 34.9923L-167.206 42.6271M-151.713 34.9923H-84.6964M-136.751 27.6198H-70.8862M-136.751 27.6198L-122.295 20.497M-187.049 20.497H-122.295M-187.049 20.497L-171.998 13.61M-187.049 20.497H-251.802M-167.206 42.6271L-183.261 50.5383M-167.206 42.6271H-98.998M-84.6964 34.9923L-70.8862 27.6198M-84.6964 34.9923L-98.998 42.6271M-70.8862 27.6198L-57.5421 20.497M-122.295 20.497L-120.523 19.6225L-108.319 13.61M-122.295 20.497H-57.5421M-98.998 42.6271L-113.818 50.5383M7.21122 20.497L19.0369 13.61M7.21122 20.497H-57.5421M-57.5421 20.497L-55.9061 19.6225L-44.6413 13.61M-252.704 50.5383H-183.261M-252.704 50.5383H-322.147M-199.908 58.7409L-183.261 50.5383M-199.908 58.7409L-217.18 67.2515M-199.908 58.7409H-129.183M-183.261 50.5383H-113.818M-322.147 50.5383H-391.59M-322.147 50.5383L-303.623 42.6271M-113.818 50.5383L-129.183 58.7409M-303.623 42.6271H-371.831M-217.18 67.2515L-235.114 76.0878M-217.18 67.2515H-145.128M-129.183 58.7409L-131.145 59.7865L-145.128 67.2515M-145.128 67.2515L-161.682 76.0878M-308.545 76.0878L-328.612 85.2701M-308.545 76.0878H-235.114M-308.545 76.0878H-381.977M-235.114 76.0878L-253.747 85.2701M-235.114 76.0878H-161.682M-161.682 76.0878L-178.882 85.2701M-328.612 85.2701H-253.747M-328.612 85.2701H-403.477M-273.122 94.8175L-253.747 85.2701M-273.122 94.8175L-293.285 104.753M-273.122 94.8175H-196.767M-253.747 85.2701H-178.882M-403.477 85.2701H-478.342M-403.477 85.2701L-381.977 76.0878M-178.882 85.2701L-196.767 94.8175M-381.977 76.0878H-455.409M-293.285 104.753L-314.283 115.1M-293.285 104.753H-215.379M-196.767 94.8175L-215.379 104.753M-215.379 104.753L-234.762 115.1M-393.806 115.1L-417.378 125.885M-393.806 115.1H-314.283M-393.806 115.1H-473.328M-314.283 115.1L-336.171 125.885M-314.283 115.1H-234.762M-234.762 115.1L-254.966 125.885M-417.378 125.885H-336.171M-417.378 125.885H-498.583M-359.007 137.137L-336.171 125.885M-359.007 137.137L-382.851 148.886M-359.007 137.137H-276.044M-336.171 125.885H-254.966M-498.583 125.885H-579.788M-498.583 125.885L-473.328 115.1M-254.966 125.885L-276.044 137.137M-473.328 115.1H-552.849M-382.851 148.886L-407.774 161.167M-382.851 148.886H-298.055M-276.044 137.137L-298.055 148.886M-298.055 148.886L-321.061 161.167M-494.488 161.167L-522.568 174.016M-494.488 161.167H-407.774M-494.488 161.167H-581.2M-407.774 161.167L-433.849 174.016M-407.774 161.167H-321.061M-321.061 161.167L-345.13 174.016M-522.568 174.016H-433.849M-461.161 187.473L-433.849 174.016M-461.161 187.473L-489.795 201.583M-461.161 187.473H-370.34M-433.849 174.016H-345.13M-345.13 174.016L-370.34 187.473M-581.2 161.167H-640.268M-489.795 201.583L-519.855 216.396M-489.795 201.583H-396.773M-370.34 187.473L-396.773 201.583M-396.773 201.583L-424.519 216.396M-615.19 216.396H-519.855M-615.19 216.396H-640.268M-615.19 216.396L-640.268 227.87M-519.855 216.396L-551.447 231.962M-519.855 216.396H-424.519M-424.519 216.396L-453.681 231.962M-584.69 248.343L-551.447 231.962M-584.69 248.343L-619.72 265.604M-584.69 248.343H-484.367M-584.69 248.343H-640.268M-551.447 231.962H-453.681M-551.447 231.962H-640.268M-453.681 231.962L-484.367 248.343M-640.544 227.996L-640.268 227.87M-619.72 265.604H-516.703M-619.72 265.604H-640.268M-619.72 265.604L-640.268 275.729M-484.367 248.343L-516.703 265.604M-516.703 265.604L-550.823 283.819M-550.823 283.819L-586.88 303.066M-550.823 283.819H-640.268M-625.044 323.439L-586.88 303.066M-625.044 323.439H-640.268M-625.044 323.439L-640.268 331.565M-586.88 303.066H-640.268M-508.247 42.6271L-530.476 50.5383M-508.247 42.6271H-440.039M-508.247 42.6271H-576.456M-419.779 34.9923L-400.213 27.6198M-419.779 34.9923L-440.039 42.6271M-419.779 34.9923H-352.762M-400.213 27.6198H-334.348M-400.213 27.6198L-381.31 20.497M-446.063 20.497H-381.31M-446.063 20.497L-426.712 13.61M-446.063 20.497H-510.816M-440.039 42.6271L-461.033 50.5383M-440.039 42.6271H-371.831M-352.762 34.9923L-334.348 27.6198M-352.762 34.9923L-371.831 42.6271M-334.348 27.6198L-316.557 20.497M-381.31 20.497H-316.557M-381.31 20.497L-363.032 13.61M-371.831 42.6271L-391.59 50.5383M-251.802 20.497L-235.676 13.61M-251.802 20.497H-316.557M-316.557 20.497L-299.354 13.61M-530.476 50.5383H-461.033M-530.476 50.5383H-599.919M-482.802 58.7409L-461.033 50.5383M-482.802 58.7409L-505.389 67.2515M-482.802 58.7409H-412.079M-461.033 50.5383H-391.59M-599.919 50.5383L-576.456 42.6271M-599.919 50.5383H-640.268M-391.59 50.5383L-412.079 58.7409M-576.456 42.6271H-640.268M-505.389 67.2515L-528.84 76.0878M-505.389 67.2515H-433.337M-412.079 58.7409L-433.337 67.2515M-433.337 67.2515L-455.409 76.0878M-602.272 76.0878L-628.072 85.2701M-602.272 76.0878H-528.84M-602.272 76.0878H-640.268M-528.84 76.0878L-553.207 85.2701M-528.84 76.0878H-455.409M-455.409 76.0878L-478.342 85.2701M-578.544 94.8175L-553.207 85.2701M-578.544 94.8175L-604.911 104.753M-578.544 94.8175H-502.189M-578.544 94.8175H-640.268M-553.207 85.2701H-628.072M-553.207 85.2701H-478.342M-628.072 85.2701L-640.268 89.6097M-628.072 85.2701H-640.268M-478.342 85.2701L-502.189 94.8175M-604.911 104.753L-632.371 115.1M-604.911 104.753H-527.005M-604.911 104.753H-640.268M-502.189 94.8175L-527.005 104.753M-527.005 104.753L-552.849 115.1M-632.371 115.1H-552.849M-632.371 115.1L-640.268 118.075M-632.371 115.1H-640.268M-552.849 115.1L-579.788 125.885M-607.892 137.137L-579.788 125.885M-607.892 137.137L-637.239 148.886M-607.892 137.137H-640.268M-579.788 125.885H-640.268M-640.693 125.885H-640.268M-637.239 148.886H-640.268M-637.239 148.886L-640.268 150.099M-641 150.392L-640.268 150.099M-620.827 34.9923L-597.81 27.6198M-620.827 34.9923H-640.268M-620.827 34.9923L-640.268 41.2185M-597.81 27.6198L-575.57 20.497M-597.81 27.6198H-640.268M-510.816 20.497L-490.39 13.61M-510.816 20.497H-575.57M-575.57 20.497L-554.068 13.61M-575.57 20.497H-640.268M1611 13.61H1674.68M1611 13.61H1547.32M1659.08 6.94852L1662.93 8.59361L1674.68 13.61M1659.08 6.94852H1721.72M1674.68 13.61H1738.35M1721.72 6.94852L1725.82 8.59361L1727.89 9.41997L1738.35 13.61M1738.35 13.61H1802.03M1802.03 13.61H1865.71M1547.32 13.61H1483.64M1865.71 13.61H1929.39M1929.39 13.61L1909.63 6.94852M1929.39 13.61H1993.07M1909.63 6.94852H1972.27M1356.28 13.61H1419.96M1356.28 13.61H1292.61M1408.52 6.94852L1411.35 8.59361L1412.77 9.41997L1419.96 13.61M1408.52 6.94852H1471.16M1419.96 13.61H1483.64M1471.16 6.94852L1483.64 13.61M1292.61 13.61H1228.93M1101.57 13.61H1165.25M1101.57 13.61H1037.89M1157.97 6.94852L1158.87 7.76853L1159.77 8.59361L1160.67 9.41997L1165.25 13.61M1157.97 6.94852H1220.61M1165.25 13.61H1228.93M1220.61 6.94852L1228.93 13.61M1037.89 13.61H974.213M846.856 13.61H910.535M846.856 13.61H783.178M907.416 6.94852L910.535 13.61M907.416 6.94852H970.054M910.535 13.61H974.213M970.054 6.94852L970.567 7.76853L971.081 8.59361L971.598 9.41997L974.213 13.61M783.178 13.61H719.5M592.144 13.61H655.822M592.144 13.61H528.466M656.862 6.94852L655.822 13.61M656.862 6.94852H719.5M655.822 13.61H719.5M719.5 6.94852V13.61M528.466 13.61H464.786M337.429 13.61H401.108M337.429 13.61H273.751M406.307 6.94852L405.024 8.59361L402.424 11.9231L401.108 13.61M406.307 6.94852H468.946M401.108 13.61H464.786M468.946 6.94852L468.433 7.76853L467.919 8.59361L467.402 9.41997L464.786 13.61M273.751 13.61H210.073M82.7165 13.61H146.395M82.7165 13.61H19.0369M155.754 6.94852L153.443 8.59361L152.28 9.41997L146.395 13.61M155.754 6.94852H218.393M146.395 13.61H210.073M218.393 6.94852L217.368 7.76853L210.073 13.61M19.0369 13.61H-44.6413M-171.998 13.61H-108.319M-171.998 13.61H-235.676M-94.7997 6.94852L-98.1382 8.59361L-99.8181 9.41997L-108.319 13.61M-94.7997 6.94852H-32.1611M-108.319 13.61H-44.6413M-32.1611 6.94852L-33.6994 7.76853L-44.6413 13.61M-235.676 13.61H-299.354M-426.712 13.61H-363.032M-426.712 13.61H-490.39M-345.354 6.94852L-363.032 13.61M-345.354 6.94852H-282.715M-363.032 13.61H-299.354M-282.715 6.94852L-286.823 8.59361L-288.891 9.41997L-299.354 13.61M-490.39 13.61H-554.068M-595.907 6.94852L-617.747 13.61M-595.907 6.94852H-533.268M-595.907 6.94852H-640.268M-617.747 13.61H-554.068M-617.747 13.61L-640.268 20.4802M-617.747 13.61H-640.268M-533.268 6.94852L-538.404 8.59361L-554.068 13.61M1972.27 6.94852L1977.4 8.59361L1993.07 13.61M1993.07 13.61H2056.75M2056.75 13.61L2079.27 20.4802M2056.75 13.61H2079.27M2079.27 331.565V323.439M2079.27 331.565V345.037M2079.27 323.439V303.066M2079.27 345.037V349.063V367.977M2079.27 367.977V392.384M2079.27 174.016V161.167M2079.27 174.016V186.392M2079.27 6.94852V13.61M2079.27 13.61V20.4802M2079.27 20.4802L2079.32 20.497H2079.27M2079.27 20.4802V20.497M2079.27 20.497V27.6198M2079.27 27.6198V34.9923M2079.27 34.9923V41.2185M2079.27 41.2185V42.6271M2079.27 42.6271V50.5383M2079.27 50.5383V58.7409M2079.27 58.7409V64.1402M2079.27 64.1402V67.2515M2079.27 67.2515V76.0878M2079.27 76.0878V85.2701M2079.27 85.2701V89.6097M2079.27 89.6097V94.8175M2079.27 94.8175V104.753M2079.27 104.753V115.1M2079.27 115.1V118.075M2079.27 118.075V125.885M2079.27 125.885V137.137M2079.27 137.137V148.886M2079.27 148.886V150.099M2079.27 150.099V161.167M2079.27 187.473V201.583M2079.27 187.473V186.392M2079.27 201.583V216.396M2079.27 216.396V227.87M2079.27 227.87V231.962M2079.27 231.962V248.343M2079.27 248.343V265.604M2079.27 265.604V275.729M2079.27 275.729V283.819M2079.27 283.819V303.066M2079.27 392.384V397.553M2079.27 397.553V418.407M2079.27 418.407V446.21M2079.27 446.21V475.982M2079.27 475.982V476.738M2079.27 476.738V507.942M2079.27 507.942V542.338M2079.27 542.338V573.521M2079.27 573.521V579.462M2079.27 579.462V619.649M2079.27 619.649V663.295M2079.27 663.295V694.499M2079.27 694.499V710.869M2079.27 710.869V762.923M2079.27 762.923V820.125M2079.27 820.125V850.042M2079.27 850.042V883.275M2079.27 883.275V883.5H-640.268V883.275M-640.268 187.473V201.583M-640.268 187.473V186.392M-640.268 186.392V174.016M-640.268 174.016V161.167M-640.268 161.167V150.099M-640.268 150.099V148.886M-640.268 148.886V137.137M-640.268 137.137V125.885M-640.268 125.885V118.075M-640.268 118.075V115.1M-640.268 115.1V104.753M-640.268 104.753V94.8175M-640.268 94.8175V89.6097M-640.268 89.6097V85.2701M-640.268 85.2701V76.0878M-640.268 76.0878V67.2515M-640.268 67.2515V64.1402M-640.268 64.1402V58.7409M-640.268 58.7409V50.5383M-640.268 50.5383V42.6271M-640.268 42.6271V41.2185M-640.268 41.2185V34.9923M-640.268 34.9923V27.6198M-640.268 27.6198V20.497M-640.268 20.497H-640.323L-640.268 20.4802M-640.268 20.497V20.4802M-640.268 20.4802V13.61M-640.268 13.61V6.94852M-640.268 883.275V850.042M-640.268 850.042V820.125M-640.268 820.125V762.924M-640.268 762.924V710.869M-640.268 710.869V694.499M-640.268 694.499V663.295M-640.268 663.295V619.649M-640.268 619.649V579.462M-640.268 579.462V573.521M-640.268 573.521V542.338M-640.268 542.338V507.942M-640.268 507.942V476.738M-640.268 476.738V475.982M-640.268 475.982V446.21M-640.268 446.21V418.407M-640.268 418.407V397.553M-640.268 397.553V392.384M-640.268 392.384V367.977M-640.268 367.977V345.037M-640.268 345.037V331.565M-640.268 331.565V323.439M-640.268 323.439V303.066M-640.268 303.066V283.819M-640.268 283.819V275.729M-640.268 275.729V265.604M-640.268 265.604V248.343M-640.268 248.343V231.962M-640.268 231.962V227.87M-640.268 227.87V216.396M-640.268 216.396V201.583" stroke="url(#paint0_linear_657_99)" stroke-miterlimit="10" stroke-linecap="round" stroke-linejoin="round"/>
<defs>
<linearGradient id="paint0_linear_657_99" x1="719.5" y1="0.5" x2="719.5" y2="619.591" gradientUnits="userSpaceOnUse">
<stop stop-color="white" stop-opacity="0.01"/>
<stop offset="1" stop-color="white" stop-opacity="0.06"/>
</linearGradient>
</defs>
</svg>
