<svg preserveAspectRatio="none" width="100%" height="100%" overflow="visible" style="display: block;" viewBox="0 0 2722 884" fill="none" xmlns="http://www.w3.org/2000/svg">
<path id="BG-Pattern" d="M2676.41 6.94852L2655.27 0.5M2676.41 6.94852H2613.77M2676.41 6.94852L2698.25 13.61M2676.41 6.94852H2720.77M2655.27 0.5L2662.96 0.502514L2670.57 0.516477L2678.03 0.555735L2685.25 0.633052L2692.15 0.758524L2698.67 0.947389L2704.73 1.20974L2710.35 1.54431L2715.17 2.00693L2719.56 2.54305L2720.77 2.73083V6.94852M2655.27 0.5H2593.64M2593.64 0.5H2532.01M2593.64 0.5L2613.77 6.94852M2532.01 0.5H2470.37M2532.01 0.5L2551.13 6.94852M2470.37 0.5H2408.74M2470.37 0.5L2488.49 6.94852M2408.74 0.5H2347.11M2408.74 0.5L2425.85 6.94852M2347.11 0.5H2285.48M2347.11 0.5L2363.22 6.94852M2285.48 0.5H2223.85M2285.48 0.5L2300.58 6.94852M2223.85 0.5H2162.22M2223.85 0.5L2237.94 6.94852M2162.22 0.5H2100.58M2162.22 0.5L2175.3 6.94852M2100.58 0.5H2038.95M2100.58 0.5L2112.66 6.94852M2038.95 0.5H1977.32M2038.95 0.5L2050.02 6.94852M1977.32 0.5H1915.69M1977.32 0.5L1987.38 6.94852M1915.69 0.5H1854.05M1915.69 0.5L1917.92 2.09311L1921.32 4.50499L1924.75 6.94852M1854.05 0.5H1792.42M1854.05 0.5L1856.04 2.09311L1862.11 6.94852M1792.42 0.5H1730.79M1792.42 0.5L1799.47 6.94852M1730.79 0.5H1669.16M1730.79 0.5L1733.03 2.89409L1735.3 5.31611L1736.07 6.13106L1736.83 6.94852M1669.16 0.5H1607.53M1669.16 0.5L1671.03 2.89409L1671.66 3.69763L1672.29 4.50499L1674.19 6.94852M1607.53 0.5H1545.9M1607.53 0.5L1611.55 6.94852M1545.9 0.5L1546.27 1.29464L1546.64 2.09311L1548.53 6.13106L1548.92 6.94852M1545.9 0.5H1484.26M1484.26 0.5H1422.63M1484.26 0.5L1486.28 6.94852M1422.63 0.5H1361M1422.63 0.5L1423.01 2.89409L1423.64 6.94852M1361 0.5H1299.37M1361 0.5V6.94852M1299.37 0.5H1237.74M1299.37 0.5L1298.99 2.89409L1298.36 6.94852M1237.74 0.5H1176.1M1237.74 0.5L1235.72 6.94852M1176.1 0.5L1175.73 1.29464L1175.36 2.09311L1173.47 6.13106L1173.08 6.94852M1176.1 0.5H1114.47M1114.47 0.5H1052.84M1114.47 0.5L1110.96 6.13106L1110.45 6.94852M1052.84 0.5H991.209M1052.84 0.5L1050.97 2.89409L1050.34 3.69763L1049.08 5.31611L1048.45 6.13106L1047.81 6.94852M991.209 0.5H929.577M991.209 0.5L988.968 2.89409L986.697 5.31611L985.935 6.13106L985.169 6.94852M929.577 0.5H867.945M929.577 0.5L922.532 6.94852M867.945 0.5H806.313M867.945 0.5L865.957 2.09311L859.893 6.94852M806.313 0.5H744.681M806.313 0.5L797.255 6.94852M744.681 0.5H683.05M744.681 0.5L734.616 6.94852M683.05 0.5H621.417M683.05 0.5L671.977 6.94852M621.417 0.5H559.785M621.417 0.5L609.339 6.94852M559.785 0.5H498.154M559.785 0.5L546.7 6.94852M498.154 0.5H436.522M498.154 0.5L484.062 6.94852M436.522 0.5H374.89M436.522 0.5L421.423 6.94852M374.89 0.5H313.258M374.89 0.5L358.785 6.94852M313.258 0.5H251.627M313.258 0.5L296.146 6.94852M251.627 0.5H189.994M251.627 0.5L233.508 6.94852M189.994 0.5H128.362M189.994 0.5L170.871 6.94852M128.362 0.5H66.7307M128.362 0.5L108.232 6.94852M66.7307 0.5L59.0396 0.502514L51.4277 0.516477L43.9745 0.555735L36.7549 0.633052L29.8485 0.758524L23.3287 0.947389L17.2734 1.20974L11.6531 1.54431L6.83014 2.00693L2.43922 2.54305L1.23243 2.73087V6.94852M66.7307 0.5L45.5934 6.94852M170.871 6.94852H233.508M170.871 6.94852H108.232M170.871 6.94852L151.11 13.61M233.508 6.94852L214.788 13.61M233.508 6.94852H296.146M421.423 6.94852H484.062M421.423 6.94852H358.785M421.423 6.94852L417.572 8.59361L405.824 13.61M484.062 6.94852L469.502 13.61M484.062 6.94852H546.7M671.977 6.94852H734.616M671.977 6.94852H609.339M671.977 6.94852L669.153 8.59361L667.731 9.41997L660.537 13.61M734.616 6.94852L733.334 7.76853L732.048 8.59361L724.217 13.61M734.616 6.94852H797.255M922.532 6.94852L921.634 7.76853L915.251 13.61M922.532 6.94852H985.169M922.532 6.94852H859.893M985.169 6.94852L983.629 8.59361L982.853 9.41997L982.075 10.2514L978.93 13.61M985.169 6.94852H1047.81M1173.08 6.94852H1235.72M1173.08 6.94852H1110.45M1173.08 6.94852L1169.97 13.61M1235.72 6.94852L1235.47 7.76853L1235.21 8.59361L1234.95 9.41997L1234.17 11.9231L1233.64 13.61M1235.72 6.94852H1298.36M1423.64 6.94852H1486.28M1423.64 6.94852H1361M1423.64 6.94852L1424.68 13.61M1486.28 6.94852L1486.53 7.76853L1486.79 8.59361L1487.05 9.41997L1488.36 13.61M1486.28 6.94852H1548.92M1674.19 6.94852H1736.83M1674.19 6.94852H1611.55M1674.19 6.94852L1675.48 8.59361L1678.08 11.9231L1678.73 12.7646L1679.39 13.61M1736.83 6.94852L1738.37 8.59361L1739.15 9.41997L1739.92 10.2514L1743.07 13.61M1736.83 6.94852H1799.47M1924.75 6.94852H1987.38M1924.75 6.94852H1862.11M1924.75 6.94852L1927.06 8.59361L1928.22 9.41997L1934.11 13.61M1987.38 6.94852L1988.67 7.76853L1989.95 8.59361L1997.78 13.61M1987.38 6.94852H2050.02M2175.3 6.94852H2237.94M2175.3 6.94852H2112.66M2175.3 6.94852L2178.64 8.59361L2180.32 9.41997L2188.82 13.61M2237.94 6.94852L2252.5 13.61M2237.94 6.94852H2300.58M2425.85 6.94852H2488.49M2425.85 6.94852H2363.22M2425.85 6.94852L2443.53 13.61M2488.49 6.94852L2507.21 13.61M2488.49 6.94852H2551.13M1.01289 67.2515H1.23243M64.0594 67.2515L87.9743 58.7409M64.0594 67.2515L39.228 76.0878M64.0594 67.2515H136.111M64.0594 67.2515H1.23243M87.9743 58.7409H17.2508M87.9743 58.7409L111.024 50.5383M87.9743 58.7409H158.698M17.2508 58.7409L41.5807 50.5383M17.2508 58.7409H1.23243M17.2508 58.7409L1.23243 64.1402M87.6882 34.9923H154.705M87.6882 34.9923L109.555 27.6198M87.6882 34.9923H20.6729M87.6882 34.9923L65.0438 42.6271M154.705 34.9923L175.422 27.6198M154.705 34.9923L133.253 42.6271M154.705 34.9923H221.722M109.555 27.6198H175.422M109.555 27.6198L130.684 20.497M109.555 27.6198H43.6898M175.422 27.6198H241.287M175.422 27.6198L195.437 20.497M0.542635 201.583H1.23243M58.6812 201.583L89.5196 187.473M58.6812 201.583L26.3102 216.396M58.6812 201.583H151.705M58.6812 201.583H1.23243M89.5196 187.473L118.932 174.016M89.5196 187.473H180.339M89.5196 187.473H1.23243M30.2125 174.016H118.932M30.2125 174.016L60.3002 161.167M30.2125 174.016H1.23243M30.2125 174.016L1.23243 186.392M89.0564 148.886H173.852M89.0564 148.886L116.569 137.137M89.0564 148.886H4.26075M89.0564 148.886L60.3002 161.167M173.852 148.886L199.532 137.137M173.852 148.886L147.012 161.167M173.852 148.886H258.649M116.569 137.137H199.532M116.569 137.137H33.6076M116.569 137.137L142.917 125.885M199.532 137.137L224.122 125.885M199.532 137.137H282.493M192.402 104.753H270.308M192.402 104.753L215.666 94.8175M192.402 104.753H114.495M192.402 104.753L168.172 115.1M270.308 104.753L292.022 94.8175M270.308 104.753L247.695 115.1M270.308 104.753H348.215M215.666 94.8175H292.022M215.666 94.8175H139.311M215.666 94.8175L238.023 85.2701M292.022 94.8175L312.888 85.2701M292.022 94.8175H368.378M280.216 67.2515H352.268M280.216 67.2515L300.145 58.7409M280.216 67.2515H208.164M280.216 67.2515L259.523 76.0878M352.268 67.2515L370.868 58.7409M352.268 67.2515L332.955 76.0878M352.268 67.2515H424.32M300.145 58.7409H370.868M300.145 58.7409H229.421M300.145 58.7409L319.353 50.5383M370.868 58.7409L388.796 50.5383M370.868 58.7409H441.592M355.754 34.9923H422.77M355.754 34.9923L373.017 27.6198M355.754 34.9923H288.738M355.754 34.9923L337.877 42.6271M422.77 34.9923L438.882 27.6198M422.77 34.9923L406.085 42.6271M422.77 34.9923H489.787M373.017 27.6198H438.882M373.017 27.6198L389.698 20.497M373.017 27.6198H307.152M438.882 27.6198H504.749M438.882 27.6198L454.452 20.497M48.8909 446.21L92.293 418.407M48.8909 446.21L2.41232 475.982M48.8909 446.21H180.101M48.8909 446.21H1.23243M92.293 418.407L132.917 392.384M92.293 418.407H219.164M92.293 418.407H1.23243M91.4119 345.037H206.829M91.4119 345.037L128.501 323.439M91.4119 345.037L52.0212 367.977M91.4119 345.037H1.23243M206.829 345.037L240.546 323.439M206.829 345.037L171.019 367.977M206.829 345.037H322.247M128.501 323.439H240.546M128.501 323.439H16.4562M128.501 323.439L163.485 303.066M240.546 323.439L272.35 303.066M240.546 323.439H352.592M227.814 265.604H330.832M227.814 265.604L257.455 248.343M227.814 265.604H124.797M227.814 265.604L196.538 283.819M330.832 265.604L357.778 248.343M330.832 265.604L302.397 283.819M330.832 265.604H433.848M257.455 248.343H357.778M257.455 248.343H157.133M257.455 248.343L285.584 231.962M357.778 248.343L383.35 231.962M357.778 248.343H458.099M337.749 201.583H430.773M337.749 201.583L361.98 187.473M337.749 201.583H244.727M337.749 201.583L312.316 216.396M430.773 201.583L452.8 187.473M430.773 201.583L407.65 216.396M430.773 201.583H523.795M361.98 187.473H452.8M361.98 187.473H271.16M361.98 187.473L385.089 174.016M452.8 187.473L473.808 174.016M452.8 187.473H543.62M428.242 148.886H513.038M428.242 148.886L448.418 137.137M428.242 148.886H343.445M428.242 148.886L407.153 161.167M513.038 148.886L531.38 137.137M513.038 148.886L493.866 161.167M513.038 148.886H597.833M448.418 137.137H531.38M448.418 137.137H365.456M448.418 137.137L467.739 125.885M531.38 137.137L548.945 125.885M531.38 137.137H614.342M504.028 104.753H581.934M504.028 104.753L521.089 94.8175M504.028 104.753H426.122M504.028 104.753L486.26 115.1M581.934 104.753L583.908 103.489L597.444 94.8175M581.934 104.753L565.783 115.1M581.934 104.753H659.842M521.089 94.8175H597.444M521.089 94.8175H444.733M521.089 94.8175L537.484 85.2701M597.444 94.8175L612.349 85.2701M597.444 94.8175H673.8M568.424 67.2515H640.478M568.424 67.2515L583.04 58.7409M568.424 67.2515H496.372M568.424 67.2515L553.25 76.0878M640.478 67.2515L653.764 58.7409M640.478 67.2515L635.366 70.5265L626.682 76.0878M640.478 67.2515H712.53M583.04 58.7409H653.764M583.04 58.7409H512.317M583.04 58.7409L597.125 50.5383M653.764 58.7409L666.568 50.5383M653.764 58.7409H724.487M623.819 34.9923H690.836M623.819 34.9923L636.479 27.6198M623.819 34.9923H556.804M623.819 34.9923L610.71 42.6271M690.836 34.9923L699.506 29.4398L700.928 28.5273L702.346 27.6198M690.836 34.9923L678.918 42.6271M690.836 34.9923H757.853M636.479 27.6198H702.346M636.479 27.6198L648.711 20.497M636.479 27.6198H570.614M702.346 27.6198H768.211M702.346 27.6198L713.465 20.497M96.4303 762.923H277.084M96.4303 762.923L153.314 710.869M96.4303 762.923L33.9235 820.125M96.4303 762.923L1.23243 762.924M277.084 762.923L325.842 710.869M277.084 762.923L223.506 820.125M277.084 762.923H457.736M153.314 710.869H325.842M153.314 710.869L205.301 663.295M153.314 710.869H1.23243M325.842 710.869L370.401 663.295M325.842 710.869H498.368M296.911 579.462H448.925M296.911 579.462L337.478 542.338M296.911 579.462H144.899M296.911 579.462L252.996 619.649M448.925 579.462L483.695 542.338M448.925 579.462L411.283 619.649M448.925 579.462H600.937M337.478 542.338H483.695M337.478 542.338H191.26M337.478 542.338L375.065 507.942M483.695 542.338L515.913 507.942M483.695 542.338H629.913M442.524 446.21H573.734M442.524 446.21L472.906 418.407M442.524 446.21H311.312M442.524 446.21L409.989 475.982M573.734 446.21L599.777 418.407M573.734 446.21L545.848 475.982M573.734 446.21H704.945M472.906 418.407H599.777M472.906 418.407H346.034M472.906 418.407L501.342 392.384M599.777 418.407L624.151 392.384M599.777 418.407H726.647M553.08 345.037H668.497M553.08 345.037L576.683 323.439M553.08 345.037H437.664M553.08 345.037L528.014 367.977M668.497 345.037L688.728 323.439M668.497 345.037L647.012 367.977M668.497 345.037H783.915M576.683 323.439H688.728M576.683 323.439H464.637M576.683 323.439L598.945 303.066M688.728 323.439L707.81 303.066M688.728 323.439H800.773M639.881 265.604H742.899M639.881 265.604L658.744 248.343M639.881 265.604H536.865M639.881 265.604L619.978 283.819M742.899 265.604L759.066 248.343M742.899 265.604L725.839 283.819M742.899 265.604H845.916M658.744 248.343H759.066M658.744 248.343H558.421M658.744 248.343L676.645 231.962M759.066 248.343L774.409 231.962M759.066 248.343H859.389M709.841 201.583H802.864M709.841 201.583L725.261 187.473M709.841 201.583H616.818M709.841 201.583L693.656 216.396M802.864 201.583L816.08 187.473M802.864 201.583L788.99 216.396M802.864 201.583H895.886M725.261 187.473H816.08M725.261 187.473H634.439M725.261 187.473L739.966 174.016M816.08 187.473L828.685 174.016M816.08 187.473H906.9M767.426 148.886H852.223M767.426 148.886L780.266 137.137M767.426 148.886H682.63M767.426 148.886L754.007 161.167M852.223 148.886L863.227 137.137M852.223 148.886L840.721 161.167M852.223 148.886H937.019M780.266 137.137H863.227M780.266 137.137H697.303M780.266 137.137L792.562 125.885M863.227 137.137L873.767 125.885M863.227 137.137H946.19M815.654 104.753H893.562M815.654 104.753L826.511 94.8175M815.654 104.753H737.748M815.654 104.753L804.347 115.1M893.562 104.753L892.37 106.023L883.869 115.1M893.562 104.753L902.866 94.8175M893.562 104.753H971.468M826.511 94.8175H902.866M826.511 94.8175H750.156M826.511 94.8175L836.944 85.2701M902.866 94.8175L911.809 85.2701M902.866 94.8175H979.223M856.634 67.2515H928.686M856.634 67.2515L865.934 58.7409M856.634 67.2515H784.582M856.634 67.2515L846.978 76.0878M928.686 67.2515L936.658 58.7409M928.686 67.2515L925.62 70.5265L923.55 72.7356L920.41 76.0878M928.686 67.2515H1000.74M865.934 58.7409H936.658M865.934 58.7409H795.211M865.934 58.7409L874.897 50.5383M936.658 58.7409L939.573 55.6294L941.493 53.5788L944.342 50.5383M936.658 58.7409H1007.38M891.886 34.9923H958.901M891.886 34.9923L897.954 29.4398L899.941 27.6198M891.886 34.9923H824.869M891.886 34.9923L884.601 41.6576L883.543 42.6271M958.901 34.9923L964.104 29.4398L964.957 28.5273L965.808 27.6198M958.901 34.9923L955.357 38.7755L951.751 42.6271M958.901 34.9923H1025.92M899.941 27.6198H965.808M899.941 27.6198L907.726 20.497M899.941 27.6198H834.076M965.808 27.6198H1031.67M965.808 27.6198L972.479 20.497M819.042 762.923H999.694M819.042 762.923L843.42 710.869M819.042 762.923H638.39M819.042 762.923L792.253 820.125M999.694 762.923L1015.95 710.869M999.694 762.923L981.836 820.125M999.694 762.923H1180.35M843.42 710.869H1015.95M843.42 710.869H670.894M843.42 710.869L865.701 663.295M1015.95 710.869L1030.8 663.295M1015.95 710.869H1188.47M904.962 579.462H1056.97M904.962 579.462L922.348 542.338M904.962 579.462H752.949M904.962 579.462L886.141 619.649M1056.97 579.462L1068.57 542.338M1056.97 579.462L1044.43 619.649M1056.97 579.462H1208.99M922.348 542.338H1068.57M922.348 542.338H776.13M922.348 542.338L938.457 507.942M1068.57 542.338L1079.3 507.942M1068.57 542.338H1214.78M967.367 446.21H1098.58M967.367 446.21L980.388 418.407M967.367 446.21H836.157M967.367 446.21L953.424 475.982M1098.58 446.21L1107.26 418.407M1098.58 446.21L1089.28 475.982M1098.58 446.21H1229.79M980.388 418.407H1107.26M980.388 418.407H853.518M980.388 418.407L992.575 392.384M1107.26 418.407L1115.38 392.384M1107.26 418.407H1234.13M1014.75 345.037H1130.17M1014.75 345.037L1024.86 323.439M1014.75 345.037H899.332M1014.75 345.037L1004.01 367.977M1130.17 345.037L1136.91 323.439M1130.17 345.037L1123 367.977M1130.17 345.037H1245.58M1024.86 323.439H1136.91M1024.86 323.439H912.819M1024.86 323.439L1034.41 303.066M1136.91 323.439L1143.27 303.066M1136.91 323.439H1248.96M1051.95 265.604H1154.97M1051.95 265.604L1060.03 248.343M1051.95 265.604H948.932M1051.95 265.604L1043.42 283.819M1154.97 265.604L1160.36 248.343M1154.97 265.604L1149.28 283.819M1154.97 265.604H1257.98M1060.03 248.343H1160.36M1060.03 248.343H959.712M1060.03 248.343L1067.71 231.962M1160.36 248.343L1165.47 231.962M1160.36 248.343H1260.68M1081.93 201.583H1174.95M1081.93 201.583L1088.54 187.473M1081.93 201.583H988.91M1081.93 201.583L1075 216.396M1174.95 201.583L1179.36 187.473M1174.95 201.583L1170.33 216.396M1174.95 201.583H1267.98M1088.54 187.473H1179.36M1088.54 187.473H997.72M1088.54 187.473L1090.94 182.353L1094.84 174.016M1179.36 187.473L1183.56 174.016M1179.36 187.473H1270.18M1106.61 148.886H1191.41M1106.61 148.886L1112.11 137.137M1106.61 148.886H1021.81M1106.61 148.886L1102.32 158.046L1100.86 161.167M1191.41 148.886L1192.8 144.42L1195.08 137.137M1191.41 148.886L1187.57 161.167M1191.41 148.886H1276.2M1112.11 137.137L1112.78 135.704L1117.38 125.885M1112.11 137.137H1195.08M1112.11 137.137H1029.15M1195.08 137.137L1196.41 132.861L1196.85 131.45L1197.29 130.049L1198.59 125.885M1195.08 137.137H1278.04M1127.28 104.753H1205.19M1127.28 104.753L1129.63 99.735L1130.21 98.4967L1130.79 97.2636L1131.36 96.038L1131.93 94.8175M1127.28 104.753H1049.37M1127.28 104.753L1122.43 115.1M1205.19 104.753L1207.52 97.2636L1207.91 96.038L1208.29 94.8175M1205.19 104.753L1201.96 115.1M1205.19 104.753H1283.09M1131.93 94.8175H1208.29M1131.93 94.8175H1055.58M1131.93 94.8175L1134.75 88.8062L1135.3 87.6212L1136.4 85.2701M1208.29 94.8175L1210.17 88.8062L1210.54 87.6212L1210.9 86.4425L1211.27 85.2701M1208.29 94.8175H1284.65M1144.84 67.2515H1216.9M1144.84 67.2515L1148.83 58.7409M1144.84 67.2515H1072.79M1144.84 67.2515L1143.82 69.4289L1142.27 72.7356L1140.71 76.0878M1216.9 67.2515L1216.56 68.3377L1214.49 74.9649L1214.14 76.0878M1216.9 67.2515L1219.55 58.7409M1216.9 67.2515H1288.95M1148.83 58.7409H1219.55M1148.83 58.7409H1078.11M1148.83 58.7409L1152.67 50.5383M1219.55 58.7409L1220.52 55.6294L1220.84 54.6016L1221.17 53.5788L1222.11 50.5383M1219.55 58.7409H1290.28M1159.95 34.9923H1226.97M1159.95 34.9923L1162.55 29.4398L1163.4 27.6198M1159.95 34.9923H1092.93M1159.95 34.9923L1158.62 37.8237L1158.18 38.7755L1157.73 39.7324L1156.38 42.6271M1226.97 34.9923L1227.26 34.057L1227.84 32.1977L1228.42 30.3549L1229.27 27.6198M1226.97 34.9923L1225.79 38.7755L1225.49 39.7324L1224.89 41.6576L1224.58 42.6271M1226.97 34.9923H1293.98M1163.4 27.6198H1229.27M1163.4 27.6198L1166.33 21.3741L1166.74 20.497M1163.4 27.6198H1097.54M1229.27 27.6198L1229.55 26.7162L1229.83 25.8163L1230.11 24.9203L1230.39 24.028L1231.22 21.3741L1231.49 20.497M1229.27 27.6198H1295.14M1541.65 762.923H1722.31M1541.65 762.923L1533.53 710.869M1541.65 762.923H1361M1541.65 762.923L1550.58 820.125M1722.31 762.923L1706.05 710.869M1722.31 762.923L1740.16 820.125M1722.31 762.923H1902.96M1533.53 710.869H1706.05M1533.53 710.869H1361M1533.53 710.869L1526.1 663.295M1706.05 710.869L1691.2 663.295M1706.05 710.869H1878.58M1513.01 579.462H1665.03M1513.01 579.462L1507.22 542.338M1513.01 579.462H1361M1513.01 579.462L1519.29 619.649M1665.03 579.462L1653.44 542.338M1665.03 579.462L1677.57 619.649M1665.03 579.462H1817.04M1507.22 542.338H1653.44M1507.22 542.338H1361M1507.22 542.338L1501.85 507.942M1653.44 542.338L1642.7 507.942M1653.44 542.338H1799.65M1492.21 446.21H1623.42M1492.21 446.21L1487.87 418.407M1492.21 446.21H1361M1492.21 446.21L1496.86 475.982M1623.42 446.21L1614.74 418.407M1623.42 446.21L1632.72 475.982M1623.42 446.21H1754.63M1487.87 418.407H1614.74M1487.87 418.407H1361M1487.87 418.407L1483.81 392.384M1614.74 418.407L1606.62 392.384M1614.74 418.407H1741.61M1476.42 345.037H1591.83M1476.42 345.037L1473.05 323.439M1476.42 345.037H1361M1476.42 345.037L1480 367.977M1591.83 345.037L1585.09 323.439M1591.83 345.037L1599 367.977M1591.83 345.037H1707.25M1473.05 323.439H1585.09M1473.05 323.439H1361M1473.05 323.439L1469.87 303.066M1585.09 323.439L1578.73 303.066M1585.09 323.439H1697.14M1464.02 265.604H1567.03M1464.02 265.604L1461.32 248.343M1464.02 265.604H1361M1464.02 265.604L1466.86 283.819M1567.03 265.604L1561.65 248.343M1567.03 265.604L1572.72 283.819M1567.03 265.604H1670.05M1461.32 248.343H1561.65M1461.32 248.343H1361M1461.32 248.343L1458.76 231.962M1561.65 248.343L1556.53 231.962M1561.65 248.343H1661.97M1454.02 201.583H1547.05M1454.02 201.583L1451.82 187.473M1454.02 201.583H1361M1454.02 201.583L1456.34 216.396M1547.05 201.583L1542.64 187.473M1547.05 201.583L1551.67 216.396M1547.05 201.583H1640.07M1451.82 187.473H1542.64M1451.82 187.473H1361M1451.82 187.473L1449.72 174.016M1542.64 187.473L1538.44 174.016M1542.64 187.473H1633.46M1445.8 148.886H1530.59M1445.8 148.886L1443.96 137.137M1445.8 148.886H1361M1445.8 148.886L1447.71 161.167M1530.59 148.886L1527.37 138.578L1526.92 137.137M1530.59 148.886L1534.43 161.167M1530.59 148.886H1615.39M1443.96 137.137L1443.74 135.704L1442.21 125.885M1443.96 137.137H1526.92M1443.96 137.137H1361M1526.92 137.137L1525.59 132.861L1525.15 131.45L1524.71 130.049L1523.41 125.885M1526.92 137.137H1609.89M1438.91 104.753H1516.81M1438.91 104.753L1437.36 94.8175M1438.91 104.753H1361M1438.91 104.753L1439.5 108.583L1439.71 109.873L1439.91 111.169L1440.32 113.783L1440.52 115.1M1516.81 104.753L1514.48 97.2636L1513.71 94.8175M1516.81 104.753L1520.04 115.1M1516.81 104.753H1594.72M1437.36 94.8175H1513.71M1437.36 94.8175H1361M1437.36 94.8175L1435.87 85.2701M1513.71 94.8175L1511.84 88.8062L1511.46 87.6212L1511.1 86.4425L1510.73 85.2701M1513.71 94.8175H1590.07M1433.05 67.2515H1505.1M1433.05 67.2515L1431.72 58.7409M1433.05 67.2515H1361M1433.05 67.2515L1434.43 76.0878M1505.1 67.2515L1505.44 68.3377L1507.51 74.9649L1507.86 76.0878M1505.1 67.2515L1502.45 58.7409M1505.1 67.2515H1577.16M1431.72 58.7409H1502.45M1431.72 58.7409H1361M1431.72 58.7409L1430.44 50.5383M1502.45 58.7409L1501.48 55.6294L1501.16 54.6016L1500.84 53.5788L1499.89 50.5383M1502.45 58.7409H1573.17M1428.02 34.9923H1495.03M1428.02 34.9923L1426.87 27.6198M1428.02 34.9923H1361M1428.02 34.9923L1429.21 42.6271M1495.03 34.9923L1494.74 34.057L1494.16 32.1977L1493.87 31.2737L1493.3 29.4398L1493.02 28.5273L1492.73 27.6198M1495.03 34.9923L1496.21 38.7755L1496.51 39.7324L1497.11 41.6576L1497.42 42.6271M1495.03 34.9923H1562.05M1426.87 27.6198L1426.73 26.7162L1426.58 25.8163L1426.44 24.9203L1425.75 20.497M1426.87 27.6198H1492.73M1426.87 27.6198H1361M1492.73 27.6198H1558.6M1492.73 27.6198L1492.17 25.8163L1491.89 24.9203L1491.61 24.028L1490.78 21.3741L1490.51 20.497M2264.26 762.923H2444.92M2264.26 762.923L2223.63 710.869M2264.26 762.923H2083.61M2264.26 762.923L2308.91 820.125M2444.92 762.923L2396.16 710.869M2444.92 762.923L2498.49 820.125M2444.92 762.923H2625.57M2223.63 710.869H2396.16M2223.63 710.869H2051.11M2223.63 710.869L2186.5 663.295M2396.16 710.869L2351.6 663.295M2396.16 710.869H2568.69M2121.06 579.462H2273.08M2121.06 579.462L2092.09 542.338M2121.06 579.462H1969.05M2121.06 579.462L2152.43 619.649M2273.08 579.462L2238.31 542.338M2273.08 579.462L2310.72 619.649M2273.08 579.462H2425.09M2092.09 542.338H2238.31M2092.09 542.338H1945.87M2092.09 542.338L2065.24 507.942M2238.31 542.338L2206.09 507.942M2238.31 542.338H2384.52M2017.06 446.21H2148.27M2017.06 446.21L1995.35 418.407M2017.06 446.21H1885.84M2017.06 446.21L2040.29 475.982M2148.27 446.21L2122.23 418.407M2148.27 446.21L2176.15 475.982M2148.27 446.21H2279.48M1995.35 418.407H2122.23M1995.35 418.407H1868.48M1995.35 418.407L1975.04 392.384M2122.23 418.407L2097.85 392.384M2122.23 418.407H2249.09M1938.09 345.037H2053.5M1938.09 345.037L1921.23 323.439M1938.09 345.037H1822.67M1938.09 345.037L1955.99 367.977M2053.5 345.037L2033.27 323.439M2053.5 345.037L2074.99 367.977M2053.5 345.037H2168.92M1921.23 323.439H2033.27M1921.23 323.439H1809.18M1921.23 323.439L1905.33 303.066M2033.27 323.439L2014.19 303.066M2033.27 323.439H2145.32M1876.08 265.604H1979.1M1876.08 265.604L1862.61 248.343M1876.08 265.604H1773.07M1876.08 265.604L1890.3 283.819M1979.1 265.604L1962.93 248.343M1979.1 265.604L1996.16 283.819M1979.1 265.604H2082.12M1862.61 248.343H1962.93M1862.61 248.343H1762.29M1862.61 248.343L1849.83 231.962M1962.93 248.343L1947.59 231.962M1962.93 248.343H2063.26M1826.11 201.583H1919.14M1826.11 201.583L1815.1 187.473M1826.11 201.583H1733.09M1826.11 201.583L1837.68 216.396M1919.14 201.583L1905.92 187.473M1919.14 201.583L1933.01 216.396M1919.14 201.583H2012.16M1815.1 187.473H1905.92M1815.1 187.473H1724.28M1815.1 187.473L1804.6 174.016M1905.92 187.473L1893.32 174.016M1905.92 187.473H1996.74M1784.98 148.886L1786.16 150.392L1787.34 151.905L1794.57 161.167M1784.98 148.886H1869.78M1784.98 148.886L1775.81 137.137M1784.98 148.886H1700.19M1869.78 148.886L1858.77 137.137M1869.78 148.886L1881.28 161.167M1869.78 148.886H1954.57M1775.81 137.137H1858.77M1775.81 137.137H1692.85M1775.81 137.137L1767.03 125.885M1858.77 137.137L1848.23 125.885M1858.77 137.137H1941.73M1750.53 104.753H1828.44M1750.53 104.753L1742.78 94.8175M1750.53 104.753H1672.63M1750.53 104.753L1758.61 115.1M1828.44 104.753L1822.58 98.4967L1819.13 94.8175M1828.44 104.753L1838.13 115.1M1828.44 104.753H1906.35M1742.78 94.8175H1819.13M1742.78 94.8175H1666.42M1742.78 94.8175L1736.24 86.4425L1735.33 85.2701M1819.13 94.8175L1810.19 85.2701M1819.13 94.8175H1895.49M1721.26 67.2515H1793.31M1721.26 67.2515L1719.58 65.0931L1714.62 58.7409M1721.26 67.2515H1649.21M1721.26 67.2515L1722.96 69.4289L1726.41 73.847L1728.16 76.0878M1793.31 67.2515L1785.34 58.7409M1793.31 67.2515L1796.38 70.5265L1798.45 72.7356L1801.59 76.0878M1793.31 67.2515H1865.37M1714.62 58.7409H1785.34M1714.62 58.7409H1643.89M1714.62 58.7409L1709.79 52.5598L1708.22 50.5383M1785.34 58.7409L1782.43 55.6294L1780.51 53.5788L1777.66 50.5383M1785.34 58.7409H1856.07M1696.08 34.9923H1763.1M1696.08 34.9923L1692.46 30.3549L1690.33 27.6198M1696.08 34.9923H1629.07M1696.08 34.9923L1702.04 42.6271M1763.1 34.9923L1757.9 29.4398L1757.04 28.5273L1756.19 27.6198M1763.1 34.9923L1766.64 38.7755L1770.25 42.6271M1763.1 34.9923H1830.11M1690.33 27.6198H1756.19M1690.33 27.6198L1687.52 24.028L1686.14 22.2549L1685.45 21.3741L1684.77 20.497M1690.33 27.6198H1624.46M1756.19 27.6198H1822.06M1756.19 27.6198L1749.52 20.497M2676.96 542.338H2530.74M2676.96 542.338L2628.63 507.942M2676.96 542.338H2720.77M2676.96 542.338L2720.77 573.521M2541.9 446.21H2673.11M2541.9 446.21L2502.84 418.407M2541.9 446.21H2410.69M2541.9 446.21L2583.73 475.982M2673.11 446.21L2629.71 418.407M2673.11 446.21L2719.59 475.982M2673.11 446.21H2720.77M2502.84 418.407H2629.71M2502.84 418.407H2375.97M2502.84 418.407L2466.27 392.384M2629.71 418.407L2589.08 392.384M2629.71 418.407H2720.77M2399.75 345.037H2515.17M2399.75 345.037L2369.41 323.439M2399.75 345.037H2284.34M2399.75 345.037L2431.98 367.977M2515.17 345.037L2481.45 323.439M2515.17 345.037L2550.98 367.977M2515.17 345.037H2630.59M2369.41 323.439H2481.45M2369.41 323.439H2257.36M2369.41 323.439L2340.78 303.066M2481.45 323.439L2449.65 303.066M2481.45 323.439H2593.5M2288.15 265.604H2391.17M2288.15 265.604L2263.9 248.343M2288.15 265.604H2185.14M2288.15 265.604L2313.74 283.819M2391.17 265.604L2364.22 248.343M2391.17 265.604L2419.6 283.819M2391.17 265.604H2494.19M2263.9 248.343H2364.22M2263.9 248.343H2163.58M2263.9 248.343L2240.89 231.962M2364.22 248.343L2338.65 231.962M2364.22 248.343H2464.55M2198.2 201.583H2291.23M2198.2 201.583L2178.38 187.473M2198.2 201.583H2105.18M2198.2 201.583L2219.01 216.396M2291.23 201.583L2269.2 187.473M2291.23 201.583L2314.35 216.396M2291.23 201.583H2384.25M2178.38 187.473H2269.2M2178.38 187.473H2087.56M2178.38 187.473L2159.47 174.016M2269.2 187.473L2248.19 174.016M2269.2 187.473H2360.02M2124.17 148.886H2208.96M2124.17 148.886L2107.66 137.137M2124.17 148.886H2039.37M2124.17 148.886L2141.42 161.167M2208.96 148.886L2190.62 137.137M2208.96 148.886L2228.13 161.167M2208.96 148.886H2293.76M2107.66 137.137H2190.62M2107.66 137.137H2024.7M2107.66 137.137L2091.85 125.885M2190.62 137.137L2173.05 125.885M2190.62 137.137H2273.58M2062.16 104.753H2140.06M2062.16 104.753L2048.2 94.8175M2062.16 104.753H1984.25M2062.16 104.753L2076.7 115.1M2140.06 104.753L2124.56 94.8175M2140.06 104.753L2156.22 115.1M2140.06 104.753H2217.97M2048.2 94.8175H2124.56M2048.2 94.8175H1971.84M2048.2 94.8175L2034.79 85.2701M2124.56 94.8175L2109.65 85.2701M2124.56 94.8175H2200.91M2009.47 67.2515H2081.52M2009.47 67.2515L1997.51 58.7409M2009.47 67.2515H1937.42M2009.47 67.2515L2012.53 69.4289L2014.07 70.5265L2021.89 76.0878M2081.52 67.2515L2068.24 58.7409M2081.52 67.2515L2095.32 76.0878M2081.52 67.2515H2153.57M1997.51 58.7409H2068.24M1997.51 58.7409H1926.79M1997.51 58.7409L1985.99 50.5383M2068.24 58.7409L2055.43 50.5383M2068.24 58.7409H2138.96M1964.15 34.9923H2031.16M1964.15 34.9923L1953.79 27.6198M1964.15 34.9923H1897.13M1964.15 34.9923L1974.87 42.6271M2031.16 34.9923L2022.49 29.4398L2021.07 28.5273L2019.65 27.6198M2031.16 34.9923L2043.08 42.6271M2031.16 34.9923H2098.18M1953.79 27.6198H2019.65M1953.79 27.6198L1945.01 21.3741L1943.78 20.497M1953.79 27.6198H1887.92M2019.65 27.6198H2085.52M2019.65 27.6198L2008.54 20.497M2700.22 265.604L2665.19 248.343M2700.22 265.604H2597.2M2700.22 265.604L2720.77 275.729M2700.22 265.604H2720.77M2665.19 248.343H2564.87M2665.19 248.343L2631.95 231.962M2665.19 248.343H2720.77M2570.3 201.583H2663.32M2570.3 201.583L2541.66 187.473M2570.3 201.583H2477.27M2570.3 201.583L2600.35 216.396M2663.32 201.583L2632.48 187.473M2663.32 201.583L2695.69 216.396M2663.32 201.583H2720.77M2541.66 187.473H2632.48M2541.66 187.473H2450.84M2541.66 187.473L2514.35 174.016M2632.48 187.473L2603.07 174.016M2632.48 187.473H2720.77M2463.35 148.886H2548.15M2463.35 148.886L2439.51 137.137M2463.35 148.886H2378.56M2463.35 148.886L2488.27 161.167M2548.15 148.886L2522.47 137.137M2548.15 148.886L2574.99 161.167M2548.15 148.886H2632.94M2439.51 137.137H2522.47M2439.51 137.137H2356.54M2439.51 137.137L2416.67 125.885M2522.47 137.137L2497.88 125.885M2522.47 137.137H2605.43M2373.78 104.753H2451.69M2373.78 104.753L2353.62 94.8175M2373.78 104.753H2295.88M2373.78 104.753L2394.78 115.1M2451.69 104.753L2429.98 94.8175M2451.69 104.753L2474.31 115.1M2451.69 104.753H2529.6M2353.62 94.8175H2429.98M2353.62 94.8175H2277.27M2353.62 94.8175L2334.25 85.2701M2429.98 94.8175L2409.11 85.2701M2429.98 94.8175H2506.33M2297.68 67.2515H2369.73M2297.68 67.2515L2280.41 58.7409M2297.68 67.2515H2225.63M2297.68 67.2515L2315.61 76.0878M2369.73 67.2515L2351.13 58.7409M2369.73 67.2515L2389.05 76.0878M2369.73 67.2515H2441.78M2280.41 58.7409H2351.13M2280.41 58.7409H2209.68M2280.41 58.7409L2263.76 50.5383M2351.13 58.7409L2333.2 50.5383M2351.13 58.7409H2421.86M2232.21 34.9923H2299.23M2232.21 34.9923L2217.25 27.6198M2232.21 34.9923H2165.2M2232.21 34.9923L2247.71 42.6271M2299.23 34.9923L2283.12 27.6198M2299.23 34.9923L2315.92 42.6271M2299.23 34.9923H2366.25M2217.25 27.6198H2283.12M2217.25 27.6198L2202.8 20.497M2217.25 27.6198H2151.39M2283.12 27.6198H2348.98M2283.12 27.6198L2267.55 20.497M2685.41 104.753L2659.04 94.8175M2685.41 104.753H2607.5M2685.41 104.753L2712.87 115.1M2685.41 104.753H2720.77M2659.04 94.8175H2582.69M2659.04 94.8175L2633.71 85.2701M2659.04 94.8175H2720.77M2585.89 67.2515H2657.94M2585.89 67.2515L2563.3 58.7409M2585.89 67.2515H2513.84M2585.89 67.2515L2609.34 76.0878M2657.94 67.2515L2634.03 58.7409M2657.94 67.2515L2682.77 76.0878M2657.94 67.2515H2720.77M2563.3 58.7409H2634.03M2563.3 58.7409H2492.58M2563.3 58.7409L2541.53 50.5383M2634.03 58.7409L2610.98 50.5383M2634.03 58.7409H2704.75M2500.28 34.9923H2567.3M2500.28 34.9923L2480.71 27.6198M2500.28 34.9923H2433.26M2500.28 34.9923L2520.54 42.6271M2567.3 34.9923L2546.58 27.6198M2567.3 34.9923L2588.75 42.6271M2567.3 34.9923H2634.31M2480.71 27.6198H2546.58M2480.71 27.6198L2461.81 20.497M2480.71 27.6198H2414.85M2546.58 27.6198H2612.45M2546.58 27.6198L2526.56 20.497M2588.75 42.6271L2610.98 50.5383M2588.75 42.6271H2656.96M2588.75 42.6271H2520.54M2634.31 34.9923L2612.45 27.6198M2634.31 34.9923L2656.96 42.6271M2634.31 34.9923H2701.33M2612.45 27.6198H2678.31M2612.45 27.6198L2591.32 20.497M2526.56 20.497H2461.81M2526.56 20.497H2591.32M2526.56 20.497L2507.21 13.61M2656.96 42.6271L2680.42 50.5383M2656.96 42.6271H2720.77M2701.33 34.9923L2678.31 27.6198M2701.33 34.9923L2720.77 41.2185M2701.33 34.9923H2720.77M2678.31 27.6198L2656.07 20.497M2678.31 27.6198H2720.77M2591.32 20.497H2656.07M2591.32 20.497L2570.89 13.61M2656.07 20.497L2634.57 13.61M2656.07 20.497H2720.77M2610.98 50.5383H2680.42M2610.98 50.5383H2541.53M2704.75 58.7409L2680.42 50.5383M2704.75 58.7409L2720.77 64.1402M2704.75 58.7409H2720.77M2680.42 50.5383H2720.77M2541.53 50.5383H2472.09M2541.53 50.5383L2520.54 42.6271M2520.54 42.6271H2452.33M2682.77 76.0878L2708.57 85.2701M2682.77 76.0878H2609.34M2682.77 76.0878H2720.77M2720.99 67.2515H2720.77M2708.57 85.2701H2633.71M2708.57 85.2701L2720.77 89.6097M2708.57 85.2701H2720.77M2633.71 85.2701H2558.84M2633.71 85.2701L2609.34 76.0878M2609.34 76.0878H2535.91M2315.92 42.6271L2333.2 50.5383M2315.92 42.6271H2384.12M2315.92 42.6271H2247.71M2366.25 34.9923L2348.98 27.6198M2366.25 34.9923L2384.12 42.6271M2366.25 34.9923H2433.26M2348.98 27.6198H2414.85M2348.98 27.6198L2332.3 20.497M2267.55 20.497H2332.3M2267.55 20.497L2252.5 13.61M2267.55 20.497H2202.8M2384.12 42.6271L2402.65 50.5383M2384.12 42.6271H2452.33M2433.26 34.9923L2414.85 27.6198M2433.26 34.9923L2452.33 42.6271M2414.85 27.6198L2397.06 20.497M2332.3 20.497H2397.06M2332.3 20.497L2316.18 13.61M2452.33 42.6271L2472.09 50.5383M2461.81 20.497H2397.06M2461.81 20.497L2443.53 13.61M2397.06 20.497L2379.85 13.61M2333.2 50.5383H2402.65M2333.2 50.5383H2263.76M2421.86 58.7409L2402.65 50.5383M2421.86 58.7409L2441.78 67.2515M2421.86 58.7409H2492.58M2402.65 50.5383H2472.09M2263.76 50.5383H2194.32M2263.76 50.5383L2247.71 42.6271M2472.09 50.5383L2492.58 58.7409M2247.71 42.6271H2179.5M2441.78 67.2515L2462.48 76.0878M2441.78 67.2515H2513.84M2492.58 58.7409L2513.84 67.2515M2513.84 67.2515L2535.91 76.0878M2389.05 76.0878L2409.11 85.2701M2389.05 76.0878H2462.48M2389.05 76.0878H2315.61M2462.48 76.0878L2483.98 85.2701M2462.48 76.0878H2535.91M2535.91 76.0878L2558.84 85.2701M2409.11 85.2701H2483.98M2409.11 85.2701H2334.25M2506.33 94.8175L2483.98 85.2701M2506.33 94.8175L2529.6 104.753M2506.33 94.8175H2582.69M2483.98 85.2701H2558.84M2334.25 85.2701H2259.38M2334.25 85.2701L2315.61 76.0878M2558.84 85.2701L2582.69 94.8175M2315.61 76.0878H2242.18M2529.6 104.753L2553.83 115.1M2529.6 104.753H2607.5M2582.69 94.8175L2607.5 104.753M2607.5 104.753L2633.35 115.1M2474.31 115.1L2497.88 125.885M2474.31 115.1H2553.83M2474.31 115.1H2394.78M2553.83 115.1L2579.08 125.885M2553.83 115.1H2633.35M2633.35 115.1L2660.29 125.885M2633.35 115.1H2712.87M2712.87 115.1H2720.77M2712.87 115.1L2720.77 118.075M2497.88 125.885H2579.08M2497.88 125.885H2416.67M2605.43 137.137L2579.08 125.885M2605.43 137.137L2632.94 148.886M2605.43 137.137H2688.39M2579.08 125.885H2660.29M2416.67 125.885H2335.47M2416.67 125.885L2394.78 115.1M2660.29 125.885L2688.39 137.137M2660.29 125.885H2720.77M2394.78 115.1H2315.26M2632.94 148.886L2661.7 161.167M2632.94 148.886H2717.74M2688.39 137.137L2717.74 148.886M2688.39 137.137H2720.77M2721.19 125.885H2720.77M2717.74 148.886L2720.77 150.099M2717.74 148.886H2720.77M2574.99 161.167L2603.07 174.016M2574.99 161.167H2661.7M2574.99 161.167H2488.27M2661.7 161.167L2691.79 174.016M2661.7 161.167H2720.77M2721.5 150.392L2720.77 150.099M2603.07 174.016H2691.79M2603.07 174.016H2514.35M2691.79 174.016H2720.77M2691.79 174.016L2720.77 186.392M2514.35 174.016H2425.63M2514.35 174.016L2488.27 161.167M2488.27 161.167H2401.56M2695.69 216.396H2600.35M2695.69 216.396L2720.77 227.87M2695.69 216.396H2720.77M2721.46 201.583H2720.77M2600.35 216.396H2505.02M2600.35 216.396L2631.95 231.962M2721.04 227.996L2720.77 227.87M2043.08 42.6271L2055.43 50.5383M2043.08 42.6271H2111.29M2043.08 42.6271H1974.87M2098.18 34.9923L2085.52 27.6198M2098.18 34.9923L2111.29 42.6271M2098.18 34.9923H2165.2M2085.52 27.6198H2151.39M2085.52 27.6198L2073.29 20.497M2008.54 20.497H2073.29M2008.54 20.497L2004.46 17.8875L1997.78 13.61M2008.54 20.497H1943.78M2111.29 42.6271L2124.88 50.5383M2111.29 42.6271H2179.5M2165.2 34.9923L2151.39 27.6198M2165.2 34.9923L2179.5 42.6271M2151.39 27.6198L2138.04 20.497M2073.29 20.497H2138.04M2073.29 20.497L2061.46 13.61M2179.5 42.6271L2194.32 50.5383M2202.8 20.497L2188.82 13.61M2202.8 20.497H2138.04M2138.04 20.497L2136.41 19.6225L2133.15 17.8875L2125.14 13.61M2055.43 50.5383H2124.88M2055.43 50.5383H1985.99M2138.96 58.7409L2124.88 50.5383M2138.96 58.7409L2153.57 67.2515M2138.96 58.7409H2209.68M2124.88 50.5383H2194.32M1985.99 50.5383H1916.55M1985.99 50.5383L1974.87 42.6271M2194.32 50.5383L2209.68 58.7409M1974.87 42.6271H1906.66M2153.57 67.2515L2168.75 76.0878M2153.57 67.2515H2225.63M2209.68 58.7409L2211.65 59.7865L2225.63 67.2515M2225.63 67.2515L2242.18 76.0878M2095.32 76.0878L2097.08 77.2171L2109.65 85.2701M2095.32 76.0878H2168.75M2095.32 76.0878H2021.89M2168.75 76.0878L2184.52 85.2701M2168.75 76.0878H2242.18M2242.18 76.0878L2259.38 85.2701M2109.65 85.2701H2184.52M2109.65 85.2701H2034.79M2200.91 94.8175L2184.52 85.2701M2200.91 94.8175L2217.97 104.753M2200.91 94.8175H2277.27M2184.52 85.2701H2259.38M2034.79 85.2701H1959.92M2034.79 85.2701L2021.89 76.0878M2259.38 85.2701L2277.27 94.8175M2021.89 76.0878H1948.46M2217.97 104.753L2235.74 115.1M2217.97 104.753H2295.88M2277.27 94.8175L2295.88 104.753M2295.88 104.753L2315.26 115.1M2156.22 115.1L2173.05 125.885M2156.22 115.1H2235.74M2156.22 115.1H2076.7M2235.74 115.1L2254.26 125.885M2235.74 115.1H2315.26M2315.26 115.1L2335.47 125.885M2173.05 125.885H2254.26M2173.05 125.885H2091.85M2273.58 137.137L2254.26 125.885M2273.58 137.137L2293.76 148.886M2273.58 137.137H2356.54M2254.26 125.885H2335.47M2091.85 125.885H2010.64M2091.85 125.885L2076.7 115.1M2335.47 125.885L2356.54 137.137M2076.7 115.1H1997.17M2293.76 148.886L2314.85 161.167M2293.76 148.886H2378.56M2356.54 137.137L2378.56 148.886M2378.56 148.886L2401.56 161.167M2228.13 161.167L2248.19 174.016M2228.13 161.167H2314.85M2228.13 161.167H2141.42M2314.85 161.167L2336.91 174.016M2314.85 161.167H2401.56M2401.56 161.167L2425.63 174.016M2248.19 174.016H2336.91M2248.19 174.016H2159.47M2360.02 187.473L2336.91 174.016M2360.02 187.473L2384.25 201.583M2360.02 187.473H2450.84M2336.91 174.016H2425.63M2159.47 174.016H2070.75M2159.47 174.016L2141.42 161.167M2425.63 174.016L2450.84 187.473M2141.42 161.167H2054.71M2384.25 201.583L2409.68 216.396M2384.25 201.583H2477.27M2450.84 187.473L2477.27 201.583M2477.27 201.583L2505.02 216.396M2314.35 216.396L2338.65 231.962M2314.35 216.396H2409.68M2314.35 216.396H2219.01M2409.68 216.396L2436.42 231.962M2409.68 216.396H2505.02M2505.02 216.396L2534.18 231.962M2338.65 231.962H2436.42M2338.65 231.962H2240.89M2464.55 248.343L2436.42 231.962M2464.55 248.343L2494.19 265.604M2464.55 248.343H2564.87M2436.42 231.962H2534.18M2240.89 231.962H2143.12M2240.89 231.962L2219.01 216.396M2534.18 231.962L2564.87 248.343M2534.18 231.962H2631.95M2219.01 216.396H2123.68M2494.19 265.604L2525.46 283.819M2494.19 265.604H2597.2M2564.87 248.343L2597.2 265.604M2631.95 231.962H2720.77M2597.2 265.604L2631.32 283.819M2419.6 283.819L2449.65 303.066M2419.6 283.819H2525.46M2419.6 283.819H2313.74M2525.46 283.819L2558.51 303.066M2525.46 283.819H2631.32M2631.32 283.819L2667.38 303.066M2631.32 283.819H2720.77M2449.65 303.066H2558.51M2449.65 303.066H2340.78M2593.5 323.439L2558.51 303.066M2593.5 323.439L2630.59 345.037M2593.5 323.439H2705.54M2558.51 303.066H2667.38M2340.78 303.066H2231.92M2340.78 303.066L2313.74 283.819M2667.38 303.066L2705.54 323.439M2667.38 303.066H2720.77M2313.74 283.819H2207.88M2630.59 345.037L2669.98 367.977M2630.59 345.037H2720.77M2705.54 323.439H2720.77M2705.54 323.439L2720.77 331.565M2550.98 367.977L2589.08 392.384M2550.98 367.977H2669.98M2550.98 367.977H2431.98M2669.98 367.977L2711.89 392.384M2669.98 367.977H2720.77M2589.08 392.384H2711.89M2589.08 392.384H2466.27M2711.89 392.384L2720.77 397.553M2711.89 392.384H2720.77M2466.27 392.384H2343.47M2466.27 392.384L2431.98 367.977M2431.98 367.977H2312.98M2719.59 475.982H2583.73M2719.59 475.982H2720.77M2719.59 475.982L2720.77 476.738M2583.73 475.982H2447.87M2583.73 475.982L2628.63 507.942M1770.25 42.6271L1773 45.5599L1773.92 46.5472L1777.66 50.5383M1770.25 42.6271H1838.46M1770.25 42.6271H1702.04M1830.11 34.9923L1824.05 29.4398L1822.06 27.6198M1830.11 34.9923L1837.4 41.6576L1838.46 42.6271M1830.11 34.9923H1897.13M1822.06 27.6198H1887.92M1822.06 27.6198L1814.27 20.497M1749.52 20.497H1814.27M1749.52 20.497L1747.08 17.8875L1743.07 13.61M1749.52 20.497H1684.77M1838.46 42.6271L1840.59 44.5777L1847.1 50.5383M1838.46 42.6271H1906.66M1897.13 34.9923L1887.92 27.6198M1897.13 34.9923L1906.66 42.6271M1887.92 27.6198L1881.22 22.2549L1879.03 20.497M1814.27 20.497H1879.03M1814.27 20.497L1806.75 13.61M1906.66 42.6271L1916.55 50.5383M1943.78 20.497L1942.55 19.6225L1934.11 13.61M1943.78 20.497H1879.03M1879.03 20.497L1875.77 17.8875L1870.43 13.61M1777.66 50.5383H1847.1M1777.66 50.5383H1708.22M1856.07 58.7409L1847.1 50.5383M1856.07 58.7409L1865.37 67.2515M1856.07 58.7409H1926.79M1847.1 50.5383H1916.55M1708.22 50.5383H1638.77M1708.22 50.5383L1702.04 42.6271M1916.55 50.5383L1926.79 58.7409M1702.04 42.6271H1633.83M1865.37 67.2515L1871.36 72.7356L1872.57 73.847L1875.02 76.0878M1865.37 67.2515H1937.42M1926.79 58.7409L1937.42 67.2515M1937.42 67.2515L1948.46 76.0878M1801.59 76.0878L1810.19 85.2701M1801.59 76.0878H1875.02M1801.59 76.0878H1728.16M1875.02 76.0878L1885.06 85.2701M1875.02 76.0878H1948.46M1948.46 76.0878L1959.92 85.2701M1810.19 85.2701H1885.06M1810.19 85.2701H1735.33M1895.49 94.8175L1888.92 88.8062L1887.63 87.6212L1885.06 85.2701M1895.49 94.8175L1906.35 104.753M1895.49 94.8175H1971.84M1885.06 85.2701H1959.92M1735.33 85.2701H1660.46M1735.33 85.2701L1728.16 76.0878M1959.92 85.2701L1971.84 94.8175M1728.16 76.0878H1654.73M1906.35 104.753L1917.65 115.1M1906.35 104.753H1984.25M1971.84 94.8175L1984.25 104.753M1984.25 104.753L1997.17 115.1M1838.13 115.1L1843.13 120.435L1844.39 121.788L1848.23 125.885M1838.13 115.1H1917.65M1838.13 115.1H1758.61M1917.65 115.1L1929.44 125.885M1917.65 115.1H1997.17M1997.17 115.1L2010.64 125.885M1848.23 125.885H1929.44M1848.23 125.885H1767.03M1941.73 137.137L1929.44 125.885M1941.73 137.137L1954.57 148.886M1941.73 137.137H2024.7M1929.44 125.885H2010.64M1767.03 125.885H1685.82M1767.03 125.885L1764.89 123.146L1758.61 115.1M2010.64 125.885L2024.7 137.137M1758.61 115.1H1679.09M1954.57 148.886L1967.99 161.167M1954.57 148.886H2039.37M2024.7 137.137L2039.37 148.886M2039.37 148.886L2054.71 161.167M1881.28 161.167L1893.32 174.016M1881.28 161.167H1967.99M1881.28 161.167H1794.57M1967.99 161.167L1982.03 174.016M1967.99 161.167H2054.71M2054.71 161.167L2070.75 174.016M1893.32 174.016H1982.03M1893.32 174.016H1804.6M1996.74 187.473L1982.03 174.016M1996.74 187.473L2012.16 201.583M1996.74 187.473H2087.56M1982.03 174.016H2070.75M1804.6 174.016H1715.88M1804.6 174.016L1794.57 161.167M2070.75 174.016L2087.56 187.473M1794.57 161.167H1707.85M2012.16 201.583L2028.34 216.396M2012.16 201.583H2105.18M2087.56 187.473L2105.18 201.583M2105.18 201.583L2123.68 216.396M1933.01 216.396L1947.59 231.962M1933.01 216.396H2028.34M1933.01 216.396H1837.68M2028.34 216.396L2045.36 231.962M2028.34 216.396H2123.68M2123.68 216.396L2143.12 231.962M1947.59 231.962H2045.36M1947.59 231.962H1849.83M2063.26 248.343L2045.36 231.962M2063.26 248.343L2082.12 265.604M2063.26 248.343H2163.58M2045.36 231.962H2143.12M1849.83 231.962H1752.06M1849.83 231.962L1837.68 216.396M2143.12 231.962L2163.58 248.343M1837.68 216.396H1742.34M2082.12 265.604L2102.02 283.819M2082.12 265.604H2185.14M2163.58 248.343L2185.14 265.604M2185.14 265.604L2207.88 283.819M1996.16 283.819L2014.19 303.066M1996.16 283.819H2102.02M1996.16 283.819H1890.3M2102.02 283.819L2123.05 303.066M2102.02 283.819H2207.88M2207.88 283.819L2231.92 303.066M2014.19 303.066H2123.05M2014.19 303.066H1905.33M2145.32 323.439L2123.05 303.066M2145.32 323.439L2168.92 345.037M2145.32 323.439H2257.36M2123.05 303.066H2231.92M1905.33 303.066H1796.46M1905.33 303.066L1890.3 283.819M2231.92 303.066L2257.36 323.439M1890.3 283.819H1784.44M2168.92 345.037L2193.99 367.977M2168.92 345.037H2284.34M2257.36 323.439L2284.34 345.037M2284.34 345.037L2312.98 367.977M2074.99 367.977L2097.85 392.384M2074.99 367.977H2193.99M2074.99 367.977H1955.99M2193.99 367.977L2220.66 392.384M2193.99 367.977H2312.98M2312.98 367.977L2343.47 392.384M2097.85 392.384H2220.66M2097.85 392.384H1975.04M2249.09 418.407L2220.66 392.384M2249.09 418.407L2279.48 446.21M2249.09 418.407H2375.97M2220.66 392.384H2343.47M1975.04 392.384H1852.23M1975.04 392.384L1955.99 367.977M2343.47 392.384L2375.97 418.407M1955.99 367.977H1836.99M2279.48 446.21L2312.01 475.982M2279.48 446.21H2410.69M2375.97 418.407L2410.69 446.21M2410.69 446.21L2447.87 475.982M2176.15 475.982L2206.09 507.942M2176.15 475.982H2312.01M2176.15 475.982H2040.29M2312.01 475.982L2346.94 507.942M2312.01 475.982H2447.87M2447.87 475.982L2487.78 507.942M2206.09 507.942H2346.94M2206.09 507.942H2065.24M2384.52 542.338L2346.94 507.942M2384.52 542.338L2425.09 579.462M2384.52 542.338H2530.74M2346.94 507.942H2487.78M2065.24 507.942H1924.39M2065.24 507.942L2040.29 475.982M2487.78 507.942L2530.74 542.338M2487.78 507.942H2628.63M2040.29 475.982H1904.44M2425.09 579.462L2469 619.649M2425.09 579.462H2577.1M2530.74 542.338L2577.1 579.462M2628.63 507.942H2720.77M2577.1 579.462L2627.29 619.649M2577.1 579.462H2720.77M2310.72 619.649L2351.6 663.295M2310.72 619.649H2469M2310.72 619.649H2152.43M2469 619.649L2516.7 663.295M2469 619.649H2627.29M2627.29 619.649L2681.8 663.295M2627.29 619.649H2720.77M2351.6 663.295H2516.7M2351.6 663.295H2186.5M2568.69 710.869L2516.7 663.295M2568.69 710.869L2625.57 762.923M2568.69 710.869H2720.77M2516.7 663.295H2681.8M2186.5 663.295H2021.4M2186.5 663.295L2152.43 619.649M2681.8 663.295H2720.77M2681.8 663.295L2720.77 694.499M2152.43 619.649H1994.14M2625.57 762.923L2688.08 820.125M2625.57 762.923H2720.77M2498.49 820.125L2557.64 883.276M2498.49 820.125H2688.08M2498.49 820.125H2308.91M2688.08 820.125L2720.77 850.042M2688.08 820.125H2720.77M2557.64 883.276H2358.2M2557.64 883.276L2720.77 883.275M2358.2 883.276H2158.76M2358.2 883.276L2308.91 820.125M2308.91 820.125H2119.33M1497.42 42.6271L1497.72 43.6005L1498.03 44.5777L1498.33 45.5599L1498.64 46.5472L1499.57 49.5332L1499.89 50.5383M1497.42 42.6271H1565.63M1497.42 42.6271H1429.21M1562.05 34.9923L1559.45 29.4398L1558.6 27.6198M1562.05 34.9923L1564.27 39.7324L1565.63 42.6271M1562.05 34.9923H1629.07M1558.6 27.6198H1624.46M1558.6 27.6198L1556.08 22.2549L1555.26 20.497M1490.51 20.497L1490.23 19.6225L1489.16 16.1651L1488.36 13.61M1490.51 20.497H1555.26M1490.51 20.497H1425.75M1565.63 42.6271L1566.08 43.6005L1566.54 44.5777L1567 45.5599L1567.46 46.5472L1569.33 50.5383M1565.63 42.6271H1633.83M1629.07 34.9923L1625.6 29.4398L1624.46 27.6198M1629.07 34.9923L1633.83 42.6271M1624.46 27.6198L1622.22 24.028L1620.56 21.3741L1620.01 20.497M1555.26 20.497L1554.85 19.6225L1554.04 17.8875L1553.23 16.1651L1552.83 15.3096L1552.03 13.61M1555.26 20.497H1620.01M1633.83 42.6271L1637.52 48.5332L1638.77 50.5383M1684.77 20.497L1680.72 15.3096L1679.39 13.61M1684.77 20.497H1620.01M1620.01 20.497L1616.24 14.4579L1615.71 13.61M1499.89 50.5383H1569.33M1499.89 50.5383H1430.44M1573.17 58.7409L1569.33 50.5383M1573.17 58.7409L1577.16 67.2515M1573.17 58.7409H1643.89M1569.33 50.5383H1638.77M1430.44 50.5383H1361M1430.44 50.5383L1429.21 42.6271M1638.77 50.5383L1643.89 58.7409M1429.21 42.6271H1361M1577.16 67.2515L1578.18 69.4289L1579.73 72.7356L1581.3 76.0878M1577.16 67.2515H1649.21M1643.89 58.7409L1644.55 59.7865L1649.21 67.2515M1649.21 67.2515L1649.89 68.3377L1650.57 69.4289L1651.25 70.5265L1654.73 76.0878M1507.86 76.0878L1510.73 85.2701M1507.86 76.0878H1581.3M1507.86 76.0878H1434.43M1581.3 76.0878L1585.6 85.2701M1581.3 76.0878H1654.73M1654.73 76.0878L1659.01 82.9407L1659.73 84.1029L1660.46 85.2701M1510.73 85.2701H1585.6M1510.73 85.2701H1435.87M1590.07 94.8175L1590.64 96.038L1591.21 97.2636L1591.79 98.4967L1594.72 104.753M1590.07 94.8175L1587.81 89.9963L1587.25 88.8062L1586.7 87.6212L1585.6 85.2701M1590.07 94.8175H1666.42M1585.6 85.2701H1660.46M1435.87 85.2701H1361M1435.87 85.2701L1434.43 76.0878M1660.46 85.2701L1666.42 94.8175M1434.43 76.0878H1361M1594.72 104.753L1598.95 113.783L1599.57 115.1M1594.72 104.753H1672.63M1666.42 94.8175L1667.95 97.2636L1672.63 104.753M1672.63 104.753L1675.02 108.583L1679.09 115.1M1520.04 115.1L1521.71 120.435L1522.13 121.788L1523.41 125.885M1520.04 115.1H1599.57M1520.04 115.1H1440.52M1599.57 115.1L1604.62 125.885M1599.57 115.1H1679.09M1679.09 115.1L1685.82 125.885M1523.41 125.885H1604.62M1523.41 125.885H1442.21M1609.89 137.137L1604.62 125.885M1609.89 137.137L1615.39 148.886M1609.89 137.137H1692.85M1604.62 125.885H1685.82M1442.21 125.885H1361M1442.21 125.885L1441.78 123.146L1440.94 117.754L1440.52 115.1M1685.82 125.885L1692.85 137.137M1440.52 115.1H1361M1615.39 148.886L1619.68 158.046L1621.14 161.167M1615.39 148.886H1700.19M1692.85 137.137L1700.19 148.886M1700.19 148.886L1703.98 154.958L1707.85 161.167M1534.43 161.167L1538.44 174.016M1534.43 161.167H1621.14M1534.43 161.167H1447.71M1621.14 161.167L1627.16 174.016M1621.14 161.167H1707.85M1707.85 161.167L1715.88 174.016M1538.44 174.016H1627.16M1538.44 174.016H1449.72M1633.46 187.473L1631.86 184.05L1627.16 174.016M1633.46 187.473L1640.07 201.583M1633.46 187.473H1724.28M1627.16 174.016H1715.88M1449.72 174.016H1361M1449.72 174.016L1447.71 161.167M1715.88 174.016L1724.28 187.473M1447.71 161.167H1361M1640.07 201.583L1647 216.396M1640.07 201.583H1733.09M1724.28 187.473L1733.09 201.583M1733.09 201.583L1742.34 216.396M1551.67 216.396L1556.53 231.962M1551.67 216.396H1647M1551.67 216.396H1456.34M1647 216.396L1654.29 231.962M1647 216.396H1742.34M1742.34 216.396L1752.06 231.962M1556.53 231.962H1654.29M1556.53 231.962H1458.76M1661.97 248.343L1654.29 231.962M1661.97 248.343L1670.05 265.604M1661.97 248.343H1762.29M1654.29 231.962H1752.06M1458.76 231.962H1361M1458.76 231.962L1456.63 218.299L1456.34 216.396M1752.06 231.962L1762.29 248.343M1456.34 216.396H1361M1670.05 265.604L1678.58 283.819M1670.05 265.604H1773.07M1762.29 248.343L1770.32 261.203L1773.07 265.604M1773.07 265.604L1784.44 283.819M1572.72 283.819L1578.73 303.066M1572.72 283.819H1678.58M1572.72 283.819H1466.86M1678.58 283.819L1687.6 303.066M1678.58 283.819H1784.44M1784.44 283.819L1796.46 303.066M1578.73 303.066H1687.6M1578.73 303.066H1469.87M1697.14 323.439L1687.6 303.066M1697.14 323.439L1707.25 345.037M1697.14 323.439H1809.18M1687.6 303.066H1796.46M1469.87 303.066H1361M1469.87 303.066L1466.86 283.819M1796.46 303.066L1809.18 323.439M1466.86 283.819H1361M1707.25 345.037L1717.99 367.977M1707.25 345.037H1822.67M1809.18 323.439L1822.67 345.037M1822.67 345.037L1836.99 367.977M1599 367.977L1606.62 392.384M1599 367.977H1717.99M1599 367.977H1480M1717.99 367.977L1729.42 392.384M1717.99 367.977H1836.99M1836.99 367.977L1852.23 392.384M1606.62 392.384H1729.42M1606.62 392.384H1483.81M1741.61 418.407L1729.42 392.384M1741.61 418.407L1754.63 446.21M1741.61 418.407H1868.48M1729.42 392.384H1852.23M1483.81 392.384H1361M1483.81 392.384L1480 367.977M1852.23 392.384L1868.48 418.407M1480 367.977H1361M1754.63 446.21L1768.58 475.982M1754.63 446.21H1885.84M1868.48 418.407L1885.84 446.21M1885.84 446.21L1904.44 475.982M1632.72 475.982L1642.7 507.942M1632.72 475.982H1768.58M1632.72 475.982H1496.86M1768.58 475.982L1783.54 507.942M1768.58 475.982H1904.44M1904.44 475.982L1924.39 507.942M1642.7 507.942H1783.54M1642.7 507.942H1501.85M1799.65 542.338L1783.54 507.942M1799.65 542.338L1817.04 579.462M1799.65 542.338H1945.87M1783.54 507.942H1924.39M1501.85 507.942H1361M1501.85 507.942L1496.86 475.982M1924.39 507.942L1945.87 542.338M1496.86 475.982H1361M1817.04 579.462L1835.86 619.649M1817.04 579.462H1969.05M1945.87 542.338L1969.05 579.462M1969.05 579.462L1994.14 619.649M1677.57 619.649L1691.2 663.295M1677.57 619.649H1835.86M1677.57 619.649H1519.29M1835.86 619.649L1856.3 663.295M1835.86 619.649H1994.14M1994.14 619.649L2021.4 663.295M1691.2 663.295H1856.3M1691.2 663.295H1526.1M1878.58 710.869L1856.3 663.295M1878.58 710.869L1902.96 762.923M1878.58 710.869H2051.11M1856.3 663.295H2021.4M1526.1 663.295H1361M1526.1 663.295L1519.29 619.649M2021.4 663.295L2051.11 710.869M1519.29 619.649H1361M1902.96 762.923L1929.75 820.125M1902.96 762.923H2083.61M2051.11 710.869L2083.61 762.923M2083.61 762.923L2119.33 820.125M1740.16 820.125L1759.88 883.276M1740.16 820.125H1929.75M1740.16 820.125H1550.58M1929.75 820.125L1959.32 883.276M1929.75 820.125H2119.33M2119.33 820.125L2158.76 883.276M1959.32 883.276H1759.88M1959.32 883.276H2158.76M1759.88 883.276H1560.44M1560.44 883.276H1361M1560.44 883.276L1550.58 820.125M1550.58 820.125H1361M1224.58 42.6271L1224.28 43.6005L1223.98 44.5777L1223.67 45.5599L1223.36 46.5472L1222.74 48.5332L1222.43 49.5332L1222.11 50.5383M1224.58 42.6271H1292.79M1224.58 42.6271H1156.38M1293.98 34.9923L1295.14 27.6198M1293.98 34.9923L1292.79 42.6271M1293.98 34.9923H1361M1295.14 27.6198L1295.28 26.7162L1295.42 25.8163L1295.56 24.9203L1296.25 20.497M1295.14 27.6198H1361M1231.49 20.497L1231.77 19.6225L1232.84 16.1651L1233.64 13.61M1231.49 20.497H1296.25M1231.49 20.497H1166.74M1292.79 42.6271L1292.64 43.6005L1292.49 44.5777L1292.33 45.5599L1291.56 50.5383M1292.79 42.6271H1361M1361 34.9923V27.6198M1361 34.9923V42.6271M1361 27.6198V20.497M1296.25 20.497H1361M1296.25 20.497L1296.65 17.8875L1296.79 17.0244L1297.32 13.61M1361 42.6271V50.5383M1425.75 20.497L1425.35 17.8875L1425.21 17.0244L1425.08 16.1651L1424.94 15.3096L1424.81 14.4579L1424.68 13.61M1425.75 20.497H1361M1361 20.497V13.61M1222.11 50.5383H1291.56M1222.11 50.5383H1152.67M1290.28 58.7409L1290.11 59.7865L1289.95 60.8385L1288.95 67.2515M1290.28 58.7409L1291.56 50.5383M1290.28 58.7409H1361M1291.56 50.5383H1361M1152.67 50.5383H1083.23M1152.67 50.5383L1153.61 48.5332L1154.08 47.5383L1154.54 46.5472L1155 45.5599L1155.46 44.5777L1155.92 43.6005L1156.38 42.6271M1361 50.5383V58.7409M1156.38 42.6271H1088.17M1288.95 67.2515L1287.57 76.0878M1288.95 67.2515H1361M1361 58.7409V67.2515M1361 67.2515V76.0878M1214.14 76.0878L1211.27 85.2701M1214.14 76.0878H1287.57M1214.14 76.0878H1140.71M1287.57 76.0878L1286.14 85.2701M1287.57 76.0878H1361M1361 76.0878V85.2701M1211.27 85.2701H1286.14M1211.27 85.2701H1136.4M1284.65 94.8175L1286.14 85.2701M1284.65 94.8175L1283.09 104.753M1284.65 94.8175H1361M1286.14 85.2701H1361M1136.4 85.2701H1061.54M1136.4 85.2701L1140.71 76.0878M1361 85.2701V94.8175M1140.71 76.0878H1067.27M1283.09 104.753L1282.5 108.583L1281.89 112.472L1281.48 115.1M1283.09 104.753H1361M1361 94.8175V104.753M1361 104.753V115.1M1201.96 115.1L1200.29 120.435L1199.87 121.788L1198.59 125.885M1201.96 115.1H1281.48M1201.96 115.1H1122.43M1281.48 115.1L1281.06 117.754L1280.22 123.146L1279.8 125.885M1281.48 115.1H1361M1361 115.1V125.885M1198.59 125.885H1279.8M1198.59 125.885H1117.38M1278.04 137.137L1278.26 135.704L1279.8 125.885M1278.04 137.137L1276.2 148.886M1278.04 137.137H1361M1279.8 125.885H1361M1117.38 125.885H1036.18M1117.38 125.885L1122.43 115.1M1361 125.885V137.137M1122.43 115.1H1042.91M1276.2 148.886L1274.29 161.167M1276.2 148.886H1361M1361 137.137V148.886M1361 148.886V161.167M1187.57 161.167L1183.56 174.016M1187.57 161.167H1274.29M1187.57 161.167H1100.86M1274.29 161.167L1272.28 174.016M1274.29 161.167H1361M1361 161.167V174.016M1183.56 174.016H1272.28M1183.56 174.016H1094.84M1270.18 187.473L1272.28 174.016M1270.18 187.473L1267.98 201.583M1270.18 187.473H1361M1272.28 174.016H1361M1094.84 174.016H1006.12M1094.84 174.016L1100.86 161.167M1361 174.016V187.473M1100.86 161.167H1014.15M1267.98 201.583L1265.66 216.396M1267.98 201.583H1361M1361 187.473V201.583M1361 201.583V216.396M1170.33 216.396L1165.47 231.962M1170.33 216.396H1265.66M1170.33 216.396H1075M1265.66 216.396L1263.24 231.962M1265.66 216.396H1361M1361 216.396V231.962M1165.47 231.962H1263.24M1165.47 231.962H1067.71M1260.68 248.343L1263.24 231.962M1260.68 248.343L1257.98 265.604M1260.68 248.343H1361M1263.24 231.962H1361M1067.71 231.962H969.939M1067.71 231.962L1075 216.396M1361 231.962V248.343M1075 216.396H979.66M1257.98 265.604L1255.14 283.819M1257.98 265.604H1361M1361 248.343V265.604M1361 265.604V283.819M1149.28 283.819L1143.27 303.066M1149.28 283.819H1255.14M1149.28 283.819H1043.42M1255.14 283.819L1252.14 303.066M1255.14 283.819H1361M1361 283.819V303.066M1143.27 303.066H1252.14M1143.27 303.066H1034.41M1248.96 323.439L1252.14 303.066M1248.96 323.439L1245.58 345.037M1248.96 323.439H1361M1252.14 303.066H1361M1034.41 303.066H925.54M1034.41 303.066L1043.42 283.819M1361 303.066V323.439M1043.42 283.819H937.559M1245.58 345.037L1242 367.977M1245.58 345.037H1361M1361 323.439V345.037M1361 345.037V367.977M1123 367.977L1115.38 392.384M1123 367.977H1242M1123 367.977H1004.01M1242 367.977L1238.19 392.384M1242 367.977H1361M1361 367.977V392.384M1115.38 392.384H1238.19M1115.38 392.384H992.575M1234.13 418.407L1238.19 392.384M1234.13 418.407L1229.79 446.21M1234.13 418.407H1361M1238.19 392.384H1361M992.575 392.384H869.767M992.575 392.384L1004.01 367.977M1361 392.384V418.407M1004.01 367.977H885.008M1229.79 446.21L1225.14 475.982M1229.79 446.21H1361M1361 418.407V446.21M1361 446.21V475.982M1089.28 475.982L1079.3 507.942M1089.28 475.982H1225.14M1089.28 475.982H953.424M1225.14 475.982L1220.15 507.942M1225.14 475.982H1361M1361 475.982V507.942M1079.3 507.942H1220.15M1079.3 507.942H938.457M1214.78 542.338L1220.15 507.942M1214.78 542.338L1208.99 579.462M1214.78 542.338H1361M1220.15 507.942H1361M938.457 507.942H797.609M938.457 507.942L953.424 475.982M1361 507.942V542.338M953.424 475.982H817.565M1208.99 579.462L1202.71 619.649M1208.99 579.462H1361M1361 542.338V579.462M1361 579.462V619.649M1044.43 619.649L1030.8 663.295M1044.43 619.649H1202.71M1044.43 619.649H886.141M1202.71 619.649L1195.9 663.295M1202.71 619.649H1361M1361 619.649V663.295M1030.8 663.295H1195.9M1030.8 663.295H865.701M1188.47 710.869L1195.9 663.295M1188.47 710.869L1180.35 762.923M1188.47 710.869H1361M1195.9 663.295H1361M865.701 663.295H700.601M865.701 663.295L886.141 619.649M1361 663.295V710.869M886.141 619.649H727.856M1180.35 762.923L1171.42 820.125M1180.35 762.923H1361M1361 710.869V762.923M1361 762.923V820.125M981.836 820.125L962.119 883.276M981.836 820.125H1171.42M981.836 820.125H792.253M1171.42 820.125L1161.56 883.276M1171.42 820.125H1361M1361 820.125V883.276M1161.56 883.276H962.119M1161.56 883.276H1361M962.119 883.276H762.678M762.678 883.276H563.237M762.678 883.276L792.253 820.125M792.253 820.125H602.67M951.751 42.6271L948.08 46.5472L944.342 50.5383M951.751 42.6271H1019.96M951.751 42.6271H883.543M1025.92 34.9923L1031.67 27.6198M1025.92 34.9923L1019.96 42.6271M1025.92 34.9923H1092.93M1031.67 27.6198H1097.54M1031.67 27.6198L1035.86 22.2549L1037.23 20.497M972.479 20.497H1037.23M972.479 20.497L974.924 17.8875L978.93 13.61M972.479 20.497H907.726M1019.96 42.6271L1013.78 50.5383M1019.96 42.6271H1088.17M1092.93 34.9923L1097.54 27.6198M1092.93 34.9923L1088.17 42.6271M1097.54 27.6198L1099.78 24.028L1101.44 21.3741L1101.99 20.497M1037.23 20.497H1101.99M1037.23 20.497L1041.28 15.3096L1042.61 13.61M1088.17 42.6271L1084.48 48.5332L1083.23 50.5383M1166.74 20.497L1167.15 19.6225L1167.96 17.8875L1169.17 15.3096L1169.97 13.61M1166.74 20.497H1101.99M1101.99 20.497L1102.53 19.6225L1103.62 17.8875L1106.29 13.61M944.342 50.5383H1013.78M944.342 50.5383H874.897M1007.38 58.7409L1008.2 57.6991L1009 56.6611L1012.21 52.5598L1013.78 50.5383M1007.38 58.7409L1002.42 65.0931L1000.74 67.2515M1007.38 58.7409H1078.11M1013.78 50.5383H1083.23M874.897 50.5383H805.454M874.897 50.5383L881.41 44.5777L883.543 42.6271M1083.23 50.5383L1078.11 58.7409M883.543 42.6271H815.334M1000.74 67.2515L999.891 68.3377L999.039 69.4289L996.459 72.7356L995.59 73.847L993.842 76.0878M1000.74 67.2515H1072.79M1078.11 58.7409L1077.45 59.7865L1072.79 67.2515M1072.79 67.2515L1072.11 68.3377L1071.43 69.4289L1070.75 70.5265L1067.27 76.0878M920.41 76.0878L911.809 85.2701M920.41 76.0878H993.842M920.41 76.0878H846.978M993.842 76.0878L986.675 85.2701M993.842 76.0878H1067.27M1067.27 76.0878L1061.54 85.2701M911.809 85.2701H986.675M911.809 85.2701H836.944M979.223 94.8175L986.675 85.2701M979.223 94.8175L971.468 104.753M979.223 94.8175H1055.58M986.675 85.2701H1061.54M836.944 85.2701H762.079M836.944 85.2701L846.978 76.0878M1061.54 85.2701L1055.58 94.8175M846.978 76.0878H773.545M971.468 104.753L963.391 115.1M971.468 104.753H1049.37M1055.58 94.8175L1054.05 97.2636L1049.37 104.753M1049.37 104.753L1046.98 108.583L1044.55 112.472L1042.91 115.1M883.869 115.1L878.87 120.435L873.767 125.885M883.869 115.1H963.391M883.869 115.1H804.347M963.391 115.1L954.972 125.885M963.391 115.1H1042.91M1042.91 115.1L1036.18 125.885M873.767 125.885H954.972M873.767 125.885H792.562M946.19 137.137L954.972 125.885M946.19 137.137L937.019 148.886M946.19 137.137H1029.15M954.972 125.885H1036.18M792.562 125.885H711.355M792.562 125.885L804.347 115.1M1036.18 125.885L1029.15 137.137M804.347 115.1H724.826M937.019 148.886L934.662 151.905L927.434 161.167M937.019 148.886H1021.81M1029.15 137.137L1021.81 148.886M1021.81 148.886L1020.88 150.392L1018.02 154.958L1014.15 161.167M840.721 161.167L828.685 174.016M840.721 161.167H927.434M840.721 161.167H754.007M927.434 161.167L917.404 174.016M927.434 161.167H1014.15M1014.15 161.167L1006.12 174.016M828.685 174.016H917.404M828.685 174.016H739.966M906.9 187.473L913.523 178.989L917.404 174.016M906.9 187.473L895.886 201.583M906.9 187.473H997.72M917.404 174.016H1006.12M739.966 174.016H651.247M739.966 174.016L754.007 161.167M1006.12 174.016L997.72 187.473M754.007 161.167H667.293M895.886 201.583L884.325 216.396M895.886 201.583H988.91M997.72 187.473L988.91 201.583M988.91 201.583L979.66 216.396M788.99 216.396L774.409 231.962M788.99 216.396H884.325M788.99 216.396H693.656M884.325 216.396L872.175 231.962M884.325 216.396H979.66M979.66 216.396L969.939 231.962M774.409 231.962H872.175M774.409 231.962H676.645M859.389 248.343L872.175 231.962M859.389 248.343L845.916 265.604M859.389 248.343H959.712M872.175 231.962H969.939M676.645 231.962H578.88M676.645 231.962L693.656 216.396M969.939 231.962L959.712 248.343M693.656 216.396H598.321M845.916 265.604L831.699 283.819M845.916 265.604H948.932M959.712 248.343L948.932 265.604M948.932 265.604L937.559 283.819M725.839 283.819L707.81 303.066M725.839 283.819H831.699M725.839 283.819H619.978M831.699 283.819L816.675 303.066M831.699 283.819H937.559M937.559 283.819L925.54 303.066M707.81 303.066H816.675M707.81 303.066H598.945M800.773 323.439L816.675 303.066M800.773 323.439L783.915 345.037M800.773 323.439H912.819M816.675 303.066H925.54M598.945 303.066H490.08M598.945 303.066L619.978 283.819M925.54 303.066L912.819 323.439M619.978 283.819H514.118M783.915 345.037L766.01 367.977M783.915 345.037H899.332M912.819 323.439L899.332 345.037M899.332 345.037L885.008 367.977M647.012 367.977L624.151 392.384M647.012 367.977H766.01M647.012 367.977H528.014M766.01 367.977L746.959 392.384M766.01 367.977H885.008M885.008 367.977L869.767 392.384M624.151 392.384H746.959M624.151 392.384H501.342M726.647 418.407L746.959 392.384M726.647 418.407L704.945 446.21M726.647 418.407H853.518M746.959 392.384H869.767M501.342 392.384H378.534M501.342 392.384L528.014 367.977M869.767 392.384L853.518 418.407M528.014 367.977H409.015M704.945 446.21L681.707 475.982M704.945 446.21H836.157M853.518 418.407L836.157 446.21M836.157 446.21L817.565 475.982M545.848 475.982L515.913 507.942M545.848 475.982H681.707M545.848 475.982H409.989M681.707 475.982L656.761 507.942M681.707 475.982H817.565M817.565 475.982L797.609 507.942M515.913 507.942H656.761M515.913 507.942H375.065M629.913 542.338L656.761 507.942M629.913 542.338L600.937 579.462M629.913 542.338H776.13M656.761 507.942H797.609M375.065 507.942H234.217M375.065 507.942L409.989 475.982M797.609 507.942L776.13 542.338M409.989 475.982H274.129M600.937 579.462L569.569 619.649M600.937 579.462H752.949M776.13 542.338L752.949 579.462M752.949 579.462L727.856 619.649M411.283 619.649L370.401 663.295M411.283 619.649H569.569M411.283 619.649H252.996M569.569 619.649L535.501 663.295M569.569 619.649H727.856M727.856 619.649L700.601 663.295M370.401 663.295H535.501M370.401 663.295H205.301M498.368 710.869L535.501 663.295M498.368 710.869L457.736 762.923M498.368 710.869H670.894M535.501 663.295H700.601M205.301 663.295H40.2011M205.301 663.295L252.996 619.649M700.601 663.295L670.894 710.869M252.996 619.649H94.7108M457.736 762.923L413.089 820.125M457.736 762.923H638.39M670.894 710.869L638.39 762.923M638.39 762.923L602.67 820.125M223.506 820.125L164.356 883.276M223.506 820.125H413.089M223.506 820.125H33.9235M413.089 820.125L363.798 883.276M413.089 820.125H602.67M602.67 820.125L563.237 883.276M363.798 883.276H164.356M363.798 883.276H563.237M164.356 883.276L1.23243 883.275M33.9235 820.125L1.23243 850.042M33.9235 820.125H1.23243M678.918 42.6271L666.568 50.5383M678.918 42.6271H747.126M678.918 42.6271H610.71M757.853 34.9923L768.211 27.6198M757.853 34.9923L747.126 42.6271M757.853 34.9923H824.869M768.211 27.6198H834.076M768.211 27.6198L778.219 20.497M713.465 20.497H778.219M713.465 20.497L717.54 17.8875L724.217 13.61M713.465 20.497H648.711M747.126 42.6271L736.011 50.5383M747.126 42.6271H815.334M824.869 34.9923L834.076 27.6198M824.869 34.9923L815.334 42.6271M834.076 27.6198L840.777 22.2549L842.973 20.497M778.219 20.497L779.446 19.6225L787.895 13.61M778.219 20.497H842.973M815.334 42.6271L805.454 50.5383M907.726 20.497L915.251 13.61M907.726 20.497H842.973M842.973 20.497L846.232 17.8875L851.573 13.61M666.568 50.5383H736.011M666.568 50.5383H597.125M724.487 58.7409L736.011 50.5383M724.487 58.7409L712.53 67.2515M724.487 58.7409H795.211M736.011 50.5383H805.454M597.125 50.5383H527.682M597.125 50.5383L610.71 42.6271M805.454 50.5383L795.211 58.7409M610.71 42.6271H542.502M712.53 67.2515L709.469 69.4289L700.113 76.0878M712.53 67.2515H784.582M795.211 58.7409L784.582 67.2515M784.582 67.2515L773.545 76.0878M626.682 76.0878L624.921 77.2171L612.349 85.2701M626.682 76.0878H700.113M626.682 76.0878H553.25M700.113 76.0878L687.214 85.2701M700.113 76.0878H773.545M773.545 76.0878L772.137 77.2171L762.079 85.2701M612.349 85.2701H687.214M612.349 85.2701H537.484M673.8 94.8175L687.214 85.2701M673.8 94.8175L659.842 104.753M673.8 94.8175H750.156M687.214 85.2701H762.079M537.484 85.2701H462.619M537.484 85.2701L553.25 76.0878M762.079 85.2701L750.156 94.8175M553.25 76.0878H479.818M659.842 104.753L645.303 115.1M659.842 104.753H737.748M750.156 94.8175L737.748 104.753M737.748 104.753L724.826 115.1M565.783 115.1L548.945 125.885M565.783 115.1H645.303M565.783 115.1H486.26M645.303 115.1L630.151 125.885M645.303 115.1H724.826M724.826 115.1L711.355 125.885M548.945 125.885H630.151M548.945 125.885H467.739M614.342 137.137L630.151 125.885M614.342 137.137L597.833 148.886M614.342 137.137H697.303M630.151 125.885H711.355M467.739 125.885H386.534M467.739 125.885L486.26 115.1M711.355 125.885L697.303 137.137M486.26 115.1H406.738M597.833 148.886L580.58 161.167M597.833 148.886H682.63M697.303 137.137L682.63 148.886M682.63 148.886L667.293 161.167M493.866 161.167L473.808 174.016M493.866 161.167H580.58M493.866 161.167H407.153M580.58 161.167L562.528 174.016M580.58 161.167H667.293M667.293 161.167L651.247 174.016M473.808 174.016H562.528M473.808 174.016H385.089M543.62 187.473L562.528 174.016M543.62 187.473L523.795 201.583M543.62 187.473H634.439M562.528 174.016H651.247M385.089 174.016H296.37M385.089 174.016L407.153 161.167M651.247 174.016L634.439 187.473M407.153 161.167H320.439M523.795 201.583L502.985 216.396M523.795 201.583H616.818M634.439 187.473L616.818 201.583M616.818 201.583L598.321 216.396M407.65 216.396L383.35 231.962M407.65 216.396H502.985M407.65 216.396H312.316M502.985 216.396L481.114 231.962M502.985 216.396H598.321M598.321 216.396L578.88 231.962M383.35 231.962H481.114M383.35 231.962H285.584M458.099 248.343L481.114 231.962M458.099 248.343L433.848 265.604M458.099 248.343H558.421M481.114 231.962H578.88M285.584 231.962H187.819M285.584 231.962L312.316 216.396M578.88 231.962L558.421 248.343M312.316 216.396H216.981M433.848 265.604L408.258 283.819M433.848 265.604H536.865M558.421 248.343L536.865 265.604M536.865 265.604L514.118 283.819M302.397 283.819L272.35 303.066M302.397 283.819H408.258M302.397 283.819H196.538M408.258 283.819L381.215 303.066M408.258 283.819H514.118M514.118 283.819L490.08 303.066M272.35 303.066H381.215M272.35 303.066H163.485M352.592 323.439L381.215 303.066M352.592 323.439L322.247 345.037M352.592 323.439H464.637M381.215 303.066H490.08M163.485 303.066H54.6203M163.485 303.066L196.538 283.819M490.08 303.066L464.637 323.439M196.538 283.819H90.6768M322.247 345.037L290.017 367.977M322.247 345.037H437.664M464.637 323.439L437.664 345.037M437.664 345.037L409.015 367.977M171.019 367.977L132.917 392.384M171.019 367.977H290.017M171.019 367.977H52.0212M290.017 367.977L255.726 392.384M290.017 367.977H409.015M409.015 367.977L378.534 392.384M132.917 392.384H255.726M132.917 392.384H10.1092M219.164 418.407L255.726 392.384M219.164 418.407L180.101 446.21M219.164 418.407H346.034M255.726 392.384H378.534M10.1092 392.384L52.0212 367.977M10.1092 392.384H1.23243M10.1092 392.384L1.23243 397.553M378.534 392.384L346.034 418.407M52.0212 367.977H1.23243M180.101 446.21L138.272 475.982M180.101 446.21H311.312M346.034 418.407L311.312 446.21M311.312 446.21L274.129 475.982M2.41232 475.982H138.272M2.41232 475.982H1.23243M2.41232 475.982L1.23243 476.738M138.272 475.982L93.368 507.942M138.272 475.982H274.129M274.129 475.982L234.217 507.942M45.0424 542.338L93.368 507.942M45.0424 542.338H191.26M45.0424 542.338H1.23243M45.0424 542.338L1.23243 573.521M93.368 507.942H234.217M93.368 507.942H1.23243M234.217 507.942L191.26 542.338M191.26 542.338L144.899 579.462M144.899 579.462L94.7108 619.649M144.899 579.462H1.23243M94.7108 619.649L40.2011 663.295M94.7108 619.649H1.23243M40.2011 663.295H1.23243M40.2011 663.295L1.23243 694.499M406.085 42.6271L388.796 50.5383M406.085 42.6271H474.294M406.085 42.6271H337.877M489.787 34.9923L504.749 27.6198M489.787 34.9923L474.294 42.6271M489.787 34.9923H556.804M504.749 27.6198H570.614M504.749 27.6198L519.205 20.497M454.452 20.497H519.205M454.452 20.497L469.502 13.61M454.452 20.497H389.698M474.294 42.6271L458.239 50.5383M474.294 42.6271H542.502M556.804 34.9923L570.614 27.6198M556.804 34.9923L542.502 42.6271M570.614 27.6198L583.958 20.497M519.205 20.497L520.977 19.6225L533.181 13.61M519.205 20.497H583.958M542.502 42.6271L527.682 50.5383M648.711 20.497L660.537 13.61M648.711 20.497H583.958M583.958 20.497L585.594 19.6225L596.859 13.61M388.796 50.5383H458.239M388.796 50.5383H319.353M441.592 58.7409L458.239 50.5383M441.592 58.7409L424.32 67.2515M441.592 58.7409H512.317M458.239 50.5383H527.682M319.353 50.5383H249.91M319.353 50.5383L337.877 42.6271M527.682 50.5383L512.317 58.7409M337.877 42.6271H269.669M424.32 67.2515L406.387 76.0878M424.32 67.2515H496.372M512.317 58.7409L510.355 59.7865L496.372 67.2515M496.372 67.2515L479.818 76.0878M332.955 76.0878L312.888 85.2701M332.955 76.0878H406.387M332.955 76.0878H259.523M406.387 76.0878L387.754 85.2701M406.387 76.0878H479.818M479.818 76.0878L462.619 85.2701M312.888 85.2701H387.754M312.888 85.2701H238.023M368.378 94.8175L387.754 85.2701M368.378 94.8175L348.215 104.753M368.378 94.8175H444.733M387.754 85.2701H462.619M238.023 85.2701H163.158M238.023 85.2701L259.523 76.0878M462.619 85.2701L444.733 94.8175M259.523 76.0878H186.091M348.215 104.753L327.217 115.1M348.215 104.753H426.122M444.733 94.8175L426.122 104.753M426.122 104.753L406.738 115.1M247.695 115.1L224.122 125.885M247.695 115.1H327.217M247.695 115.1H168.172M327.217 115.1L305.329 125.885M327.217 115.1H406.738M406.738 115.1L386.534 125.885M224.122 125.885H305.329M224.122 125.885H142.917M282.493 137.137L305.329 125.885M282.493 137.137L258.649 148.886M282.493 137.137H365.456M305.329 125.885H386.534M142.917 125.885H61.7123M142.917 125.885L168.172 115.1M386.534 125.885L365.456 137.137M168.172 115.1H88.6513M258.649 148.886L233.726 161.167M258.649 148.886H343.445M365.456 137.137L343.445 148.886M343.445 148.886L320.439 161.167M147.012 161.167L118.932 174.016M147.012 161.167H233.726M147.012 161.167H60.3002M233.726 161.167L207.651 174.016M233.726 161.167H320.439M320.439 161.167L296.37 174.016M118.932 174.016H207.651M180.339 187.473L207.651 174.016M180.339 187.473L151.705 201.583M180.339 187.473H271.16M207.651 174.016H296.37M296.37 174.016L271.16 187.473M60.3002 161.167H1.23243M151.705 201.583L121.646 216.396M151.705 201.583H244.727M271.16 187.473L244.727 201.583M244.727 201.583L216.981 216.396M26.3102 216.396H121.646M26.3102 216.396H1.23243M26.3102 216.396L1.23243 227.87M121.646 216.396L90.0536 231.962M121.646 216.396H216.981M216.981 216.396L187.819 231.962M56.8101 248.343L90.0536 231.962M56.8101 248.343L21.7805 265.604M56.8101 248.343H157.133M56.8101 248.343H1.23243M90.0536 231.962H187.819M90.0536 231.962H1.23243M187.819 231.962L157.133 248.343M0.956231 227.996L1.23243 227.87M21.7805 265.604H124.797M21.7805 265.604H1.23243M21.7805 265.604L1.23243 275.729M157.133 248.343L124.797 265.604M124.797 265.604L90.6768 283.819M90.6768 283.819L54.6203 303.066M90.6768 283.819H1.23243M16.4562 323.439L54.6203 303.066M16.4562 323.439H1.23243M16.4562 323.439L1.23243 331.565M54.6203 303.066H1.23243M133.253 42.6271L111.024 50.5383M133.253 42.6271H201.461M133.253 42.6271H65.0438M221.722 34.9923L241.287 27.6198M221.722 34.9923L201.461 42.6271M221.722 34.9923H288.738M241.287 27.6198H307.152M241.287 27.6198L260.19 20.497M195.437 20.497H260.19M195.437 20.497L214.788 13.61M195.437 20.497H130.684M201.461 42.6271L180.467 50.5383M201.461 42.6271H269.669M288.738 34.9923L307.152 27.6198M288.738 34.9923L269.669 42.6271M307.152 27.6198L324.944 20.497M260.19 20.497H324.944M260.19 20.497L278.468 13.61M269.669 42.6271L249.91 50.5383M389.698 20.497L405.824 13.61M389.698 20.497H324.944M324.944 20.497L342.146 13.61M111.024 50.5383H180.467M111.024 50.5383H41.5807M158.698 58.7409L180.467 50.5383M158.698 58.7409L136.111 67.2515M158.698 58.7409H229.421M180.467 50.5383H249.91M41.5807 50.5383L65.0438 42.6271M41.5807 50.5383H1.23243M249.91 50.5383L229.421 58.7409M65.0438 42.6271H1.23243M136.111 67.2515L112.66 76.0878M136.111 67.2515H208.164M229.421 58.7409L208.164 67.2515M208.164 67.2515L186.091 76.0878M39.228 76.0878L13.4278 85.2701M39.228 76.0878H112.66M39.228 76.0878H1.23243M112.66 76.0878L88.293 85.2701M112.66 76.0878H186.091M186.091 76.0878L163.158 85.2701M62.956 94.8175L88.293 85.2701M62.956 94.8175L36.5892 104.753M62.956 94.8175H139.311M62.956 94.8175H1.23243M88.293 85.2701H13.4278M88.293 85.2701H163.158M13.4278 85.2701L1.23243 89.6097M13.4278 85.2701H1.23243M163.158 85.2701L139.311 94.8175M36.5892 104.753L9.129 115.1M36.5892 104.753H114.495M36.5892 104.753H1.23243M139.311 94.8175L114.495 104.753M114.495 104.753L88.6513 115.1M9.129 115.1H88.6513M9.129 115.1L1.23243 118.075M9.129 115.1H1.23243M88.6513 115.1L61.7123 125.885M33.6076 137.137L61.7123 125.885M33.6076 137.137L4.26075 148.886M33.6076 137.137H1.23243M61.7123 125.885H1.23243M0.807501 125.885H1.23243M4.26075 148.886H1.23243M4.26075 148.886L1.23243 150.099M0.500133 150.392L1.23243 150.099M20.6729 34.9923L43.6898 27.6198M20.6729 34.9923H1.23243M20.6729 34.9923L1.23243 41.2185M43.6898 27.6198L65.9305 20.497M43.6898 27.6198H1.23243M130.684 20.497L151.11 13.61M130.684 20.497H65.9305M65.9305 20.497L87.4318 13.61M65.9305 20.497H1.23243M2252.5 13.61H2316.18M2252.5 13.61H2188.82M2300.58 6.94852L2304.43 8.59361L2316.18 13.61M2300.58 6.94852H2363.22M2316.18 13.61H2379.85M2363.22 6.94852L2367.32 8.59361L2369.39 9.41997L2379.85 13.61M2379.85 13.61H2443.53M2443.53 13.61H2507.21M2188.82 13.61H2125.14M2507.21 13.61H2570.89M2570.89 13.61L2551.13 6.94852M2570.89 13.61H2634.57M2551.13 6.94852H2613.77M1997.78 13.61H2061.46M1997.78 13.61H1934.11M2050.02 6.94852L2052.85 8.59361L2054.27 9.41997L2061.46 13.61M2050.02 6.94852H2112.66M2061.46 13.61H2125.14M2112.66 6.94852L2125.14 13.61M1934.11 13.61H1870.43M1743.07 13.61H1806.75M1743.07 13.61H1679.39M1799.47 6.94852L1800.37 7.76853L1801.27 8.59361L1802.17 9.41997L1806.75 13.61M1799.47 6.94852H1862.11M1806.75 13.61H1870.43M1862.11 6.94852L1870.43 13.61M1679.39 13.61H1615.71M1488.36 13.61H1552.03M1488.36 13.61H1424.68M1548.92 6.94852L1552.03 13.61M1548.92 6.94852H1611.55M1552.03 13.61H1615.71M1611.55 6.94852L1612.07 7.76853L1612.58 8.59361L1613.1 9.41997L1615.71 13.61M1424.68 13.61H1361M1233.64 13.61H1297.32M1233.64 13.61H1169.97M1298.36 6.94852L1297.32 13.61M1298.36 6.94852H1361M1297.32 13.61H1361M1361 6.94852V13.61M1169.97 13.61H1106.29M978.93 13.61H1042.61M978.93 13.61H915.251M1047.81 6.94852L1046.52 8.59361L1043.92 11.9231L1042.61 13.61M1047.81 6.94852H1110.45M1042.61 13.61H1106.29M1110.45 6.94852L1109.93 7.76853L1109.42 8.59361L1108.9 9.41997L1106.29 13.61M915.251 13.61H851.573M724.217 13.61H787.895M724.217 13.61H660.537M797.255 6.94852L794.943 8.59361L793.78 9.41997L787.895 13.61M797.255 6.94852H859.893M787.895 13.61H851.573M859.893 6.94852L858.868 7.76853L851.573 13.61M660.537 13.61H596.859M469.502 13.61H533.181M469.502 13.61H405.824M546.7 6.94852L543.362 8.59361L541.682 9.41997L533.181 13.61M546.7 6.94852H609.339M533.181 13.61H596.859M609.339 6.94852L607.801 7.76853L596.859 13.61M405.824 13.61H342.146M214.788 13.61H278.468M214.788 13.61H151.11M296.146 6.94852L278.468 13.61M296.146 6.94852H358.785M278.468 13.61H342.146M358.785 6.94852L354.677 8.59361L352.609 9.41997L342.146 13.61M151.11 13.61H87.4318M45.5934 6.94852L23.7536 13.61M45.5934 6.94852H108.232M45.5934 6.94852H1.23243M23.7536 13.61H87.4318M23.7536 13.61L1.23243 20.4802M23.7536 13.61H1.23243M108.232 6.94852L103.096 8.59361L87.4318 13.61M2613.77 6.94852L2618.9 8.59361L2634.57 13.61M2634.57 13.61H2698.25M2698.25 13.61L2720.77 20.4802M2698.25 13.61H2720.77M2720.77 331.565V323.439M2720.77 331.565V345.037M2720.77 323.439V303.066M2720.77 345.037V349.063V367.977M2720.77 367.977V392.384M2720.77 174.016V161.167M2720.77 174.016V186.392M2720.77 6.94852V13.61M2720.77 13.61V20.4802M2720.77 20.4802L2720.82 20.497H2720.77M2720.77 20.4802V20.497M2720.77 20.497V27.6198M2720.77 27.6198V34.9923M2720.77 34.9923V41.2185M2720.77 41.2185V42.6271M2720.77 42.6271V50.5383M2720.77 50.5383V58.7409M2720.77 58.7409V64.1402M2720.77 64.1402V67.2515M2720.77 67.2515V76.0878M2720.77 76.0878V85.2701M2720.77 85.2701V89.6097M2720.77 89.6097V94.8175M2720.77 94.8175V104.753M2720.77 104.753V115.1M2720.77 115.1V118.075M2720.77 118.075V125.885M2720.77 125.885V137.137M2720.77 137.137V148.886M2720.77 148.886V150.099M2720.77 150.099V161.167M2720.77 187.473V201.583M2720.77 187.473V186.392M2720.77 201.583V216.396M2720.77 216.396V227.87M2720.77 227.87V231.962M2720.77 231.962V248.343M2720.77 248.343V265.604M2720.77 265.604V275.729M2720.77 275.729V283.819M2720.77 283.819V303.066M2720.77 392.384V397.553M2720.77 397.553V418.407M2720.77 418.407V446.21M2720.77 446.21V475.982M2720.77 475.982V476.738M2720.77 476.738V507.942M2720.77 507.942V542.338M2720.77 542.338V573.521M2720.77 573.521V579.462M2720.77 579.462V619.649M2720.77 619.649V663.295M2720.77 663.295V694.499M2720.77 694.499V710.869M2720.77 710.869V762.923M2720.77 762.923V820.125M2720.77 820.125V850.042M2720.77 850.042V883.275M2720.77 883.275V883.5H1.23243V883.275M1.23243 187.473V201.583M1.23243 187.473V186.392M1.23243 186.392V174.016M1.23243 174.016V161.167M1.23243 161.167V150.099M1.23243 150.099V148.886M1.23243 148.886V137.137M1.23243 137.137V125.885M1.23243 125.885V118.075M1.23243 118.075V115.1M1.23243 115.1V104.753M1.23243 104.753V94.8175M1.23243 94.8175V89.6097M1.23243 89.6097V85.2701M1.23243 85.2701V76.0878M1.23243 76.0878V67.2515M1.23243 67.2515V64.1402M1.23243 64.1402V58.7409M1.23243 58.7409V50.5383M1.23243 50.5383V42.6271M1.23243 42.6271V41.2185M1.23243 41.2185V34.9923M1.23243 34.9923V27.6198M1.23243 27.6198V20.497M1.23243 20.497H1.17719L1.23243 20.4802M1.23243 20.497V20.4802M1.23243 20.4802V13.61M1.23243 13.61V6.94852M1.23243 883.275V850.042M1.23243 850.042V820.125M1.23243 820.125V762.924M1.23243 762.924V710.869M1.23243 710.869V694.499M1.23243 694.499V663.295M1.23243 663.295V619.649M1.23243 619.649V579.462M1.23243 579.462V573.521M1.23243 573.521V542.338M1.23243 542.338V507.942M1.23243 507.942V476.738M1.23243 476.738V475.982M1.23243 475.982V446.21M1.23243 446.21V418.407M1.23243 418.407V397.553M1.23243 397.553V392.384M1.23243 392.384V367.977M1.23243 367.977V345.037M1.23243 345.037V331.565M1.23243 331.565V323.439M1.23243 323.439V303.066M1.23243 303.066V283.819M1.23243 283.819V275.729M1.23243 275.729V265.604M1.23243 265.604V248.343M1.23243 248.343V231.962M1.23243 231.962V227.87M1.23243 227.87V216.396M1.23243 216.396V201.583" stroke="url(#paint0_linear_1240_483)" stroke-miterlimit="10" stroke-linecap="round" stroke-linejoin="round"/>
<defs>
<linearGradient id="paint0_linear_1240_483" x1="1361" y1="0.5" x2="1361" y2="619.591" gradientUnits="userSpaceOnUse">
<stop stop-color="white" stop-opacity="0.01"/>
<stop offset="1" stop-color="white" stop-opacity="0.06"/>
</linearGradient>
</defs>
</svg>
