<svg width="180" height="180" viewBox="0 0 180 180" fill="none" xmlns="http://www.w3.org/2000/svg">
<rect width="180" height="180" fill="white"/>
<path fill-rule="evenodd" clip-rule="evenodd" d="M163.997 59.9195C164.062 61.9941 163.2 63.8394 161.24 64.9296L141.897 75.6806L159.466 85.558C161.449 86.6722 162.504 88.7772 162.338 90.879C162.492 93.0449 161.662 94.9928 159.657 96.1215L93.1315 133.325C91.7448 134.106 90.1919 134.447 88.7667 134.056C88.129 133.881 87.5518 133.667 86.9456 133.325L20.5337 95.9916C18.5512 94.8774 17.4969 92.7692 17.6623 90.6674C17.5089 88.5015 18.3384 86.5568 20.3426 85.4281L38.1054 75.4434L18.9551 64.7981C18.385 64.4807 17.892 64.0863 17.4784 63.6342C17.2994 63.4626 17.1348 63.2783 16.9878 63.0811C16.8353 62.8775 16.7012 62.6626 16.5888 62.435C16.5342 62.2923 16.4836 62.1496 16.4362 62.0069L16.3342 61.7472L16.2628 61.5388C16.229 61.4346 16.1993 61.3288 16.172 61.2213L16.1271 61.029C16.0307 60.5865 15.989 60.1312 16.0034 59.6743C15.9384 57.5997 16.7999 55.7544 18.7599 54.6642L86.683 16.9104C87.2531 16.5929 88.1556 16.2719 88.7667 16.1549C89.6756 15.9801 90.3662 15.9189 91.2333 16.1549C91.8939 16.3346 92.5036 16.6972 93.1243 17.0418L161.045 54.7957C161.147 54.8518 161.246 54.9111 161.342 54.9737C161.434 55.0314 161.523 55.0907 161.609 55.1516C161.69 55.2093 161.768 55.2686 161.845 55.3296C162.09 55.5236 162.317 55.7352 162.523 55.9612C162.683 56.1151 162.83 56.2771 162.964 56.4486C163.137 56.6698 163.287 56.9071 163.411 57.1588C163.466 57.3015 163.516 57.4426 163.563 57.5853C163.872 58.3212 164.022 59.1179 163.997 59.9195ZM33.9301 90.6706L90 122.839L146.07 90.879L130.562 81.9812L93.0833 102.615C91.6645 103.404 90.6167 103.848 89.075 103.54C88.4069 103.431 87.5373 102.96 86.9167 102.615L49.5169 81.7856L33.9301 90.6706Z" fill="black"/>
<path d="M20.8484 120.894C22.3756 118.326 25.7528 117.459 28.3921 118.925L90 153.874L151.789 119.051C154.429 117.582 158.147 118.619 159.333 121.019C160.455 123.955 159.93 126.885 157.282 128.357L93.0833 163.955C91.744 164.701 90.4521 165.254 89.075 164.88C89.0037 164.861 88.533 164.721 88.15 164.572C87.9556 164.496 87.3446 164.193 86.9167 163.955L22.9016 128.234C20.2518 126.76 19.318 123.475 20.8484 120.894Z" fill="black"/>
</svg>
