<svg width="142" height="142" viewBox="0 0 142 142" fill="none" xmlns="http://www.w3.org/2000/svg">
<rect x="142" y="124" width="16" height="16" transform="rotate(-180 142 124)" fill="#252525" fill-opacity="0.5"/>
<rect x="124" y="124" width="16" height="16" transform="rotate(-180 124 124)" fill="#252525" fill-opacity="0.5"/>
<rect x="106" y="124" width="16" height="16" transform="rotate(-180 106 124)" fill="#252525" fill-opacity="0.5"/>
<g opacity="0.3" filter="url(#filter0_i_5193_1403)">
<rect x="88" y="124" width="16" height="16" transform="rotate(-180 88 124)" fill="white"/>
</g>
<g opacity="0.3" filter="url(#filter1_i_5193_1403)">
<rect x="70" y="124" width="16" height="16" transform="rotate(-180 70 124)" fill="white"/>
</g>
<rect x="52" y="124" width="16" height="16" transform="rotate(-180 52 124)" fill="#252525" fill-opacity="0.5"/>
<rect x="34" y="124" width="16" height="16" transform="rotate(-180 34 124)" fill="#252525" fill-opacity="0.5"/>
<rect x="16" y="124" width="16" height="16" transform="rotate(-180 16 124)" fill="#252525" fill-opacity="0.5"/>
<rect x="142" y="142" width="16" height="16" transform="rotate(-180 142 142)" fill="#252525" fill-opacity="0.5"/>
<rect x="124" y="142" width="16" height="16" transform="rotate(-180 124 142)" fill="#252525" fill-opacity="0.5"/>
<rect x="106" y="142" width="16" height="16" transform="rotate(-180 106 142)" fill="#252525" fill-opacity="0.5"/>
<rect x="88" y="142" width="16" height="16" transform="rotate(-180 88 142)" fill="#252525" fill-opacity="0.5"/>
<rect x="70" y="142" width="16" height="16" transform="rotate(-180 70 142)" fill="#252525" fill-opacity="0.5"/>
<rect x="52" y="142" width="16" height="16" transform="rotate(-180 52 142)" fill="#252525" fill-opacity="0.5"/>
<rect x="34" y="142" width="16" height="16" transform="rotate(-180 34 142)" fill="#252525" fill-opacity="0.5"/>
<rect x="16" y="142" width="16" height="16" transform="rotate(-180 16 142)" fill="#252525" fill-opacity="0.5"/>
<rect x="142" y="106" width="16" height="16" transform="rotate(-180 142 106)" fill="#252525" fill-opacity="0.5"/>
<rect x="124" y="106" width="16" height="16" transform="rotate(-180 124 106)" fill="#252525" fill-opacity="0.5"/>
<g opacity="0.5" filter="url(#filter2_i_5193_1403)">
<rect x="106" y="106" width="16" height="16" transform="rotate(-180 106 106)" fill="white"/>
</g>
<rect x="88" y="106" width="16" height="16" transform="rotate(-180 88 106)" fill="#252525" fill-opacity="0.5"/>
<rect x="70" y="106" width="16" height="16" transform="rotate(-180 70 106)" fill="#252525" fill-opacity="0.5"/>
<g opacity="0.5" filter="url(#filter3_i_5193_1403)">
<rect x="52" y="106" width="16" height="16" transform="rotate(-180 52 106)" fill="white"/>
</g>
<rect x="34" y="106" width="16" height="16" transform="rotate(-180 34 106)" fill="#252525" fill-opacity="0.5"/>
<rect x="16" y="106" width="16" height="16" transform="rotate(-180 16 106)" fill="#252525" fill-opacity="0.5"/>
<rect x="142" y="88" width="16" height="16" transform="rotate(-180 142 88)" fill="#252525" fill-opacity="0.5"/>
<g opacity="0.7" filter="url(#filter4_i_5193_1403)">
<rect x="124" y="88" width="16" height="16" transform="rotate(-180 124 88)" fill="white"/>
</g>
<rect x="106" y="88" width="16" height="16" transform="rotate(-180 106 88)" fill="#252525" fill-opacity="0.5"/>
<rect x="88" y="88" width="16" height="16" transform="rotate(-180 88 88)" fill="#252525" fill-opacity="0.5"/>
<rect x="70" y="88" width="16" height="16" transform="rotate(-180 70 88)" fill="#252525" fill-opacity="0.5"/>
<rect x="52" y="88" width="16" height="16" transform="rotate(-180 52 88)" fill="#252525" fill-opacity="0.5"/>
<g opacity="0.7" filter="url(#filter5_i_5193_1403)">
<rect x="34" y="88" width="16" height="16" transform="rotate(-180 34 88)" fill="white"/>
</g>
<rect x="16" y="88" width="16" height="16" transform="rotate(-180 16 88)" fill="#252525" fill-opacity="0.5"/>
<rect x="142" y="70" width="16" height="16" transform="rotate(-180 142 70)" fill="#252525" fill-opacity="0.5"/>
<g opacity="0.8" filter="url(#filter6_i_5193_1403)">
<rect x="124" y="70" width="16" height="16" transform="rotate(-180 124 70)" fill="white"/>
</g>
<rect x="106" y="70" width="16" height="16" transform="rotate(-180 106 70)" fill="#252525" fill-opacity="0.5"/>
<rect x="88" y="70" width="16" height="16" transform="rotate(-180 88 70)" fill="#252525" fill-opacity="0.5"/>
<rect x="70" y="70" width="16" height="16" transform="rotate(-180 70 70)" fill="#252525" fill-opacity="0.5"/>
<rect x="52" y="70" width="16" height="16" transform="rotate(-180 52 70)" fill="#252525" fill-opacity="0.5"/>
<g opacity="0.8" filter="url(#filter7_i_5193_1403)">
<rect x="34" y="70" width="16" height="16" transform="rotate(-180 34 70)" fill="white"/>
</g>
<rect x="16" y="70" width="16" height="16" transform="rotate(-180 16 70)" fill="#252525" fill-opacity="0.5"/>
<rect x="142" y="52" width="16" height="16" transform="rotate(-180 142 52)" fill="#252525" fill-opacity="0.5"/>
<rect x="124" y="52" width="16" height="16" transform="rotate(-180 124 52)" fill="#252525" fill-opacity="0.5"/>
<g opacity="0.9" filter="url(#filter8_i_5193_1403)">
<rect x="106" y="52" width="16" height="16" transform="rotate(-180 106 52)" fill="white"/>
</g>
<rect x="88" y="52" width="16" height="16" transform="rotate(-180 88 52)" fill="#252525" fill-opacity="0.5"/>
<rect x="70" y="52" width="16" height="16" transform="rotate(-180 70 52)" fill="#252525" fill-opacity="0.5"/>
<g opacity="0.9" filter="url(#filter9_i_5193_1403)">
<rect x="52" y="52" width="16" height="16" transform="rotate(-180 52 52)" fill="white"/>
</g>
<rect x="34" y="52" width="16" height="16" transform="rotate(-180 34 52)" fill="#252525" fill-opacity="0.5"/>
<rect x="16" y="52" width="16" height="16" transform="rotate(-180 16 52)" fill="#252525" fill-opacity="0.5"/>
<rect x="142" y="34" width="16" height="16" transform="rotate(-180 142 34)" fill="#252525" fill-opacity="0.5"/>
<rect x="124" y="34" width="16" height="16" transform="rotate(-180 124 34)" fill="#252525" fill-opacity="0.5"/>
<rect x="106" y="34" width="16" height="16" transform="rotate(-180 106 34)" fill="#252525" fill-opacity="0.5"/>
<g filter="url(#filter10_i_5193_1403)">
<rect x="88" y="34" width="16" height="16" transform="rotate(-180 88 34)" fill="white"/>
</g>
<g filter="url(#filter11_i_5193_1403)">
<rect x="70" y="34" width="16" height="16" transform="rotate(-180 70 34)" fill="white"/>
</g>
<rect x="52" y="34" width="16" height="16" transform="rotate(-180 52 34)" fill="#252525" fill-opacity="0.5"/>
<rect x="34" y="34" width="16" height="16" transform="rotate(-180 34 34)" fill="#252525" fill-opacity="0.5"/>
<rect x="16" y="34" width="16" height="16" transform="rotate(-180 16 34)" fill="#252525" fill-opacity="0.5"/>
<rect x="142" y="16" width="16" height="16" transform="rotate(-180 142 16)" fill="#252525" fill-opacity="0.5"/>
<rect x="124" y="16" width="16" height="16" transform="rotate(-180 124 16)" fill="#252525" fill-opacity="0.5"/>
<rect x="106" y="16" width="16" height="16" transform="rotate(-180 106 16)" fill="#252525" fill-opacity="0.5"/>
<rect x="88" y="16" width="16" height="16" transform="rotate(-180 88 16)" fill="#252525" fill-opacity="0.5"/>
<rect x="70" y="16" width="16" height="16" transform="rotate(-180 70 16)" fill="#252525" fill-opacity="0.5"/>
<rect x="52" y="16" width="16" height="16" transform="rotate(-180 52 16)" fill="#252525" fill-opacity="0.5"/>
<rect x="34" y="16" width="16" height="16" transform="rotate(-180 34 16)" fill="#252525" fill-opacity="0.5"/>
<rect x="16" y="16" width="16" height="16" transform="rotate(-180 16 16)" fill="#252525" fill-opacity="0.5"/>
<g filter="url(#filter12_i_5193_1403)">
<rect x="79" y="78" width="16" height="16" transform="rotate(-180 79 78)" fill="white"/>
</g>
<defs>
<filter id="filter0_i_5193_1403" x="72" y="108" width="16" height="16" filterUnits="userSpaceOnUse" color-interpolation-filters="sRGB">
<feFlood flood-opacity="0" result="BackgroundImageFix"/>
<feBlend mode="normal" in="SourceGraphic" in2="BackgroundImageFix" result="shape"/>
<feColorMatrix in="SourceAlpha" type="matrix" values="0 0 0 0 0 0 0 0 0 0 0 0 0 0 0 0 0 0 127 0" result="hardAlpha"/>
<feOffset/>
<feGaussianBlur stdDeviation="6"/>
<feComposite in2="hardAlpha" operator="arithmetic" k2="-1" k3="1"/>
<feColorMatrix type="matrix" values="0 0 0 0 1 0 0 0 0 1 0 0 0 0 1 0 0 0 0.3 0"/>
<feBlend mode="plus-lighter" in2="shape" result="effect1_innerShadow_5193_1403"/>
</filter>
<filter id="filter1_i_5193_1403" x="54" y="108" width="16" height="16" filterUnits="userSpaceOnUse" color-interpolation-filters="sRGB">
<feFlood flood-opacity="0" result="BackgroundImageFix"/>
<feBlend mode="normal" in="SourceGraphic" in2="BackgroundImageFix" result="shape"/>
<feColorMatrix in="SourceAlpha" type="matrix" values="0 0 0 0 0 0 0 0 0 0 0 0 0 0 0 0 0 0 127 0" result="hardAlpha"/>
<feOffset/>
<feGaussianBlur stdDeviation="6"/>
<feComposite in2="hardAlpha" operator="arithmetic" k2="-1" k3="1"/>
<feColorMatrix type="matrix" values="0 0 0 0 1 0 0 0 0 1 0 0 0 0 1 0 0 0 0.3 0"/>
<feBlend mode="plus-lighter" in2="shape" result="effect1_innerShadow_5193_1403"/>
</filter>
<filter id="filter2_i_5193_1403" x="90" y="90" width="16" height="16" filterUnits="userSpaceOnUse" color-interpolation-filters="sRGB">
<feFlood flood-opacity="0" result="BackgroundImageFix"/>
<feBlend mode="normal" in="SourceGraphic" in2="BackgroundImageFix" result="shape"/>
<feColorMatrix in="SourceAlpha" type="matrix" values="0 0 0 0 0 0 0 0 0 0 0 0 0 0 0 0 0 0 127 0" result="hardAlpha"/>
<feOffset/>
<feGaussianBlur stdDeviation="6"/>
<feComposite in2="hardAlpha" operator="arithmetic" k2="-1" k3="1"/>
<feColorMatrix type="matrix" values="0 0 0 0 1 0 0 0 0 1 0 0 0 0 1 0 0 0 0.3 0"/>
<feBlend mode="plus-lighter" in2="shape" result="effect1_innerShadow_5193_1403"/>
</filter>
<filter id="filter3_i_5193_1403" x="36" y="90" width="16" height="16" filterUnits="userSpaceOnUse" color-interpolation-filters="sRGB">
<feFlood flood-opacity="0" result="BackgroundImageFix"/>
<feBlend mode="normal" in="SourceGraphic" in2="BackgroundImageFix" result="shape"/>
<feColorMatrix in="SourceAlpha" type="matrix" values="0 0 0 0 0 0 0 0 0 0 0 0 0 0 0 0 0 0 127 0" result="hardAlpha"/>
<feOffset/>
<feGaussianBlur stdDeviation="6"/>
<feComposite in2="hardAlpha" operator="arithmetic" k2="-1" k3="1"/>
<feColorMatrix type="matrix" values="0 0 0 0 1 0 0 0 0 1 0 0 0 0 1 0 0 0 0.3 0"/>
<feBlend mode="plus-lighter" in2="shape" result="effect1_innerShadow_5193_1403"/>
</filter>
<filter id="filter4_i_5193_1403" x="108" y="72" width="16" height="16" filterUnits="userSpaceOnUse" color-interpolation-filters="sRGB">
<feFlood flood-opacity="0" result="BackgroundImageFix"/>
<feBlend mode="normal" in="SourceGraphic" in2="BackgroundImageFix" result="shape"/>
<feColorMatrix in="SourceAlpha" type="matrix" values="0 0 0 0 0 0 0 0 0 0 0 0 0 0 0 0 0 0 127 0" result="hardAlpha"/>
<feOffset/>
<feGaussianBlur stdDeviation="6"/>
<feComposite in2="hardAlpha" operator="arithmetic" k2="-1" k3="1"/>
<feColorMatrix type="matrix" values="0 0 0 0 1 0 0 0 0 1 0 0 0 0 1 0 0 0 0.3 0"/>
<feBlend mode="plus-lighter" in2="shape" result="effect1_innerShadow_5193_1403"/>
</filter>
<filter id="filter5_i_5193_1403" x="18" y="72" width="16" height="16" filterUnits="userSpaceOnUse" color-interpolation-filters="sRGB">
<feFlood flood-opacity="0" result="BackgroundImageFix"/>
<feBlend mode="normal" in="SourceGraphic" in2="BackgroundImageFix" result="shape"/>
<feColorMatrix in="SourceAlpha" type="matrix" values="0 0 0 0 0 0 0 0 0 0 0 0 0 0 0 0 0 0 127 0" result="hardAlpha"/>
<feOffset/>
<feGaussianBlur stdDeviation="6"/>
<feComposite in2="hardAlpha" operator="arithmetic" k2="-1" k3="1"/>
<feColorMatrix type="matrix" values="0 0 0 0 1 0 0 0 0 1 0 0 0 0 1 0 0 0 0.3 0"/>
<feBlend mode="plus-lighter" in2="shape" result="effect1_innerShadow_5193_1403"/>
</filter>
<filter id="filter6_i_5193_1403" x="108" y="54" width="16" height="16" filterUnits="userSpaceOnUse" color-interpolation-filters="sRGB">
<feFlood flood-opacity="0" result="BackgroundImageFix"/>
<feBlend mode="normal" in="SourceGraphic" in2="BackgroundImageFix" result="shape"/>
<feColorMatrix in="SourceAlpha" type="matrix" values="0 0 0 0 0 0 0 0 0 0 0 0 0 0 0 0 0 0 127 0" result="hardAlpha"/>
<feOffset/>
<feGaussianBlur stdDeviation="6"/>
<feComposite in2="hardAlpha" operator="arithmetic" k2="-1" k3="1"/>
<feColorMatrix type="matrix" values="0 0 0 0 1 0 0 0 0 1 0 0 0 0 1 0 0 0 0.3 0"/>
<feBlend mode="plus-lighter" in2="shape" result="effect1_innerShadow_5193_1403"/>
</filter>
<filter id="filter7_i_5193_1403" x="18" y="54" width="16" height="16" filterUnits="userSpaceOnUse" color-interpolation-filters="sRGB">
<feFlood flood-opacity="0" result="BackgroundImageFix"/>
<feBlend mode="normal" in="SourceGraphic" in2="BackgroundImageFix" result="shape"/>
<feColorMatrix in="SourceAlpha" type="matrix" values="0 0 0 0 0 0 0 0 0 0 0 0 0 0 0 0 0 0 127 0" result="hardAlpha"/>
<feOffset/>
<feGaussianBlur stdDeviation="6"/>
<feComposite in2="hardAlpha" operator="arithmetic" k2="-1" k3="1"/>
<feColorMatrix type="matrix" values="0 0 0 0 1 0 0 0 0 1 0 0 0 0 1 0 0 0 0.3 0"/>
<feBlend mode="plus-lighter" in2="shape" result="effect1_innerShadow_5193_1403"/>
</filter>
<filter id="filter8_i_5193_1403" x="90" y="36" width="16" height="16" filterUnits="userSpaceOnUse" color-interpolation-filters="sRGB">
<feFlood flood-opacity="0" result="BackgroundImageFix"/>
<feBlend mode="normal" in="SourceGraphic" in2="BackgroundImageFix" result="shape"/>
<feColorMatrix in="SourceAlpha" type="matrix" values="0 0 0 0 0 0 0 0 0 0 0 0 0 0 0 0 0 0 127 0" result="hardAlpha"/>
<feOffset/>
<feGaussianBlur stdDeviation="6"/>
<feComposite in2="hardAlpha" operator="arithmetic" k2="-1" k3="1"/>
<feColorMatrix type="matrix" values="0 0 0 0 1 0 0 0 0 1 0 0 0 0 1 0 0 0 0.3 0"/>
<feBlend mode="plus-lighter" in2="shape" result="effect1_innerShadow_5193_1403"/>
</filter>
<filter id="filter9_i_5193_1403" x="36" y="36" width="16" height="16" filterUnits="userSpaceOnUse" color-interpolation-filters="sRGB">
<feFlood flood-opacity="0" result="BackgroundImageFix"/>
<feBlend mode="normal" in="SourceGraphic" in2="BackgroundImageFix" result="shape"/>
<feColorMatrix in="SourceAlpha" type="matrix" values="0 0 0 0 0 0 0 0 0 0 0 0 0 0 0 0 0 0 127 0" result="hardAlpha"/>
<feOffset/>
<feGaussianBlur stdDeviation="6"/>
<feComposite in2="hardAlpha" operator="arithmetic" k2="-1" k3="1"/>
<feColorMatrix type="matrix" values="0 0 0 0 1 0 0 0 0 1 0 0 0 0 1 0 0 0 0.3 0"/>
<feBlend mode="plus-lighter" in2="shape" result="effect1_innerShadow_5193_1403"/>
</filter>
<filter id="filter10_i_5193_1403" x="72" y="18" width="16" height="16" filterUnits="userSpaceOnUse" color-interpolation-filters="sRGB">
<feFlood flood-opacity="0" result="BackgroundImageFix"/>
<feBlend mode="normal" in="SourceGraphic" in2="BackgroundImageFix" result="shape"/>
<feColorMatrix in="SourceAlpha" type="matrix" values="0 0 0 0 0 0 0 0 0 0 0 0 0 0 0 0 0 0 127 0" result="hardAlpha"/>
<feOffset/>
<feGaussianBlur stdDeviation="6"/>
<feComposite in2="hardAlpha" operator="arithmetic" k2="-1" k3="1"/>
<feColorMatrix type="matrix" values="0 0 0 0 1 0 0 0 0 1 0 0 0 0 1 0 0 0 0.3 0"/>
<feBlend mode="plus-lighter" in2="shape" result="effect1_innerShadow_5193_1403"/>
</filter>
<filter id="filter11_i_5193_1403" x="54" y="18" width="16" height="16" filterUnits="userSpaceOnUse" color-interpolation-filters="sRGB">
<feFlood flood-opacity="0" result="BackgroundImageFix"/>
<feBlend mode="normal" in="SourceGraphic" in2="BackgroundImageFix" result="shape"/>
<feColorMatrix in="SourceAlpha" type="matrix" values="0 0 0 0 0 0 0 0 0 0 0 0 0 0 0 0 0 0 127 0" result="hardAlpha"/>
<feOffset/>
<feGaussianBlur stdDeviation="6"/>
<feComposite in2="hardAlpha" operator="arithmetic" k2="-1" k3="1"/>
<feColorMatrix type="matrix" values="0 0 0 0 1 0 0 0 0 1 0 0 0 0 1 0 0 0 0.3 0"/>
<feBlend mode="plus-lighter" in2="shape" result="effect1_innerShadow_5193_1403"/>
</filter>
<filter id="filter12_i_5193_1403" x="63" y="62" width="16" height="16" filterUnits="userSpaceOnUse" color-interpolation-filters="sRGB">
<feFlood flood-opacity="0" result="BackgroundImageFix"/>
<feBlend mode="normal" in="SourceGraphic" in2="BackgroundImageFix" result="shape"/>
<feColorMatrix in="SourceAlpha" type="matrix" values="0 0 0 0 0 0 0 0 0 0 0 0 0 0 0 0 0 0 127 0" result="hardAlpha"/>
<feOffset/>
<feGaussianBlur stdDeviation="6"/>
<feComposite in2="hardAlpha" operator="arithmetic" k2="-1" k3="1"/>
<feColorMatrix type="matrix" values="0 0 0 0 1 0 0 0 0 1 0 0 0 0 1 0 0 0 0.3 0"/>
<feBlend mode="plus-lighter" in2="shape" result="effect1_innerShadow_5193_1403"/>
</filter>
</defs>
</svg>
