<svg width="41" height="40" viewBox="0 0 41 40" fill="none" xmlns="http://www.w3.org/2000/svg">
<rect width="4.50706" height="4.50695" transform="matrix(1 0 0 -1 0 34.9286)" fill="#252525" fill-opacity="0.5"/>
<rect width="4.50706" height="4.50695" transform="matrix(1 0 0 -1 5.0708 34.9286)" fill="#252525" fill-opacity="0.5"/>
<rect width="4.50706" height="4.50695" transform="matrix(1 0 0 -1 10.1406 34.9286)" fill="#252525" fill-opacity="0.5"/>
<rect width="4.50706" height="4.50695" transform="matrix(1 0 0 -1 15.2119 34.9286)" fill="#252525" fill-opacity="0.5"/>
<rect width="4.50706" height="4.50695" transform="matrix(1 0 0 -1 20.2812 34.9286)" fill="#252525" fill-opacity="0.5"/>
<rect width="4.50706" height="4.50695" transform="matrix(1 0 0 -1 25.3525 34.9286)" fill="#252525" fill-opacity="0.5"/>
<rect width="4.50706" height="4.50695" transform="matrix(1 0 0 -1 30.4224 34.9286)" fill="#252525" fill-opacity="0.5"/>
<rect width="4.50706" height="4.50695" transform="matrix(1 0 0 -1 35.4932 34.9286)" fill="#252525" fill-opacity="0.5"/>
<rect width="4.50706" height="4.50695" transform="matrix(1 0 0 -1 0 40)" fill="#252525" fill-opacity="0.5"/>
<rect width="4.50706" height="4.50695" transform="matrix(1 0 0 -1 5.0708 40)" fill="#252525" fill-opacity="0.5"/>
<rect width="4.50706" height="4.50695" transform="matrix(1 0 0 -1 10.1406 40)" fill="#252525" fill-opacity="0.5"/>
<rect width="4.50706" height="4.50695" transform="matrix(1 0 0 -1 15.2119 40)" fill="#252525" fill-opacity="0.5"/>
<rect width="4.50706" height="4.50695" transform="matrix(1 0 0 -1 20.2812 40)" fill="#252525" fill-opacity="0.5"/>
<rect width="4.50706" height="4.50695" transform="matrix(1 0 0 -1 25.3525 40)" fill="#252525" fill-opacity="0.5"/>
<rect width="4.50706" height="4.50695" transform="matrix(1 0 0 -1 30.4224 40)" fill="#252525" fill-opacity="0.5"/>
<rect width="4.50706" height="4.50695" transform="matrix(1 0 0 -1 35.4932 40)" fill="#252525" fill-opacity="0.5"/>
<rect width="4.50706" height="4.50695" transform="matrix(1 0 0 -1 0 29.8584)" fill="#252525" fill-opacity="0.5"/>
<rect width="4.50706" height="4.50695" transform="matrix(1 0 0 -1 5.0708 29.8584)" fill="#252525" fill-opacity="0.5"/>
<rect width="4.50706" height="4.50695" transform="matrix(1 0 0 -1 10.1406 29.8584)" fill="#252525" fill-opacity="0.5"/>
<rect width="4.50706" height="4.50695" transform="matrix(1 0 0 -1 15.2119 29.8584)" fill="#252525" fill-opacity="0.5"/>
<rect width="4.50706" height="4.50695" transform="matrix(1 0 0 -1 20.2812 29.8584)" fill="#252525" fill-opacity="0.5"/>
<g opacity="0.8" filter="url(#filter0_i_5169_1607)">
<rect width="4.50706" height="4.50695" transform="matrix(1 0 0 -1 25.3525 29.8584)" fill="white"/>
</g>
<rect width="4.50706" height="4.50695" transform="matrix(1 0 0 -1 30.4224 29.8584)" fill="#252525" fill-opacity="0.5"/>
<rect width="4.50706" height="4.50695" transform="matrix(1 0 0 -1 35.4932 29.8584)" fill="#252525" fill-opacity="0.5"/>
<g opacity="0.3" filter="url(#filter1_i_5169_1607)">
<rect width="4.50706" height="4.50695" transform="matrix(1 0 0 -1 0 24.79)" fill="white"/>
</g>
<rect width="4.50706" height="4.50695" transform="matrix(1 0 0 -1 5.0708 24.79)" fill="#252525" fill-opacity="0.5"/>
<rect width="4.50706" height="4.50695" transform="matrix(1 0 0 -1 10.1406 24.79)" fill="#252525" fill-opacity="0.5"/>
<rect width="4.50706" height="4.50695" transform="matrix(1 0 0 -1 15.2119 24.79)" fill="#252525" fill-opacity="0.5"/>
<g opacity="0.7" filter="url(#filter2_i_5169_1607)">
<rect width="4.50706" height="4.50695" transform="matrix(1 0 0 -1 20.2812 24.79)" fill="white"/>
</g>
<rect width="4.50706" height="4.50695" transform="matrix(1 0 0 -1 25.3525 24.79)" fill="#252525" fill-opacity="0.5"/>
<g filter="url(#filter3_i_5169_1607)">
<rect width="4.50706" height="4.50695" transform="matrix(1 0 0 -1 30.4224 24.79)" fill="white"/>
</g>
<rect width="4.50706" height="4.50695" transform="matrix(1 0 0 -1 35.4932 24.79)" fill="#252525" fill-opacity="0.5"/>
<rect width="4.50706" height="4.50695" transform="matrix(1 0 0 -1 0 19.7192)" fill="#252525" fill-opacity="0.5"/>
<g opacity="0.4" filter="url(#filter4_i_5169_1607)">
<rect width="4.50706" height="4.50695" transform="matrix(1 0 0 -1 5.0708 19.7192)" fill="white"/>
</g>
<rect width="4.50706" height="4.50695" transform="matrix(1 0 0 -1 10.1406 19.7192)" fill="#252525" fill-opacity="0.5"/>
<g opacity="0.6" filter="url(#filter5_i_5169_1607)">
<rect width="4.50706" height="4.50695" transform="matrix(1 0 0 -1 15.2119 19.7192)" fill="white"/>
</g>
<rect width="4.50706" height="4.50695" transform="matrix(1 0 0 -1 20.2812 19.7192)" fill="#252525" fill-opacity="0.5"/>
<rect width="4.50706" height="4.50695" transform="matrix(1 0 0 -1 25.3525 19.7192)" fill="#252525" fill-opacity="0.5"/>
<rect width="4.50706" height="4.50695" transform="matrix(1 0 0 -1 30.4224 19.7192)" fill="#252525" fill-opacity="0.5"/>
<g filter="url(#filter6_i_5169_1607)">
<rect width="4.50706" height="4.50695" transform="matrix(1 0 0 -1 35.4932 19.7192)" fill="white"/>
</g>
<rect width="4.50706" height="4.50695" transform="matrix(1 0 0 -1 0 14.6483)" fill="#252525" fill-opacity="0.5"/>
<rect width="4.50706" height="4.50695" transform="matrix(1 0 0 -1 5.0708 14.6483)" fill="#252525" fill-opacity="0.5"/>
<g opacity="0.5" filter="url(#filter7_i_5169_1607)">
<rect width="4.50706" height="4.50695" transform="matrix(1 0 0 -1 10.1406 14.6483)" fill="white"/>
</g>
<rect width="4.50706" height="4.50695" transform="matrix(1 0 0 -1 15.2119 14.6483)" fill="#252525" fill-opacity="0.5"/>
<rect width="4.50706" height="4.50695" transform="matrix(1 0 0 -1 20.2812 14.6483)" fill="#252525" fill-opacity="0.5"/>
<rect width="4.50706" height="4.50695" transform="matrix(1 0 0 -1 25.3525 14.6483)" fill="#252525" fill-opacity="0.5"/>
<rect width="4.50706" height="4.50695" transform="matrix(1 0 0 -1 30.4224 14.6483)" fill="#252525" fill-opacity="0.5"/>
<rect width="4.50706" height="4.50695" transform="matrix(1 0 0 -1 35.4932 14.6483)" fill="#252525" fill-opacity="0.5"/>
<rect width="4.50706" height="4.50695" transform="matrix(1 0 0 -1 0 9.57727)" fill="#252525" fill-opacity="0.5"/>
<rect width="4.50706" height="4.50695" transform="matrix(1 0 0 -1 5.0708 9.57727)" fill="#252525" fill-opacity="0.5"/>
<rect width="4.50706" height="4.50695" transform="matrix(1 0 0 -1 10.1406 9.57727)" fill="#252525" fill-opacity="0.5"/>
<rect width="4.50706" height="4.50695" transform="matrix(1 0 0 -1 15.2119 9.57727)" fill="#252525" fill-opacity="0.5"/>
<rect width="4.50706" height="4.50695" transform="matrix(1 0 0 -1 20.2812 9.57727)" fill="#252525" fill-opacity="0.5"/>
<rect width="4.50706" height="4.50695" transform="matrix(1 0 0 -1 25.3525 9.57727)" fill="#252525" fill-opacity="0.5"/>
<rect width="4.50706" height="4.50695" transform="matrix(1 0 0 -1 30.4224 9.57727)" fill="#252525" fill-opacity="0.5"/>
<rect width="4.50706" height="4.50695" transform="matrix(1 0 0 -1 35.4932 9.57727)" fill="#252525" fill-opacity="0.5"/>
<rect width="4.50706" height="4.50695" transform="matrix(1 0 0 -1 0 4.50696)" fill="#252525" fill-opacity="0.5"/>
<rect width="4.50706" height="4.50695" transform="matrix(1 0 0 -1 5.0708 4.50696)" fill="#252525" fill-opacity="0.5"/>
<rect width="4.50706" height="4.50695" transform="matrix(1 0 0 -1 10.1406 4.50696)" fill="#252525" fill-opacity="0.5"/>
<rect width="4.50706" height="4.50695" transform="matrix(1 0 0 -1 15.2119 4.50696)" fill="#252525" fill-opacity="0.5"/>
<rect width="4.50706" height="4.50695" transform="matrix(1 0 0 -1 20.2812 4.50696)" fill="#252525" fill-opacity="0.5"/>
<rect width="4.50706" height="4.50695" transform="matrix(1 0 0 -1 25.3525 4.50696)" fill="#252525" fill-opacity="0.5"/>
<rect width="4.50706" height="4.50695" transform="matrix(1 0 0 -1 30.4224 4.50696)" fill="#252525" fill-opacity="0.5"/>
<rect width="4.50706" height="4.50695" transform="matrix(1 0 0 -1 35.4932 4.50696)" fill="#252525" fill-opacity="0.5"/>
<defs>
<filter id="filter0_i_5169_1607" x="25.3525" y="25.3514" width="4.50684" height="4.50696" filterUnits="userSpaceOnUse" color-interpolation-filters="sRGB">
<feFlood flood-opacity="0" result="BackgroundImageFix"/>
<feBlend mode="normal" in="SourceGraphic" in2="BackgroundImageFix" result="shape"/>
<feColorMatrix in="SourceAlpha" type="matrix" values="0 0 0 0 0 0 0 0 0 0 0 0 0 0 0 0 0 0 127 0" result="hardAlpha"/>
<feOffset/>
<feGaussianBlur stdDeviation="6"/>
<feComposite in2="hardAlpha" operator="arithmetic" k2="-1" k3="1"/>
<feColorMatrix type="matrix" values="0 0 0 0 1 0 0 0 0 1 0 0 0 0 1 0 0 0 0.3 0"/>
<feBlend mode="plus-lighter" in2="shape" result="effect1_innerShadow_5169_1607"/>
</filter>
<filter id="filter1_i_5169_1607" x="0" y="20.2831" width="4.50684" height="4.50696" filterUnits="userSpaceOnUse" color-interpolation-filters="sRGB">
<feFlood flood-opacity="0" result="BackgroundImageFix"/>
<feBlend mode="normal" in="SourceGraphic" in2="BackgroundImageFix" result="shape"/>
<feColorMatrix in="SourceAlpha" type="matrix" values="0 0 0 0 0 0 0 0 0 0 0 0 0 0 0 0 0 0 127 0" result="hardAlpha"/>
<feOffset/>
<feGaussianBlur stdDeviation="6"/>
<feComposite in2="hardAlpha" operator="arithmetic" k2="-1" k3="1"/>
<feColorMatrix type="matrix" values="0 0 0 0 1 0 0 0 0 1 0 0 0 0 1 0 0 0 0.3 0"/>
<feBlend mode="plus-lighter" in2="shape" result="effect1_innerShadow_5169_1607"/>
</filter>
<filter id="filter2_i_5169_1607" x="20.2812" y="20.2831" width="4.50684" height="4.50696" filterUnits="userSpaceOnUse" color-interpolation-filters="sRGB">
<feFlood flood-opacity="0" result="BackgroundImageFix"/>
<feBlend mode="normal" in="SourceGraphic" in2="BackgroundImageFix" result="shape"/>
<feColorMatrix in="SourceAlpha" type="matrix" values="0 0 0 0 0 0 0 0 0 0 0 0 0 0 0 0 0 0 127 0" result="hardAlpha"/>
<feOffset/>
<feGaussianBlur stdDeviation="6"/>
<feComposite in2="hardAlpha" operator="arithmetic" k2="-1" k3="1"/>
<feColorMatrix type="matrix" values="0 0 0 0 1 0 0 0 0 1 0 0 0 0 1 0 0 0 0.3 0"/>
<feBlend mode="plus-lighter" in2="shape" result="effect1_innerShadow_5169_1607"/>
</filter>
<filter id="filter3_i_5169_1607" x="30.4224" y="20.2831" width="4.50684" height="4.50696" filterUnits="userSpaceOnUse" color-interpolation-filters="sRGB">
<feFlood flood-opacity="0" result="BackgroundImageFix"/>
<feBlend mode="normal" in="SourceGraphic" in2="BackgroundImageFix" result="shape"/>
<feColorMatrix in="SourceAlpha" type="matrix" values="0 0 0 0 0 0 0 0 0 0 0 0 0 0 0 0 0 0 127 0" result="hardAlpha"/>
<feOffset/>
<feGaussianBlur stdDeviation="6"/>
<feComposite in2="hardAlpha" operator="arithmetic" k2="-1" k3="1"/>
<feColorMatrix type="matrix" values="0 0 0 0 1 0 0 0 0 1 0 0 0 0 1 0 0 0 0.3 0"/>
<feBlend mode="plus-lighter" in2="shape" result="effect1_innerShadow_5169_1607"/>
</filter>
<filter id="filter4_i_5169_1607" x="5.0708" y="15.2123" width="4.50684" height="4.50696" filterUnits="userSpaceOnUse" color-interpolation-filters="sRGB">
<feFlood flood-opacity="0" result="BackgroundImageFix"/>
<feBlend mode="normal" in="SourceGraphic" in2="BackgroundImageFix" result="shape"/>
<feColorMatrix in="SourceAlpha" type="matrix" values="0 0 0 0 0 0 0 0 0 0 0 0 0 0 0 0 0 0 127 0" result="hardAlpha"/>
<feOffset/>
<feGaussianBlur stdDeviation="6"/>
<feComposite in2="hardAlpha" operator="arithmetic" k2="-1" k3="1"/>
<feColorMatrix type="matrix" values="0 0 0 0 1 0 0 0 0 1 0 0 0 0 1 0 0 0 0.3 0"/>
<feBlend mode="plus-lighter" in2="shape" result="effect1_innerShadow_5169_1607"/>
</filter>
<filter id="filter5_i_5169_1607" x="15.2119" y="15.2123" width="4.50684" height="4.50696" filterUnits="userSpaceOnUse" color-interpolation-filters="sRGB">
<feFlood flood-opacity="0" result="BackgroundImageFix"/>
<feBlend mode="normal" in="SourceGraphic" in2="BackgroundImageFix" result="shape"/>
<feColorMatrix in="SourceAlpha" type="matrix" values="0 0 0 0 0 0 0 0 0 0 0 0 0 0 0 0 0 0 127 0" result="hardAlpha"/>
<feOffset/>
<feGaussianBlur stdDeviation="6"/>
<feComposite in2="hardAlpha" operator="arithmetic" k2="-1" k3="1"/>
<feColorMatrix type="matrix" values="0 0 0 0 1 0 0 0 0 1 0 0 0 0 1 0 0 0 0.3 0"/>
<feBlend mode="plus-lighter" in2="shape" result="effect1_innerShadow_5169_1607"/>
</filter>
<filter id="filter6_i_5169_1607" x="35.4932" y="15.2123" width="4.50684" height="4.50696" filterUnits="userSpaceOnUse" color-interpolation-filters="sRGB">
<feFlood flood-opacity="0" result="BackgroundImageFix"/>
<feBlend mode="normal" in="SourceGraphic" in2="BackgroundImageFix" result="shape"/>
<feColorMatrix in="SourceAlpha" type="matrix" values="0 0 0 0 0 0 0 0 0 0 0 0 0 0 0 0 0 0 127 0" result="hardAlpha"/>
<feOffset/>
<feGaussianBlur stdDeviation="6"/>
<feComposite in2="hardAlpha" operator="arithmetic" k2="-1" k3="1"/>
<feColorMatrix type="matrix" values="0 0 0 0 1 0 0 0 0 1 0 0 0 0 1 0 0 0 0.3 0"/>
<feBlend mode="plus-lighter" in2="shape" result="effect1_innerShadow_5169_1607"/>
</filter>
<filter id="filter7_i_5169_1607" x="10.1406" y="10.1414" width="4.50684" height="4.50696" filterUnits="userSpaceOnUse" color-interpolation-filters="sRGB">
<feFlood flood-opacity="0" result="BackgroundImageFix"/>
<feBlend mode="normal" in="SourceGraphic" in2="BackgroundImageFix" result="shape"/>
<feColorMatrix in="SourceAlpha" type="matrix" values="0 0 0 0 0 0 0 0 0 0 0 0 0 0 0 0 0 0 127 0" result="hardAlpha"/>
<feOffset/>
<feGaussianBlur stdDeviation="6"/>
<feComposite in2="hardAlpha" operator="arithmetic" k2="-1" k3="1"/>
<feColorMatrix type="matrix" values="0 0 0 0 1 0 0 0 0 1 0 0 0 0 1 0 0 0 0.3 0"/>
<feBlend mode="plus-lighter" in2="shape" result="effect1_innerShadow_5169_1607"/>
</filter>
</defs>
</svg>
