<svg width="20" height="20" viewBox="0 0 20 20" fill="none" xmlns="http://www.w3.org/2000/svg">
<path d="M10 0C15.5212 0 20 4.47876 20 10C20 15.5212 15.5212 20 10 20C4.47876 20 0 15.5212 0 10C0 4.47876 4.47876 0 10 0ZM16.8031 13.0309C16.7336 12.4826 16.2703 12.1042 15.6757 12.112C14.7876 12.1236 14.0425 12.583 13.5483 12.888C13.3552 13.0077 13.1892 13.0965 13.0463 13.1622C13.0772 12.7143 13.0502 12.1274 12.8185 11.4826C12.5367 10.7104 12.1583 10.2355 11.888 9.96139C12.2008 9.50579 12.6293 8.8417 12.8301 7.81467C13.0039 6.93822 12.9498 5.57529 12.5521 4.81081C12.471 4.65637 12.3359 4.5444 12.166 4.49807C12.0965 4.47876 11.9653 4.44015 11.7066 4.51351C11.3166 3.70656 11.1815 3.62162 11.0772 3.55212C10.861 3.41313 10.6062 3.38224 10.3668 3.47104C10.0463 3.58687 9.7722 3.89575 9.51351 4.44402C9.4749 4.5251 9.44015 4.60232 9.40927 4.67954C8.91892 4.71429 8.14672 4.89189 7.49421 5.59846C7.41313 5.68726 7.25483 5.7529 7.0888 5.81467H7.09266C6.7529 5.93436 6.59846 6.21235 6.40927 6.71429C6.14672 7.41699 6.41699 8.10811 6.6834 8.55598C6.32046 8.88031 5.83784 9.39768 5.58301 10.0039C5.26641 10.7529 5.23166 11.4865 5.24324 11.8842C4.97297 12.1699 4.55598 12.7066 4.50965 13.3089C4.44788 14.1506 4.7529 14.722 4.88803 14.9305C4.92664 14.9923 4.96911 15.0425 5.01544 15.0927C5 15.1969 4.99614 15.3089 5.0193 15.4247C5.0695 15.695 5.23938 15.9151 5.49807 16.0541C6.00772 16.3243 6.71815 16.4402 7.26641 16.166C7.46332 16.3745 7.82239 16.5753 8.4749 16.5753H8.51351C8.67954 16.5753 10.7876 16.4633 11.4015 16.3127C11.6757 16.2471 11.8649 16.1313 11.9884 16.027C12.3822 15.9035 13.471 15.5328 14.4981 14.8687C15.2239 14.3977 15.4749 14.2973 16.0154 14.166C16.5405 14.0386 16.8687 13.5598 16.8031 13.0309ZM15.8842 13.5985C15.2664 13.7452 14.9537 13.8803 14.1892 14.3784C12.9961 15.1506 11.6911 15.5097 11.6911 15.5097C11.6911 15.5097 11.583 15.6718 11.2703 15.7452C10.7297 15.8764 8.69498 15.9884 8.50965 15.9923C8.01158 15.9961 7.70656 15.8649 7.62162 15.6602C7.36293 15.0425 7.99228 14.7722 7.99228 14.7722C7.99228 14.7722 7.85328 14.6873 7.7722 14.61C7.69884 14.5367 7.62162 14.39 7.59846 14.444C7.50193 14.6795 7.45174 15.2548 7.19305 15.5135C6.83784 15.8726 6.16602 15.7529 5.76834 15.5444C5.33205 15.3127 5.79923 14.7683 5.79923 14.7683C5.79923 14.7683 5.56371 14.9073 5.37452 14.6216C5.20463 14.3591 5.04633 13.9112 5.0888 13.3591C5.13514 12.7297 5.83784 12.1197 5.83784 12.1197C5.83784 12.1197 5.71429 11.1892 6.11969 10.2355C6.48649 9.3668 7.4749 8.66795 7.4749 8.66795C7.4749 8.66795 6.64479 7.74903 6.95367 6.92278C7.15444 6.38224 7.23552 6.3861 7.30116 6.36293C7.53282 6.27413 7.75676 6.17761 7.92278 5.99614C8.7529 5.10039 9.81081 5.27027 9.81081 5.27027C9.81081 5.27027 10.3127 3.74517 10.7761 4.04247C10.9189 4.13513 11.4324 5.27799 11.4324 5.27799C11.4324 5.27799 11.9807 4.95753 12.0425 5.07722C12.3745 5.72201 12.4131 6.95367 12.2664 7.7027C12.0193 8.93822 11.4015 9.60232 11.1544 10.0193C11.0965 10.1158 11.8185 10.4208 12.2741 11.6834C12.695 12.8378 12.3205 13.8069 12.3861 13.9151C12.3977 13.9344 12.4015 13.9421 12.4015 13.9421C12.4015 13.9421 12.8842 13.9807 13.8533 13.3822C14.3707 13.0618 14.9846 12.7027 15.6834 12.695C16.3591 12.6834 16.3938 13.4749 15.8842 13.5985Z" fill="white"/>
</svg>
