<svg width="71" height="34" viewBox="0 0 71 34" fill="none" xmlns="http://www.w3.org/2000/svg">
<path d="M2.49023 14V13.5166H3.69141V4.69824H3.16406C2.52441 4.69824 2.01904 4.896 1.64795 5.2915C1.28174 5.68701 0.957031 6.39014 0.673828 7.40088H0.285645L0.402832 4.25146H9.49219L9.6167 7.40088H9.22852C8.95996 6.41943 8.6377 5.72363 8.26172 5.31348C7.88574 4.90332 7.3877 4.69824 6.76758 4.69824H6.21094V13.5166H7.41211V14H2.49023ZM10.9644 15.7285C10.7349 16.2607 10.4858 16.6538 10.2173 16.9077C9.95361 17.1616 9.65576 17.2886 9.32373 17.2886C9.01611 17.2886 8.7793 17.208 8.61328 17.0469C8.44727 16.8906 8.36426 16.666 8.36426 16.373C8.36426 16.1191 8.44727 15.9067 8.61328 15.7358C8.78418 15.5698 8.99658 15.4868 9.25049 15.4868C9.49951 15.4868 9.70703 15.5698 9.87305 15.7358C10.0439 15.9067 10.1514 15.9922 10.1953 15.9922C10.2734 15.9922 10.3394 15.9629 10.3931 15.9043C10.4468 15.8457 10.5103 15.731 10.5835 15.5601L11.2427 14.0146L8.48877 8.60205H7.85889V8.14795H11.4404V8.60205H10.708L12.1729 11.7368L13.2861 9.17334C13.3203 9.1001 13.3423 9.0415 13.3521 8.99756C13.3667 8.94873 13.374 8.89502 13.374 8.83643C13.374 8.76318 13.3398 8.70703 13.2715 8.66797C13.2031 8.62402 13.103 8.60205 12.9712 8.60205H12.3999V8.14795H14.7437V8.60205H14.3335C14.2017 8.60205 14.0967 8.63379 14.0186 8.69727C13.9404 8.76074 13.8721 8.86816 13.8135 9.01953L10.9644 15.7285ZM20.5664 12.6377V9.54688C20.5664 9.07324 20.5103 8.76562 20.3979 8.62402C20.2905 8.47754 20.0952 8.4043 19.812 8.4043C19.3188 8.4043 18.9209 8.59717 18.6182 8.98291C18.3154 9.36865 18.1641 9.88135 18.1641 10.521V11.6416C18.1641 12.291 18.313 12.8062 18.6108 13.187C18.9136 13.5679 19.314 13.7583 19.812 13.7583C20.0903 13.7583 20.2856 13.6826 20.3979 13.5312C20.5103 13.3799 20.5664 13.082 20.5664 12.6377ZM15.2563 17.2886V16.8345H16.0913V8.60205H15.1172V8.15527C15.6641 8.13574 16.189 8.11133 16.6919 8.08203C17.1997 8.05273 17.6904 8.01611 18.1641 7.97217V9.09277C18.3887 8.7168 18.6597 8.43604 18.9771 8.25049C19.2993 8.06494 19.668 7.97217 20.083 7.97217C20.8789 7.97217 21.5381 8.26758 22.0605 8.8584C22.583 9.44434 22.8442 10.189 22.8442 11.0923C22.8442 11.9663 22.5781 12.7012 22.0459 13.2969C21.5186 13.8877 20.8643 14.1831 20.083 14.1831C19.6631 14.1831 19.2944 14.0928 18.9771 13.9121C18.6597 13.7266 18.3887 13.4458 18.1641 13.0698V16.8345H19.2407V17.2886H15.2563ZM26.2866 10.3672H28.2715V9.23193C28.2715 8.91455 28.1909 8.68506 28.0298 8.54346C27.8735 8.40186 27.6221 8.33105 27.2754 8.33105C26.9434 8.33105 26.6943 8.40674 26.5283 8.55811C26.3672 8.70459 26.2866 8.9292 26.2866 9.23193V10.3672ZM29.9487 12.0225L30.293 12.1396C30.0439 12.8281 29.6777 13.3384 29.1943 13.6704C28.7158 14.0024 28.0981 14.1685 27.3413 14.1685C26.3013 14.1685 25.4712 13.8926 24.8511 13.3408C24.231 12.7891 23.9209 12.0542 23.9209 11.1362C23.9209 10.228 24.2407 9.47363 24.8804 8.87305C25.5249 8.27246 26.3354 7.97217 27.312 7.97217C28.2104 7.97217 28.9185 8.22119 29.436 8.71924C29.9585 9.2124 30.2197 9.88867 30.2197 10.748V10.8213H26.2866V12.2935C26.2866 12.8647 26.3745 13.2578 26.5503 13.4727C26.731 13.6826 27.0435 13.7876 27.4878 13.7876C28.0884 13.7876 28.5938 13.6411 29.0039 13.3481C29.4141 13.0503 29.729 12.6084 29.9487 12.0225ZM31.5088 14.1172V11.2534H32.0801C32.3291 12.0835 32.6978 12.7109 33.186 13.1357C33.6792 13.5605 34.2822 13.7729 34.9951 13.7729C35.6348 13.7729 36.1646 13.6021 36.5845 13.2603C37.0044 12.9185 37.2144 12.4839 37.2144 11.9565C37.2144 11.6733 37.1631 11.4414 37.0605 11.2607C36.9629 11.0752 36.7944 10.9043 36.5552 10.748C36.2817 10.5674 35.7422 10.3843 34.9365 10.1987C34.6387 10.1304 34.4116 10.0767 34.2554 10.0376C33.313 9.79834 32.627 9.44678 32.1973 8.98291C31.7725 8.51904 31.5601 7.89648 31.5601 7.11523C31.5601 6.20215 31.8433 5.46484 32.4097 4.90332C32.981 4.33691 33.7256 4.05371 34.6436 4.05371C35.0195 4.05371 35.3687 4.10742 35.6909 4.21484C36.0181 4.31738 36.3257 4.47363 36.6138 4.68359L37.1484 4.25146H37.6172L37.6758 6.82959H37.1851C36.9946 6.07275 36.6772 5.49658 36.2329 5.10107C35.7886 4.70557 35.2344 4.50781 34.5703 4.50781C34.0186 4.50781 33.5645 4.64209 33.208 4.91064C32.8564 5.1792 32.6807 5.51855 32.6807 5.92871C32.6807 6.54395 33.3325 6.99561 34.6362 7.28369C34.812 7.32275 34.9463 7.35205 35.0391 7.37158C36.2549 7.65479 37.1069 8.05762 37.5952 8.58008C38.0884 9.09766 38.335 9.83496 38.335 10.792C38.335 11.7783 38.02 12.5986 37.3901 13.2529C36.7651 13.9023 35.9766 14.2271 35.0244 14.2271C34.541 14.2271 34.1162 14.1709 33.75 14.0586C33.3838 13.9512 33.042 13.7778 32.7246 13.5386L32.0508 14.1172H31.5088ZM45.2783 12.0225L45.6226 12.1396C45.3931 12.8086 45.0537 13.3115 44.6045 13.6484C44.1553 13.9805 43.606 14.1465 42.9565 14.1465C42.0142 14.1465 41.2256 13.8486 40.5908 13.2529C39.9561 12.6572 39.6387 11.9224 39.6387 11.0483C39.6387 10.1938 39.9707 9.46875 40.6348 8.87305C41.3037 8.27246 42.1216 7.97217 43.0884 7.97217C43.7622 7.97217 44.3091 8.12598 44.729 8.43359C45.1538 8.74121 45.3662 9.13672 45.3662 9.62012C45.3662 9.89844 45.2759 10.1279 45.0952 10.3086C44.9146 10.4893 44.6851 10.5796 44.4067 10.5796C44.0942 10.5796 43.8452 10.4893 43.6597 10.3086C43.479 10.1279 43.3887 9.88379 43.3887 9.57617C43.3887 9.35156 43.4668 9.14893 43.623 8.96826C43.7793 8.78271 43.8574 8.68018 43.8574 8.66064C43.8574 8.54346 43.7939 8.45801 43.667 8.4043C43.5449 8.3457 43.3521 8.31641 43.0884 8.31641C42.6489 8.31641 42.3462 8.41895 42.1802 8.62402C42.0142 8.8291 41.9312 9.33691 41.9312 10.1475V11.9419C41.9312 12.689 42.0166 13.1748 42.1875 13.3994C42.3584 13.6191 42.6685 13.729 43.1177 13.729C43.6353 13.729 44.0747 13.585 44.436 13.2969C44.8022 13.0088 45.083 12.584 45.2783 12.0225ZM46.7651 14V13.5532H47.5635V8.60205H46.7505V8.15527C47.2241 8.13574 47.6953 8.11133 48.1641 8.08203C48.6377 8.05273 49.1113 8.01611 49.585 7.97217V9.57617C49.7852 9.07324 50.0464 8.68018 50.3687 8.39697C50.6958 8.11377 51.0449 7.97217 51.416 7.97217C51.7871 7.97217 52.0972 8.0918 52.3462 8.33105C52.5952 8.57031 52.7197 8.86572 52.7197 9.21729C52.7197 9.52979 52.6196 9.78857 52.4194 9.99365C52.2192 10.1938 51.9653 10.2939 51.6577 10.2939C51.3892 10.2939 51.1621 10.1963 50.9766 10.001C50.791 9.80566 50.6982 9.56885 50.6982 9.29053C50.6982 9.18311 50.7275 9.07324 50.7861 8.96094C50.8447 8.84863 50.874 8.77295 50.874 8.73389C50.874 8.70947 50.8618 8.68994 50.8374 8.67529C50.8179 8.65576 50.791 8.646 50.7568 8.646C50.542 8.646 50.3003 8.8877 50.0317 9.37109C49.7632 9.85449 49.6289 10.3623 49.6289 10.8945V13.5532H50.7129V14H46.7651ZM53.9722 5.61377C53.9722 5.32568 54.0747 5.0791 54.2798 4.87402C54.4897 4.66895 54.7388 4.56641 55.0269 4.56641C55.3101 4.56641 55.5493 4.66895 55.7446 4.87402C55.9448 5.07422 56.0449 5.3208 56.0449 5.61377C56.0449 5.90186 55.9448 6.15088 55.7446 6.36084C55.5444 6.56592 55.3003 6.66846 55.0122 6.66846C54.7241 6.66846 54.4775 6.56592 54.2725 6.36084C54.0723 6.15088 53.9722 5.90186 53.9722 5.61377ZM53.1372 14V13.5532H54.0161V8.60205H53.042L53.0493 8.14795C53.5913 8.1333 54.1138 8.11133 54.6167 8.08203C55.1245 8.05273 55.6152 8.01611 56.0889 7.97217V13.5532H57.019V14H53.1372ZM62.5781 12.6377V9.54688C62.5781 9.07324 62.522 8.76562 62.4097 8.62402C62.3022 8.47754 62.1069 8.4043 61.8237 8.4043C61.3306 8.4043 60.9326 8.59717 60.6299 8.98291C60.3271 9.36865 60.1758 9.88135 60.1758 10.521V11.6416C60.1758 12.291 60.3247 12.8062 60.6226 13.187C60.9253 13.5679 61.3257 13.7583 61.8237 13.7583C62.1021 13.7583 62.2974 13.6826 62.4097 13.5312C62.522 13.3799 62.5781 13.082 62.5781 12.6377ZM57.2681 17.2886V16.8345H58.103V8.60205H57.1289V8.15527C57.6758 8.13574 58.2007 8.11133 58.7036 8.08203C59.2114 8.05273 59.7021 8.01611 60.1758 7.97217V9.09277C60.4004 8.7168 60.6714 8.43604 60.9888 8.25049C61.311 8.06494 61.6797 7.97217 62.0947 7.97217C62.8906 7.97217 63.5498 8.26758 64.0723 8.8584C64.5947 9.44434 64.856 10.189 64.856 11.0923C64.856 11.9663 64.5898 12.7012 64.0576 13.2969C63.5303 13.8877 62.876 14.1831 62.0947 14.1831C61.6748 14.1831 61.3062 14.0928 60.9888 13.9121C60.6714 13.7266 60.4004 13.4458 60.1758 13.0698V16.8345H61.2524V17.2886H57.2681ZM66.5332 12.667V8.5874H65.6763V8.1333H66.5332V6.2876C66.6309 6.31201 66.7383 6.3291 66.8555 6.33887C66.9775 6.34863 67.1582 6.35352 67.3975 6.35352C67.6123 6.35352 67.8125 6.34863 67.998 6.33887C68.1836 6.32422 68.3643 6.30713 68.54 6.2876V8.1333H69.7412V8.5874H68.54V12.667C68.54 12.9209 68.5742 13.0942 68.6426 13.187C68.7109 13.2798 68.8379 13.3262 69.0234 13.3262C69.209 13.3262 69.3604 13.2505 69.4775 13.0991C69.5996 12.9429 69.6729 12.7329 69.6973 12.4692H70.1001C70.0708 12.9771 69.8657 13.3848 69.4849 13.6924C69.104 13.9951 68.6133 14.1465 68.0127 14.1465C67.4463 14.1465 67.0581 14.0537 66.8481 13.8682C66.6382 13.6777 66.5332 13.2773 66.5332 12.667ZM8.11523 23.7563L9.03076 21.6689H7.229L8.11523 23.7563ZM4.86328 31.2271L0.944824 21.6982H0.117188V21.2515H10.3638V21.6982H9.93164C9.78516 21.6982 9.66797 21.7324 9.58008 21.8008C9.49707 21.8643 9.41406 21.9912 9.33105 22.1816L8.37158 24.313L9.99023 28.0776L11.9531 22.665C11.9971 22.5479 12.0312 22.438 12.0557 22.3354C12.0801 22.228 12.0923 22.1401 12.0923 22.0718C12.0923 21.9351 12.0557 21.8398 11.9824 21.7861C11.9141 21.7275 11.7847 21.6982 11.5942 21.6982H10.9937V21.2515H13.8428V21.6982H13.3813C13.1616 21.6982 12.9834 21.7617 12.8467 21.8887C12.7148 22.0156 12.5732 22.2866 12.4219 22.7017L9.33105 31.2271H8.92822L7.17041 27.0229L5.26611 31.2271H4.86328ZM6.08643 28.2681L6.91406 26.4224L4.90723 21.6689H3.37646L6.08643 28.2681ZM14.4067 22.6138C14.4067 22.3257 14.5093 22.0791 14.7144 21.874C14.9243 21.6689 15.1733 21.5664 15.4614 21.5664C15.7446 21.5664 15.9839 21.6689 16.1792 21.874C16.3794 22.0742 16.4795 22.3208 16.4795 22.6138C16.4795 22.9019 16.3794 23.1509 16.1792 23.3608C15.979 23.5659 15.7349 23.6685 15.4468 23.6685C15.1587 23.6685 14.9121 23.5659 14.707 23.3608C14.5068 23.1509 14.4067 22.9019 14.4067 22.6138ZM13.5718 31V30.5532H14.4507V25.6021H13.4766L13.4839 25.1479C14.0259 25.1333 14.5483 25.1113 15.0513 25.082C15.5591 25.0527 16.0498 25.0161 16.5234 24.9722V30.5532H17.4536V31H13.5718ZM17.937 31V30.6851L21.2402 25.6021H20.2222C19.8755 25.6021 19.5874 25.729 19.3579 25.9829C19.1333 26.2319 18.8867 26.7202 18.6182 27.4478H18.208L18.2812 25.1479H23.5327V25.5068L20.2515 30.5532H21.2695C21.6895 30.5532 22.0361 30.4092 22.3096 30.1211C22.583 29.833 22.8711 29.291 23.1738 28.4951H23.5767L23.4741 31H17.937ZM28.5938 30.1284C28.2959 30.4849 27.9688 30.7437 27.6123 30.9048C27.2607 31.0659 26.8384 31.1465 26.3452 31.1465C25.8423 31.1465 25.4541 31.0195 25.1807 30.7656C24.9072 30.5117 24.7705 30.1504 24.7705 29.6816C24.7705 29.0469 25.1099 28.5415 25.7886 28.1655C26.4673 27.7847 27.3877 27.5942 28.5498 27.5942V26.1733C28.5498 25.8462 28.479 25.6289 28.3374 25.5215C28.2007 25.4141 27.937 25.3604 27.5464 25.3604C27.2925 25.3604 27.0996 25.3896 26.9678 25.4482C26.8408 25.5068 26.7773 25.5923 26.7773 25.7046C26.7773 25.7339 26.8213 25.8315 26.9092 25.9976C27.002 26.1587 27.0483 26.3223 27.0483 26.4883C27.0483 26.7715 26.9604 26.9888 26.7847 27.1401C26.6138 27.2915 26.3672 27.3672 26.0449 27.3672C25.7617 27.3672 25.542 27.2891 25.3857 27.1328C25.2344 26.9766 25.1587 26.7495 25.1587 26.4517C25.1587 25.9829 25.4004 25.6191 25.8838 25.3604C26.3672 25.1016 27.0508 24.9722 27.9346 24.9722C28.3252 24.9722 28.6792 25.0015 28.9966 25.0601C29.314 25.1138 29.5752 25.1943 29.7803 25.3018C30.0098 25.4189 30.1685 25.563 30.2563 25.7339C30.3491 25.9048 30.3955 26.2148 30.3955 26.6641V29.6963C30.3955 29.8721 30.4321 30.0015 30.5054 30.0845C30.5835 30.1626 30.7031 30.2017 30.8643 30.2017C30.9326 30.2017 31.0034 30.1797 31.0767 30.1357C31.1548 30.0918 31.2085 30.0698 31.2378 30.0698C31.2769 30.0698 31.311 30.0845 31.3403 30.1138C31.3696 30.1431 31.3843 30.1797 31.3843 30.2236C31.3843 30.4092 31.2402 30.6094 30.9521 30.8242C30.6689 31.0391 30.3442 31.1465 29.978 31.1465C29.6509 31.1465 29.3652 31.0562 29.1211 30.8755C28.877 30.6948 28.7012 30.4458 28.5938 30.1284ZM28.5498 27.9971H28.374C27.7686 27.9971 27.3438 28.085 27.0996 28.2607C26.8555 28.4316 26.7334 28.7246 26.7334 29.1396C26.7334 29.5645 26.7969 29.8696 26.9238 30.0552C27.0557 30.2358 27.2681 30.3262 27.561 30.3262C27.854 30.3262 28.0908 30.2285 28.2715 30.0332C28.457 29.8379 28.5498 29.5791 28.5498 29.2568V27.9971ZM31.897 31V30.5532H32.6953V25.6021H31.8823V25.1553C32.356 25.1357 32.8271 25.1113 33.2959 25.082C33.7695 25.0527 34.2432 25.0161 34.7168 24.9722V26.5762C34.917 26.0732 35.1782 25.6802 35.5005 25.397C35.8276 25.1138 36.1768 24.9722 36.5479 24.9722C36.9189 24.9722 37.229 25.0918 37.478 25.3311C37.7271 25.5703 37.8516 25.8657 37.8516 26.2173C37.8516 26.5298 37.7515 26.7886 37.5513 26.9937C37.3511 27.1938 37.0972 27.2939 36.7896 27.2939C36.521 27.2939 36.2939 27.1963 36.1084 27.001C35.9229 26.8057 35.8301 26.5688 35.8301 26.2905C35.8301 26.1831 35.8594 26.0732 35.918 25.9609C35.9766 25.8486 36.0059 25.7729 36.0059 25.7339C36.0059 25.7095 35.9937 25.6899 35.9692 25.6753C35.9497 25.6558 35.9229 25.646 35.8887 25.646C35.6738 25.646 35.4321 25.8877 35.1636 26.3711C34.895 26.8545 34.7607 27.3623 34.7607 27.8945V30.5532H35.8447V31H31.897ZM43.1177 28.6416V27.521C43.1177 26.8765 42.9639 26.3638 42.6562 25.9829C42.3535 25.5972 41.9531 25.4043 41.4551 25.4043C41.1768 25.4043 40.9839 25.4775 40.8765 25.624C40.769 25.7705 40.7153 26.0635 40.7153 26.5029V29.623C40.7153 30.0674 40.769 30.3677 40.8765 30.5239C40.9888 30.6802 41.1816 30.7583 41.4551 30.7583C41.9531 30.7583 42.3535 30.5679 42.6562 30.187C42.9639 29.8013 43.1177 29.2861 43.1177 28.6416ZM43.1177 31V30.0698C42.8931 30.4409 42.6196 30.7192 42.2974 30.9048C41.98 31.0903 41.6089 31.1831 41.1841 31.1831C40.4028 31.1831 39.7461 30.8877 39.2139 30.2969C38.6865 29.7012 38.4229 28.9663 38.4229 28.0923C38.4229 27.189 38.6841 26.4443 39.2065 25.8584C39.729 25.2676 40.3882 24.9722 41.1841 24.9722C41.604 24.9722 41.9751 25.0674 42.2974 25.2578C42.6196 25.4434 42.8931 25.7217 43.1177 26.0928V21.6982H41.9604L41.9678 21.2515C42.5879 21.2368 43.1641 21.2148 43.6963 21.1855C44.2285 21.1514 44.7095 21.1123 45.1392 21.0684V30.5532H45.9521V31H43.1177Z" fill="white"/>
</svg>
