<svg width="72" height="20" viewBox="0 0 72 20" fill="none" xmlns="http://www.w3.org/2000/svg">
<g clip-path="url(#clip0_762_570)">
<path d="M53.144 15.5166C52.3538 15.5166 51.7062 15.3738 51.2123 14.9452C50.9782 14.7257 50.7949 14.4575 50.6754 14.1594C50.556 13.8613 50.5032 13.5406 50.5209 13.2199V6.62654C50.5209 5.91225 50.7294 5.31885 51.2123 4.90126C51.7062 4.47269 52.3538 4.31885 53.144 4.31885H57.4245C58.2257 4.31885 58.8623 4.47269 59.3562 4.90126C59.8392 5.31885 60.0367 5.91225 60.0367 6.61555V13.2199C60.0558 13.5398 60.0047 13.86 59.8872 14.158C59.7696 14.456 59.5884 14.7247 59.3562 14.9452C58.8623 15.3738 58.2257 15.5166 57.4245 15.5166H53.144ZM56.4587 13.3628C56.7331 13.3628 56.9855 13.3628 57.1391 13.2199C57.3038 13.0881 57.4245 12.8903 57.4245 12.6485V7.19797C57.4245 6.94522 57.3148 6.75841 57.1391 6.61555C56.9855 6.48368 56.7331 6.47269 56.4587 6.47269H54.1099C53.8135 6.47269 53.5611 6.48368 53.4184 6.61555C53.3328 6.68652 53.2638 6.77549 53.2164 6.87615C53.169 6.9768 53.1443 7.08668 53.144 7.19797V12.6375C53.144 12.8903 53.2538 13.0771 53.4184 13.209C53.5721 13.3518 53.8135 13.3518 54.1099 13.3518H56.4587V13.3628ZM48.0733 15.4068H45.4391V4.43973H48.0733V15.4068ZM36.0879 15.4068H33.4757V4.43973H36.2416L40.3794 11.143V4.43973H43.0026V15.4068H40.2367L36.0989 8.70346V15.4068H36.0879ZM65.0745 15.3738H62.4514V4.39577H65.2062L69.355 11.0991V4.39577H71.9782V15.3738H69.2123L65.0745 8.67049V15.3738ZM24.2562 15.5166C23.455 15.5166 22.8074 15.3738 22.3135 14.9452C21.8306 14.5057 21.6221 13.9123 21.6221 13.2199V4.42874H24.2562V12.6375C24.2562 12.8903 24.366 13.0771 24.5306 13.2199C24.6843 13.3518 24.9257 13.3628 25.2221 13.3628H27.4282C27.7245 13.3628 27.977 13.3628 28.1196 13.2199C28.2733 13.0771 28.405 12.8903 28.405 12.6375V4.43973H31.0391V13.2199C31.0391 13.9123 30.8196 14.5057 30.3367 14.9452C29.8538 15.3738 29.2062 15.5166 28.405 15.5166H24.2452H24.2562Z" fill="white"/>
<path fill-rule="evenodd" clip-rule="evenodd" d="M13.2805 13.2969C13.2805 15.0601 12.5809 16.7512 11.3356 17.998C10.0903 19.2448 8.40135 19.9452 6.64024 19.9452C4.87914 19.9452 3.19017 19.2448 1.94488 17.998C0.699595 16.7512 0 15.0601 0 13.2969H3.24878C3.26322 14.1888 3.62876 15.0389 4.26591 15.6625C4.90306 16.286 5.76029 16.6325 6.65122 16.6265C7.53649 16.6267 8.3865 16.2792 9.0186 15.6586C9.65071 15.0381 10.0145 14.194 10.0317 13.3079H13.2915L13.2805 13.2969Z" fill="white"/>
<path d="M15.0366 11.5604H18.2964V8.28564H15.0366V11.5604ZM13.2805 8.28564H10.0317V11.5604H13.2805V8.28564ZM5.00488 11.5604H8.27561V8.28564H5.00488V11.5604ZM3.27073 8.28564H0V11.5604H3.27073V8.28564Z" fill="white"/>
<path fill-rule="evenodd" clip-rule="evenodd" d="M5.00488 6.64847C5.00488 4.88376 5.70506 3.19133 6.95137 1.94349C8.19769 0.695657 9.88806 -0.00537109 11.6506 -0.00537109C13.4132 -0.00537109 15.1035 0.695657 16.3499 1.94349C17.5962 3.19133 18.2963 4.88376 18.2963 6.64847H15.0476C15.0303 5.75848 14.6635 4.91113 14.0266 4.28997C13.3898 3.66881 12.5342 3.32384 11.6451 3.32979C10.7599 3.32962 9.90985 3.67715 9.27775 4.2977C8.64564 4.91825 8.28189 5.76229 8.26464 6.64847H5.00488Z" fill="white"/>
</g>
<defs>
<clipPath id="clip0_762_570">
<rect width="72" height="20" fill="white"/>
</clipPath>
</defs>
</svg>
