<svg width="120" height="32" viewBox="0 0 120 32" fill="none" xmlns="http://www.w3.org/2000/svg">
<g clip-path="url(#clip0_463_1055)">
<path fill-rule="evenodd" clip-rule="evenodd" d="M27.0736 28L13.2868 4L-0.5 28H27.0736ZM40.9796 26.9075L52.5014 5.09097H47.5177L39.5698 20.9349L31.6218 5.09097H26.6381L38.1599 26.9075H40.9796ZM119.5 5.09097V26.9076H115.374V5.09097H119.5ZM96.5342 18.7646C96.5342 17.0644 96.8887 15.5689 97.5977 14.2784C98.3068 12.9878 99.2954 11.9943 100.563 11.2978C101.831 10.6014 103.314 10.2531 105.011 10.2531C106.516 10.2531 107.869 10.5809 109.073 11.2364C110.276 11.8919 111.232 12.8649 111.941 14.1555C112.65 15.4461 113.016 17.0234 113.037 18.8875V19.8401H100.886C100.971 21.1921 101.369 22.2573 102.078 23.0358C102.809 23.7937 103.787 24.1727 105.011 24.1727C105.785 24.1727 106.494 23.9678 107.138 23.5581C107.783 23.1484 108.267 22.5954 108.589 21.8989L112.812 22.2061C112.296 23.7425 111.329 24.9716 109.911 25.8934C108.492 26.8153 106.859 27.2762 105.011 27.2762C103.314 27.2762 101.831 26.9279 100.563 26.2314C99.2954 25.535 98.3068 24.5414 97.5977 23.2509C96.8887 21.9603 96.5342 20.4649 96.5342 18.7646ZM108.782 17.2283C108.632 15.8967 108.213 14.9237 107.525 14.3091C106.838 13.6741 106 13.3566 105.011 13.3566C103.872 13.3566 102.949 13.6946 102.239 14.3706C101.53 15.0466 101.09 15.9991 100.918 17.2283H108.782ZM89.5724 14.3091C90.2602 14.8622 90.6896 15.6304 90.8619 16.6137L95.1161 16.3986C94.9657 15.149 94.5256 14.0633 93.7948 13.1415C93.0639 12.2196 92.1189 11.5129 90.958 11.0213C89.8196 10.5091 88.5625 10.2531 87.1869 10.2531C85.4893 10.2531 84.0069 10.6014 82.7386 11.2978C81.471 11.9943 80.4823 12.9878 79.7733 14.2784C79.0643 15.5689 78.7098 17.0644 78.7098 18.7646C78.7098 20.4649 79.0643 21.9603 79.7733 23.2509C80.4823 24.5414 81.471 25.535 82.7386 26.2314C84.0069 26.9279 85.4893 27.2762 87.1869 27.2762C88.605 27.2762 89.8945 27.0201 91.0548 26.508C92.2157 25.9754 93.1607 25.2277 93.8915 24.2648C94.6224 23.3021 95.0624 22.1754 95.2128 20.8848L90.9262 20.7004C90.7758 21.7862 90.3564 22.6261 89.6691 23.2201C88.9813 23.7937 88.1537 24.0805 87.1869 24.0805C85.855 24.0805 84.8233 23.6196 84.0924 22.6977C83.3621 21.7759 82.997 20.4649 82.997 18.7646C82.997 17.0644 83.3621 15.7533 84.0924 14.8315C84.8233 13.9097 85.855 13.4488 87.1869 13.4488C88.1113 13.4488 88.9058 13.7356 89.5724 14.3091ZM68.6429 10.6211H72.4824L72.5933 13.7555C72.8658 12.8683 73.2445 12.1793 73.73 11.6885C74.4337 10.9769 75.4153 10.6211 76.6735 10.6211H78.2414V13.976H76.6416C75.7456 13.976 75.01 14.098 74.4337 14.3419C73.8792 14.586 73.4527 14.9722 73.1543 15.5009C72.877 16.0296 72.7384 16.7005 72.7384 17.5138V26.9075H68.6429V10.6211ZM50.9332 14.2784C50.2241 15.5689 49.8695 17.0644 49.8695 18.7646C49.8695 20.4649 50.2241 21.9603 50.9332 23.2509C51.6423 24.5414 52.6308 25.535 53.8987 26.2314C55.1665 26.9279 56.6492 27.2762 58.3468 27.2762C60.1946 27.2762 61.828 26.8153 63.246 25.8934C64.6647 24.9716 65.6315 23.7425 66.1471 22.2061L61.9247 21.8989C61.6026 22.5954 61.1189 23.1484 60.4742 23.5581C59.8294 23.9678 59.1204 24.1727 58.3468 24.1727C57.122 24.1727 56.1442 23.7937 55.4136 23.0358C54.7044 22.2573 54.3069 21.1921 54.221 19.8401H66.373V18.8875C66.3512 17.0234 65.986 15.4461 65.277 14.1555C64.568 12.8649 63.6118 11.8919 62.4084 11.2364C61.205 10.5809 59.8513 10.2531 58.3468 10.2531C56.6492 10.2531 55.1665 10.6014 53.8987 11.2978C52.6308 11.9943 51.6423 12.9878 50.9332 14.2784ZM60.8611 14.3091C61.5484 14.9237 61.9678 15.8967 62.1182 17.2283H54.2532C54.4251 15.9991 54.8657 15.0466 55.5748 14.3706C56.2839 13.6946 57.2079 13.3566 58.3468 13.3566C59.3351 13.3566 60.1733 13.6741 60.8611 14.3091Z" fill="white"/>
</g>
<defs>
<clipPath id="clip0_463_1055">
<rect width="120" height="32" fill="white"/>
</clipPath>
</defs>
</svg>
